  0
SECTION
  2
BLOCKS
  0
ENDSEC
  0
SECTION
  2
ENTITIES
  0
LINE
  8
0
 10
-48
 20
-39
 11
13
 21
-39
  0
LINE
  8
0
 10
13
 20
-39
 11
14.2435
 21
-38.8429
  0
LINE
  8
0
 10
14.2435
 20
-38.8429
 11
15.4088
 21
-38.3815
  0
LINE
  8
0
 10
15.4088
 20
-38.3815
 11
16.4227
 21
-37.6448
  0
LINE
  8
0
 10
16.4227
 20
-37.6448
 11
17.2216
 21
-36.6791
  0
LINE
  8
0
 10
17.2216
 20
-36.6791
 11
17.7553
 21
-35.5451
  0
LINE
  8
0
 10
17.7553
 20
-35.5451
 11
18
 21
-34
  0
LINE
  8
0
 10
18
 20
-34
 11
18
 21
34
  0
LINE
  8
0
 10
18
 20
34
 11
17.8429
 21
35.2435
  0
LINE
  8
0
 10
17.8429
 20
35.2435
 11
17.3815
 21
36.4088
  0
LINE
  8
0
 10
17.3815
 20
36.4088
 11
16.6448
 21
37.4227
  0
LINE
  8
0
 10
16.6448
 20
37.4227
 11
15.6791
 21
38.2216
  0
LINE
  8
0
 10
15.6791
 20
38.2216
 11
14.5451
 21
38.7553
  0
LINE
  8
0
 10
14.5451
 20
38.7553
 11
13
 21
39
  0
LINE
  8
0
 10
13
 20
39
 11
-48
 21
39
  0
LINE
  8
0
 10
-48
 20
39
 11
-48
 21
39.5
  0
LINE
  8
0
 10
-48
 20
39.5
 11
-68
 21
39.5
  0
LINE
  8
0
 10
-68
 20
39.5
 11
-68
 21
39
  0
LINE
  8
0
 10
-68
 20
39
 11
-82
 21
39
  0
LINE
  8
0
 10
-82
 20
39
 11
-83.2435
 21
38.8429
  0
LINE
  8
0
 10
-83.2435
 20
38.8429
 11
-84.4088
 21
38.3815
  0
LINE
  8
0
 10
-84.4088
 20
38.3815
 11
-85.4227
 21
37.6448
  0
LINE
  8
0
 10
-85.4227
 20
37.6448
 11
-86.2216
 21
36.6791
  0
LINE
  8
0
 10
-86.2216
 20
36.6791
 11
-86.7553
 21
35.5451
  0
LINE
  8
0
 10
-86.7553
 20
35.5451
 11
-87
 21
34
  0
LINE
  8
0
 10
-87
 20
34
 11
-87
 21
-34
  0
LINE
  8
0
 10
-87
 20
-34
 11
-86.8429
 21
-35.2435
  0
LINE
  8
0
 10
-86.8429
 20
-35.2435
 11
-86.3815
 21
-36.4088
  0
LINE
  8
0
 10
-86.3815
 20
-36.4088
 11
-85.6448
 21
-37.4227
  0
LINE
  8
0
 10
-85.6448
 20
-37.4227
 11
-84.6791
 21
-38.2216
  0
LINE
  8
0
 10
-84.6791
 20
-38.2216
 11
-83.5451
 21
-38.7553
  0
LINE
  8
0
 10
-83.5451
 20
-38.7553
 11
-82
 21
-39
  0
LINE
  8
0
 10
-82
 20
-39
 11
-68
 21
-39
  0
LINE
  8
0
 10
-68
 20
-39
 11
-68
 21
-39.5
  0
LINE
  8
0
 10
-68
 20
-39.5
 11
-48
 21
-39.5
  0
LINE
  8
0
 10
-48
 20
-39.5
 11
-48
 21
-39
  0
LINE
  8
0
 10
9.43785
 20
22.0531
 11
8.72266
 21
22.2855
  0
LINE
  8
0
 10
8.72266
 20
22.2855
 11
8.08772
 21
22.6884
  0
LINE
  8
0
 10
8.08772
 20
22.6884
 11
7.57294
 21
23.2366
  0
LINE
  8
0
 10
7.57294
 20
23.2366
 11
7.21066
 21
23.8956
  0
LINE
  8
0
 10
7.21066
 20
23.8956
 11
7.02365
 21
24.624
  0
LINE
  8
0
 10
7.02365
 20
24.624
 11
7.02365
 21
25.376
  0
LINE
  8
0
 10
7.02365
 20
25.376
 11
7.21066
 21
26.1044
  0
LINE
  8
0
 10
7.21066
 20
26.1044
 11
7.57294
 21
26.7634
  0
LINE
  8
0
 10
7.57294
 20
26.7634
 11
8.08772
 21
27.3115
  0
LINE
  8
0
 10
8.08772
 20
27.3115
 11
8.72266
 21
27.7145
  0
LINE
  8
0
 10
8.72266
 20
27.7145
 11
9.43785
 21
27.9469
  0
LINE
  8
0
 10
9.43785
 20
27.9469
 11
10.1884
 21
27.9941
  0
LINE
  8
0
 10
10.1884
 20
27.9941
 11
10.927
 21
27.8532
  0
LINE
  8
0
 10
10.927
 20
27.8532
 11
11.6075
 21
27.533
  0
LINE
  8
0
 10
11.6075
 20
27.533
 11
12.1869
 21
27.0536
  0
LINE
  8
0
 10
12.1869
 20
27.0536
 11
12.6289
 21
26.4453
  0
LINE
  8
0
 10
12.6289
 20
26.4453
 11
12.9057
 21
25.7461
  0
LINE
  8
0
 10
12.9057
 20
25.7461
 11
13
 21
25
  0
LINE
  8
0
 10
13
 20
25
 11
12.9057
 21
24.2539
  0
LINE
  8
0
 10
12.9057
 20
24.2539
 11
12.6289
 21
23.5547
  0
LINE
  8
0
 10
12.6289
 20
23.5547
 11
12.1869
 21
22.9464
  0
LINE
  8
0
 10
12.1869
 20
22.9464
 11
11.6075
 21
22.467
  0
LINE
  8
0
 10
11.6075
 20
22.467
 11
10.927
 21
22.1468
  0
LINE
  8
0
 10
10.927
 20
22.1468
 11
10.1884
 21
22.0059
  0
LINE
  8
0
 10
10.1884
 20
22.0059
 11
9.43785
 21
22.0531
  0
LINE
  8
0
 10
-35.2811
 20
16.5266
 11
-35.6387
 21
16.6427
  0
LINE
  8
0
 10
-35.6387
 20
16.6427
 11
-35.9561
 21
16.8442
  0
LINE
  8
0
 10
-35.9561
 20
16.8442
 11
-36.2135
 21
17.1183
  0
LINE
  8
0
 10
-36.2135
 20
17.1183
 11
-36.3947
 21
17.4478
  0
LINE
  8
0
 10
-36.3947
 20
17.4478
 11
-36.4882
 21
17.812
  0
LINE
  8
0
 10
-36.4882
 20
17.812
 11
-36.4882
 21
18.188
  0
LINE
  8
0
 10
-36.4882
 20
18.188
 11
-36.3947
 21
18.5522
  0
LINE
  8
0
 10
-36.3947
 20
18.5522
 11
-36.2135
 21
18.8817
  0
LINE
  8
0
 10
-36.2135
 20
18.8817
 11
-35.9561
 21
19.1558
  0
LINE
  8
0
 10
-35.9561
 20
19.1558
 11
-35.6387
 21
19.3572
  0
LINE
  8
0
 10
-35.6387
 20
19.3572
 11
-35.2811
 21
19.4734
  0
LINE
  8
0
 10
-35.2811
 20
19.4734
 11
-34.9058
 21
19.497
  0
LINE
  8
0
 10
-34.9058
 20
19.497
 11
-34.5365
 21
19.4266
  0
LINE
  8
0
 10
-34.5365
 20
19.4266
 11
-34.1963
 21
19.2665
  0
LINE
  8
0
 10
-34.1963
 20
19.2665
 11
-33.9065
 21
19.0268
  0
LINE
  8
0
 10
-33.9065
 20
19.0268
 11
-33.6855
 21
18.7226
  0
LINE
  8
0
 10
-33.6855
 20
18.7226
 11
-33.5471
 21
18.373
  0
LINE
  8
0
 10
-33.5471
 20
18.373
 11
-33.5
 21
18
  0
LINE
  8
0
 10
-33.5
 20
18
 11
-33.5471
 21
17.627
  0
LINE
  8
0
 10
-33.5471
 20
17.627
 11
-33.6855
 21
17.2774
  0
LINE
  8
0
 10
-33.6855
 20
17.2774
 11
-33.9065
 21
16.9732
  0
LINE
  8
0
 10
-33.9065
 20
16.9732
 11
-34.1963
 21
16.7335
  0
LINE
  8
0
 10
-34.1963
 20
16.7335
 11
-34.5365
 21
16.5734
  0
LINE
  8
0
 10
-34.5365
 20
16.5734
 11
-34.9058
 21
16.503
  0
LINE
  8
0
 10
-34.9058
 20
16.503
 11
-35.2811
 21
16.5266
  0
LINE
  8
0
 10
9.43785
 20
12.0531
 11
8.72266
 21
12.2855
  0
LINE
  8
0
 10
8.72266
 20
12.2855
 11
8.08772
 21
12.6884
  0
LINE
  8
0
 10
8.08772
 20
12.6884
 11
7.57294
 21
13.2366
  0
LINE
  8
0
 10
7.57294
 20
13.2366
 11
7.21066
 21
13.8956
  0
LINE
  8
0
 10
7.21066
 20
13.8956
 11
7.02365
 21
14.624
  0
LINE
  8
0
 10
7.02365
 20
14.624
 11
7.02365
 21
15.376
  0
LINE
  8
0
 10
7.02365
 20
15.376
 11
7.21066
 21
16.1044
  0
LINE
  8
0
 10
7.21066
 20
16.1044
 11
7.57294
 21
16.7634
  0
LINE
  8
0
 10
7.57294
 20
16.7634
 11
8.08772
 21
17.3115
  0
LINE
  8
0
 10
8.08772
 20
17.3115
 11
8.72266
 21
17.7145
  0
LINE
  8
0
 10
8.72266
 20
17.7145
 11
9.43785
 21
17.9469
  0
LINE
  8
0
 10
9.43785
 20
17.9469
 11
10.1884
 21
17.9941
  0
LINE
  8
0
 10
10.1884
 20
17.9941
 11
10.927
 21
17.8532
  0
LINE
  8
0
 10
10.927
 20
17.8532
 11
11.6075
 21
17.533
  0
LINE
  8
0
 10
11.6075
 20
17.533
 11
12.1869
 21
17.0536
  0
LINE
  8
0
 10
12.1869
 20
17.0536
 11
12.6289
 21
16.4453
  0
LINE
  8
0
 10
12.6289
 20
16.4453
 11
12.9057
 21
15.7461
  0
LINE
  8
0
 10
12.9057
 20
15.7461
 11
13
 21
15
  0
LINE
  8
0
 10
13
 20
15
 11
12.9057
 21
14.2539
  0
LINE
  8
0
 10
12.9057
 20
14.2539
 11
12.6289
 21
13.5547
  0
LINE
  8
0
 10
12.6289
 20
13.5547
 11
12.1869
 21
12.9464
  0
LINE
  8
0
 10
12.1869
 20
12.9464
 11
11.6075
 21
12.467
  0
LINE
  8
0
 10
11.6075
 20
12.467
 11
10.927
 21
12.1468
  0
LINE
  8
0
 10
10.927
 20
12.1468
 11
10.1884
 21
12.0059
  0
LINE
  8
0
 10
10.1884
 20
12.0059
 11
9.43785
 21
12.0531
  0
LINE
  8
0
 10
-57
 20
-14.5
 11
-57
 21
-5.5
  0
LINE
  8
0
 10
-57
 20
-5.5
 11
-61.5
 21
-5.5
  0
LINE
  8
0
 10
-61.5
 20
-5.5
 11
-61.5
 21
-0.5
  0
LINE
  8
0
 10
-61.5
 20
-0.5
 11
-57
 21
-0.5
  0
LINE
  8
0
 10
-57
 20
-0.5
 11
-57
 21
14.5
  0
LINE
  8
0
 10
-57
 20
14.5
 11
-36.5
 21
14.5
  0
LINE
  8
0
 10
-36.5
 20
14.5
 11
-36.5
 21
14.3826
  0
LINE
  8
0
 10
-36.5
 20
14.3826
 11
-35.0895
 21
14.4714
  0
LINE
  8
0
 10
-35.0895
 20
14.4714
 11
-31.5192
 21
13.7903
  0
LINE
  8
0
 10
-31.5192
 20
13.7903
 11
-28.2305
 21
12.2428
  0
LINE
  8
0
 10
-28.2305
 20
12.2428
 11
-25.4299
 21
9.92592
  0
LINE
  8
0
 10
-25.4299
 20
9.92592
 11
-23.2935
 21
6.98543
  0
LINE
  8
0
 10
-23.2935
 20
6.98543
 11
-22
 21
3.71828
  0
LINE
  8
0
 10
-22
 20
3.71828
 11
-22
 21
-3.71828
  0
LINE
  8
0
 10
-22
 20
-3.71828
 11
-23.2935
 21
-6.98543
  0
LINE
  8
0
 10
-23.2935
 20
-6.98543
 11
-25.4299
 21
-9.92592
  0
LINE
  8
0
 10
-25.4299
 20
-9.92592
 11
-28.2305
 21
-12.2428
  0
LINE
  8
0
 10
-28.2305
 20
-12.2428
 11
-31.5192
 21
-13.7903
  0
LINE
  8
0
 10
-31.5192
 20
-13.7903
 11
-35.0895
 21
-14.4714
  0
LINE
  8
0
 10
-35.0895
 20
-14.4714
 11
-36.5
 21
-14.3826
  0
LINE
  8
0
 10
-36.5
 20
-14.3826
 11
-36.5
 21
-14.5
  0
LINE
  8
0
 10
-36.5
 20
-14.5
 11
-57
 21
-14.5
  0
LINE
  8
0
 10
9.43785
 20
-2.94685
 11
8.72266
 21
-2.71448
  0
LINE
  8
0
 10
8.72266
 20
-2.71448
 11
8.08772
 21
-2.31154
  0
LINE
  8
0
 10
8.08772
 20
-2.31154
 11
7.57294
 21
-1.76335
  0
LINE
  8
0
 10
7.57294
 20
-1.76335
 11
7.21066
 21
-1.10437
  0
LINE
  8
0
 10
7.21066
 20
-1.10437
 11
7.02365
 21
-0.375992
  0
LINE
  8
0
 10
7.02365
 20
-0.375992
 11
7.02365
 21
0.375992
  0
LINE
  8
0
 10
7.02365
 20
0.375992
 11
7.21066
 21
1.10437
  0
LINE
  8
0
 10
7.21066
 20
1.10437
 11
7.57294
 21
1.76335
  0
LINE
  8
0
 10
7.57294
 20
1.76335
 11
8.08772
 21
2.31154
  0
LINE
  8
0
 10
8.08772
 20
2.31154
 11
8.72266
 21
2.71448
  0
LINE
  8
0
 10
8.72266
 20
2.71448
 11
9.43785
 21
2.94685
  0
LINE
  8
0
 10
9.43785
 20
2.94685
 11
10.1884
 21
2.99408
  0
LINE
  8
0
 10
10.1884
 20
2.99408
 11
10.927
 21
2.85316
  0
LINE
  8
0
 10
10.927
 20
2.85316
 11
11.6075
 21
2.53297
  0
LINE
  8
0
 10
11.6075
 20
2.53297
 11
12.1869
 21
2.05363
  0
LINE
  8
0
 10
12.1869
 20
2.05363
 11
12.6289
 21
1.44525
  0
LINE
  8
0
 10
12.6289
 20
1.44525
 11
12.9057
 21
0.746063
  0
LINE
  8
0
 10
12.9057
 20
0.746063
 11
13
 21
0
  0
LINE
  8
0
 10
13
 20
0
 11
12.9057
 21
-0.746063
  0
LINE
  8
0
 10
12.9057
 20
-0.746063
 11
12.6289
 21
-1.44525
  0
LINE
  8
0
 10
12.6289
 20
-1.44525
 11
12.1869
 21
-2.05363
  0
LINE
  8
0
 10
12.1869
 20
-2.05363
 11
11.6075
 21
-2.53297
  0
LINE
  8
0
 10
11.6075
 20
-2.53297
 11
10.927
 21
-2.85316
  0
LINE
  8
0
 10
10.927
 20
-2.85316
 11
10.1884
 21
-2.99408
  0
LINE
  8
0
 10
10.1884
 20
-2.99408
 11
9.43785
 21
-2.94685
  0
LINE
  8
0
 10
9.43785
 20
-17.9469
 11
8.72266
 21
-17.7145
  0
LINE
  8
0
 10
8.72266
 20
-17.7145
 11
8.08772
 21
-17.3115
  0
LINE
  8
0
 10
8.08772
 20
-17.3115
 11
7.57294
 21
-16.7634
  0
LINE
  8
0
 10
7.57294
 20
-16.7634
 11
7.21066
 21
-16.1044
  0
LINE
  8
0
 10
7.21066
 20
-16.1044
 11
7.02365
 21
-15.376
  0
LINE
  8
0
 10
7.02365
 20
-15.376
 11
7.02365
 21
-14.624
  0
LINE
  8
0
 10
7.02365
 20
-14.624
 11
7.21066
 21
-13.8956
  0
LINE
  8
0
 10
7.21066
 20
-13.8956
 11
7.57294
 21
-13.2366
  0
LINE
  8
0
 10
7.57294
 20
-13.2366
 11
8.08772
 21
-12.6884
  0
LINE
  8
0
 10
8.08772
 20
-12.6884
 11
8.72266
 21
-12.2855
  0
LINE
  8
0
 10
8.72266
 20
-12.2855
 11
9.43785
 21
-12.0531
  0
LINE
  8
0
 10
9.43785
 20
-12.0531
 11
10.1884
 21
-12.0059
  0
LINE
  8
0
 10
10.1884
 20
-12.0059
 11
10.927
 21
-12.1468
  0
LINE
  8
0
 10
10.927
 20
-12.1468
 11
11.6075
 21
-12.467
  0
LINE
  8
0
 10
11.6075
 20
-12.467
 11
12.1869
 21
-12.9464
  0
LINE
  8
0
 10
12.1869
 20
-12.9464
 11
12.6289
 21
-13.5547
  0
LINE
  8
0
 10
12.6289
 20
-13.5547
 11
12.9057
 21
-14.2539
  0
LINE
  8
0
 10
12.9057
 20
-14.2539
 11
13
 21
-15
  0
LINE
  8
0
 10
13
 20
-15
 11
12.9057
 21
-15.7461
  0
LINE
  8
0
 10
12.9057
 20
-15.7461
 11
12.6289
 21
-16.4453
  0
LINE
  8
0
 10
12.6289
 20
-16.4453
 11
12.1869
 21
-17.0536
  0
LINE
  8
0
 10
12.1869
 20
-17.0536
 11
11.6075
 21
-17.533
  0
LINE
  8
0
 10
11.6075
 20
-17.533
 11
10.927
 21
-17.8532
  0
LINE
  8
0
 10
10.927
 20
-17.8532
 11
10.1884
 21
-17.9941
  0
LINE
  8
0
 10
10.1884
 20
-17.9941
 11
9.43785
 21
-17.9469
  0
LINE
  8
0
 10
-35.2811
 20
-19.4734
 11
-35.6387
 21
-19.3572
  0
LINE
  8
0
 10
-35.6387
 20
-19.3572
 11
-35.9561
 21
-19.1558
  0
LINE
  8
0
 10
-35.9561
 20
-19.1558
 11
-36.2135
 21
-18.8817
  0
LINE
  8
0
 10
-36.2135
 20
-18.8817
 11
-36.3947
 21
-18.5522
  0
LINE
  8
0
 10
-36.3947
 20
-18.5522
 11
-36.4882
 21
-18.188
  0
LINE
  8
0
 10
-36.4882
 20
-18.188
 11
-36.4882
 21
-17.812
  0
LINE
  8
0
 10
-36.4882
 20
-17.812
 11
-36.3947
 21
-17.4478
  0
LINE
  8
0
 10
-36.3947
 20
-17.4478
 11
-36.2135
 21
-17.1183
  0
LINE
  8
0
 10
-36.2135
 20
-17.1183
 11
-35.9561
 21
-16.8442
  0
LINE
  8
0
 10
-35.9561
 20
-16.8442
 11
-35.6387
 21
-16.6427
  0
LINE
  8
0
 10
-35.6387
 20
-16.6427
 11
-35.2811
 21
-16.5266
  0
LINE
  8
0
 10
-35.2811
 20
-16.5266
 11
-34.9058
 21
-16.503
  0
LINE
  8
0
 10
-34.9058
 20
-16.503
 11
-34.5365
 21
-16.5734
  0
LINE
  8
0
 10
-34.5365
 20
-16.5734
 11
-34.1963
 21
-16.7335
  0
LINE
  8
0
 10
-34.1963
 20
-16.7335
 11
-33.9065
 21
-16.9732
  0
LINE
  8
0
 10
-33.9065
 20
-16.9732
 11
-33.6855
 21
-17.2774
  0
LINE
  8
0
 10
-33.6855
 20
-17.2774
 11
-33.5471
 21
-17.627
  0
LINE
  8
0
 10
-33.5471
 20
-17.627
 11
-33.5
 21
-18
  0
LINE
  8
0
 10
-33.5
 20
-18
 11
-33.5471
 21
-18.373
  0
LINE
  8
0
 10
-33.5471
 20
-18.373
 11
-33.6855
 21
-18.7226
  0
LINE
  8
0
 10
-33.6855
 20
-18.7226
 11
-33.9065
 21
-19.0268
  0
LINE
  8
0
 10
-33.9065
 20
-19.0268
 11
-34.1963
 21
-19.2665
  0
LINE
  8
0
 10
-34.1963
 20
-19.2665
 11
-34.5365
 21
-19.4266
  0
LINE
  8
0
 10
-34.5365
 20
-19.4266
 11
-34.9058
 21
-19.497
  0
LINE
  8
0
 10
-34.9058
 20
-19.497
 11
-35.2811
 21
-19.4734
  0
LINE
  8
0
 10
9.43785
 20
-27.9469
 11
8.72266
 21
-27.7145
  0
LINE
  8
0
 10
8.72266
 20
-27.7145
 11
8.08772
 21
-27.3115
  0
LINE
  8
0
 10
8.08772
 20
-27.3115
 11
7.57294
 21
-26.7634
  0
LINE
  8
0
 10
7.57294
 20
-26.7634
 11
7.21066
 21
-26.1044
  0
LINE
  8
0
 10
7.21066
 20
-26.1044
 11
7.02365
 21
-25.376
  0
LINE
  8
0
 10
7.02365
 20
-25.376
 11
7.02365
 21
-24.624
  0
LINE
  8
0
 10
7.02365
 20
-24.624
 11
7.21066
 21
-23.8956
  0
LINE
  8
0
 10
7.21066
 20
-23.8956
 11
7.57294
 21
-23.2366
  0
LINE
  8
0
 10
7.57294
 20
-23.2366
 11
8.08772
 21
-22.6884
  0
LINE
  8
0
 10
8.08772
 20
-22.6884
 11
8.72266
 21
-22.2855
  0
LINE
  8
0
 10
8.72266
 20
-22.2855
 11
9.43785
 21
-22.0531
  0
LINE
  8
0
 10
9.43785
 20
-22.0531
 11
10.1884
 21
-22.0059
  0
LINE
  8
0
 10
10.1884
 20
-22.0059
 11
10.927
 21
-22.1468
  0
LINE
  8
0
 10
10.927
 20
-22.1468
 11
11.6075
 21
-22.467
  0
LINE
  8
0
 10
11.6075
 20
-22.467
 11
12.1869
 21
-22.9464
  0
LINE
  8
0
 10
12.1869
 20
-22.9464
 11
12.6289
 21
-23.5547
  0
LINE
  8
0
 10
12.6289
 20
-23.5547
 11
12.9057
 21
-24.2539
  0
LINE
  8
0
 10
12.9057
 20
-24.2539
 11
13
 21
-25
  0
LINE
  8
0
 10
13
 20
-25
 11
12.9057
 21
-25.7461
  0
LINE
  8
0
 10
12.9057
 20
-25.7461
 11
12.6289
 21
-26.4453
  0
LINE
  8
0
 10
12.6289
 20
-26.4453
 11
12.1869
 21
-27.0536
  0
LINE
  8
0
 10
12.1869
 20
-27.0536
 11
11.6075
 21
-27.533
  0
LINE
  8
0
 10
11.6075
 20
-27.533
 11
10.927
 21
-27.8532
  0
LINE
  8
0
 10
10.927
 20
-27.8532
 11
10.1884
 21
-27.9941
  0
LINE
  8
0
 10
10.1884
 20
-27.9941
 11
9.43785
 21
-27.9469
  0
ENDSEC
  0
SECTION
  2
OBJECTS
  0
DICTIONARY
  0
ENDSEC
  0
EOF
