solid OpenSCAD_Model
  facet normal 0 0 -1
    outer loop
      vertex -48 -37.75 0.5
      vertex -50.5 -32.75 0.5
      vertex -48 -29.75 0.5
    endloop
  endfacet
  facet normal 0 0 -1
    outer loop
      vertex -48 -37.75 0.5
      vertex -54.5 -32.75 0.5
      vertex -50.5 -32.75 0.5
    endloop
  endfacet
  facet normal 0 0 -1
    outer loop
      vertex -54.5 -32.75 0.5
      vertex -61.5 -32.75 0.5
      vertex -54.5 -29.75 0.5
    endloop
  endfacet
  facet normal 0 0 -1
    outer loop
      vertex -48 -37.75 0.5
      vertex -61.5 -32.75 0.5
      vertex -54.5 -32.75 0.5
    endloop
  endfacet
  facet normal 0 0 -1
    outer loop
      vertex -68 -37.75 0.5
      vertex -61.5 -32.75 0.5
      vertex -48 -37.75 0.5
    endloop
  endfacet
  facet normal -0 0 -1
    outer loop
      vertex -61.5 -32.75 0.5
      vertex -68 -37.75 0.5
      vertex -65.5 -32.75 0.5
    endloop
  endfacet
  facet normal 0 0 -1
    outer loop
      vertex -68 -29.75 0.5
      vertex -65.5 -32.75 0.5
      vertex -68 -37.75 0.5
    endloop
  endfacet
  facet normal 0 0 -1
    outer loop
      vertex -65.5 -32.75 0.5
      vertex -68 -29.75 0.5
      vertex -65.5 -29.75 0.5
    endloop
  endfacet
  facet normal -0 0 -1
    outer loop
      vertex -48 -29.75 0.5
      vertex -50.5 -32.75 0.5
      vertex -50.5 -29.75 0.5
    endloop
  endfacet
  facet normal -0 0 -1
    outer loop
      vertex -54.5 -29.75 0.5
      vertex -61.5 -32.75 0.5
      vertex -61.5 -29.75 0.5
    endloop
  endfacet
  facet normal 1 -0 0
    outer loop
      vertex -48 -37.75 3.5
      vertex -48 -29.75 0.5
      vertex -48 -29.75 3.5
    endloop
  endfacet
  facet normal 1 0 0
    outer loop
      vertex -48 -29.75 0.5
      vertex -48 -37.75 3.5
      vertex -48 -37.75 0.5
    endloop
  endfacet
  facet normal -1 0 0
    outer loop
      vertex -68 -37.75 0.5
      vertex -68 -29.75 3.5
      vertex -68 -29.75 0.5
    endloop
  endfacet
  facet normal -1 -0 0
    outer loop
      vertex -68 -29.75 3.5
      vertex -68 -37.75 0.5
      vertex -68 -37.75 3.5
    endloop
  endfacet
  facet normal 0 -1 0
    outer loop
      vertex -68 -37.75 0.5
      vertex -48 -37.75 3.5
      vertex -68 -37.75 3.5
    endloop
  endfacet
  facet normal 0 -1 -0
    outer loop
      vertex -48 -37.75 3.5
      vertex -68 -37.75 0.5
      vertex -48 -37.75 0.5
    endloop
  endfacet
  facet normal 0 1 -0
    outer loop
      vertex -65.5 -29.75 0.5
      vertex -68 -29.75 3.5
      vertex -65.5 -29.75 3.5
    endloop
  endfacet
  facet normal 0 1 0
    outer loop
      vertex -68 -29.75 3.5
      vertex -65.5 -29.75 0.5
      vertex -68 -29.75 0.5
    endloop
  endfacet
  facet normal 0 1 -0
    outer loop
      vertex -48 -29.75 0.5
      vertex -50.5 -29.75 3.5
      vertex -48 -29.75 3.5
    endloop
  endfacet
  facet normal 0 1 0
    outer loop
      vertex -50.5 -29.75 3.5
      vertex -48 -29.75 0.5
      vertex -50.5 -29.75 0.5
    endloop
  endfacet
  facet normal 0 1 -0
    outer loop
      vertex -54.5 -29.75 0.5
      vertex -61.5 -29.75 3.5
      vertex -54.5 -29.75 3.5
    endloop
  endfacet
  facet normal 0 1 0
    outer loop
      vertex -61.5 -29.75 3.5
      vertex -54.5 -29.75 0.5
      vertex -61.5 -29.75 0.5
    endloop
  endfacet
  facet normal 0 0 1
    outer loop
      vertex -65.5 -29.75 3.5
      vertex -68 -29.75 3.5
      vertex -65.5 -32.75 3.5
    endloop
  endfacet
  facet normal 0 0 1
    outer loop
      vertex -54.5 -29.75 3.5
      vertex -61.5 -29.75 3.5
      vertex -54.5 -32.75 3.5
    endloop
  endfacet
  facet normal 0 0 1
    outer loop
      vertex -50.5 -32.75 3.5
      vertex -48 -29.75 3.5
      vertex -50.5 -29.75 3.5
    endloop
  endfacet
  facet normal 0 0 1
    outer loop
      vertex -48 -29.75 3.5
      vertex -50.5 -32.75 3.5
      vertex -48 -37.75 3.5
    endloop
  endfacet
  facet normal -0 0 1
    outer loop
      vertex -54.5 -32.75 3.5
      vertex -48 -37.75 3.5
      vertex -50.5 -32.75 3.5
    endloop
  endfacet
  facet normal 0 0 1
    outer loop
      vertex -61.5 -32.75 3.5
      vertex -54.5 -32.75 3.5
      vertex -61.5 -29.75 3.5
    endloop
  endfacet
  facet normal 0 0 1
    outer loop
      vertex -54.5 -32.75 3.5
      vertex -61.5 -32.75 3.5
      vertex -48 -37.75 3.5
    endloop
  endfacet
  facet normal 0 0 1
    outer loop
      vertex -68 -37.75 3.5
      vertex -61.5 -32.75 3.5
      vertex -65.5 -32.75 3.5
    endloop
  endfacet
  facet normal 0 0 1
    outer loop
      vertex -61.5 -32.75 3.5
      vertex -68 -37.75 3.5
      vertex -48 -37.75 3.5
    endloop
  endfacet
  facet normal 0 0 1
    outer loop
      vertex -68 -37.75 3.5
      vertex -65.5 -32.75 3.5
      vertex -68 -29.75 3.5
    endloop
  endfacet
  facet normal 0 0 -1
    outer loop
      vertex -65.5 29.75 0.5
      vertex -68 29.75 0.5
      vertex -65.5 32.75 0.5
    endloop
  endfacet
  facet normal 0 0 -1
    outer loop
      vertex -54.5 29.75 0.5
      vertex -61.5 29.75 0.5
      vertex -54.5 32.75 0.5
    endloop
  endfacet
  facet normal 0 0 -1
    outer loop
      vertex -50.5 32.75 0.5
      vertex -48 29.75 0.5
      vertex -50.5 29.75 0.5
    endloop
  endfacet
  facet normal 0 0 -1
    outer loop
      vertex -48 29.75 0.5
      vertex -50.5 32.75 0.5
      vertex -48 37.75 0.5
    endloop
  endfacet
  facet normal 0 0 -1
    outer loop
      vertex -54.5 32.75 0.5
      vertex -48 37.75 0.5
      vertex -50.5 32.75 0.5
    endloop
  endfacet
  facet normal 0 0 -1
    outer loop
      vertex -61.5 32.75 0.5
      vertex -54.5 32.75 0.5
      vertex -61.5 29.75 0.5
    endloop
  endfacet
  facet normal 0 0 -1
    outer loop
      vertex -54.5 32.75 0.5
      vertex -61.5 32.75 0.5
      vertex -48 37.75 0.5
    endloop
  endfacet
  facet normal 0 0 -1
    outer loop
      vertex -68 37.75 0.5
      vertex -61.5 32.75 0.5
      vertex -65.5 32.75 0.5
    endloop
  endfacet
  facet normal 0 0 -1
    outer loop
      vertex -61.5 32.75 0.5
      vertex -68 37.75 0.5
      vertex -48 37.75 0.5
    endloop
  endfacet
  facet normal 0 0 -1
    outer loop
      vertex -68 37.75 0.5
      vertex -65.5 32.75 0.5
      vertex -68 29.75 0.5
    endloop
  endfacet
  facet normal 1 -0 0
    outer loop
      vertex -48 29.75 3.5
      vertex -48 37.75 0.5
      vertex -48 37.75 3.5
    endloop
  endfacet
  facet normal 1 0 0
    outer loop
      vertex -48 37.75 0.5
      vertex -48 29.75 3.5
      vertex -48 29.75 0.5
    endloop
  endfacet
  facet normal -1 0 0
    outer loop
      vertex -68 29.75 0.5
      vertex -68 37.75 3.5
      vertex -68 37.75 0.5
    endloop
  endfacet
  facet normal -1 -0 0
    outer loop
      vertex -68 37.75 3.5
      vertex -68 29.75 0.5
      vertex -68 29.75 3.5
    endloop
  endfacet
  facet normal 0 -1 0
    outer loop
      vertex -68 29.75 0.5
      vertex -65.5 29.75 3.5
      vertex -68 29.75 3.5
    endloop
  endfacet
  facet normal 0 -1 -0
    outer loop
      vertex -65.5 29.75 3.5
      vertex -68 29.75 0.5
      vertex -65.5 29.75 0.5
    endloop
  endfacet
  facet normal 0 -1 0
    outer loop
      vertex -50.5 29.75 0.5
      vertex -48 29.75 3.5
      vertex -50.5 29.75 3.5
    endloop
  endfacet
  facet normal 0 -1 -0
    outer loop
      vertex -48 29.75 3.5
      vertex -50.5 29.75 0.5
      vertex -48 29.75 0.5
    endloop
  endfacet
  facet normal 0 -1 0
    outer loop
      vertex -61.5 29.75 0.5
      vertex -54.5 29.75 3.5
      vertex -61.5 29.75 3.5
    endloop
  endfacet
  facet normal 0 -1 -0
    outer loop
      vertex -54.5 29.75 3.5
      vertex -61.5 29.75 0.5
      vertex -54.5 29.75 0.5
    endloop
  endfacet
  facet normal 0 1 -0
    outer loop
      vertex -48 37.75 0.5
      vertex -68 37.75 3.5
      vertex -48 37.75 3.5
    endloop
  endfacet
  facet normal 0 1 0
    outer loop
      vertex -68 37.75 3.5
      vertex -48 37.75 0.5
      vertex -68 37.75 0.5
    endloop
  endfacet
  facet normal 0 0 1
    outer loop
      vertex -48 37.75 3.5
      vertex -50.5 32.75 3.5
      vertex -48 29.75 3.5
    endloop
  endfacet
  facet normal 0 0 1
    outer loop
      vertex -48 37.75 3.5
      vertex -54.5 32.75 3.5
      vertex -50.5 32.75 3.5
    endloop
  endfacet
  facet normal 0 0 1
    outer loop
      vertex -54.5 32.75 3.5
      vertex -61.5 32.75 3.5
      vertex -54.5 29.75 3.5
    endloop
  endfacet
  facet normal 0 0 1
    outer loop
      vertex -48 37.75 3.5
      vertex -61.5 32.75 3.5
      vertex -54.5 32.75 3.5
    endloop
  endfacet
  facet normal -0 0 1
    outer loop
      vertex -68 37.75 3.5
      vertex -61.5 32.75 3.5
      vertex -48 37.75 3.5
    endloop
  endfacet
  facet normal 0 0 1
    outer loop
      vertex -61.5 32.75 3.5
      vertex -68 37.75 3.5
      vertex -65.5 32.75 3.5
    endloop
  endfacet
  facet normal 0 0 1
    outer loop
      vertex -68 29.75 3.5
      vertex -65.5 32.75 3.5
      vertex -68 37.75 3.5
    endloop
  endfacet
  facet normal 0 0 1
    outer loop
      vertex -65.5 32.75 3.5
      vertex -68 29.75 3.5
      vertex -65.5 29.75 3.5
    endloop
  endfacet
  facet normal 0 0 1
    outer loop
      vertex -48 29.75 3.5
      vertex -50.5 32.75 3.5
      vertex -50.5 29.75 3.5
    endloop
  endfacet
  facet normal 0 0 1
    outer loop
      vertex -54.5 29.75 3.5
      vertex -61.5 32.75 3.5
      vertex -61.5 29.75 3.5
    endloop
  endfacet
  facet normal -1 0 0
    outer loop
      vertex -50.5 -32.75 0.5
      vertex -50.5 -29.75 3.5
      vertex -50.5 -29.75 0.5
    endloop
  endfacet
  facet normal -1 -0 0
    outer loop
      vertex -50.5 -29.75 3.5
      vertex -50.5 -32.75 0.5
      vertex -50.5 -32.75 3.5
    endloop
  endfacet
  facet normal 1 -0 0
    outer loop
      vertex -54.5 -32.75 3.5
      vertex -54.5 -29.75 0.5
      vertex -54.5 -29.75 3.5
    endloop
  endfacet
  facet normal 1 0 0
    outer loop
      vertex -54.5 -29.75 0.5
      vertex -54.5 -32.75 3.5
      vertex -54.5 -32.75 0.5
    endloop
  endfacet
  facet normal 0 1 -0
    outer loop
      vertex -50.5 -32.75 0.5
      vertex -54.5 -32.75 3.5
      vertex -50.5 -32.75 3.5
    endloop
  endfacet
  facet normal 0 1 0
    outer loop
      vertex -54.5 -32.75 3.5
      vertex -50.5 -32.75 0.5
      vertex -54.5 -32.75 0.5
    endloop
  endfacet
  facet normal -1 0 0
    outer loop
      vertex -61.5 -32.75 0.5
      vertex -61.5 -29.75 3.5
      vertex -61.5 -29.75 0.5
    endloop
  endfacet
  facet normal -1 -0 0
    outer loop
      vertex -61.5 -29.75 3.5
      vertex -61.5 -32.75 0.5
      vertex -61.5 -32.75 3.5
    endloop
  endfacet
  facet normal 1 -0 0
    outer loop
      vertex -65.5 -32.75 3.5
      vertex -65.5 -29.75 0.5
      vertex -65.5 -29.75 3.5
    endloop
  endfacet
  facet normal 1 0 0
    outer loop
      vertex -65.5 -29.75 0.5
      vertex -65.5 -32.75 3.5
      vertex -65.5 -32.75 0.5
    endloop
  endfacet
  facet normal 0 1 -0
    outer loop
      vertex -61.5 -32.75 0.5
      vertex -65.5 -32.75 3.5
      vertex -61.5 -32.75 3.5
    endloop
  endfacet
  facet normal 0 1 0
    outer loop
      vertex -65.5 -32.75 3.5
      vertex -61.5 -32.75 0.5
      vertex -65.5 -32.75 0.5
    endloop
  endfacet
  facet normal -1 0 0
    outer loop
      vertex -50.5 29.75 0.5
      vertex -50.5 32.75 3.5
      vertex -50.5 32.75 0.5
    endloop
  endfacet
  facet normal -1 -0 0
    outer loop
      vertex -50.5 32.75 3.5
      vertex -50.5 29.75 0.5
      vertex -50.5 29.75 3.5
    endloop
  endfacet
  facet normal 1 -0 0
    outer loop
      vertex -54.5 29.75 3.5
      vertex -54.5 32.75 0.5
      vertex -54.5 32.75 3.5
    endloop
  endfacet
  facet normal 1 0 0
    outer loop
      vertex -54.5 32.75 0.5
      vertex -54.5 29.75 3.5
      vertex -54.5 29.75 0.5
    endloop
  endfacet
  facet normal 0 -1 0
    outer loop
      vertex -54.5 32.75 0.5
      vertex -50.5 32.75 3.5
      vertex -54.5 32.75 3.5
    endloop
  endfacet
  facet normal 0 -1 -0
    outer loop
      vertex -50.5 32.75 3.5
      vertex -54.5 32.75 0.5
      vertex -50.5 32.75 0.5
    endloop
  endfacet
  facet normal -1 0 0
    outer loop
      vertex -61.5 29.75 0.5
      vertex -61.5 32.75 3.5
      vertex -61.5 32.75 0.5
    endloop
  endfacet
  facet normal -1 -0 0
    outer loop
      vertex -61.5 32.75 3.5
      vertex -61.5 29.75 0.5
      vertex -61.5 29.75 3.5
    endloop
  endfacet
  facet normal 1 -0 0
    outer loop
      vertex -65.5 29.75 3.5
      vertex -65.5 32.75 0.5
      vertex -65.5 32.75 3.5
    endloop
  endfacet
  facet normal 1 0 0
    outer loop
      vertex -65.5 32.75 0.5
      vertex -65.5 29.75 3.5
      vertex -65.5 29.75 0.5
    endloop
  endfacet
  facet normal 0 -1 0
    outer loop
      vertex -65.5 32.75 0.5
      vertex -61.5 32.75 3.5
      vertex -65.5 32.75 3.5
    endloop
  endfacet
  facet normal 0 -1 -0
    outer loop
      vertex -61.5 32.75 3.5
      vertex -65.5 32.75 0.5
      vertex -61.5 32.75 0.5
    endloop
  endfacet
endsolid OpenSCAD_Model
