solid OpenSCAD_Model
  facet normal 0 0 1
    outer loop
      vertex 8.75 -14.5 17
      vertex 7.5 -16.5 17
      vertex 8.75 -16.5 17
    endloop
  endfacet
  facet normal 0 0 1
    outer loop
      vertex 7.5 -16.5 17
      vertex 0 -16.5 17
      vertex 7.5 -17.375 17
    endloop
  endfacet
  facet normal 0 0 1
    outer loop
      vertex 8.75 -14.5 17
      vertex 0 -16.5 17
      vertex 7.5 -16.5 17
    endloop
  endfacet
  facet normal -0 0 1
    outer loop
      vertex -1.25 -14.5 17
      vertex 0 -16.5 17
      vertex 8.75 -14.5 17
    endloop
  endfacet
  facet normal 0 0 1
    outer loop
      vertex 0 -16.5 17
      vertex -1.25 -14.5 17
      vertex -1.25 -16.5 17
    endloop
  endfacet
  facet normal 0 0 1
    outer loop
      vertex 7.5 -17.375 17
      vertex 0 -16.5 17
      vertex 0 -17.375 17
    endloop
  endfacet
  facet normal 0 0 -1
    outer loop
      vertex -1.25 -19.5 17
      vertex 0 -18.75 17
      vertex 0 -19.5 17
    endloop
  endfacet
  facet normal -0 0 -1
    outer loop
      vertex 0 -18.75 17
      vertex -1.25 -19.5 17
      vertex -1.25 -18.75 17
    endloop
  endfacet
  facet normal 0 0 -1
    outer loop
      vertex 7.5 -19.5 17
      vertex 8.75 -18.75 17
      vertex 8.75 -19.5 17
    endloop
  endfacet
  facet normal -0 0 -1
    outer loop
      vertex 8.75 -18.75 17
      vertex 7.5 -19.5 17
      vertex 7.5 -18.75 17
    endloop
  endfacet
  facet normal -0 0 1
    outer loop
      vertex 0 -18.625 17
      vertex 7.5 -18.75 17
      vertex 7.5 -18.625 17
    endloop
  endfacet
  facet normal 0 0 1
    outer loop
      vertex 7.5 -18.75 17
      vertex 0 -18.625 17
      vertex 0 -18.75 17
    endloop
  endfacet
  facet normal -1 0 0
    outer loop
      vertex 8.75 -18.75 14
      vertex 8.75 -19.5 17
      vertex 8.75 -18.75 17
    endloop
  endfacet
  facet normal -1 -0 0
    outer loop
      vertex 8.75 -19.5 17
      vertex 8.75 -24.5 14
      vertex 8.75 -19.5 27.5
    endloop
  endfacet
  facet normal -1 0 0
    outer loop
      vertex 8.75 -24.5 14
      vertex 8.75 -19.5 17
      vertex 8.75 -18.75 14
    endloop
  endfacet
  facet normal -1 0 0
    outer loop
      vertex 8.75 -16.5 27.5
      vertex 8.75 -14.5 17
      vertex 8.75 -16.5 17
    endloop
  endfacet
  facet normal -1 0 0
    outer loop
      vertex 8.75 -14.5 30
      vertex 8.75 -11.353 37
      vertex 8.75 -11.353 30
    endloop
  endfacet
  facet normal -1 0 0
    outer loop
      vertex 8.75 -14.5 17
      vertex 8.75 -16.5 27.5
      vertex 8.75 -14.5 30
    endloop
  endfacet
  facet normal -1 0 0
    outer loop
      vertex 8.75 -19.5 27.5
      vertex 8.75 -14.5 30
      vertex 8.75 -16.5 27.5
    endloop
  endfacet
  facet normal -1 -0 0
    outer loop
      vertex 8.75 -14.5 30
      vertex 8.75 -19.5 27.5
      vertex 8.75 -24.5 37
    endloop
  endfacet
  facet normal -1 0 0
    outer loop
      vertex 8.75 -14.5 30
      vertex 8.75 -24.5 37
      vertex 8.75 -11.353 37
    endloop
  endfacet
  facet normal -1 0 0
    outer loop
      vertex 8.75 -24.5 37
      vertex 8.75 -19.5 27.5
      vertex 8.75 -24.5 14
    endloop
  endfacet
  facet normal 1 0 0
    outer loop
      vertex -1.25 -11.415 37
      vertex -1.25 -14.5 30
      vertex -1.25 -11.415 30
    endloop
  endfacet
  facet normal 1 0 0
    outer loop
      vertex -1.25 -14.5 30
      vertex -1.25 -16.5 27.5
      vertex -1.25 -14.5 17
    endloop
  endfacet
  facet normal 1 -0 0
    outer loop
      vertex -1.25 -24.5 37
      vertex -1.25 -14.5 30
      vertex -1.25 -11.415 37
    endloop
  endfacet
  facet normal 1 0 0
    outer loop
      vertex -1.25 -14.5 30
      vertex -1.25 -19.5 27.5
      vertex -1.25 -16.5 27.5
    endloop
  endfacet
  facet normal 1 0 0
    outer loop
      vertex -1.25 -24.5 14
      vertex -1.25 -19.5 27.5
      vertex -1.25 -24.5 37
    endloop
  endfacet
  facet normal 1 0 0
    outer loop
      vertex -1.25 -14.5 30
      vertex -1.25 -24.5 37
      vertex -1.25 -19.5 27.5
    endloop
  endfacet
  facet normal 1 0 0
    outer loop
      vertex -1.25 -14.5 17
      vertex -1.25 -16.5 27.5
      vertex -1.25 -16.5 17
    endloop
  endfacet
  facet normal 1 -0 0
    outer loop
      vertex -1.25 -19.5 17
      vertex -1.25 -18.75 14
      vertex -1.25 -18.75 17
    endloop
  endfacet
  facet normal 1 0 0
    outer loop
      vertex -1.25 -19.5 27.5
      vertex -1.25 -24.5 14
      vertex -1.25 -19.5 17
    endloop
  endfacet
  facet normal 1 0 0
    outer loop
      vertex -1.25 -19.5 17
      vertex -1.25 -24.5 14
      vertex -1.25 -18.75 14
    endloop
  endfacet
  facet normal 0 1 -0
    outer loop
      vertex 5 -24.5 32.5
      vertex 2.5 -24.5 35.5
      vertex 5 -24.5 35.5
    endloop
  endfacet
  facet normal 0 1 0
    outer loop
      vertex 2.5 -24.5 35.5
      vertex 5 -24.5 32.5
      vertex 2.5 -24.5 32.5
    endloop
  endfacet
  facet normal 0 1 0
    outer loop
      vertex 5 -24.5 35.5
      vertex 8.75 -24.5 37
      vertex 6.5 -24.5 35.5
    endloop
  endfacet
  facet normal 0 1 0
    outer loop
      vertex 8.75 -24.5 37
      vertex 6.5 -24.5 32.5
      vertex 6.5 -24.5 35.5
    endloop
  endfacet
  facet normal 0 1 0
    outer loop
      vertex 8.75 -24.5 14
      vertex 5 -24.5 32.5
      vertex 6.5 -24.5 32.5
    endloop
  endfacet
  facet normal 0 1 0
    outer loop
      vertex 5 -24.5 32.5
      vertex 8.75 -24.5 14
      vertex 2.5 -24.5 32.5
    endloop
  endfacet
  facet normal 0 1 0
    outer loop
      vertex -1.25 -24.5 14
      vertex 2.5 -24.5 32.5
      vertex 8.75 -24.5 14
    endloop
  endfacet
  facet normal 0 1 -0
    outer loop
      vertex 8.75 -24.5 14
      vertex 6.5 -24.5 32.5
      vertex 8.75 -24.5 37
    endloop
  endfacet
  facet normal 0 1 0
    outer loop
      vertex 8.75 -24.5 37
      vertex 5 -24.5 35.5
      vertex -1.25 -24.5 37
    endloop
  endfacet
  facet normal 0 1 -0
    outer loop
      vertex 2.5 -24.5 35.5
      vertex -1.25 -24.5 37
      vertex 5 -24.5 35.5
    endloop
  endfacet
  facet normal 0 1 -0
    outer loop
      vertex 1 -24.5 35.5
      vertex -1.25 -24.5 37
      vertex 2.5 -24.5 35.5
    endloop
  endfacet
  facet normal 0 1 -0
    outer loop
      vertex 1 -24.5 32.5
      vertex -1.25 -24.5 37
      vertex 1 -24.5 35.5
    endloop
  endfacet
  facet normal 0 1 0
    outer loop
      vertex 2.5 -24.5 32.5
      vertex -1.25 -24.5 14
      vertex 1 -24.5 32.5
    endloop
  endfacet
  facet normal 0 1 0
    outer loop
      vertex 1 -24.5 32.5
      vertex -1.25 -24.5 14
      vertex -1.25 -24.5 37
    endloop
  endfacet
  facet normal -0 0 1
    outer loop
      vertex -1.25 -18.75 14
      vertex 8.75 -24.5 14
      vertex 8.75 -18.75 14
    endloop
  endfacet
  facet normal 0 0 1
    outer loop
      vertex 8.75 -24.5 14
      vertex -1.25 -18.75 14
      vertex -1.25 -24.5 14
    endloop
  endfacet
  facet normal 0 -1 0
    outer loop
      vertex -1.25 -18.75 14
      vertex 0 -18.75 17
      vertex -1.25 -18.75 17
    endloop
  endfacet
  facet normal 0 -1 -0
    outer loop
      vertex 0 -18.75 17
      vertex -1.25 -18.75 14
      vertex 7.5 -18.75 17
    endloop
  endfacet
  facet normal 0 -1 0
    outer loop
      vertex 8.75 -18.75 14
      vertex 7.5 -18.75 17
      vertex -1.25 -18.75 14
    endloop
  endfacet
  facet normal 0 -1 0
    outer loop
      vertex 7.5 -18.75 17
      vertex 8.75 -18.75 14
      vertex 8.75 -18.75 17
    endloop
  endfacet
  facet normal -1 0 0
    outer loop
      vertex 7.5 -18.75 17
      vertex 7.5 -18.625 27.5
      vertex 7.5 -18.625 17
    endloop
  endfacet
  facet normal -1 0 0
    outer loop
      vertex 7.5 -19.5 27.5
      vertex 7.5 -18.75 17
      vertex 7.5 -19.5 17
    endloop
  endfacet
  facet normal -1 0 0
    outer loop
      vertex 7.5 -18.75 17
      vertex 7.5 -19.5 27.5
      vertex 7.5 -18.625 27.5
    endloop
  endfacet
  facet normal -1 0 0
    outer loop
      vertex 7.5 -17.375 17
      vertex 7.5 -16.5 27.5
      vertex 7.5 -16.5 17
    endloop
  endfacet
  facet normal -1 -0 0
    outer loop
      vertex 7.5 -16.5 27.5
      vertex 7.5 -17.375 17
      vertex 7.5 -17.375 27.5
    endloop
  endfacet
  facet normal 1 0 0
    outer loop
      vertex 0 -18.625 27.5
      vertex 0 -18.75 17
      vertex 0 -18.625 17
    endloop
  endfacet
  facet normal 1 -0 0
    outer loop
      vertex 0 -19.5 27.5
      vertex 0 -18.75 17
      vertex 0 -18.625 27.5
    endloop
  endfacet
  facet normal 1 0 0
    outer loop
      vertex 0 -18.75 17
      vertex 0 -19.5 27.5
      vertex 0 -19.5 17
    endloop
  endfacet
  facet normal 1 -0 0
    outer loop
      vertex 0 -17.375 27.5
      vertex 0 -16.5 17
      vertex 0 -16.5 27.5
    endloop
  endfacet
  facet normal 1 0 0
    outer loop
      vertex 0 -16.5 17
      vertex 0 -17.375 27.5
      vertex 0 -17.375 17
    endloop
  endfacet
  facet normal 0 -1 0
    outer loop
      vertex 0 -18.625 17
      vertex 7.5 -18.625 27.5
      vertex 0 -18.625 27.5
    endloop
  endfacet
  facet normal 0 -1 -0
    outer loop
      vertex 7.5 -18.625 27.5
      vertex 0 -18.625 17
      vertex 7.5 -18.625 17
    endloop
  endfacet
  facet normal 0 1 -0
    outer loop
      vertex 7.5 -17.375 17
      vertex 0 -17.375 27.5
      vertex 7.5 -17.375 27.5
    endloop
  endfacet
  facet normal 0 1 0
    outer loop
      vertex 0 -17.375 27.5
      vertex 7.5 -17.375 17
      vertex 0 -17.375 17
    endloop
  endfacet
  facet normal -0 0 1
    outer loop
      vertex -1.25 -16.5 27.5
      vertex 0 -17.375 27.5
      vertex 0 -16.5 27.5
    endloop
  endfacet
  facet normal 0 0 1
    outer loop
      vertex 0 -17.375 27.5
      vertex -1.25 -16.5 27.5
      vertex 0 -18.625 27.5
    endloop
  endfacet
  facet normal 0 0 1
    outer loop
      vertex -1.25 -19.5 27.5
      vertex 0 -18.625 27.5
      vertex -1.25 -16.5 27.5
    endloop
  endfacet
  facet normal 0 0 1
    outer loop
      vertex 0 -18.625 27.5
      vertex -1.25 -19.5 27.5
      vertex 0 -19.5 27.5
    endloop
  endfacet
  facet normal -0 0 1
    outer loop
      vertex 0 -17.375 27.5
      vertex 7.5 -18.625 27.5
      vertex 7.5 -17.375 27.5
    endloop
  endfacet
  facet normal 0 0 1
    outer loop
      vertex 7.5 -18.625 27.5
      vertex 0 -17.375 27.5
      vertex 0 -18.625 27.5
    endloop
  endfacet
  facet normal 0 0 1
    outer loop
      vertex 7.5 -17.375 27.5
      vertex 8.75 -16.5 27.5
      vertex 7.5 -16.5 27.5
    endloop
  endfacet
  facet normal 0 0 1
    outer loop
      vertex 8.75 -16.5 27.5
      vertex 7.5 -17.375 27.5
      vertex 8.75 -19.5 27.5
    endloop
  endfacet
  facet normal -0 0 1
    outer loop
      vertex 7.5 -18.625 27.5
      vertex 8.75 -19.5 27.5
      vertex 7.5 -17.375 27.5
    endloop
  endfacet
  facet normal 0 0 1
    outer loop
      vertex 8.75 -19.5 27.5
      vertex 7.5 -18.625 27.5
      vertex 7.5 -19.5 27.5
    endloop
  endfacet
  facet normal 0 -1 0
    outer loop
      vertex -1.25 -19.5 17
      vertex 0 -19.5 27.5
      vertex -1.25 -19.5 27.5
    endloop
  endfacet
  facet normal 0 -1 -0
    outer loop
      vertex 0 -19.5 27.5
      vertex -1.25 -19.5 17
      vertex 0 -19.5 17
    endloop
  endfacet
  facet normal 0 1 -0
    outer loop
      vertex 0 -16.5 17
      vertex -1.25 -16.5 27.5
      vertex 0 -16.5 27.5
    endloop
  endfacet
  facet normal 0 1 0
    outer loop
      vertex -1.25 -16.5 27.5
      vertex 0 -16.5 17
      vertex -1.25 -16.5 17
    endloop
  endfacet
  facet normal 0 -1 0
    outer loop
      vertex 7.5 -19.5 17
      vertex 8.75 -19.5 27.5
      vertex 7.5 -19.5 27.5
    endloop
  endfacet
  facet normal 0 -1 -0
    outer loop
      vertex 8.75 -19.5 27.5
      vertex 7.5 -19.5 17
      vertex 8.75 -19.5 17
    endloop
  endfacet
  facet normal 0 1 -0
    outer loop
      vertex 8.75 -16.5 17
      vertex 7.5 -16.5 27.5
      vertex 8.75 -16.5 27.5
    endloop
  endfacet
  facet normal 0 1 0
    outer loop
      vertex 7.5 -16.5 27.5
      vertex 8.75 -16.5 17
      vertex 7.5 -16.5 17
    endloop
  endfacet
  facet normal 0 0 1
    outer loop
      vertex 7.5 17.375 17
      vertex 0 17.375 17
      vertex 7.5 16.5 17
    endloop
  endfacet
  facet normal -0 0 1
    outer loop
      vertex 7.5 16.5 17
      vertex 8.75 14.5 17
      vertex 8.75 16.5 17
    endloop
  endfacet
  facet normal 0 0 1
    outer loop
      vertex 0 16.5 17
      vertex 7.5 16.5 17
      vertex 0 17.375 17
    endloop
  endfacet
  facet normal 0 0 1
    outer loop
      vertex 7.5 16.5 17
      vertex 0 16.5 17
      vertex 8.75 14.5 17
    endloop
  endfacet
  facet normal 0 0 1
    outer loop
      vertex -1.25 14.5 17
      vertex 0 16.5 17
      vertex -1.25 16.5 17
    endloop
  endfacet
  facet normal 0 0 1
    outer loop
      vertex 0 16.5 17
      vertex -1.25 14.5 17
      vertex 8.75 14.5 17
    endloop
  endfacet
  facet normal 0 0 -1
    outer loop
      vertex 7.5 18.75 17
      vertex 8.75 19.5 17
      vertex 8.75 18.75 17
    endloop
  endfacet
  facet normal -0 0 -1
    outer loop
      vertex 8.75 19.5 17
      vertex 7.5 18.75 17
      vertex 7.5 19.5 17
    endloop
  endfacet
  facet normal 0 0 -1
    outer loop
      vertex -1.25 18.75 17
      vertex 0 19.5 17
      vertex 0 18.75 17
    endloop
  endfacet
  facet normal -0 0 -1
    outer loop
      vertex 0 19.5 17
      vertex -1.25 18.75 17
      vertex -1.25 19.5 17
    endloop
  endfacet
  facet normal -0 0 1
    outer loop
      vertex 0 18.75 17
      vertex 7.5 18.625 17
      vertex 7.5 18.75 17
    endloop
  endfacet
  facet normal 0 0 1
    outer loop
      vertex 7.5 18.625 17
      vertex 0 18.75 17
      vertex 0 18.625 17
    endloop
  endfacet
  facet normal 1 0 0
    outer loop
      vertex -1.25 24.5 37
      vertex -1.25 19.5 27.5
      vertex -1.25 24.5 14
    endloop
  endfacet
  facet normal 1 -0 0
    outer loop
      vertex -1.25 14.5 30
      vertex -1.25 19.5 27.5
      vertex -1.25 24.5 37
    endloop
  endfacet
  facet normal 1 0 0
    outer loop
      vertex -1.25 14.5 17
      vertex -1.25 16.5 27.5
      vertex -1.25 14.5 30
    endloop
  endfacet
  facet normal 1 0 0
    outer loop
      vertex -1.25 19.5 27.5
      vertex -1.25 14.5 30
      vertex -1.25 16.5 27.5
    endloop
  endfacet
  facet normal 1 -0 0
    outer loop
      vertex -1.25 11.415 37
      vertex -1.25 14.5 30
      vertex -1.25 24.5 37
    endloop
  endfacet
  facet normal 1 0 0
    outer loop
      vertex -1.25 14.5 30
      vertex -1.25 11.415 37
      vertex -1.25 11.415 30
    endloop
  endfacet
  facet normal 1 -0 0
    outer loop
      vertex -1.25 19.5 17
      vertex -1.25 24.5 14
      vertex -1.25 19.5 27.5
    endloop
  endfacet
  facet normal 1 0 0
    outer loop
      vertex -1.25 18.75 14
      vertex -1.25 19.5 17
      vertex -1.25 18.75 17
    endloop
  endfacet
  facet normal 1 0 0
    outer loop
      vertex -1.25 19.5 17
      vertex -1.25 18.75 14
      vertex -1.25 24.5 14
    endloop
  endfacet
  facet normal 1 0 0
    outer loop
      vertex -1.25 16.5 27.5
      vertex -1.25 14.5 17
      vertex -1.25 16.5 17
    endloop
  endfacet
  facet normal -1 0 0
    outer loop
      vertex 8.75 16.5 17
      vertex 8.75 14.5 17
      vertex 8.75 16.5 27.5
    endloop
  endfacet
  facet normal -1 0 0
    outer loop
      vertex 8.75 19.5 27.5
      vertex 8.75 24.5 14
      vertex 8.75 19.5 17
    endloop
  endfacet
  facet normal -1 0 0
    outer loop
      vertex 8.75 18.75 14
      vertex 8.75 19.5 17
      vertex 8.75 24.5 14
    endloop
  endfacet
  facet normal -1 -0 0
    outer loop
      vertex 8.75 19.5 17
      vertex 8.75 18.75 14
      vertex 8.75 18.75 17
    endloop
  endfacet
  facet normal -1 0 0
    outer loop
      vertex 8.75 24.5 14
      vertex 8.75 19.5 27.5
      vertex 8.75 24.5 37
    endloop
  endfacet
  facet normal -1 0 0
    outer loop
      vertex 8.75 14.5 30
      vertex 8.75 19.5 27.5
      vertex 8.75 16.5 27.5
    endloop
  endfacet
  facet normal -1 0 0
    outer loop
      vertex 8.75 14.5 30
      vertex 8.75 16.5 27.5
      vertex 8.75 14.5 17
    endloop
  endfacet
  facet normal -1 0 0
    outer loop
      vertex 8.75 19.5 27.5
      vertex 8.75 14.5 30
      vertex 8.75 24.5 37
    endloop
  endfacet
  facet normal -1 0 0
    outer loop
      vertex 8.75 11.353 37
      vertex 8.75 14.5 30
      vertex 8.75 11.353 30
    endloop
  endfacet
  facet normal -1 0 0
    outer loop
      vertex 8.75 14.5 30
      vertex 8.75 11.353 37
      vertex 8.75 24.5 37
    endloop
  endfacet
  facet normal 0 -1 0
    outer loop
      vertex 2.5 24.5 32.5
      vertex 5 24.5 35.5
      vertex 2.5 24.5 35.5
    endloop
  endfacet
  facet normal 0 -1 -0
    outer loop
      vertex 5 24.5 35.5
      vertex 2.5 24.5 32.5
      vertex 5 24.5 32.5
    endloop
  endfacet
  facet normal 0 -1 0
    outer loop
      vertex 2.5 24.5 35.5
      vertex -1.25 24.5 37
      vertex 1 24.5 35.5
    endloop
  endfacet
  facet normal 0 -1 0
    outer loop
      vertex -1.25 24.5 37
      vertex 1 24.5 32.5
      vertex 1 24.5 35.5
    endloop
  endfacet
  facet normal 0 -1 0
    outer loop
      vertex -1.25 24.5 14
      vertex 2.5 24.5 32.5
      vertex 1 24.5 32.5
    endloop
  endfacet
  facet normal 0 -1 -0
    outer loop
      vertex 2.5 24.5 32.5
      vertex -1.25 24.5 14
      vertex 5 24.5 32.5
    endloop
  endfacet
  facet normal 0 -1 0
    outer loop
      vertex 8.75 24.5 14
      vertex 5 24.5 32.5
      vertex -1.25 24.5 14
    endloop
  endfacet
  facet normal 0 -1 0
    outer loop
      vertex -1.25 24.5 14
      vertex 1 24.5 32.5
      vertex -1.25 24.5 37
    endloop
  endfacet
  facet normal 0 -1 0
    outer loop
      vertex -1.25 24.5 37
      vertex 2.5 24.5 35.5
      vertex 8.75 24.5 37
    endloop
  endfacet
  facet normal 0 -1 0
    outer loop
      vertex 5 24.5 35.5
      vertex 8.75 24.5 37
      vertex 2.5 24.5 35.5
    endloop
  endfacet
  facet normal 0 -1 0
    outer loop
      vertex 6.5 24.5 35.5
      vertex 8.75 24.5 37
      vertex 5 24.5 35.5
    endloop
  endfacet
  facet normal 0 -1 0
    outer loop
      vertex 6.5 24.5 32.5
      vertex 8.75 24.5 37
      vertex 6.5 24.5 35.5
    endloop
  endfacet
  facet normal 0 -1 0
    outer loop
      vertex 5 24.5 32.5
      vertex 8.75 24.5 14
      vertex 6.5 24.5 32.5
    endloop
  endfacet
  facet normal 0 -1 0
    outer loop
      vertex 6.5 24.5 32.5
      vertex 8.75 24.5 14
      vertex 8.75 24.5 37
    endloop
  endfacet
  facet normal -0 0 1
    outer loop
      vertex -1.25 24.5 14
      vertex 8.75 18.75 14
      vertex 8.75 24.5 14
    endloop
  endfacet
  facet normal 0 0 1
    outer loop
      vertex 8.75 18.75 14
      vertex -1.25 24.5 14
      vertex -1.25 18.75 14
    endloop
  endfacet
  facet normal 0 1 -0
    outer loop
      vertex 8.75 18.75 14
      vertex 7.5 18.75 17
      vertex 8.75 18.75 17
    endloop
  endfacet
  facet normal 0 1 0
    outer loop
      vertex 7.5 18.75 17
      vertex 8.75 18.75 14
      vertex 0 18.75 17
    endloop
  endfacet
  facet normal 0 1 0
    outer loop
      vertex -1.25 18.75 14
      vertex 0 18.75 17
      vertex 8.75 18.75 14
    endloop
  endfacet
  facet normal 0 1 0
    outer loop
      vertex 0 18.75 17
      vertex -1.25 18.75 14
      vertex -1.25 18.75 17
    endloop
  endfacet
  facet normal 1 0 0
    outer loop
      vertex 0 19.5 27.5
      vertex 0 18.75 17
      vertex 0 19.5 17
    endloop
  endfacet
  facet normal 1 -0 0
    outer loop
      vertex 0 18.625 27.5
      vertex 0 18.75 17
      vertex 0 19.5 27.5
    endloop
  endfacet
  facet normal 1 0 0
    outer loop
      vertex 0 18.75 17
      vertex 0 18.625 27.5
      vertex 0 18.625 17
    endloop
  endfacet
  facet normal 1 -0 0
    outer loop
      vertex 0 16.5 27.5
      vertex 0 17.375 17
      vertex 0 17.375 27.5
    endloop
  endfacet
  facet normal 1 0 0
    outer loop
      vertex 0 17.375 17
      vertex 0 16.5 27.5
      vertex 0 16.5 17
    endloop
  endfacet
  facet normal -1 0 0
    outer loop
      vertex 7.5 18.75 17
      vertex 7.5 19.5 27.5
      vertex 7.5 19.5 17
    endloop
  endfacet
  facet normal -1 0 0
    outer loop
      vertex 7.5 18.625 27.5
      vertex 7.5 18.75 17
      vertex 7.5 18.625 17
    endloop
  endfacet
  facet normal -1 0 0
    outer loop
      vertex 7.5 18.75 17
      vertex 7.5 18.625 27.5
      vertex 7.5 19.5 27.5
    endloop
  endfacet
  facet normal -1 0 0
    outer loop
      vertex 7.5 16.5 17
      vertex 7.5 17.375 27.5
      vertex 7.5 17.375 17
    endloop
  endfacet
  facet normal -1 -0 0
    outer loop
      vertex 7.5 17.375 27.5
      vertex 7.5 16.5 17
      vertex 7.5 16.5 27.5
    endloop
  endfacet
  facet normal 0 1 -0
    outer loop
      vertex 7.5 18.625 17
      vertex 0 18.625 27.5
      vertex 7.5 18.625 27.5
    endloop
  endfacet
  facet normal 0 1 0
    outer loop
      vertex 0 18.625 27.5
      vertex 7.5 18.625 17
      vertex 0 18.625 17
    endloop
  endfacet
  facet normal 0 -1 0
    outer loop
      vertex 0 17.375 17
      vertex 7.5 17.375 27.5
      vertex 0 17.375 27.5
    endloop
  endfacet
  facet normal 0 -1 -0
    outer loop
      vertex 7.5 17.375 27.5
      vertex 0 17.375 17
      vertex 7.5 17.375 17
    endloop
  endfacet
  facet normal -0 0 1
    outer loop
      vertex -1.25 19.5 27.5
      vertex 0 18.625 27.5
      vertex 0 19.5 27.5
    endloop
  endfacet
  facet normal 0 0 1
    outer loop
      vertex 0 18.625 27.5
      vertex -1.25 19.5 27.5
      vertex 0 17.375 27.5
    endloop
  endfacet
  facet normal 0 0 1
    outer loop
      vertex -1.25 16.5 27.5
      vertex 0 17.375 27.5
      vertex -1.25 19.5 27.5
    endloop
  endfacet
  facet normal 0 0 1
    outer loop
      vertex 0 17.375 27.5
      vertex -1.25 16.5 27.5
      vertex 0 16.5 27.5
    endloop
  endfacet
  facet normal -0 0 1
    outer loop
      vertex 0 18.625 27.5
      vertex 7.5 17.375 27.5
      vertex 7.5 18.625 27.5
    endloop
  endfacet
  facet normal 0 0 1
    outer loop
      vertex 7.5 17.375 27.5
      vertex 0 18.625 27.5
      vertex 0 17.375 27.5
    endloop
  endfacet
  facet normal 0 0 1
    outer loop
      vertex 7.5 18.625 27.5
      vertex 8.75 19.5 27.5
      vertex 7.5 19.5 27.5
    endloop
  endfacet
  facet normal 0 0 1
    outer loop
      vertex 8.75 19.5 27.5
      vertex 7.5 18.625 27.5
      vertex 8.75 16.5 27.5
    endloop
  endfacet
  facet normal -0 0 1
    outer loop
      vertex 7.5 17.375 27.5
      vertex 8.75 16.5 27.5
      vertex 7.5 18.625 27.5
    endloop
  endfacet
  facet normal 0 0 1
    outer loop
      vertex 8.75 16.5 27.5
      vertex 7.5 17.375 27.5
      vertex 7.5 16.5 27.5
    endloop
  endfacet
  facet normal 0 1 -0
    outer loop
      vertex 8.75 19.5 17
      vertex 7.5 19.5 27.5
      vertex 8.75 19.5 27.5
    endloop
  endfacet
  facet normal 0 1 0
    outer loop
      vertex 7.5 19.5 27.5
      vertex 8.75 19.5 17
      vertex 7.5 19.5 17
    endloop
  endfacet
  facet normal 0 -1 0
    outer loop
      vertex 7.5 16.5 17
      vertex 8.75 16.5 27.5
      vertex 7.5 16.5 27.5
    endloop
  endfacet
  facet normal 0 -1 -0
    outer loop
      vertex 8.75 16.5 27.5
      vertex 7.5 16.5 17
      vertex 8.75 16.5 17
    endloop
  endfacet
  facet normal 0 1 -0
    outer loop
      vertex 0 19.5 17
      vertex -1.25 19.5 27.5
      vertex 0 19.5 27.5
    endloop
  endfacet
  facet normal 0 1 0
    outer loop
      vertex -1.25 19.5 27.5
      vertex 0 19.5 17
      vertex -1.25 19.5 17
    endloop
  endfacet
  facet normal 0 -1 0
    outer loop
      vertex -1.25 16.5 17
      vertex 0 16.5 27.5
      vertex -1.25 16.5 27.5
    endloop
  endfacet
  facet normal 0 -1 -0
    outer loop
      vertex 0 16.5 27.5
      vertex -1.25 16.5 17
      vertex 0 16.5 17
    endloop
  endfacet
  facet normal -1 0 0
    outer loop
      vertex 10.25 -14.5 12
      vertex 10.25 -14.3826 30
      vertex 10.25 -14.3826 12
    endloop
  endfacet
  facet normal -1 -0 0
    outer loop
      vertex 10.25 -14.3826 30
      vertex 10.25 -14.5 12
      vertex 10.25 -14.5 30
    endloop
  endfacet
  facet normal -1 0 0
    outer loop
      vertex 10.25 14.3826 12
      vertex 10.25 14.5 30
      vertex 10.25 14.5 12
    endloop
  endfacet
  facet normal -1 -0 0
    outer loop
      vertex 10.25 14.5 30
      vertex 10.25 14.3826 12
      vertex 10.25 14.3826 30
    endloop
  endfacet
  facet normal 1 -0 0
    outer loop
      vertex -10.25 -14.5 30
      vertex -10.25 14.5 12
      vertex -10.25 14.5 30
    endloop
  endfacet
  facet normal 1 0 0
    outer loop
      vertex -10.25 14.5 12
      vertex -10.25 -14.5 30
      vertex -10.25 -14.5 12
    endloop
  endfacet
  facet normal 0 1 0
    outer loop
      vertex 10.25 -14.5 30
      vertex 8.75 -14.5 17
      vertex 8.75 -14.5 30
    endloop
  endfacet
  facet normal 0 1 0
    outer loop
      vertex 8.75 -14.5 17
      vertex 10.25 -14.5 12
      vertex -1.25 -14.5 17
    endloop
  endfacet
  facet normal 0 1 -0
    outer loop
      vertex 10.25 -14.5 12
      vertex 8.75 -14.5 17
      vertex 10.25 -14.5 30
    endloop
  endfacet
  facet normal 0 1 -0
    outer loop
      vertex -1.25 -14.5 17
      vertex -10.25 -14.5 30
      vertex -1.25 -14.5 30
    endloop
  endfacet
  facet normal 0 1 0
    outer loop
      vertex -1.25 -14.5 17
      vertex -10.25 -14.5 12
      vertex -10.25 -14.5 30
    endloop
  endfacet
  facet normal 0 1 0
    outer loop
      vertex -10.25 -14.5 12
      vertex -1.25 -14.5 17
      vertex 10.25 -14.5 12
    endloop
  endfacet
  facet normal 0 -1 0
    outer loop
      vertex -10.25 14.5 30
      vertex -1.25 14.5 17
      vertex -1.25 14.5 30
    endloop
  endfacet
  facet normal 0 -1 0
    outer loop
      vertex 10.25 14.5 12
      vertex -1.25 14.5 17
      vertex -10.25 14.5 12
    endloop
  endfacet
  facet normal 0 -1 0
    outer loop
      vertex -10.25 14.5 12
      vertex -1.25 14.5 17
      vertex -10.25 14.5 30
    endloop
  endfacet
  facet normal 0 -1 0
    outer loop
      vertex 8.75 14.5 17
      vertex 10.25 14.5 30
      vertex 8.75 14.5 30
    endloop
  endfacet
  facet normal 0 -1 0
    outer loop
      vertex 8.75 14.5 17
      vertex 10.25 14.5 12
      vertex 10.25 14.5 30
    endloop
  endfacet
  facet normal 0 -1 0
    outer loop
      vertex -1.25 14.5 17
      vertex 10.25 14.5 12
      vertex 8.75 14.5 17
    endloop
  endfacet
  facet normal 0 0 -1
    outer loop
      vertex 10.25 -14.5 30
      vertex 8.75 -14.5 30
      vertex 10.25 -14.3826 30
    endloop
  endfacet
  facet normal 0 0 -1
    outer loop
      vertex 16.25 0 30
      vertex 25.25 0 30
      vertex 24.7945 -3.606 30
    endloop
  endfacet
  facet normal 0 0 -1
    outer loop
      vertex 15.8573 -3.10862 30
      vertex 24.7945 -3.606 30
      vertex 23.4564 -6.98543 30
    endloop
  endfacet
  facet normal 0 0 -1
    outer loop
      vertex 25.25 0 30
      vertex 16.25 0 30
      vertex 24.7945 3.606 30
    endloop
  endfacet
  facet normal 0 0 -1
    outer loop
      vertex 15.8573 -3.10862 30
      vertex 23.4564 -6.98543 30
      vertex 21.32 -9.92593 30
    endloop
  endfacet
  facet normal 0 0 -1
    outer loop
      vertex 15.8573 3.10862 30
      vertex 24.7945 3.606 30
      vertex 16.25 0 30
    endloop
  endfacet
  facet normal 0 0 -1
    outer loop
      vertex 14.7038 -6.02192 30
      vertex 21.32 -9.92593 30
      vertex 18.5195 -12.2428 30
    endloop
  endfacet
  facet normal -0 0 -1
    outer loop
      vertex 24.7945 3.606 30
      vertex 15.8573 3.10862 30
      vertex 23.4564 6.98543 30
    endloop
  endfacet
  facet normal -0 0 -1
    outer loop
      vertex 23.4564 6.98543 30
      vertex 15.8573 3.10862 30
      vertex 21.32 9.92593 30
    endloop
  endfacet
  facet normal 0 0 -1
    outer loop
      vertex 24.7945 -3.606 30
      vertex 15.8573 -3.10862 30
      vertex 16.25 0 30
    endloop
  endfacet
  facet normal 0 0 -1
    outer loop
      vertex 12.8621 -8.55684 30
      vertex 18.5195 -12.2428 30
      vertex 15.2307 -13.7903 30
    endloop
  endfacet
  facet normal 0 0 -1
    outer loop
      vertex 21.32 -9.92593 30
      vertex 14.7038 -6.02192 30
      vertex 15.8573 -3.10862 30
    endloop
  endfacet
  facet normal 0 0 -1
    outer loop
      vertex 18.5195 -12.2428 30
      vertex 12.8621 -8.55684 30
      vertex 14.7038 -6.02192 30
    endloop
  endfacet
  facet normal 0 0 -1
    outer loop
      vertex 10.4478 -10.5541 30
      vertex 15.2307 -13.7903 30
      vertex 11.6605 -14.4714 30
    endloop
  endfacet
  facet normal 0 0 -1
    outer loop
      vertex 15.2307 -13.7903 30
      vertex 10.4478 -10.5541 30
      vertex 12.8621 -8.55684 30
    endloop
  endfacet
  facet normal 0 0 -1
    outer loop
      vertex 10.25 -14.3826 30
      vertex 10.4478 -10.5541 30
      vertex 11.6605 -14.4714 30
    endloop
  endfacet
  facet normal 0 0 -1
    outer loop
      vertex 8.75 -11.353 30
      vertex 10.25 -14.3826 30
      vertex 8.75 -14.5 30
    endloop
  endfacet
  facet normal 0 0 -1
    outer loop
      vertex 10.25 -14.3826 30
      vertex 8.75 -11.353 30
      vertex 10.4478 -10.5541 30
    endloop
  endfacet
  facet normal 0 0 -1
    outer loop
      vertex 14.7038 6.02192 30
      vertex 21.32 9.92593 30
      vertex 15.8573 3.10862 30
    endloop
  endfacet
  facet normal -0 0 -1
    outer loop
      vertex 21.32 9.92593 30
      vertex 14.7038 6.02192 30
      vertex 18.5195 12.2428 30
    endloop
  endfacet
  facet normal 0 0 -1
    outer loop
      vertex 12.8621 8.55684 30
      vertex 18.5195 12.2428 30
      vertex 14.7038 6.02192 30
    endloop
  endfacet
  facet normal -0 0 -1
    outer loop
      vertex 18.5195 12.2428 30
      vertex 12.8621 8.55684 30
      vertex 15.2307 13.7903 30
    endloop
  endfacet
  facet normal 0 0 -1
    outer loop
      vertex 10.4478 10.5541 30
      vertex 15.2307 13.7903 30
      vertex 12.8621 8.55684 30
    endloop
  endfacet
  facet normal -0 0 -1
    outer loop
      vertex 15.2307 13.7903 30
      vertex 10.4478 10.5541 30
      vertex 11.6605 14.4714 30
    endloop
  endfacet
  facet normal 0 0 -1
    outer loop
      vertex 10.4478 10.5541 30
      vertex 10.25 14.3826 30
      vertex 11.6605 14.4714 30
    endloop
  endfacet
  facet normal 0 0 -1
    outer loop
      vertex 8.75 11.353 30
      vertex 10.25 14.3826 30
      vertex 10.4478 10.5541 30
    endloop
  endfacet
  facet normal 0 0 -1
    outer loop
      vertex 8.75 14.5 30
      vertex 10.25 14.3826 30
      vertex 8.75 11.353 30
    endloop
  endfacet
  facet normal 0 0 -1
    outer loop
      vertex 10.25 14.3826 30
      vertex 8.75 14.5 30
      vertex 10.25 14.5 30
    endloop
  endfacet
  facet normal 0 0 -1
    outer loop
      vertex -1.25 -14.5 30
      vertex -1.57224 -11.3103 30
      vertex -1.25 -11.415 30
    endloop
  endfacet
  facet normal 0 0 -1
    outer loop
      vertex -1.25 -14.5 30
      vertex -4.2178 -9.63142 30
      vertex -1.57224 -11.3103 30
    endloop
  endfacet
  facet normal 0 0 -1
    outer loop
      vertex -10.25 -14.5 30
      vertex -4.2178 -9.63142 30
      vertex -1.25 -14.5 30
    endloop
  endfacet
  facet normal -0 0 -1
    outer loop
      vertex -8.65143 -1.56666 30
      vertex -10.25 -14.5 30
      vertex -8.65143 1.56666 30
    endloop
  endfacet
  facet normal -0 0 -1
    outer loop
      vertex -7.87221 -4.60156 30
      vertex -10.25 -14.5 30
      vertex -8.65143 -1.56666 30
    endloop
  endfacet
  facet normal -0 0 -1
    outer loop
      vertex -6.36271 -7.34731 30
      vertex -10.25 -14.5 30
      vertex -7.87221 -4.60156 30
    endloop
  endfacet
  facet normal -0 0 -1
    outer loop
      vertex -4.2178 -9.63142 30
      vertex -10.25 -14.5 30
      vertex -6.36271 -7.34731 30
    endloop
  endfacet
  facet normal 0 0 -1
    outer loop
      vertex -1.57224 11.3103 30
      vertex -1.25 14.5 30
      vertex -1.25 11.415 30
    endloop
  endfacet
  facet normal 0 0 -1
    outer loop
      vertex -4.2178 9.63142 30
      vertex -1.25 14.5 30
      vertex -1.57224 11.3103 30
    endloop
  endfacet
  facet normal 0 0 -1
    outer loop
      vertex -10.25 14.5 30
      vertex -4.2178 9.63142 30
      vertex -6.36271 7.34731 30
    endloop
  endfacet
  facet normal 0 0 -1
    outer loop
      vertex -4.2178 9.63142 30
      vertex -10.25 14.5 30
      vertex -1.25 14.5 30
    endloop
  endfacet
  facet normal 0 0 -1
    outer loop
      vertex -7.87221 4.60156 30
      vertex -10.25 14.5 30
      vertex -6.36271 7.34731 30
    endloop
  endfacet
  facet normal 0 0 -1
    outer loop
      vertex -8.65143 1.56666 30
      vertex -10.25 14.5 30
      vertex -7.87221 4.60156 30
    endloop
  endfacet
  facet normal 0 0 -1
    outer loop
      vertex -10.25 14.5 30
      vertex -8.65143 1.56666 30
      vertex -10.25 -14.5 30
    endloop
  endfacet
  facet normal -0.992116 0.125321 0
    outer loop
      vertex 24.7945 -3.606 12
      vertex 25.25 0 30
      vertex 25.25 0 12
    endloop
  endfacet
  facet normal -0.992116 0.125321 0
    outer loop
      vertex 25.25 0 30
      vertex 24.7945 -3.606 12
      vertex 24.7945 -3.606 30
    endloop
  endfacet
  facet normal -0.992116 -0.125321 0
    outer loop
      vertex 25.25 0 12
      vertex 24.7945 3.606 30
      vertex 24.7945 3.606 12
    endloop
  endfacet
  facet normal -0.992116 -0.125321 0
    outer loop
      vertex 24.7945 3.606 30
      vertex 25.25 0 12
      vertex 25.25 0 30
    endloop
  endfacet
  facet normal -0.637439 0.7705 0
    outer loop
      vertex 21.32 -9.92593 12
      vertex 18.5195 -12.2428 30
      vertex 21.32 -9.92593 30
    endloop
  endfacet
  facet normal -0.637439 0.7705 0
    outer loop
      vertex 18.5195 -12.2428 30
      vertex 21.32 -9.92593 12
      vertex 18.5195 -12.2428 12
    endloop
  endfacet
  facet normal -0.425759 0.904837 0
    outer loop
      vertex 18.5195 -12.2428 12
      vertex 15.2307 -13.7903 30
      vertex 18.5195 -12.2428 30
    endloop
  endfacet
  facet normal -0.425759 0.904837 0
    outer loop
      vertex 15.2307 -13.7903 30
      vertex 18.5195 -12.2428 12
      vertex 15.2307 -13.7903 12
    endloop
  endfacet
  facet normal -0.637439 -0.7705 0
    outer loop
      vertex 18.5195 12.2428 12
      vertex 21.32 9.92593 30
      vertex 18.5195 12.2428 30
    endloop
  endfacet
  facet normal -0.637439 -0.7705 -0
    outer loop
      vertex 21.32 9.92593 30
      vertex 18.5195 12.2428 12
      vertex 21.32 9.92593 12
    endloop
  endfacet
  facet normal -0.929768 -0.368146 0
    outer loop
      vertex 24.7945 3.606 12
      vertex 23.4564 6.98543 30
      vertex 23.4564 6.98543 12
    endloop
  endfacet
  facet normal -0.929768 -0.368146 0
    outer loop
      vertex 23.4564 6.98543 30
      vertex 24.7945 3.606 12
      vertex 24.7945 3.606 30
    endloop
  endfacet
  facet normal 0.062832 0.998024 -0
    outer loop
      vertex 11.6605 -14.4714 12
      vertex 10.25 -14.3826 30
      vertex 11.6605 -14.4714 30
    endloop
  endfacet
  facet normal 0.062832 0.998024 0
    outer loop
      vertex 10.25 -14.3826 30
      vertex 11.6605 -14.4714 12
      vertex 10.25 -14.3826 12
    endloop
  endfacet
  facet normal -0.929768 0.368146 0
    outer loop
      vertex 23.4564 -6.98543 12
      vertex 24.7945 -3.606 30
      vertex 24.7945 -3.606 12
    endloop
  endfacet
  facet normal -0.929768 0.368146 0
    outer loop
      vertex 24.7945 -3.606 30
      vertex 23.4564 -6.98543 12
      vertex 23.4564 -6.98543 30
    endloop
  endfacet
  facet normal -0.187394 0.982285 0
    outer loop
      vertex 15.2307 -13.7903 12
      vertex 11.6605 -14.4714 30
      vertex 15.2307 -13.7903 30
    endloop
  endfacet
  facet normal -0.187394 0.982285 0
    outer loop
      vertex 11.6605 -14.4714 30
      vertex 15.2307 -13.7903 12
      vertex 11.6605 -14.4714 12
    endloop
  endfacet
  facet normal -0.809017 -0.587786 0
    outer loop
      vertex 23.4564 6.98543 12
      vertex 21.32 9.92593 30
      vertex 21.32 9.92593 12
    endloop
  endfacet
  facet normal -0.809017 -0.587786 0
    outer loop
      vertex 21.32 9.92593 30
      vertex 23.4564 6.98543 12
      vertex 23.4564 6.98543 30
    endloop
  endfacet
  facet normal -0.809017 0.587786 0
    outer loop
      vertex 21.32 -9.92593 12
      vertex 23.4564 -6.98543 30
      vertex 23.4564 -6.98543 12
    endloop
  endfacet
  facet normal -0.809017 0.587786 0
    outer loop
      vertex 23.4564 -6.98543 30
      vertex 21.32 -9.92593 12
      vertex 21.32 -9.92593 30
    endloop
  endfacet
  facet normal 0.062832 -0.998024 0
    outer loop
      vertex 10.25 14.3826 12
      vertex 11.6605 14.4714 30
      vertex 10.25 14.3826 30
    endloop
  endfacet
  facet normal 0.062832 -0.998024 0
    outer loop
      vertex 11.6605 14.4714 30
      vertex 10.25 14.3826 12
      vertex 11.6605 14.4714 12
    endloop
  endfacet
  facet normal -0.425759 -0.904837 0
    outer loop
      vertex 15.2307 13.7903 12
      vertex 18.5195 12.2428 30
      vertex 15.2307 13.7903 30
    endloop
  endfacet
  facet normal -0.425759 -0.904837 -0
    outer loop
      vertex 18.5195 12.2428 30
      vertex 15.2307 13.7903 12
      vertex 18.5195 12.2428 12
    endloop
  endfacet
  facet normal -0.187394 -0.982285 0
    outer loop
      vertex 11.6605 14.4714 12
      vertex 15.2307 13.7903 30
      vertex 11.6605 14.4714 30
    endloop
  endfacet
  facet normal -0.187394 -0.982285 -0
    outer loop
      vertex 15.2307 13.7903 30
      vertex 11.6605 14.4714 12
      vertex 15.2307 13.7903 12
    endloop
  endfacet
  facet normal -1 0 0
    outer loop
      vertex 6.5 -26.5 32.5
      vertex 6.5 -24.5 35.5
      vertex 6.5 -24.5 32.5
    endloop
  endfacet
  facet normal -1 -0 0
    outer loop
      vertex 6.5 -24.5 35.5
      vertex 6.5 -26.5 32.5
      vertex 6.5 -26.5 35.5
    endloop
  endfacet
  facet normal 1 -0 0
    outer loop
      vertex 5 -26.5 35.5
      vertex 5 -24.5 32.5
      vertex 5 -24.5 35.5
    endloop
  endfacet
  facet normal 1 0 0
    outer loop
      vertex 5 -24.5 32.5
      vertex 5 -26.5 35.5
      vertex 5 -26.5 32.5
    endloop
  endfacet
  facet normal 0 0 -1
    outer loop
      vertex 5 -26.5 35.5
      vertex 6.5 -24.5 35.5
      vertex 6.5 -26.5 35.5
    endloop
  endfacet
  facet normal -0 0 -1
    outer loop
      vertex 6.5 -24.5 35.5
      vertex 5 -26.5 35.5
      vertex 5 -24.5 35.5
    endloop
  endfacet
  facet normal -0 0 1
    outer loop
      vertex 5 -24.5 32.5
      vertex 6.5 -26.5 32.5
      vertex 6.5 -24.5 32.5
    endloop
  endfacet
  facet normal 0 0 1
    outer loop
      vertex 6.5 -26.5 32.5
      vertex 5 -24.5 32.5
      vertex 5 -26.5 32.5
    endloop
  endfacet
  facet normal -1 0 0
    outer loop
      vertex 2.5 -26.5 32.5
      vertex 2.5 -24.5 35.5
      vertex 2.5 -24.5 32.5
    endloop
  endfacet
  facet normal -1 -0 0
    outer loop
      vertex 2.5 -24.5 35.5
      vertex 2.5 -26.5 32.5
      vertex 2.5 -26.5 35.5
    endloop
  endfacet
  facet normal 1 -0 0
    outer loop
      vertex 1 -26.5 35.5
      vertex 1 -24.5 32.5
      vertex 1 -24.5 35.5
    endloop
  endfacet
  facet normal 1 0 0
    outer loop
      vertex 1 -24.5 32.5
      vertex 1 -26.5 35.5
      vertex 1 -26.5 32.5
    endloop
  endfacet
  facet normal 0 0 -1
    outer loop
      vertex 1 -26.5 35.5
      vertex 2.5 -24.5 35.5
      vertex 2.5 -26.5 35.5
    endloop
  endfacet
  facet normal -0 0 -1
    outer loop
      vertex 2.5 -24.5 35.5
      vertex 1 -26.5 35.5
      vertex 1 -24.5 35.5
    endloop
  endfacet
  facet normal -0 0 1
    outer loop
      vertex 1 -24.5 32.5
      vertex 2.5 -26.5 32.5
      vertex 2.5 -24.5 32.5
    endloop
  endfacet
  facet normal 0 0 1
    outer loop
      vertex 2.5 -26.5 32.5
      vertex 1 -24.5 32.5
      vertex 1 -26.5 32.5
    endloop
  endfacet
  facet normal -1 0 0
    outer loop
      vertex 6.5 24.5 32.5
      vertex 6.5 26.5 35.5
      vertex 6.5 26.5 32.5
    endloop
  endfacet
  facet normal -1 -0 0
    outer loop
      vertex 6.5 26.5 35.5
      vertex 6.5 24.5 32.5
      vertex 6.5 24.5 35.5
    endloop
  endfacet
  facet normal 1 -0 0
    outer loop
      vertex 5 24.5 35.5
      vertex 5 26.5 32.5
      vertex 5 26.5 35.5
    endloop
  endfacet
  facet normal 1 0 0
    outer loop
      vertex 5 26.5 32.5
      vertex 5 24.5 35.5
      vertex 5 24.5 32.5
    endloop
  endfacet
  facet normal -0 0 1
    outer loop
      vertex 5 26.5 32.5
      vertex 6.5 24.5 32.5
      vertex 6.5 26.5 32.5
    endloop
  endfacet
  facet normal 0 0 1
    outer loop
      vertex 6.5 24.5 32.5
      vertex 5 26.5 32.5
      vertex 5 24.5 32.5
    endloop
  endfacet
  facet normal 0 0 -1
    outer loop
      vertex 5 24.5 35.5
      vertex 6.5 26.5 35.5
      vertex 6.5 24.5 35.5
    endloop
  endfacet
  facet normal -0 0 -1
    outer loop
      vertex 6.5 26.5 35.5
      vertex 5 24.5 35.5
      vertex 5 26.5 35.5
    endloop
  endfacet
  facet normal -1 0 0
    outer loop
      vertex 2.5 24.5 32.5
      vertex 2.5 26.5 35.5
      vertex 2.5 26.5 32.5
    endloop
  endfacet
  facet normal -1 -0 0
    outer loop
      vertex 2.5 26.5 35.5
      vertex 2.5 24.5 32.5
      vertex 2.5 24.5 35.5
    endloop
  endfacet
  facet normal 1 -0 0
    outer loop
      vertex 1 24.5 35.5
      vertex 1 26.5 32.5
      vertex 1 26.5 35.5
    endloop
  endfacet
  facet normal 1 0 0
    outer loop
      vertex 1 26.5 32.5
      vertex 1 24.5 35.5
      vertex 1 24.5 32.5
    endloop
  endfacet
  facet normal -0 0 1
    outer loop
      vertex 1 26.5 32.5
      vertex 2.5 24.5 32.5
      vertex 2.5 26.5 32.5
    endloop
  endfacet
  facet normal 0 0 1
    outer loop
      vertex 2.5 24.5 32.5
      vertex 1 26.5 32.5
      vertex 1 24.5 32.5
    endloop
  endfacet
  facet normal 0 0 -1
    outer loop
      vertex 1 24.5 35.5
      vertex 2.5 26.5 35.5
      vertex 2.5 24.5 35.5
    endloop
  endfacet
  facet normal -0 0 -1
    outer loop
      vertex 2.5 26.5 35.5
      vertex 1 24.5 35.5
      vertex 1 26.5 35.5
    endloop
  endfacet
  facet normal 0 -1 0
    outer loop
      vertex 17.5 -15.75 12
      vertex 22.5 -15.75 37
      vertex 17.5 -15.75 37
    endloop
  endfacet
  facet normal 0 -1 -0
    outer loop
      vertex 22.5 -15.75 37
      vertex 17.5 -15.75 12
      vertex 22.5 -15.75 12
    endloop
  endfacet
  facet normal 0 1 -0
    outer loop
      vertex 22.5 -18.25 12
      vertex 17.5 -18.25 37
      vertex 22.5 -18.25 37
    endloop
  endfacet
  facet normal 0 1 0
    outer loop
      vertex 17.5 -18.25 37
      vertex 22.5 -18.25 12
      vertex 17.5 -18.25 12
    endloop
  endfacet
  facet normal -1 0 0
    outer loop
      vertex 22.5 -18.25 12
      vertex 22.5 -15.75 37
      vertex 22.5 -15.75 12
    endloop
  endfacet
  facet normal -1 -0 0
    outer loop
      vertex 22.5 -15.75 37
      vertex 22.5 -18.25 12
      vertex 22.5 -18.25 37
    endloop
  endfacet
  facet normal 1 -0 0
    outer loop
      vertex 17.5 -18.25 37
      vertex 17.5 -15.75 12
      vertex 17.5 -15.75 37
    endloop
  endfacet
  facet normal 1 0 0
    outer loop
      vertex 17.5 -15.75 12
      vertex 17.5 -18.25 37
      vertex 17.5 -18.25 12
    endloop
  endfacet
  facet normal 0 -1 0
    outer loop
      vertex 17.5 -21.75 12
      vertex 22.5 -21.75 37
      vertex 17.5 -21.75 37
    endloop
  endfacet
  facet normal 0 -1 -0
    outer loop
      vertex 22.5 -21.75 37
      vertex 17.5 -21.75 12
      vertex 22.5 -21.75 12
    endloop
  endfacet
  facet normal 0 1 -0
    outer loop
      vertex 22.5 -24.25 12
      vertex 17.5 -24.25 37
      vertex 22.5 -24.25 37
    endloop
  endfacet
  facet normal 0 1 0
    outer loop
      vertex 17.5 -24.25 37
      vertex 22.5 -24.25 12
      vertex 17.5 -24.25 12
    endloop
  endfacet
  facet normal -1 0 0
    outer loop
      vertex 22.5 -24.25 12
      vertex 22.5 -21.75 37
      vertex 22.5 -21.75 12
    endloop
  endfacet
  facet normal -1 -0 0
    outer loop
      vertex 22.5 -21.75 37
      vertex 22.5 -24.25 12
      vertex 22.5 -24.25 37
    endloop
  endfacet
  facet normal 1 -0 0
    outer loop
      vertex 17.5 -24.25 37
      vertex 17.5 -21.75 12
      vertex 17.5 -21.75 37
    endloop
  endfacet
  facet normal 1 0 0
    outer loop
      vertex 17.5 -21.75 12
      vertex 17.5 -24.25 37
      vertex 17.5 -24.25 12
    endloop
  endfacet
  facet normal -0.992115 0.12533 0
    outer loop
      vertex 15.8573 -3.10862 30
      vertex 16.25 0 37
      vertex 16.25 0 30
    endloop
  endfacet
  facet normal -0.992115 0.12533 0
    outer loop
      vertex 16.25 0 37
      vertex 15.8573 -3.10862 30
      vertex 15.8573 -3.10862 37
    endloop
  endfacet
  facet normal -0.992115 -0.12533 0
    outer loop
      vertex 16.25 0 30
      vertex 15.8573 3.10862 37
      vertex 15.8573 3.10862 30
    endloop
  endfacet
  facet normal -0.992115 -0.12533 0
    outer loop
      vertex 15.8573 3.10862 37
      vertex 16.25 0 30
      vertex 16.25 0 37
    endloop
  endfacet
  facet normal 0.876305 0.481756 0
    outer loop
      vertex -6.36271 -7.34731 37
      vertex -7.87221 -4.60156 30
      vertex -7.87221 -4.60156 37
    endloop
  endfacet
  facet normal 0.876305 0.481756 0
    outer loop
      vertex -7.87221 -4.60156 30
      vertex -6.36271 -7.34731 37
      vertex -6.36271 -7.34731 30
    endloop
  endfacet
  facet normal -0.63742 0.770517 0
    outer loop
      vertex 12.8621 -8.55684 30
      vertex 10.4478 -10.5541 37
      vertex 12.8621 -8.55684 37
    endloop
  endfacet
  facet normal -0.63742 0.770517 0
    outer loop
      vertex 10.4478 -10.5541 37
      vertex 12.8621 -8.55684 30
      vertex 10.4478 -10.5541 30
    endloop
  endfacet
  facet normal -0.929772 0.368136 0
    outer loop
      vertex 14.7038 -6.02192 30
      vertex 15.8573 -3.10862 37
      vertex 15.8573 -3.10862 30
    endloop
  endfacet
  facet normal -0.929772 0.368136 0
    outer loop
      vertex 15.8573 -3.10862 37
      vertex 14.7038 -6.02192 30
      vertex 14.7038 -6.02192 37
    endloop
  endfacet
  facet normal 0.968584 0.248687 0
    outer loop
      vertex -7.87221 -4.60156 37
      vertex -8.65143 -1.56666 30
      vertex -8.65143 -1.56666 37
    endloop
  endfacet
  facet normal 0.968584 0.248687 0
    outer loop
      vertex -8.65143 -1.56666 30
      vertex -7.87221 -4.60156 37
      vertex -7.87221 -4.60156 30
    endloop
  endfacet
  facet normal 0.728971 0.684545 0
    outer loop
      vertex -4.2178 -9.63142 37
      vertex -6.36271 -7.34731 30
      vertex -6.36271 -7.34731 37
    endloop
  endfacet
  facet normal 0.728971 0.684545 0
    outer loop
      vertex -6.36271 -7.34731 30
      vertex -4.2178 -9.63142 37
      vertex -4.2178 -9.63142 30
    endloop
  endfacet
  facet normal 0.309011 0.951058 -0
    outer loop
      vertex -1.25 -11.415 30
      vertex -1.57224 -11.3103 37
      vertex -1.25 -11.415 37
    endloop
  endfacet
  facet normal 0.309011 0.951058 0
    outer loop
      vertex -1.57224 -11.3103 37
      vertex -1.25 -11.415 30
      vertex -1.57224 -11.3103 30
    endloop
  endfacet
  facet normal 0.535817 0.844334 -0
    outer loop
      vertex -1.57224 -11.3103 30
      vertex -4.2178 -9.63142 37
      vertex -1.57224 -11.3103 37
    endloop
  endfacet
  facet normal 0.535817 0.844334 0
    outer loop
      vertex -4.2178 -9.63142 37
      vertex -1.57224 -11.3103 30
      vertex -4.2178 -9.63142 30
    endloop
  endfacet
  facet normal -0.425769 0.904832 0
    outer loop
      vertex 10.4478 -10.5541 30
      vertex 8.75 -11.353 37
      vertex 10.4478 -10.5541 37
    endloop
  endfacet
  facet normal -0.425769 0.904832 0
    outer loop
      vertex 8.75 -11.353 37
      vertex 10.4478 -10.5541 30
      vertex 8.75 -11.353 30
    endloop
  endfacet
  facet normal 1 -0 0
    outer loop
      vertex -8.65143 -1.56666 37
      vertex -8.65143 1.56666 30
      vertex -8.65143 1.56666 37
    endloop
  endfacet
  facet normal 1 0 0
    outer loop
      vertex -8.65143 1.56666 30
      vertex -8.65143 -1.56666 37
      vertex -8.65143 -1.56666 30
    endloop
  endfacet
  facet normal 0.968584 -0.248687 0
    outer loop
      vertex -8.65143 1.56666 37
      vertex -7.87221 4.60156 30
      vertex -7.87221 4.60156 37
    endloop
  endfacet
  facet normal 0.968584 -0.248687 0
    outer loop
      vertex -7.87221 4.60156 30
      vertex -8.65143 1.56666 37
      vertex -8.65143 1.56666 30
    endloop
  endfacet
  facet normal -0.63742 -0.770517 0
    outer loop
      vertex 10.4478 10.5541 30
      vertex 12.8621 8.55684 37
      vertex 10.4478 10.5541 37
    endloop
  endfacet
  facet normal -0.63742 -0.770517 -0
    outer loop
      vertex 12.8621 8.55684 37
      vertex 10.4478 10.5541 30
      vertex 12.8621 8.55684 30
    endloop
  endfacet
  facet normal 0.876305 -0.481756 0
    outer loop
      vertex -7.87221 4.60156 37
      vertex -6.36271 7.34731 30
      vertex -6.36271 7.34731 37
    endloop
  endfacet
  facet normal 0.876305 -0.481756 0
    outer loop
      vertex -6.36271 7.34731 30
      vertex -7.87221 4.60156 37
      vertex -7.87221 4.60156 30
    endloop
  endfacet
  facet normal 0.728971 -0.684545 0
    outer loop
      vertex -6.36271 7.34731 37
      vertex -4.2178 9.63142 30
      vertex -4.2178 9.63142 37
    endloop
  endfacet
  facet normal 0.728971 -0.684545 0
    outer loop
      vertex -4.2178 9.63142 30
      vertex -6.36271 7.34731 37
      vertex -6.36271 7.34731 30
    endloop
  endfacet
  facet normal -0.809021 0.58778 0
    outer loop
      vertex 12.8621 -8.55684 30
      vertex 14.7038 -6.02192 37
      vertex 14.7038 -6.02192 30
    endloop
  endfacet
  facet normal -0.809021 0.58778 0
    outer loop
      vertex 14.7038 -6.02192 37
      vertex 12.8621 -8.55684 30
      vertex 12.8621 -8.55684 37
    endloop
  endfacet
  facet normal 0.309011 -0.951058 0
    outer loop
      vertex -1.57224 11.3103 30
      vertex -1.25 11.415 37
      vertex -1.57224 11.3103 37
    endloop
  endfacet
  facet normal 0.309011 -0.951058 0
    outer loop
      vertex -1.25 11.415 37
      vertex -1.57224 11.3103 30
      vertex -1.25 11.415 30
    endloop
  endfacet
  facet normal 0.535817 -0.844334 0
    outer loop
      vertex -4.2178 9.63142 30
      vertex -1.57224 11.3103 37
      vertex -4.2178 9.63142 37
    endloop
  endfacet
  facet normal 0.535817 -0.844334 0
    outer loop
      vertex -1.57224 11.3103 37
      vertex -4.2178 9.63142 30
      vertex -1.57224 11.3103 30
    endloop
  endfacet
  facet normal -0.425769 -0.904832 0
    outer loop
      vertex 8.75 11.353 30
      vertex 10.4478 10.5541 37
      vertex 8.75 11.353 37
    endloop
  endfacet
  facet normal -0.425769 -0.904832 -0
    outer loop
      vertex 10.4478 10.5541 37
      vertex 8.75 11.353 30
      vertex 10.4478 10.5541 30
    endloop
  endfacet
  facet normal -0.929772 -0.368136 0
    outer loop
      vertex 15.8573 3.10862 30
      vertex 14.7038 6.02192 37
      vertex 14.7038 6.02192 30
    endloop
  endfacet
  facet normal -0.929772 -0.368136 0
    outer loop
      vertex 14.7038 6.02192 37
      vertex 15.8573 3.10862 30
      vertex 15.8573 3.10862 37
    endloop
  endfacet
  facet normal -0.809021 -0.58778 0
    outer loop
      vertex 14.7038 6.02192 30
      vertex 12.8621 8.55684 37
      vertex 12.8621 8.55684 30
    endloop
  endfacet
  facet normal -0.809021 -0.58778 0
    outer loop
      vertex 12.8621 8.55684 37
      vertex 14.7038 6.02192 30
      vertex 14.7038 6.02192 37
    endloop
  endfacet
  facet normal 0.587816 -0.808995 0
    outer loop
      vertex 28.4088 -25.8815 12
      vertex 29.4227 -25.1448 37
      vertex 28.4088 -25.8815 37
    endloop
  endfacet
  facet normal 0.587816 -0.808995 0
    outer loop
      vertex 29.4227 -25.1448 37
      vertex 28.4088 -25.8815 12
      vertex 29.4227 -25.1448 12
    endloop
  endfacet
  facet normal 0.125341 -0.992114 0
    outer loop
      vertex 26 -26.5 12
      vertex 27.2435 -26.3429 37
      vertex 26 -26.5 37
    endloop
  endfacet
  facet normal 0.125341 -0.992114 0
    outer loop
      vertex 27.2435 -26.3429 37
      vertex 26 -26.5 12
      vertex 27.2435 -26.3429 12
    endloop
  endfacet
  facet normal -0.368142 0.92977 0
    outer loop
      vertex -15.2435 26.3429 12
      vertex -16.4088 25.8815 37
      vertex -15.2435 26.3429 37
    endloop
  endfacet
  facet normal -0.368142 0.92977 0
    outer loop
      vertex -16.4088 25.8815 37
      vertex -15.2435 26.3429 12
      vertex -16.4088 25.8815 12
    endloop
  endfacet
  facet normal 0.368142 -0.92977 0
    outer loop
      vertex 27.2435 -26.3429 12
      vertex 28.4088 -25.8815 37
      vertex 27.2435 -26.3429 37
    endloop
  endfacet
  facet normal 0.368142 -0.92977 0
    outer loop
      vertex 28.4088 -25.8815 37
      vertex 27.2435 -26.3429 12
      vertex 28.4088 -25.8815 12
    endloop
  endfacet
  facet normal 0.808995 0.587816 0
    outer loop
      vertex 30.3815 23.9088 37
      vertex 29.6448 24.9227 12
      vertex 29.6448 24.9227 37
    endloop
  endfacet
  facet normal 0.808995 0.587816 0
    outer loop
      vertex 29.6448 24.9227 12
      vertex 30.3815 23.9088 37
      vertex 30.3815 23.9088 12
    endloop
  endfacet
  facet normal -0.98769 0.156422 0
    outer loop
      vertex -19 21.5 12
      vertex -18.7553 23.0451 37
      vertex -18.7553 23.0451 12
    endloop
  endfacet
  facet normal -0.98769 0.156422 0
    outer loop
      vertex -18.7553 23.0451 37
      vertex -19 21.5 12
      vertex -19 21.5 37
    endloop
  endfacet
  facet normal 0 0 1
    outer loop
      vertex -1.25 -11.415 37
      vertex -1.57224 -11.3103 37
      vertex -1.25 -24.5 37
    endloop
  endfacet
  facet normal -0 0 1
    outer loop
      vertex 17.5 -18.25 37
      vertex 22.5 -21.75 37
      vertex 22.5 -18.25 37
    endloop
  endfacet
  facet normal 0 0 1
    outer loop
      vertex 22.5 -21.75 37
      vertex 17.5 -18.25 37
      vertex 17.5 -21.75 37
    endloop
  endfacet
  facet normal 0 0 1
    outer loop
      vertex 26 26.5 37
      vertex 31 21.5 37
      vertex 30.8429 22.7435 37
    endloop
  endfacet
  facet normal 0 0 1
    outer loop
      vertex 31 21.5 37
      vertex 16.25 0 37
      vertex 31 -21.5 37
    endloop
  endfacet
  facet normal 0 0 1
    outer loop
      vertex 26 26.5 37
      vertex 30.8429 22.7435 37
      vertex 30.3815 23.9088 37
    endloop
  endfacet
  facet normal -0 0 1
    outer loop
      vertex 22.5 -18.25 37
      vertex 31 -21.5 37
      vertex 22.5 -15.75 37
    endloop
  endfacet
  facet normal 0 0 1
    outer loop
      vertex 26 26.5 37
      vertex 30.3815 23.9088 37
      vertex 29.6448 24.9227 37
    endloop
  endfacet
  facet normal 0 0 1
    outer loop
      vertex 22.5 -21.75 37
      vertex 31 -21.5 37
      vertex 22.5 -18.25 37
    endloop
  endfacet
  facet normal 0 0 1
    outer loop
      vertex 26 26.5 37
      vertex 29.6448 24.9227 37
      vertex 28.6791 25.7216 37
    endloop
  endfacet
  facet normal 0 0 1
    outer loop
      vertex 31 -21.5 37
      vertex 22.5 -21.75 37
      vertex 30.7553 -23.0451 37
    endloop
  endfacet
  facet normal 0 0 1
    outer loop
      vertex 26 26.5 37
      vertex 28.6791 25.7216 37
      vertex 27.5451 26.2553 37
    endloop
  endfacet
  facet normal 0 0 1
    outer loop
      vertex 30.7553 -23.0451 37
      vertex 22.5 -21.75 37
      vertex 30.2216 -24.1791 37
    endloop
  endfacet
  facet normal 0 0 1
    outer loop
      vertex 31 21.5 37
      vertex 26 26.5 37
      vertex 12.8621 8.55684 37
    endloop
  endfacet
  facet normal 0 0 1
    outer loop
      vertex 30.2216 -24.1791 37
      vertex 22.5 -21.75 37
      vertex 29.4227 -25.1448 37
    endloop
  endfacet
  facet normal 0 0 1
    outer loop
      vertex 29.4227 -25.1448 37
      vertex 22.5 -21.75 37
      vertex 28.4088 -25.8815 37
    endloop
  endfacet
  facet normal 0 0 1
    outer loop
      vertex 31 -21.5 37
      vertex 16.25 0 37
      vertex 22.5 -15.75 37
    endloop
  endfacet
  facet normal 0 0 1
    outer loop
      vertex 8.75 -11.353 37
      vertex 17.5 -18.25 37
      vertex 17.5 -15.75 37
    endloop
  endfacet
  facet normal 0 0 1
    outer loop
      vertex 17.5 -18.25 37
      vertex 8.75 -24.5 37
      vertex 17.5 -21.75 37
    endloop
  endfacet
  facet normal -0 0 1
    outer loop
      vertex 14.7038 -6.02192 37
      vertex 22.5 -15.75 37
      vertex 15.8573 -3.10862 37
    endloop
  endfacet
  facet normal -0 0 1
    outer loop
      vertex 15.8573 -3.10862 37
      vertex 22.5 -15.75 37
      vertex 16.25 0 37
    endloop
  endfacet
  facet normal 0 0 1
    outer loop
      vertex 31 21.5 37
      vertex 15.8573 3.10862 37
      vertex 16.25 0 37
    endloop
  endfacet
  facet normal 0 0 1
    outer loop
      vertex 31 21.5 37
      vertex 14.7038 6.02192 37
      vertex 15.8573 3.10862 37
    endloop
  endfacet
  facet normal 0 0 1
    outer loop
      vertex 31 21.5 37
      vertex 12.8621 8.55684 37
      vertex 14.7038 6.02192 37
    endloop
  endfacet
  facet normal 0 0 1
    outer loop
      vertex 26 26.5 37
      vertex 10.4478 10.5541 37
      vertex 12.8621 8.55684 37
    endloop
  endfacet
  facet normal 0 0 1
    outer loop
      vertex 26 26.5 37
      vertex 8.75 24.5 37
      vertex 10.4478 10.5541 37
    endloop
  endfacet
  facet normal -0 0 1
    outer loop
      vertex -14 26.5 37
      vertex 8.75 24.5 37
      vertex 26 26.5 37
    endloop
  endfacet
  facet normal 0 0 1
    outer loop
      vertex -1.25 24.5 37
      vertex -1.57224 11.3103 37
      vertex -1.25 11.415 37
    endloop
  endfacet
  facet normal 0 0 1
    outer loop
      vertex -1.25 24.5 37
      vertex -4.2178 9.63142 37
      vertex -1.57224 11.3103 37
    endloop
  endfacet
  facet normal 0 0 1
    outer loop
      vertex -14 26.5 37
      vertex -4.2178 9.63142 37
      vertex -1.25 24.5 37
    endloop
  endfacet
  facet normal -0 0 1
    outer loop
      vertex -19 21.5 37
      vertex -4.2178 9.63142 37
      vertex -14 26.5 37
    endloop
  endfacet
  facet normal 0 0 1
    outer loop
      vertex -7.87221 4.60156 37
      vertex -19 21.5 37
      vertex -8.65143 1.56666 37
    endloop
  endfacet
  facet normal 0 0 1
    outer loop
      vertex -6.36271 7.34731 37
      vertex -19 21.5 37
      vertex -7.87221 4.60156 37
    endloop
  endfacet
  facet normal 0 0 1
    outer loop
      vertex -4.2178 9.63142 37
      vertex -19 21.5 37
      vertex -6.36271 7.34731 37
    endloop
  endfacet
  facet normal 0 0 1
    outer loop
      vertex 8.75 24.5 37
      vertex -14 26.5 37
      vertex -1.25 24.5 37
    endloop
  endfacet
  facet normal 0 0 1
    outer loop
      vertex 28.4088 -25.8815 37
      vertex 22.5 -21.75 37
      vertex 27.2435 -26.3429 37
    endloop
  endfacet
  facet normal 0 0 1
    outer loop
      vertex 27.2435 -26.3429 37
      vertex 22.5 -21.75 37
      vertex 26 -26.5 37
    endloop
  endfacet
  facet normal -0 0 1
    outer loop
      vertex 22.5 -24.25 37
      vertex 26 -26.5 37
      vertex 22.5 -21.75 37
    endloop
  endfacet
  facet normal -0 0 1
    outer loop
      vertex 17.5 -24.25 37
      vertex 26 -26.5 37
      vertex 22.5 -24.25 37
    endloop
  endfacet
  facet normal 0 0 1
    outer loop
      vertex 22.5 -15.75 37
      vertex 14.7038 -6.02192 37
      vertex 17.5 -15.75 37
    endloop
  endfacet
  facet normal -0 0 1
    outer loop
      vertex 12.8621 -8.55684 37
      vertex 17.5 -15.75 37
      vertex 14.7038 -6.02192 37
    endloop
  endfacet
  facet normal -0 0 1
    outer loop
      vertex 10.4478 -10.5541 37
      vertex 17.5 -15.75 37
      vertex 12.8621 -8.55684 37
    endloop
  endfacet
  facet normal -0 0 1
    outer loop
      vertex 8.75 -11.353 37
      vertex 17.5 -15.75 37
      vertex 10.4478 -10.5541 37
    endloop
  endfacet
  facet normal 0 0 1
    outer loop
      vertex 17.5 -18.25 37
      vertex 8.75 -11.353 37
      vertex 8.75 -24.5 37
    endloop
  endfacet
  facet normal 0 0 1
    outer loop
      vertex 17.5 -21.75 37
      vertex 8.75 -24.5 37
      vertex 17.5 -24.25 37
    endloop
  endfacet
  facet normal -0 0 1
    outer loop
      vertex 8.75 -24.5 37
      vertex 26 -26.5 37
      vertex 17.5 -24.25 37
    endloop
  endfacet
  facet normal 0 0 1
    outer loop
      vertex -14 -26.5 37
      vertex 8.75 -24.5 37
      vertex -1.25 -24.5 37
    endloop
  endfacet
  facet normal 0 0 1
    outer loop
      vertex -4.2178 -9.63142 37
      vertex -1.25 -24.5 37
      vertex -1.57224 -11.3103 37
    endloop
  endfacet
  facet normal 0 0 1
    outer loop
      vertex -19 -21.5 37
      vertex -4.2178 -9.63142 37
      vertex -6.36271 -7.34731 37
    endloop
  endfacet
  facet normal 0 0 1
    outer loop
      vertex -19 -21.5 37
      vertex -6.36271 -7.34731 37
      vertex -7.87221 -4.60156 37
    endloop
  endfacet
  facet normal 0 0 1
    outer loop
      vertex 8.75 -24.5 37
      vertex -14 -26.5 37
      vertex 26 -26.5 37
    endloop
  endfacet
  facet normal 0 0 1
    outer loop
      vertex -4.2178 -9.63142 37
      vertex -19 -21.5 37
      vertex -14 -26.5 37
    endloop
  endfacet
  facet normal 0 0 1
    outer loop
      vertex -19 -21.5 37
      vertex -7.87221 -4.60156 37
      vertex -8.65143 -1.56666 37
    endloop
  endfacet
  facet normal 0 0 1
    outer loop
      vertex -8.65143 1.56666 37
      vertex -19 21.5 37
      vertex -8.65143 -1.56666 37
    endloop
  endfacet
  facet normal 0 0 1
    outer loop
      vertex -19 21.5 37
      vertex -14 26.5 37
      vertex -15.2435 26.3429 37
    endloop
  endfacet
  facet normal 0 0 1
    outer loop
      vertex -19 -21.5 37
      vertex -8.65143 -1.56666 37
      vertex -19 21.5 37
    endloop
  endfacet
  facet normal 0 0 1
    outer loop
      vertex -19 21.5 37
      vertex -15.2435 26.3429 37
      vertex -16.4088 25.8815 37
    endloop
  endfacet
  facet normal 0 0 1
    outer loop
      vertex -4.2178 -9.63142 37
      vertex -14 -26.5 37
      vertex -1.25 -24.5 37
    endloop
  endfacet
  facet normal 0 0 1
    outer loop
      vertex -19 21.5 37
      vertex -16.4088 25.8815 37
      vertex -17.4227 25.1448 37
    endloop
  endfacet
  facet normal 0 0 1
    outer loop
      vertex -14 -26.5 37
      vertex -19 -21.5 37
      vertex -15.5451 -26.2553 37
    endloop
  endfacet
  facet normal 0 0 1
    outer loop
      vertex -19 21.5 37
      vertex -17.4227 25.1448 37
      vertex -18.2216 24.1791 37
    endloop
  endfacet
  facet normal 0 0 1
    outer loop
      vertex -15.5451 -26.2553 37
      vertex -19 -21.5 37
      vertex -16.6791 -25.7216 37
    endloop
  endfacet
  facet normal 0 0 1
    outer loop
      vertex -19 21.5 37
      vertex -18.2216 24.1791 37
      vertex -18.7553 23.0451 37
    endloop
  endfacet
  facet normal 0 0 1
    outer loop
      vertex -16.6791 -25.7216 37
      vertex -19 -21.5 37
      vertex -17.6448 -24.9227 37
    endloop
  endfacet
  facet normal 0 0 1
    outer loop
      vertex -17.6448 -24.9227 37
      vertex -19 -21.5 37
      vertex -18.3815 -23.9088 37
    endloop
  endfacet
  facet normal 0 0 1
    outer loop
      vertex -18.3815 -23.9088 37
      vertex -19 -21.5 37
      vertex -18.8429 -22.7435 37
    endloop
  endfacet
  facet normal 0 0 1
    outer loop
      vertex 10.4478 10.5541 37
      vertex 8.75 24.5 37
      vertex 8.75 11.353 37
    endloop
  endfacet
  facet normal -1 0 0
    outer loop
      vertex -19 -21.5 12
      vertex -19 21.5 37
      vertex -19 21.5 12
    endloop
  endfacet
  facet normal -1 -0 0
    outer loop
      vertex -19 21.5 37
      vertex -19 -21.5 12
      vertex -19 -21.5 37
    endloop
  endfacet
  facet normal 0 -1 0
    outer loop
      vertex 2.5 -26.5 32.5
      vertex 5 -26.5 35.5
      vertex 2.5 -26.5 35.5
    endloop
  endfacet
  facet normal 0 -1 -0
    outer loop
      vertex 5 -26.5 35.5
      vertex 2.5 -26.5 32.5
      vertex 5 -26.5 32.5
    endloop
  endfacet
  facet normal 0 -1 0
    outer loop
      vertex 2.5 -26.5 35.5
      vertex -14 -26.5 37
      vertex 1 -26.5 35.5
    endloop
  endfacet
  facet normal 0 -1 0
    outer loop
      vertex -14 -26.5 37
      vertex 1 -26.5 32.5
      vertex 1 -26.5 35.5
    endloop
  endfacet
  facet normal 0 -1 0
    outer loop
      vertex -14 -26.5 12
      vertex 2.5 -26.5 32.5
      vertex 1 -26.5 32.5
    endloop
  endfacet
  facet normal 0 -1 -0
    outer loop
      vertex 2.5 -26.5 32.5
      vertex -14 -26.5 12
      vertex 5 -26.5 32.5
    endloop
  endfacet
  facet normal 0 -1 -0
    outer loop
      vertex 5 -26.5 32.5
      vertex -14 -26.5 12
      vertex 6.5 -26.5 32.5
    endloop
  endfacet
  facet normal 0 -1 0
    outer loop
      vertex -14 -26.5 12
      vertex 1 -26.5 32.5
      vertex -14 -26.5 37
    endloop
  endfacet
  facet normal 0 -1 0
    outer loop
      vertex 5 -26.5 35.5
      vertex -14 -26.5 37
      vertex 2.5 -26.5 35.5
    endloop
  endfacet
  facet normal 0 -1 0
    outer loop
      vertex -14 -26.5 37
      vertex 5 -26.5 35.5
      vertex 26 -26.5 37
    endloop
  endfacet
  facet normal 0 -1 0
    outer loop
      vertex 6.5 -26.5 35.5
      vertex 26 -26.5 37
      vertex 5 -26.5 35.5
    endloop
  endfacet
  facet normal 0 -1 0
    outer loop
      vertex 6.5 -26.5 32.5
      vertex 26 -26.5 37
      vertex 6.5 -26.5 35.5
    endloop
  endfacet
  facet normal 0 -1 0
    outer loop
      vertex 26 -26.5 12
      vertex 6.5 -26.5 32.5
      vertex -14 -26.5 12
    endloop
  endfacet
  facet normal 0 -1 0
    outer loop
      vertex 6.5 -26.5 32.5
      vertex 26 -26.5 12
      vertex 26 -26.5 37
    endloop
  endfacet
  facet normal 0.156422 0.98769 -0
    outer loop
      vertex 27.5451 26.2553 12
      vertex 26 26.5 37
      vertex 27.5451 26.2553 37
    endloop
  endfacet
  facet normal 0.156422 0.98769 0
    outer loop
      vertex 26 26.5 37
      vertex 27.5451 26.2553 12
      vertex 26 26.5 12
    endloop
  endfacet
  facet normal 0 1 -0
    outer loop
      vertex 5 26.5 32.5
      vertex 2.5 26.5 35.5
      vertex 5 26.5 35.5
    endloop
  endfacet
  facet normal 0 1 0
    outer loop
      vertex 2.5 26.5 35.5
      vertex 5 26.5 32.5
      vertex 2.5 26.5 32.5
    endloop
  endfacet
  facet normal 0 1 0
    outer loop
      vertex 26 26.5 37
      vertex 6.5 26.5 35.5
      vertex -14 26.5 37
    endloop
  endfacet
  facet normal 0 1 0
    outer loop
      vertex 26 26.5 37
      vertex 6.5 26.5 32.5
      vertex 6.5 26.5 35.5
    endloop
  endfacet
  facet normal 0 1 0
    outer loop
      vertex -14 26.5 12
      vertex 5 26.5 32.5
      vertex 6.5 26.5 32.5
    endloop
  endfacet
  facet normal 0 1 0
    outer loop
      vertex 5 26.5 32.5
      vertex -14 26.5 12
      vertex 2.5 26.5 32.5
    endloop
  endfacet
  facet normal 0 1 0
    outer loop
      vertex -14 26.5 12
      vertex 6.5 26.5 32.5
      vertex 26 26.5 12
    endloop
  endfacet
  facet normal 0 1 -0
    outer loop
      vertex 26 26.5 12
      vertex 6.5 26.5 32.5
      vertex 26 26.5 37
    endloop
  endfacet
  facet normal 0 1 -0
    outer loop
      vertex 5 26.5 35.5
      vertex -14 26.5 37
      vertex 6.5 26.5 35.5
    endloop
  endfacet
  facet normal 0 1 -0
    outer loop
      vertex 2.5 26.5 35.5
      vertex -14 26.5 37
      vertex 5 26.5 35.5
    endloop
  endfacet
  facet normal 0 1 -0
    outer loop
      vertex 1 26.5 35.5
      vertex -14 26.5 37
      vertex 2.5 26.5 35.5
    endloop
  endfacet
  facet normal 0 1 -0
    outer loop
      vertex 1 26.5 32.5
      vertex -14 26.5 37
      vertex 1 26.5 35.5
    endloop
  endfacet
  facet normal 0 1 0
    outer loop
      vertex 2.5 26.5 32.5
      vertex -14 26.5 12
      vertex 1 26.5 32.5
    endloop
  endfacet
  facet normal 0 1 0
    outer loop
      vertex 1 26.5 32.5
      vertex -14 26.5 12
      vertex -14 26.5 37
    endloop
  endfacet
  facet normal 1 -0 0
    outer loop
      vertex 31 -21.5 37
      vertex 31 21.5 12
      vertex 31 21.5 37
    endloop
  endfacet
  facet normal 1 0 0
    outer loop
      vertex 31 21.5 12
      vertex 31 -21.5 37
      vertex 31 -21.5 12
    endloop
  endfacet
  facet normal -0.770512 0.637426 0
    outer loop
      vertex -18.2216 24.1791 12
      vertex -17.4227 25.1448 37
      vertex -17.4227 25.1448 12
    endloop
  endfacet
  facet normal -0.770512 0.637426 0
    outer loop
      vertex -17.4227 25.1448 37
      vertex -18.2216 24.1791 12
      vertex -18.2216 24.1791 37
    endloop
  endfacet
  facet normal -0.587816 0.808995 0
    outer loop
      vertex -16.4088 25.8815 12
      vertex -17.4227 25.1448 37
      vertex -16.4088 25.8815 37
    endloop
  endfacet
  facet normal -0.587816 0.808995 0
    outer loop
      vertex -17.4227 25.1448 37
      vertex -16.4088 25.8815 12
      vertex -17.4227 25.1448 12
    endloop
  endfacet
  facet normal -0.904802 0.425832 0
    outer loop
      vertex -18.7553 23.0451 12
      vertex -18.2216 24.1791 37
      vertex -18.2216 24.1791 12
    endloop
  endfacet
  facet normal -0.904802 0.425832 0
    outer loop
      vertex -18.2216 24.1791 37
      vertex -18.7553 23.0451 12
      vertex -18.7553 23.0451 37
    endloop
  endfacet
  facet normal 0 0 -1
    outer loop
      vertex 17.5 -21.75 12
      vertex 22.5 -18.25 12
      vertex 22.5 -21.75 12
    endloop
  endfacet
  facet normal -0 0 -1
    outer loop
      vertex 22.5 -18.25 12
      vertex 17.5 -21.75 12
      vertex 17.5 -18.25 12
    endloop
  endfacet
  facet normal 0 0 -1
    outer loop
      vertex 25.25 0 12
      vertex 31 21.5 12
      vertex 31 -21.5 12
    endloop
  endfacet
  facet normal 0 0 -1
    outer loop
      vertex 22.5 -21.75 12
      vertex 31 -21.5 12
      vertex 30.7553 -23.0451 12
    endloop
  endfacet
  facet normal 0 0 -1
    outer loop
      vertex 24.7945 3.606 12
      vertex 31 21.5 12
      vertex 25.25 0 12
    endloop
  endfacet
  facet normal 0 0 -1
    outer loop
      vertex 22.5 -21.75 12
      vertex 30.7553 -23.0451 12
      vertex 30.2216 -24.1791 12
    endloop
  endfacet
  facet normal 0 0 -1
    outer loop
      vertex 23.4564 6.98543 12
      vertex 31 21.5 12
      vertex 24.7945 3.606 12
    endloop
  endfacet
  facet normal 0 0 -1
    outer loop
      vertex 22.5 -21.75 12
      vertex 30.2216 -24.1791 12
      vertex 29.4227 -25.1448 12
    endloop
  endfacet
  facet normal 0 0 -1
    outer loop
      vertex 21.32 9.92593 12
      vertex 31 21.5 12
      vertex 23.4564 6.98543 12
    endloop
  endfacet
  facet normal 0 0 -1
    outer loop
      vertex 22.5 -21.75 12
      vertex 29.4227 -25.1448 12
      vertex 28.4088 -25.8815 12
    endloop
  endfacet
  facet normal 0 0 -1
    outer loop
      vertex 18.5195 12.2428 12
      vertex 31 21.5 12
      vertex 21.32 9.92593 12
    endloop
  endfacet
  facet normal 0 0 -1
    outer loop
      vertex 22.5 -21.75 12
      vertex 28.4088 -25.8815 12
      vertex 27.2435 -26.3429 12
    endloop
  endfacet
  facet normal 0 0 -1
    outer loop
      vertex 22.5 -21.75 12
      vertex 27.2435 -26.3429 12
      vertex 26 -26.5 12
    endloop
  endfacet
  facet normal 0 -0 -1
    outer loop
      vertex 26 26.5 12
      vertex 31 21.5 12
      vertex 18.5195 12.2428 12
    endloop
  endfacet
  facet normal 0 0 -1
    outer loop
      vertex 31 21.5 12
      vertex 26 26.5 12
      vertex 30.8429 22.7435 12
    endloop
  endfacet
  facet normal 0 0 -1
    outer loop
      vertex 31 -21.5 12
      vertex 24.7945 -3.606 12
      vertex 25.25 0 12
    endloop
  endfacet
  facet normal 0 0 -1
    outer loop
      vertex 31 -21.5 12
      vertex 23.4564 -6.98543 12
      vertex 24.7945 -3.606 12
    endloop
  endfacet
  facet normal 0 0 -1
    outer loop
      vertex 22.5 -21.75 12
      vertex 26 -26.5 12
      vertex 22.5 -24.25 12
    endloop
  endfacet
  facet normal 0 0 -1
    outer loop
      vertex 26 -26.5 12
      vertex 17.5 -24.25 12
      vertex 22.5 -24.25 12
    endloop
  endfacet
  facet normal 0 0 -1
    outer loop
      vertex 10.25 -14.5 12
      vertex 17.5 -21.75 12
      vertex 17.5 -24.25 12
    endloop
  endfacet
  facet normal 0 0 -1
    outer loop
      vertex 17.5 -21.75 12
      vertex 11.6605 -14.4714 12
      vertex 17.5 -18.25 12
    endloop
  endfacet
  facet normal 0 -0 -1
    outer loop
      vertex 15.2307 -13.7903 12
      vertex 17.5 -18.25 12
      vertex 11.6605 -14.4714 12
    endloop
  endfacet
  facet normal 0 0 -1
    outer loop
      vertex 17.5 -18.25 12
      vertex 15.2307 -13.7903 12
      vertex 17.5 -15.75 12
    endloop
  endfacet
  facet normal 0 0 -1
    outer loop
      vertex 17.5 -21.75 12
      vertex 10.25 -14.5 12
      vertex 11.6605 -14.4714 12
    endloop
  endfacet
  facet normal 0 0 -1
    outer loop
      vertex -14 -26.5 12
      vertex 10.25 -14.5 12
      vertex 17.5 -24.25 12
    endloop
  endfacet
  facet normal 0 0 -1
    outer loop
      vertex -19 -21.5 12
      vertex -10.25 -14.5 12
      vertex -14 -26.5 12
    endloop
  endfacet
  facet normal -0 0 -1
    outer loop
      vertex 10.25 -14.5 12
      vertex -14 -26.5 12
      vertex -10.25 -14.5 12
    endloop
  endfacet
  facet normal 0 0 -1
    outer loop
      vertex -14 -26.5 12
      vertex 17.5 -24.25 12
      vertex 26 -26.5 12
    endloop
  endfacet
  facet normal 0 0 -1
    outer loop
      vertex 30.8429 22.7435 12
      vertex 26 26.5 12
      vertex 30.3815 23.9088 12
    endloop
  endfacet
  facet normal 0 0 -1
    outer loop
      vertex 30.3815 23.9088 12
      vertex 26 26.5 12
      vertex 29.6448 24.9227 12
    endloop
  endfacet
  facet normal 0 0 -1
    outer loop
      vertex 28.6791 25.7216 12
      vertex 26 26.5 12
      vertex 27.5451 26.2553 12
    endloop
  endfacet
  facet normal 0 0 -1
    outer loop
      vertex 29.6448 24.9227 12
      vertex 26 26.5 12
      vertex 28.6791 25.7216 12
    endloop
  endfacet
  facet normal 0 0 -1
    outer loop
      vertex 15.2307 13.7903 12
      vertex 26 26.5 12
      vertex 18.5195 12.2428 12
    endloop
  endfacet
  facet normal 0 0 -1
    outer loop
      vertex 11.6605 14.4714 12
      vertex 26 26.5 12
      vertex 15.2307 13.7903 12
    endloop
  endfacet
  facet normal 0 0 -1
    outer loop
      vertex 10.25 14.5 12
      vertex 11.6605 14.4714 12
      vertex 10.25 14.3826 12
    endloop
  endfacet
  facet normal 0 0 -1
    outer loop
      vertex 11.6605 14.4714 12
      vertex 10.25 14.5 12
      vertex 26 26.5 12
    endloop
  endfacet
  facet normal 0 0 -1
    outer loop
      vertex -14 26.5 12
      vertex 10.25 14.5 12
      vertex -10.25 14.5 12
    endloop
  endfacet
  facet normal 0 0 -1
    outer loop
      vertex 10.25 14.5 12
      vertex -14 26.5 12
      vertex 26 26.5 12
    endloop
  endfacet
  facet normal -0 0 -1
    outer loop
      vertex -10.25 -14.5 12
      vertex -19 -21.5 12
      vertex -10.25 14.5 12
    endloop
  endfacet
  facet normal 0 0 -1
    outer loop
      vertex -10.25 14.5 12
      vertex -19 21.5 12
      vertex -14 26.5 12
    endloop
  endfacet
  facet normal 0 0 -1
    outer loop
      vertex -19 -21.5 12
      vertex -14 -26.5 12
      vertex -15.5451 -26.2553 12
    endloop
  endfacet
  facet normal -0 0 -1
    outer loop
      vertex -10.25 14.5 12
      vertex -19 -21.5 12
      vertex -19 21.5 12
    endloop
  endfacet
  facet normal 0 0 -1
    outer loop
      vertex -19 -21.5 12
      vertex -15.5451 -26.2553 12
      vertex -16.6791 -25.7216 12
    endloop
  endfacet
  facet normal 0 0 -1
    outer loop
      vertex -14 26.5 12
      vertex -19 21.5 12
      vertex -15.2435 26.3429 12
    endloop
  endfacet
  facet normal 0 0 -1
    outer loop
      vertex -19 -21.5 12
      vertex -16.6791 -25.7216 12
      vertex -17.6448 -24.9227 12
    endloop
  endfacet
  facet normal 0 0 -1
    outer loop
      vertex -15.2435 26.3429 12
      vertex -19 21.5 12
      vertex -16.4088 25.8815 12
    endloop
  endfacet
  facet normal 0 0 -1
    outer loop
      vertex -19 -21.5 12
      vertex -17.6448 -24.9227 12
      vertex -18.3815 -23.9088 12
    endloop
  endfacet
  facet normal 0 0 -1
    outer loop
      vertex -16.4088 25.8815 12
      vertex -19 21.5 12
      vertex -17.4227 25.1448 12
    endloop
  endfacet
  facet normal 0 0 -1
    outer loop
      vertex -19 -21.5 12
      vertex -18.3815 -23.9088 12
      vertex -18.8429 -22.7435 12
    endloop
  endfacet
  facet normal 0 0 -1
    outer loop
      vertex -17.4227 25.1448 12
      vertex -19 21.5 12
      vertex -18.2216 24.1791 12
    endloop
  endfacet
  facet normal 0 0 -1
    outer loop
      vertex -18.2216 24.1791 12
      vertex -19 21.5 12
      vertex -18.7553 23.0451 12
    endloop
  endfacet
  facet normal -0 0 -1
    outer loop
      vertex 31 -21.5 12
      vertex 22.5 -21.75 12
      vertex 22.5 -18.25 12
    endloop
  endfacet
  facet normal 0 0 -1
    outer loop
      vertex 31 -21.5 12
      vertex 22.5 -18.25 12
      vertex 22.5 -15.75 12
    endloop
  endfacet
  facet normal 0 0 -1
    outer loop
      vertex 31 -21.5 12
      vertex 22.5 -15.75 12
      vertex 23.4564 -6.98543 12
    endloop
  endfacet
  facet normal 0 0 -1
    outer loop
      vertex 22.5 -15.75 12
      vertex 21.32 -9.92593 12
      vertex 23.4564 -6.98543 12
    endloop
  endfacet
  facet normal 0 0 -1
    outer loop
      vertex 22.5 -15.75 12
      vertex 18.5195 -12.2428 12
      vertex 21.32 -9.92593 12
    endloop
  endfacet
  facet normal 0 0 -1
    outer loop
      vertex 17.5 -15.75 12
      vertex 18.5195 -12.2428 12
      vertex 22.5 -15.75 12
    endloop
  endfacet
  facet normal 0 0 -1
    outer loop
      vertex 18.5195 -12.2428 12
      vertex 17.5 -15.75 12
      vertex 15.2307 -13.7903 12
    endloop
  endfacet
  facet normal -0 0 -1
    outer loop
      vertex 11.6605 -14.4714 12
      vertex 10.25 -14.5 12
      vertex 10.25 -14.3826 12
    endloop
  endfacet
  facet normal -0.637426 -0.770512 0
    outer loop
      vertex -17.6448 -24.9227 12
      vertex -16.6791 -25.7216 37
      vertex -17.6448 -24.9227 37
    endloop
  endfacet
  facet normal -0.637426 -0.770512 -0
    outer loop
      vertex -16.6791 -25.7216 37
      vertex -17.6448 -24.9227 12
      vertex -16.6791 -25.7216 12
    endloop
  endfacet
  facet normal -0.156422 -0.98769 0
    outer loop
      vertex -15.5451 -26.2553 12
      vertex -14 -26.5 37
      vertex -15.5451 -26.2553 37
    endloop
  endfacet
  facet normal -0.156422 -0.98769 -0
    outer loop
      vertex -14 -26.5 37
      vertex -15.5451 -26.2553 12
      vertex -14 -26.5 12
    endloop
  endfacet
  facet normal 0.425832 0.904802 -0
    outer loop
      vertex 28.6791 25.7216 12
      vertex 27.5451 26.2553 37
      vertex 28.6791 25.7216 37
    endloop
  endfacet
  facet normal 0.425832 0.904802 0
    outer loop
      vertex 27.5451 26.2553 37
      vertex 28.6791 25.7216 12
      vertex 27.5451 26.2553 12
    endloop
  endfacet
  facet normal 0.637426 0.770512 -0
    outer loop
      vertex 29.6448 24.9227 12
      vertex 28.6791 25.7216 37
      vertex 29.6448 24.9227 37
    endloop
  endfacet
  facet normal 0.637426 0.770512 0
    outer loop
      vertex 28.6791 25.7216 37
      vertex 29.6448 24.9227 12
      vertex 28.6791 25.7216 12
    endloop
  endfacet
  facet normal -0.125341 0.992114 0
    outer loop
      vertex -14 26.5 12
      vertex -15.2435 26.3429 37
      vertex -14 26.5 37
    endloop
  endfacet
  facet normal -0.125341 0.992114 0
    outer loop
      vertex -15.2435 26.3429 37
      vertex -14 26.5 12
      vertex -15.2435 26.3429 12
    endloop
  endfacet
  facet normal 0.92977 0.368142 0
    outer loop
      vertex 30.8429 22.7435 37
      vertex 30.3815 23.9088 12
      vertex 30.3815 23.9088 37
    endloop
  endfacet
  facet normal 0.92977 0.368142 0
    outer loop
      vertex 30.3815 23.9088 12
      vertex 30.8429 22.7435 37
      vertex 30.8429 22.7435 12
    endloop
  endfacet
  facet normal 0.98769 -0.156422 0
    outer loop
      vertex 30.7553 -23.0451 37
      vertex 31 -21.5 12
      vertex 31 -21.5 37
    endloop
  endfacet
  facet normal 0.98769 -0.156422 0
    outer loop
      vertex 31 -21.5 12
      vertex 30.7553 -23.0451 37
      vertex 30.7553 -23.0451 12
    endloop
  endfacet
  facet normal 0.770512 -0.637426 0
    outer loop
      vertex 29.4227 -25.1448 37
      vertex 30.2216 -24.1791 12
      vertex 30.2216 -24.1791 37
    endloop
  endfacet
  facet normal 0.770512 -0.637426 0
    outer loop
      vertex 30.2216 -24.1791 12
      vertex 29.4227 -25.1448 37
      vertex 29.4227 -25.1448 12
    endloop
  endfacet
  facet normal -0.92977 -0.368142 0
    outer loop
      vertex -18.3815 -23.9088 12
      vertex -18.8429 -22.7435 37
      vertex -18.8429 -22.7435 12
    endloop
  endfacet
  facet normal -0.92977 -0.368142 0
    outer loop
      vertex -18.8429 -22.7435 37
      vertex -18.3815 -23.9088 12
      vertex -18.3815 -23.9088 37
    endloop
  endfacet
  facet normal -0.992114 -0.125341 0
    outer loop
      vertex -18.8429 -22.7435 12
      vertex -19 -21.5 37
      vertex -19 -21.5 12
    endloop
  endfacet
  facet normal -0.992114 -0.125341 0
    outer loop
      vertex -19 -21.5 37
      vertex -18.8429 -22.7435 12
      vertex -18.8429 -22.7435 37
    endloop
  endfacet
  facet normal -0.808995 -0.587816 0
    outer loop
      vertex -17.6448 -24.9227 12
      vertex -18.3815 -23.9088 37
      vertex -18.3815 -23.9088 12
    endloop
  endfacet
  facet normal -0.808995 -0.587816 0
    outer loop
      vertex -18.3815 -23.9088 37
      vertex -17.6448 -24.9227 12
      vertex -17.6448 -24.9227 37
    endloop
  endfacet
  facet normal -0.425832 -0.904802 0
    outer loop
      vertex -16.6791 -25.7216 12
      vertex -15.5451 -26.2553 37
      vertex -16.6791 -25.7216 37
    endloop
  endfacet
  facet normal -0.425832 -0.904802 -0
    outer loop
      vertex -15.5451 -26.2553 37
      vertex -16.6791 -25.7216 12
      vertex -15.5451 -26.2553 12
    endloop
  endfacet
  facet normal 0.904802 -0.425832 0
    outer loop
      vertex 30.2216 -24.1791 37
      vertex 30.7553 -23.0451 12
      vertex 30.7553 -23.0451 37
    endloop
  endfacet
  facet normal 0.904802 -0.425832 0
    outer loop
      vertex 30.7553 -23.0451 12
      vertex 30.2216 -24.1791 37
      vertex 30.2216 -24.1791 12
    endloop
  endfacet
  facet normal 0.992114 0.125341 0
    outer loop
      vertex 31 21.5 37
      vertex 30.8429 22.7435 12
      vertex 30.8429 22.7435 37
    endloop
  endfacet
  facet normal 0.992114 0.125341 0
    outer loop
      vertex 30.8429 22.7435 12
      vertex 31 21.5 37
      vertex 31 21.5 12
    endloop
  endfacet
endsolid OpenSCAD_Model
