<?xml version="1.0" standalone="no"?>
<!DOCTYPE svg PUBLIC "-//W3C//DTD SVG 1.1//EN" "http://www.w3.org/Graphics/SVG/1.1/DTD/svg11.dtd">
<svg width="50mm" height="50mm" viewBox="-67 -25 50 50" xmlns="http://www.w3.org/2000/svg" version="1.1">
<title>OpenSCAD Model</title>
<path d="
M -20.7565,24.8429 L -19.5912,24.3815 L -18.5773,23.6448 L -17.7784,22.6791 L -17.2447,21.5451 L -17,20
 L -17,-20 L -17.1571,-21.2435 L -17.6185,-22.4088 L -18.3552,-23.4227 L -19.3209,-24.2216 L -20.4549,-24.7553
 L -22,-25 L -62,-25 L -63.2435,-24.8429 L -64.4088,-24.3815 L -65.4227,-23.6448 L -66.2216,-22.6791
 L -66.7553,-21.5451 L -67,-20 L -67,20 L -66.8429,21.2435 L -66.3815,22.4088 L -65.6448,23.4227
 L -64.6791,24.2216 L -63.5451,24.7553 L -62,25 L -22,25 z
M -30.2811,-16.5266 L -30.6387,-16.6427 L -30.9561,-16.8442 L -31.2135,-17.1183 L -31.3947,-17.4478 L -31.4882,-17.812
 L -31.4882,-18.188 L -31.3947,-18.5522 L -31.2135,-18.8817 L -30.9561,-19.1558 L -30.6387,-19.3572 L -30.2811,-19.4734
 L -29.9058,-19.497 L -29.5365,-19.4266 L -29.1963,-19.2665 L -28.9065,-19.0268 L -28.6855,-18.7226 L -28.5471,-18.373
 L -28.5,-18 L -28.5471,-17.627 L -28.6855,-17.2774 L -28.9065,-16.9732 L -29.1963,-16.7335 L -29.5365,-16.5734
 L -29.9058,-16.503 z
M -47.5,14 L -47.5,7.99979 L -48.1127,7.34731 L -49.6222,4.60155 L -50.4014,1.56665 L -50.4014,-1.56665
 L -49.6222,-4.60155 L -48.1127,-7.34731 L -47.5,-7.99979 L -47.5,-14 L -37.5,-14 L -37.5,-12.4574
 L -37.2151,-12.4753 L -34.1373,-11.8882 L -31.3022,-10.5541 L -28.8879,-8.55682 L -27.0462,-6.02191 L -25.8927,-3.10861
 L -25.5,-0 L -25.8927,3.10861 L -27.0462,6.02191 L -28.8879,8.55682 L -31.3022,10.5541 L -34.1373,11.8882
 L -37.2151,12.4753 L -37.5,12.4574 L -37.5,14 z
M -30.2811,19.4734 L -30.6387,19.3572 L -30.9561,19.1558 L -31.2135,18.8817 L -31.3947,18.5522 L -31.4882,18.188
 L -31.4882,17.812 L -31.3947,17.4478 L -31.2135,17.1183 L -30.9561,16.8442 L -30.6387,16.6427 L -30.2811,16.5266
 L -29.9058,16.503 L -29.5365,16.5734 L -29.1963,16.7335 L -28.9065,16.9732 L -28.6855,17.2774 L -28.5471,17.627
 L -28.5,18 L -28.5471,18.373 L -28.6855,18.7226 L -28.9065,19.0268 L -29.1963,19.2665 L -29.5365,19.4266
 L -29.9058,19.497 z
" stroke="black" fill="lightgray" stroke-width="0.5"/>
</svg>
