<?xml version="1.0" standalone="no"?>
<!DOCTYPE svg PUBLIC "-//W3C//DTD SVG 1.1//EN" "http://www.w3.org/Graphics/SVG/1.1/DTD/svg11.dtd">
<svg width="50mm" height="54mm" viewBox="-19 -27 50 54" xmlns="http://www.w3.org/2000/svg" version="1.1">
<title>OpenSCAD Model</title>
<path d="
M 27.2435,26.3429 L 28.4088,25.8815 L 29.4227,25.1448 L 30.2216,24.1791 L 30.7553,23.0451 L 31,21.5
 L 31,-21.5 L 30.8429,-22.7435 L 30.3815,-23.9088 L 29.6448,-24.9227 L 28.6791,-25.7216 L 27.5451,-26.2553
 L 26,-26.5 L -14,-26.5 L -15.2435,-26.3429 L -16.4088,-25.8815 L -17.4227,-25.1448 L -18.2216,-24.1791
 L -18.7553,-23.0451 L -19,-21.5 L -19,21.5 L -18.8429,22.7435 L -18.3815,23.9088 L -17.6448,24.9227
 L -16.6791,25.7216 L -15.5451,26.2553 L -14,26.5 L 26,26.5 z
M -1.25,14.5 L -1.25,11.415 L -1.57224,11.3103 L -4.21779,9.63141 L -6.3627,7.34731 L -7.87219,4.60155
 L -8.65143,1.56665 L -8.65143,-1.56665 L -7.87219,-4.60155 L -6.3627,-7.34731 L -4.21779,-9.63141 L -1.57224,-11.3103
 L -1.25,-11.415 L -1.25,-14.5 L 8.75,-14.5 L 8.75,-11.353 L 10.4478,-10.5541 L 12.8621,-8.55682
 L 14.7038,-6.02191 L 15.8573,-3.10861 L 16.25,-0 L 15.8573,3.10861 L 14.7038,6.02191 L 12.8621,8.55682
 L 10.4478,10.5541 L 8.75,11.353 L 8.75,14.5 z
M 17.5,18.25 L 17.5,15.75 L 22.5,15.75 L 22.5,18.25 z
M 17.5,24.25 L 17.5,21.75 L 22.5,21.75 L 22.5,24.25 z
" stroke="black" fill="lightgray" stroke-width="0.5"/>
</svg>
