<?xml version="1.0" standalone="no"?>
<!DOCTYPE svg PUBLIC "-//W3C//DTD SVG 1.1//EN" "http://www.w3.org/Graphics/SVG/1.1/DTD/svg11.dtd">
<svg width="1907mm" height="80mm" viewBox="-89 -40 1907 80" xmlns="http://www.w3.org/2000/svg" version="1.1">
<title>OpenSCAD Model</title>
<path d="
M -1.25,38.5 L 47.25,38.5 L 47.25,-38.5 L -1.25,-38.5 L -1.25,-39.5 L -21.25,-39.5
 L -21.25,-38.5 L -88.75,-38.5 L -88.75,38.5 L -21.25,38.5 L -21.25,39.5 L -1.25,39.5
 z
M 1752,39 L 1813,39 L 1814.24,38.8429 L 1815.41,38.3815 L 1816.42,37.6448 L 1817.22,36.6791
 L 1817.76,35.5451 L 1818,34 L 1818,-34 L 1817.84,-35.2435 L 1817.38,-36.4088 L 1816.64,-37.4227
 L 1815.68,-38.2216 L 1814.55,-38.7553 L 1813,-39 L 1752,-39 L 1752,-39.5 L 1732,-39.5
 L 1732,-39 L 1718,-39 L 1716.76,-38.8429 L 1715.59,-38.3815 L 1714.58,-37.6448 L 1713.78,-36.6791
 L 1713.24,-35.5451 L 1713,-34 L 1713,34 L 1713.16,35.2435 L 1713.62,36.4088 L 1714.36,37.4227
 L 1715.32,38.2216 L 1716.45,38.7553 L 1718,39 L 1732,39 L 1732,39.5 L 1752,39.5
 z
M 1809.44,-22.0531 L 1808.72,-22.2855 L 1808.09,-22.6884 L 1807.57,-23.2366 L 1807.21,-23.8956 L 1807.02,-24.624
 L 1807.02,-25.376 L 1807.21,-26.1044 L 1807.57,-26.7634 L 1808.09,-27.3115 L 1808.72,-27.7145 L 1809.44,-27.9469
 L 1810.19,-27.9941 L 1810.93,-27.8532 L 1811.61,-27.533 L 1812.19,-27.0536 L 1812.63,-26.4453 L 1812.91,-25.7461
 L 1813,-25 L 1812.91,-24.2539 L 1812.63,-23.5547 L 1812.19,-22.9464 L 1811.61,-22.467 L 1810.93,-22.1468
 L 1810.19,-22.0059 z
M 1764.72,-16.5266 L 1764.36,-16.6427 L 1764.04,-16.8442 L 1763.79,-17.1183 L 1763.61,-17.4478 L 1763.51,-17.812
 L 1763.51,-18.188 L 1763.61,-18.5522 L 1763.79,-18.8817 L 1764.04,-19.1558 L 1764.36,-19.3572 L 1764.72,-19.4734
 L 1765.09,-19.497 L 1765.46,-19.4266 L 1765.8,-19.2665 L 1766.09,-19.0268 L 1766.31,-18.7226 L 1766.45,-18.373
 L 1766.5,-18 L 1766.45,-17.627 L 1766.31,-17.2774 L 1766.09,-16.9732 L 1765.8,-16.7335 L 1765.46,-16.5734
 L 1765.09,-16.503 z
M 1809.44,-12.0531 L 1808.72,-12.2855 L 1808.09,-12.6884 L 1807.57,-13.2366 L 1807.21,-13.8956 L 1807.02,-14.624
 L 1807.02,-15.376 L 1807.21,-16.1044 L 1807.57,-16.7634 L 1808.09,-17.3115 L 1808.72,-17.7145 L 1809.44,-17.9469
 L 1810.19,-17.9941 L 1810.93,-17.8532 L 1811.61,-17.533 L 1812.19,-17.0536 L 1812.63,-16.4453 L 1812.91,-15.7461
 L 1813,-15 L 1812.91,-14.2539 L 1812.63,-13.5547 L 1812.19,-12.9464 L 1811.61,-12.467 L 1810.93,-12.1468
 L 1810.19,-12.0059 z
M 1743,14.5 L 1743,5.5 L 1738.5,5.5 L 1738.5,0.5 L 1743,0.5 L 1743,-14.5
 L 1763.5,-14.5 L 1763.5,-14.3826 L 1764.91,-14.4714 L 1768.48,-13.7903 L 1771.77,-12.2428 L 1774.57,-9.92592
 L 1776.71,-6.98543 L 1778,-3.71828 L 1778,3.71828 L 1776.71,6.98543 L 1774.57,9.92592 L 1771.77,12.2428
 L 1768.48,13.7903 L 1764.91,14.4714 L 1763.5,14.3826 L 1763.5,14.5 z
M 1809.44,2.94685 L 1808.72,2.71448 L 1808.09,2.31154 L 1807.57,1.76335 L 1807.21,1.10437 L 1807.02,0.375992
 L 1807.02,-0.375992 L 1807.21,-1.10437 L 1807.57,-1.76335 L 1808.09,-2.31154 L 1808.72,-2.71448 L 1809.44,-2.94685
 L 1810.19,-2.99408 L 1810.93,-2.85316 L 1811.61,-2.53297 L 1812.19,-2.05363 L 1812.63,-1.44525 L 1812.91,-0.746063
 L 1813,-0 L 1812.91,0.746063 L 1812.63,1.44525 L 1812.19,2.05363 L 1811.61,2.53297 L 1810.93,2.85316
 L 1810.19,2.99408 z
M 1809.44,17.9469 L 1808.72,17.7145 L 1808.09,17.3115 L 1807.57,16.7634 L 1807.21,16.1044 L 1807.02,15.376
 L 1807.02,14.624 L 1807.21,13.8956 L 1807.57,13.2366 L 1808.09,12.6884 L 1808.72,12.2855 L 1809.44,12.0531
 L 1810.19,12.0059 L 1810.93,12.1468 L 1811.61,12.467 L 1812.19,12.9464 L 1812.63,13.5547 L 1812.91,14.2539
 L 1813,15 L 1812.91,15.7461 L 1812.63,16.4453 L 1812.19,17.0536 L 1811.61,17.533 L 1810.93,17.8532
 L 1810.19,17.9941 z
M 1764.72,19.4734 L 1764.36,19.3572 L 1764.04,19.1558 L 1763.79,18.8817 L 1763.61,18.5522 L 1763.51,18.188
 L 1763.51,17.812 L 1763.61,17.4478 L 1763.79,17.1183 L 1764.04,16.8442 L 1764.36,16.6427 L 1764.72,16.5266
 L 1765.09,16.503 L 1765.46,16.5734 L 1765.8,16.7335 L 1766.09,16.9732 L 1766.31,17.2774 L 1766.45,17.627
 L 1766.5,18 L 1766.45,18.373 L 1766.31,18.7226 L 1766.09,19.0268 L 1765.8,19.2665 L 1765.46,19.4266
 L 1765.09,19.497 z
M 1809.44,27.9469 L 1808.72,27.7145 L 1808.09,27.3115 L 1807.57,26.7634 L 1807.21,26.1044 L 1807.02,25.376
 L 1807.02,24.624 L 1807.21,23.8956 L 1807.57,23.2366 L 1808.09,22.6884 L 1808.72,22.2855 L 1809.44,22.0531
 L 1810.19,22.0059 L 1810.93,22.1468 L 1811.61,22.467 L 1812.19,22.9464 L 1812.63,23.5547 L 1812.91,24.2539
 L 1813,25 L 1812.91,25.7461 L 1812.63,26.4453 L 1812.19,27.0536 L 1811.61,27.533 L 1810.93,27.8532
 L 1810.19,27.9941 z
M 334.5,-35 L 338.5,-35 L 338.5,-32 L 345.5,-32 L 345.5,-35 L 349.5,-35
 L 349.5,-32 L 352,-32 L 352,-39.5 L 332,-39.5 L 332,-32 L 334.5,-32
 z
M 1627.24,26.3429 L 1628.41,25.8815 L 1629.42,25.1448 L 1630.22,24.1791 L 1630.76,23.0451 L 1631,21.5
 L 1631,-21.5 L 1630.84,-22.7435 L 1630.38,-23.9088 L 1629.64,-24.9227 L 1628.68,-25.7216 L 1627.55,-26.2553
 L 1626,-26.5 L 1586,-26.5 L 1584.76,-26.3429 L 1583.59,-25.8815 L 1582.58,-25.1448 L 1581.78,-24.1791
 L 1581.24,-23.0451 L 1581,-21.5 L 1581,21.5 L 1581.16,22.7435 L 1581.62,23.9088 L 1582.36,24.9227
 L 1583.32,25.7216 L 1584.45,26.2553 L 1586,26.5 L 1626,26.5 z
M 1598.75,14.5 L 1598.75,11.415 L 1598.43,11.3103 L 1595.78,9.63141 L 1593.64,7.34731 L 1592.13,4.60155
 L 1591.35,1.56665 L 1591.35,-1.56665 L 1592.13,-4.60155 L 1593.64,-7.34731 L 1595.78,-9.63141 L 1598.43,-11.3103
 L 1598.75,-11.415 L 1598.75,-14.5 L 1608.75,-14.5 L 1608.75,-11.353 L 1610.45,-10.5541 L 1612.86,-8.55682
 L 1614.7,-6.02191 L 1615.86,-3.10861 L 1616.25,-0 L 1615.86,3.10861 L 1614.7,6.02191 L 1612.86,8.55682
 L 1610.45,10.5541 L 1608.75,11.353 L 1608.75,14.5 z
M 1617.5,18.25 L 1617.5,15.75 L 1622.5,15.75 L 1622.5,18.25 z
M 1617.5,24.25 L 1617.5,21.75 L 1622.5,21.75 L 1622.5,24.25 z
M 352,32 L 349.5,32 L 349.5,35 L 345.5,35 L 345.5,32 L 338.5,32
 L 338.5,35 L 334.5,35 L 334.5,32 L 332,32 L 332,39.5 L 352,39.5
 z
" stroke="black" fill="lightgray" stroke-width="0.5"/>
</svg>
