  0
SECTION
  2
BLOCKS
  0
ENDSEC
  0
SECTION
  2
ENTITIES
  0
LINE
  8
0
 10
-20.7565
 20
-38.8429
 11
-19.5912
 21
-38.3815
  0
LINE
  8
0
 10
-19.5912
 20
-38.3815
 11
-18.5773
 21
-37.6448
  0
LINE
  8
0
 10
-18.5773
 20
-37.6448
 11
-17.7784
 21
-36.6791
  0
LINE
  8
0
 10
-17.7784
 20
-36.6791
 11
-17.2447
 21
-35.5451
  0
LINE
  8
0
 10
-17.2447
 20
-35.5451
 11
-17
 21
-34
  0
LINE
  8
0
 10
-17
 20
-34
 11
-17
 21
34
  0
LINE
  8
0
 10
-17
 20
34
 11
-17.1571
 21
35.2435
  0
LINE
  8
0
 10
-17.1571
 20
35.2435
 11
-17.6185
 21
36.4088
  0
LINE
  8
0
 10
-17.6185
 20
36.4088
 11
-18.3552
 21
37.4227
  0
LINE
  8
0
 10
-18.3552
 20
37.4227
 11
-19.3209
 21
38.2216
  0
LINE
  8
0
 10
-19.3209
 20
38.2216
 11
-20.4549
 21
38.7553
  0
LINE
  8
0
 10
-20.4549
 20
38.7553
 11
-22
 21
39
  0
LINE
  8
0
 10
-22
 20
39
 11
-102
 21
39
  0
LINE
  8
0
 10
-102
 20
39
 11
-103.243
 21
38.8429
  0
LINE
  8
0
 10
-103.243
 20
38.8429
 11
-104.409
 21
38.3815
  0
LINE
  8
0
 10
-104.409
 20
38.3815
 11
-105.423
 21
37.6448
  0
LINE
  8
0
 10
-105.423
 20
37.6448
 11
-106.222
 21
36.6791
  0
LINE
  8
0
 10
-106.222
 20
36.6791
 11
-106.755
 21
35.5451
  0
LINE
  8
0
 10
-106.755
 20
35.5451
 11
-107
 21
34
  0
LINE
  8
0
 10
-107
 20
34
 11
-107
 21
-34
  0
LINE
  8
0
 10
-107
 20
-34
 11
-106.843
 21
-35.2435
  0
LINE
  8
0
 10
-106.843
 20
-35.2435
 11
-106.382
 21
-36.4088
  0
LINE
  8
0
 10
-106.382
 20
-36.4088
 11
-105.645
 21
-37.4227
  0
LINE
  8
0
 10
-105.645
 20
-37.4227
 11
-104.679
 21
-38.2216
  0
LINE
  8
0
 10
-104.679
 20
-38.2216
 11
-103.545
 21
-38.7553
  0
LINE
  8
0
 10
-103.545
 20
-38.7553
 11
-102
 21
-39
  0
LINE
  8
0
 10
-102
 20
-39
 11
-22
 21
-39
  0
LINE
  8
0
 10
-22
 20
-39
 11
-20.7565
 21
-38.8429
  0
LINE
  8
0
 10
-35.2811
 20
16.5266
 11
-35.6387
 21
16.6427
  0
LINE
  8
0
 10
-35.6387
 20
16.6427
 11
-35.9561
 21
16.8442
  0
LINE
  8
0
 10
-35.9561
 20
16.8442
 11
-36.2135
 21
17.1183
  0
LINE
  8
0
 10
-36.2135
 20
17.1183
 11
-36.3947
 21
17.4478
  0
LINE
  8
0
 10
-36.3947
 20
17.4478
 11
-36.4882
 21
17.812
  0
LINE
  8
0
 10
-36.4882
 20
17.812
 11
-36.4882
 21
18.188
  0
LINE
  8
0
 10
-36.4882
 20
18.188
 11
-36.3947
 21
18.5522
  0
LINE
  8
0
 10
-36.3947
 20
18.5522
 11
-36.2135
 21
18.8817
  0
LINE
  8
0
 10
-36.2135
 20
18.8817
 11
-35.9561
 21
19.1558
  0
LINE
  8
0
 10
-35.9561
 20
19.1558
 11
-35.6387
 21
19.3572
  0
LINE
  8
0
 10
-35.6387
 20
19.3572
 11
-35.2811
 21
19.4734
  0
LINE
  8
0
 10
-35.2811
 20
19.4734
 11
-34.9058
 21
19.497
  0
LINE
  8
0
 10
-34.9058
 20
19.497
 11
-34.5365
 21
19.4266
  0
LINE
  8
0
 10
-34.5365
 20
19.4266
 11
-34.1963
 21
19.2665
  0
LINE
  8
0
 10
-34.1963
 20
19.2665
 11
-33.9065
 21
19.0268
  0
LINE
  8
0
 10
-33.9065
 20
19.0268
 11
-33.6855
 21
18.7226
  0
LINE
  8
0
 10
-33.6855
 20
18.7226
 11
-33.5471
 21
18.373
  0
LINE
  8
0
 10
-33.5471
 20
18.373
 11
-33.5
 21
18
  0
LINE
  8
0
 10
-33.5
 20
18
 11
-33.5471
 21
17.627
  0
LINE
  8
0
 10
-33.5471
 20
17.627
 11
-33.6855
 21
17.2774
  0
LINE
  8
0
 10
-33.6855
 20
17.2774
 11
-33.9065
 21
16.9732
  0
LINE
  8
0
 10
-33.9065
 20
16.9732
 11
-34.1963
 21
16.7335
  0
LINE
  8
0
 10
-34.1963
 20
16.7335
 11
-34.5365
 21
16.5734
  0
LINE
  8
0
 10
-34.5365
 20
16.5734
 11
-34.9058
 21
16.503
  0
LINE
  8
0
 10
-34.9058
 20
16.503
 11
-35.2811
 21
16.5266
  0
LINE
  8
0
 10
-55.5
 20
-14
 11
-55.5
 21
-5
  0
LINE
  8
0
 10
-55.5
 20
-5
 11
-59.5
 21
-5
  0
LINE
  8
0
 10
-59.5
 20
-5
 11
-59.5
 21
-1
  0
LINE
  8
0
 10
-59.5
 20
-1
 11
-55.5
 21
-1
  0
LINE
  8
0
 10
-55.5
 20
-1
 11
-55.5
 21
14
  0
LINE
  8
0
 10
-55.5
 20
14
 11
-36
 21
14
  0
LINE
  8
0
 10
-36
 20
14
 11
-36
 21
13.9171
  0
LINE
  8
0
 10
-36
 20
13.9171
 11
-35.1209
 21
13.9724
  0
LINE
  8
0
 10
-35.1209
 20
13.9724
 11
-31.6738
 21
13.3148
  0
LINE
  8
0
 10
-31.6738
 20
13.3148
 11
-28.4984
 21
11.8206
  0
LINE
  8
0
 10
-28.4984
 20
11.8206
 11
-25.7944
 21
9.58365
  0
LINE
  8
0
 10
-25.7944
 20
9.58365
 11
-23.7317
 21
6.74454
  0
LINE
  8
0
 10
-23.7317
 20
6.74454
 11
-22.4398
 21
3.48164
  0
LINE
  8
0
 10
-22.4398
 20
3.48164
 11
-22
 21
0
  0
LINE
  8
0
 10
-22
 20
0
 11
-22.4398
 21
-3.48164
  0
LINE
  8
0
 10
-22.4398
 20
-3.48164
 11
-23.7317
 21
-6.74454
  0
LINE
  8
0
 10
-23.7317
 20
-6.74454
 11
-25.7944
 21
-9.58365
  0
LINE
  8
0
 10
-25.7944
 20
-9.58365
 11
-28.4984
 21
-11.8206
  0
LINE
  8
0
 10
-28.4984
 20
-11.8206
 11
-31.6738
 21
-13.3148
  0
LINE
  8
0
 10
-31.6738
 20
-13.3148
 11
-35.1209
 21
-13.9724
  0
LINE
  8
0
 10
-35.1209
 20
-13.9724
 11
-36
 21
-13.9171
  0
LINE
  8
0
 10
-36
 20
-13.9171
 11
-36
 21
-14
  0
LINE
  8
0
 10
-36
 20
-14
 11
-55.5
 21
-14
  0
LINE
  8
0
 10
-34.9058
 20
-19.497
 11
-35.2811
 21
-19.4734
  0
LINE
  8
0
 10
-35.2811
 20
-19.4734
 11
-35.6387
 21
-19.3572
  0
LINE
  8
0
 10
-35.6387
 20
-19.3572
 11
-35.9561
 21
-19.1558
  0
LINE
  8
0
 10
-35.9561
 20
-19.1558
 11
-36.2135
 21
-18.8817
  0
LINE
  8
0
 10
-36.2135
 20
-18.8817
 11
-36.3947
 21
-18.5522
  0
LINE
  8
0
 10
-36.3947
 20
-18.5522
 11
-36.4882
 21
-18.188
  0
LINE
  8
0
 10
-36.4882
 20
-18.188
 11
-36.4882
 21
-17.812
  0
LINE
  8
0
 10
-36.4882
 20
-17.812
 11
-36.3947
 21
-17.4478
  0
LINE
  8
0
 10
-36.3947
 20
-17.4478
 11
-36.2135
 21
-17.1183
  0
LINE
  8
0
 10
-36.2135
 20
-17.1183
 11
-35.9561
 21
-16.8442
  0
LINE
  8
0
 10
-35.9561
 20
-16.8442
 11
-35.6387
 21
-16.6427
  0
LINE
  8
0
 10
-35.6387
 20
-16.6427
 11
-35.2811
 21
-16.5266
  0
LINE
  8
0
 10
-35.2811
 20
-16.5266
 11
-34.9058
 21
-16.503
  0
LINE
  8
0
 10
-34.9058
 20
-16.503
 11
-34.5365
 21
-16.5734
  0
LINE
  8
0
 10
-34.5365
 20
-16.5734
 11
-34.1963
 21
-16.7335
  0
LINE
  8
0
 10
-34.1963
 20
-16.7335
 11
-33.9065
 21
-16.9732
  0
LINE
  8
0
 10
-33.9065
 20
-16.9732
 11
-33.6855
 21
-17.2774
  0
LINE
  8
0
 10
-33.6855
 20
-17.2774
 11
-33.5471
 21
-17.627
  0
LINE
  8
0
 10
-33.5471
 20
-17.627
 11
-33.5
 21
-18
  0
LINE
  8
0
 10
-33.5
 20
-18
 11
-33.5471
 21
-18.373
  0
LINE
  8
0
 10
-33.5471
 20
-18.373
 11
-33.6855
 21
-18.7226
  0
LINE
  8
0
 10
-33.6855
 20
-18.7226
 11
-33.9065
 21
-19.0268
  0
LINE
  8
0
 10
-33.9065
 20
-19.0268
 11
-34.1963
 21
-19.2665
  0
LINE
  8
0
 10
-34.1963
 20
-19.2665
 11
-34.5365
 21
-19.4266
  0
LINE
  8
0
 10
-34.5365
 20
-19.4266
 11
-34.9058
 21
-19.497
  0
ENDSEC
  0
SECTION
  2
OBJECTS
  0
DICTIONARY
  0
ENDSEC
  0
EOF
