  0
SECTION
  2
BLOCKS
  0
ENDSEC
  0
SECTION
  2
ENTITIES
  0
LINE
  8
0
 10
21.2435
 20
-24.8429
 11
22.4088
 21
-24.3815
  0
LINE
  8
0
 10
22.4088
 20
-24.3815
 11
23.4227
 21
-23.6448
  0
LINE
  8
0
 10
23.4227
 20
-23.6448
 11
24.2216
 21
-22.6791
  0
LINE
  8
0
 10
24.2216
 20
-22.6791
 11
24.7553
 21
-21.5451
  0
LINE
  8
0
 10
24.7553
 20
-21.5451
 11
25
 21
-20
  0
LINE
  8
0
 10
25
 20
-20
 11
25
 21
20
  0
LINE
  8
0
 10
25
 20
20
 11
24.8429
 21
21.2435
  0
LINE
  8
0
 10
24.8429
 20
21.2435
 11
24.3815
 21
22.4088
  0
LINE
  8
0
 10
24.3815
 20
22.4088
 11
23.6448
 21
23.4227
  0
LINE
  8
0
 10
23.6448
 20
23.4227
 11
22.6791
 21
24.2216
  0
LINE
  8
0
 10
22.6791
 20
24.2216
 11
21.5451
 21
24.7553
  0
LINE
  8
0
 10
21.5451
 20
24.7553
 11
20
 21
25
  0
LINE
  8
0
 10
20
 20
25
 11
-20
 21
25
  0
LINE
  8
0
 10
-20
 20
25
 11
-21.2435
 21
24.8429
  0
LINE
  8
0
 10
-21.2435
 20
24.8429
 11
-22.4088
 21
24.3815
  0
LINE
  8
0
 10
-22.4088
 20
24.3815
 11
-23.4227
 21
23.6448
  0
LINE
  8
0
 10
-23.4227
 20
23.6448
 11
-24.2216
 21
22.6791
  0
LINE
  8
0
 10
-24.2216
 20
22.6791
 11
-24.7553
 21
21.5451
  0
LINE
  8
0
 10
-24.7553
 20
21.5451
 11
-25
 21
20
  0
LINE
  8
0
 10
-25
 20
20
 11
-25
 21
-20
  0
LINE
  8
0
 10
-25
 20
-20
 11
-24.8429
 21
-21.2435
  0
LINE
  8
0
 10
-24.8429
 20
-21.2435
 11
-24.3815
 21
-22.4088
  0
LINE
  8
0
 10
-24.3815
 20
-22.4088
 11
-23.6448
 21
-23.4227
  0
LINE
  8
0
 10
-23.6448
 20
-23.4227
 11
-22.6791
 21
-24.2216
  0
LINE
  8
0
 10
-22.6791
 20
-24.2216
 11
-21.5451
 21
-24.7553
  0
LINE
  8
0
 10
-21.5451
 20
-24.7553
 11
-20
 21
-25
  0
LINE
  8
0
 10
-20
 20
-25
 11
20
 21
-25
  0
LINE
  8
0
 10
20
 20
-25
 11
21.2435
 21
-24.8429
  0
LINE
  8
0
 10
-2.75
 20
-15
 11
-2.75
 21
-12.1461
  0
LINE
  8
0
 10
-2.75
 20
-12.1461
 11
-5.32224
 21
-11.3103
  0
LINE
  8
0
 10
-5.32224
 20
-11.3103
 11
-7.96779
 21
-9.63141
  0
LINE
  8
0
 10
-7.96779
 20
-9.63141
 11
-10.1127
 21
-7.34731
  0
LINE
  8
0
 10
-10.1127
 20
-7.34731
 11
-11.6222
 21
-4.60155
  0
LINE
  8
0
 10
-11.6222
 20
-4.60155
 11
-12.4014
 21
-1.56665
  0
LINE
  8
0
 10
-12.4014
 20
-1.56665
 11
-12.4014
 21
1.56665
  0
LINE
  8
0
 10
-12.4014
 20
1.56665
 11
-11.6222
 21
4.60155
  0
LINE
  8
0
 10
-11.6222
 20
4.60155
 11
-10.1127
 21
7.34731
  0
LINE
  8
0
 10
-10.1127
 20
7.34731
 11
-7.96779
 21
9.63141
  0
LINE
  8
0
 10
-7.96779
 20
9.63141
 11
-5.32224
 21
11.3103
  0
LINE
  8
0
 10
-5.32224
 20
11.3103
 11
-2.75
 21
12.1461
  0
LINE
  8
0
 10
-2.75
 20
12.1461
 11
-2.75
 21
15
  0
LINE
  8
0
 10
-2.75
 20
15
 11
2.75
 21
15
  0
LINE
  8
0
 10
2.75
 20
15
 11
2.75
 21
14.8482
  0
LINE
  8
0
 10
2.75
 20
14.8482
 11
4.69185
 21
14.9704
  0
LINE
  8
0
 10
4.69185
 20
14.9704
 11
7.25
 21
14.4824
  0
LINE
  8
0
 10
7.25
 20
14.4824
 11
7.25
 21
10.0973
  0
LINE
  8
0
 10
7.25
 20
10.0973
 11
9.11211
 21
8.55682
  0
LINE
  8
0
 10
9.11211
 20
8.55682
 11
10.9538
 21
6.02191
  0
LINE
  8
0
 10
10.9538
 20
6.02191
 11
12.1073
 21
3.10861
  0
LINE
  8
0
 10
12.1073
 20
3.10861
 11
12.5
 21
0
  0
LINE
  8
0
 10
12.5
 20
0
 11
12.1073
 21
-3.10861
  0
LINE
  8
0
 10
12.1073
 20
-3.10861
 11
10.9538
 21
-6.02191
  0
LINE
  8
0
 10
10.9538
 20
-6.02191
 11
9.11211
 21
-8.55682
  0
LINE
  8
0
 10
9.11211
 20
-8.55682
 11
7.25
 21
-10.0973
  0
LINE
  8
0
 10
7.25
 20
-10.0973
 11
7.25
 21
-14.4824
  0
LINE
  8
0
 10
7.25
 20
-14.4824
 11
4.69185
 21
-14.9704
  0
LINE
  8
0
 10
4.69185
 20
-14.9704
 11
2.75
 21
-14.8482
  0
LINE
  8
0
 10
2.75
 20
-14.8482
 11
2.75
 21
-15
  0
LINE
  8
0
 10
2.75
 20
-15
 11
-2.75
 21
-15
  0
LINE
  8
0
 10
18.5
 20
-18.75
 11
18.5
 21
-17.25
  0
LINE
  8
0
 10
18.5
 20
-17.25
 11
21.5
 21
-17.25
  0
LINE
  8
0
 10
21.5
 20
-17.25
 11
21.5
 21
-18.75
  0
LINE
  8
0
 10
21.5
 20
-18.75
 11
18.5
 21
-18.75
  0
LINE
  8
0
 10
18.5
 20
-22.75
 11
18.5
 21
-21.25
  0
LINE
  8
0
 10
18.5
 20
-21.25
 11
21.5
 21
-21.25
  0
LINE
  8
0
 10
21.5
 20
-21.25
 11
21.5
 21
-22.75
  0
LINE
  8
0
 10
21.5
 20
-22.75
 11
18.5
 21
-22.75
  0
ENDSEC
  0
SECTION
  2
OBJECTS
  0
DICTIONARY
  0
ENDSEC
  0
EOF
