<?xml version="1.0" standalone="no"?>
<!DOCTYPE svg PUBLIC "-//W3C//DTD SVG 1.1//EN" "http://www.w3.org/Graphics/SVG/1.1/DTD/svg11.dtd">
<svg width="1953mm" height="78mm" viewBox="-135 -39 1953 78" xmlns="http://www.w3.org/2000/svg" version="1.1">
<title>OpenSCAD Model</title>
<path d="
M -48,38 L 0,38 L 0,-38 L -48,-38 L -48,-39 L -68,-39
 L -68,-38 L -135,-38 L -135,38 L -68,38 L -68,39 L -48,39
 z
M 1814.24,38.8429 L 1815.41,38.3815 L 1816.42,37.6448 L 1817.22,36.6791 L 1817.76,35.5451 L 1818,34
 L 1818,-34 L 1817.84,-35.2435 L 1817.38,-36.4088 L 1816.64,-37.4227 L 1815.68,-38.2216 L 1814.55,-38.7553
 L 1813,-39 L 1718,-39 L 1716.76,-38.8429 L 1715.59,-38.3815 L 1714.58,-37.6448 L 1713.78,-36.6791
 L 1713.24,-35.5451 L 1713,-34 L 1713,34 L 1713.16,35.2435 L 1713.62,36.4088 L 1714.36,37.4227
 L 1715.32,38.2216 L 1716.45,38.7553 L 1718,39 L 1813,39 z
M 1809.44,-22.0531 L 1808.72,-22.2855 L 1808.09,-22.6884 L 1807.57,-23.2366 L 1807.21,-23.8956 L 1807.02,-24.624
 L 1807.02,-25.376 L 1807.21,-26.1044 L 1807.57,-26.7634 L 1808.09,-27.3115 L 1808.72,-27.7145 L 1809.44,-27.9469
 L 1810.19,-27.9941 L 1810.93,-27.8532 L 1811.61,-27.533 L 1812.19,-27.0536 L 1812.63,-26.4453 L 1812.91,-25.7461
 L 1813,-25 L 1812.91,-24.2539 L 1812.63,-23.5547 L 1812.19,-22.9464 L 1811.61,-22.467 L 1810.93,-22.1468
 L 1810.19,-22.0059 z
M 1764.72,-16.5266 L 1764.36,-16.6427 L 1764.04,-16.8442 L 1763.79,-17.1183 L 1763.61,-17.4478 L 1763.51,-17.812
 L 1763.51,-18.188 L 1763.61,-18.5522 L 1763.79,-18.8817 L 1764.04,-19.1558 L 1764.36,-19.3572 L 1764.72,-19.4734
 L 1765.09,-19.497 L 1765.46,-19.4266 L 1765.8,-19.2665 L 1766.09,-19.0268 L 1766.31,-18.7226 L 1766.45,-18.373
 L 1766.5,-18 L 1766.45,-17.627 L 1766.31,-17.2774 L 1766.09,-16.9732 L 1765.8,-16.7335 L 1765.46,-16.5734
 L 1765.09,-16.503 z
M 1809.44,-12.0531 L 1808.72,-12.2855 L 1808.09,-12.6884 L 1807.57,-13.2366 L 1807.21,-13.8956 L 1807.02,-14.624
 L 1807.02,-15.376 L 1807.21,-16.1044 L 1807.57,-16.7634 L 1808.09,-17.3115 L 1808.72,-17.7145 L 1809.44,-17.9469
 L 1810.19,-17.9941 L 1810.93,-17.8532 L 1811.61,-17.533 L 1812.19,-17.0536 L 1812.63,-16.4453 L 1812.91,-15.7461
 L 1813,-15 L 1812.91,-14.2539 L 1812.63,-13.5547 L 1812.19,-12.9464 L 1811.61,-12.467 L 1810.93,-12.1468
 L 1810.19,-12.0059 z
M 1744.5,14 L 1744.5,5 L 1740.5,5 L 1740.5,1 L 1744.5,1 L 1744.5,-14
 L 1764,-14 L 1764,-13.9171 L 1764.88,-13.9724 L 1768.33,-13.3148 L 1771.5,-11.8206 L 1774.21,-9.58365
 L 1776.27,-6.74454 L 1777.56,-3.48164 L 1778,-0 L 1777.56,3.48164 L 1776.27,6.74454 L 1774.21,9.58365
 L 1771.5,11.8206 L 1768.33,13.3148 L 1764.88,13.9724 L 1764,13.9171 L 1764,14 z
M 1809.44,2.94685 L 1808.72,2.71448 L 1808.09,2.31154 L 1807.57,1.76335 L 1807.21,1.10437 L 1807.02,0.375992
 L 1807.02,-0.375992 L 1807.21,-1.10437 L 1807.57,-1.76335 L 1808.09,-2.31154 L 1808.72,-2.71448 L 1809.44,-2.94685
 L 1810.19,-2.99408 L 1810.93,-2.85316 L 1811.61,-2.53297 L 1812.19,-2.05363 L 1812.63,-1.44525 L 1812.91,-0.746063
 L 1813,-0 L 1812.91,0.746063 L 1812.63,1.44525 L 1812.19,2.05363 L 1811.61,2.53297 L 1810.93,2.85316
 L 1810.19,2.99408 z
M 1809.44,17.9469 L 1808.72,17.7145 L 1808.09,17.3115 L 1807.57,16.7634 L 1807.21,16.1044 L 1807.02,15.376
 L 1807.02,14.624 L 1807.21,13.8956 L 1807.57,13.2366 L 1808.09,12.6884 L 1808.72,12.2855 L 1809.44,12.0531
 L 1810.19,12.0059 L 1810.93,12.1468 L 1811.61,12.467 L 1812.19,12.9464 L 1812.63,13.5547 L 1812.91,14.2539
 L 1813,15 L 1812.91,15.7461 L 1812.63,16.4453 L 1812.19,17.0536 L 1811.61,17.533 L 1810.93,17.8532
 L 1810.19,17.9941 z
M 1764.72,19.4734 L 1764.36,19.3572 L 1764.04,19.1558 L 1763.79,18.8817 L 1763.61,18.5522 L 1763.51,18.188
 L 1763.51,17.812 L 1763.61,17.4478 L 1763.79,17.1183 L 1764.04,16.8442 L 1764.36,16.6427 L 1764.72,16.5266
 L 1765.09,16.503 L 1765.46,16.5734 L 1765.8,16.7335 L 1766.09,16.9732 L 1766.31,17.2774 L 1766.45,17.627
 L 1766.5,18 L 1766.45,18.373 L 1766.31,18.7226 L 1766.09,19.0268 L 1765.8,19.2665 L 1765.46,19.4266
 L 1765.09,19.497 z
M 1809.44,27.9469 L 1808.72,27.7145 L 1808.09,27.3115 L 1807.57,26.7634 L 1807.21,26.1044 L 1807.02,25.376
 L 1807.02,24.624 L 1807.21,23.8956 L 1807.57,23.2366 L 1808.09,22.6884 L 1808.72,22.2855 L 1809.44,22.0531
 L 1810.19,22.0059 L 1810.93,22.1468 L 1811.61,22.467 L 1812.19,22.9464 L 1812.63,23.5547 L 1812.91,24.2539
 L 1813,25 L 1812.91,25.7461 L 1812.63,26.4453 L 1812.19,27.0536 L 1811.61,27.533 L 1810.93,27.8532
 L 1810.19,27.9941 z
M 334.5,-35 L 338.5,-35 L 338.5,-32 L 345.5,-32 L 345.5,-35 L 349.5,-35
 L 349.5,-32 L 352,-32 L 352,-39 L 332,-39 L 332,-32 L 334.5,-32
 z
M 1579.24,24.8429 L 1580.41,24.3815 L 1581.42,23.6448 L 1582.22,22.6791 L 1582.76,21.5451 L 1583,20
 L 1583,-20 L 1582.84,-21.2435 L 1582.38,-22.4088 L 1581.64,-23.4227 L 1580.68,-24.2216 L 1579.55,-24.7553
 L 1578,-25 L 1538,-25 L 1536.76,-24.8429 L 1535.59,-24.3815 L 1534.58,-23.6448 L 1533.78,-22.6791
 L 1533.24,-21.5451 L 1533,-20 L 1533,20 L 1533.16,21.2435 L 1533.62,22.4088 L 1534.36,23.4227
 L 1535.32,24.2216 L 1536.45,24.7553 L 1538,25 L 1578,25 z
M 1564.72,-16.5266 L 1564.36,-16.6427 L 1564.04,-16.8442 L 1563.79,-17.1183 L 1563.61,-17.4478 L 1563.51,-17.812
 L 1563.51,-18.188 L 1563.61,-18.5522 L 1563.79,-18.8817 L 1564.04,-19.1558 L 1564.36,-19.3572 L 1564.72,-19.4734
 L 1565.09,-19.497 L 1565.46,-19.4266 L 1565.8,-19.2665 L 1566.09,-19.0268 L 1566.31,-18.7226 L 1566.45,-18.373
 L 1566.5,-18 L 1566.45,-17.627 L 1566.31,-17.2774 L 1566.09,-16.9732 L 1565.8,-16.7335 L 1565.46,-16.5734
 L 1565.09,-16.503 z
M 1562.66,12.2786 L 1559.68,11.3103 L 1557.03,9.63141 L 1554.89,7.34731 L 1553.38,4.60155 L 1552.6,1.56665
 L 1552.6,-1.56665 L 1553.38,-4.60155 L 1554.89,-7.34731 L 1557.03,-9.63141 L 1559.68,-11.3103 L 1562.66,-12.2786
 L 1565.78,-12.4753 L 1568.86,-11.8882 L 1571.7,-10.5541 L 1574.11,-8.55682 L 1575.95,-6.02191 L 1577.11,-3.10861
 L 1577.5,-0 L 1577.11,3.10861 L 1575.95,6.02191 L 1574.11,8.55682 L 1571.7,10.5541 L 1568.86,11.8882
 L 1565.78,12.4753 z
M 1564.72,19.4734 L 1564.36,19.3572 L 1564.04,19.1558 L 1563.79,18.8817 L 1563.61,18.5522 L 1563.51,18.188
 L 1563.51,17.812 L 1563.61,17.4478 L 1563.79,17.1183 L 1564.04,16.8442 L 1564.36,16.6427 L 1564.72,16.5266
 L 1565.09,16.503 L 1565.46,16.5734 L 1565.8,16.7335 L 1566.09,16.9732 L 1566.31,17.2774 L 1566.45,17.627
 L 1566.5,18 L 1566.45,18.373 L 1566.31,18.7226 L 1566.09,19.0268 L 1565.8,19.2665 L 1565.46,19.4266
 L 1565.09,19.497 z
M 352,32 L 349.5,32 L 349.5,35 L 345.5,35 L 345.5,32 L 338.5,32
 L 338.5,35 L 334.5,35 L 334.5,32 L 332,32 L 332,39 L 352,39
 z
" stroke="black" fill="lightgray" stroke-width="0.5"/>
</svg>
