<?xml version="1.0" standalone="no"?>
<!DOCTYPE svg PUBLIC "-//W3C//DTD SVG 1.1//EN" "http://www.w3.org/Graphics/SVG/1.1/DTD/svg11.dtd">
<svg width="50mm" height="50mm" viewBox="-25 -25 50 50" xmlns="http://www.w3.org/2000/svg" version="1.1">
<title>OpenSCAD Model</title>
<path d="
M 21.2435,24.8429 L 22.4088,24.3815 L 23.4227,23.6448 L 24.2216,22.6791 L 24.7553,21.5451 L 25,20
 L 25,-20 L 24.8429,-21.2435 L 24.3815,-22.4088 L 23.6448,-23.4227 L 22.6791,-24.2216 L 21.5451,-24.7553
 L 20,-25 L -20,-25 L -21.2435,-24.8429 L -22.4088,-24.3815 L -23.4227,-23.6448 L -24.2216,-22.6791
 L -24.7553,-21.5451 L -25,-20 L -25,20 L -24.8429,21.2435 L -24.3815,22.4088 L -23.6448,23.4227
 L -22.6791,24.2216 L -21.5451,24.7553 L -20,25 L 20,25 z
M -2.75,15 L -2.75,12.1461 L -5.32224,11.3103 L -7.96779,9.63141 L -10.1127,7.34731 L -11.6222,4.60155
 L -12.4014,1.56665 L -12.4014,-1.56665 L -11.6222,-4.60155 L -10.1127,-7.34731 L -7.96779,-9.63141 L -5.32224,-11.3103
 L -2.75,-12.1461 L -2.75,-15 L 2.75,-15 L 2.75,-14.8482 L 4.69185,-14.9704 L 7.25,-14.4824
 L 7.25,-10.0973 L 9.11211,-8.55682 L 10.9538,-6.02191 L 12.1073,-3.10861 L 12.5,-0 L 12.1073,3.10861
 L 10.9538,6.02191 L 9.11211,8.55682 L 7.25,10.0973 L 7.25,14.4824 L 4.69185,14.9704 L 2.75,14.8482
 L 2.75,15 z
M 18.5,18.75 L 18.5,17.25 L 21.5,17.25 L 21.5,18.75 z
M 18.5,22.75 L 18.5,21.25 L 21.5,21.25 L 21.5,22.75 z
" stroke="black" fill="lightgray" stroke-width="0.5"/>
</svg>
