solid OpenSCAD_Model
  facet normal 0 0 -1
    outer loop
      vertex -88.75 -38.5 -88.5
      vertex 47.25 38.5 -88.5
      vertex 47.25 -38.5 -88.5
    endloop
  endfacet
  facet normal -0 0 -1
    outer loop
      vertex 47.25 38.5 -88.5
      vertex -88.75 -38.5 -88.5
      vertex -88.75 38.5 -88.5
    endloop
  endfacet
  facet normal 1 -0 0
    outer loop
      vertex 47.25 -38.5 -52.5
      vertex 47.25 38.5 -88.5
      vertex 47.25 38.5 -52.5
    endloop
  endfacet
  facet normal 1 0 0
    outer loop
      vertex 47.25 38.5 -88.5
      vertex 47.25 -38.5 -52.5
      vertex 47.25 -38.5 -88.5
    endloop
  endfacet
  facet normal -1 0 0
    outer loop
      vertex -88.75 -38.5 -88.5
      vertex -88.75 38.5 -52.5
      vertex -88.75 38.5 -88.5
    endloop
  endfacet
  facet normal -1 -0 0
    outer loop
      vertex -88.75 38.5 -52.5
      vertex -88.75 -38.5 -88.5
      vertex -88.75 -38.5 -52.5
    endloop
  endfacet
  facet normal 0 -1 0
    outer loop
      vertex -88.75 -38.5 -88.5
      vertex 47.25 -38.5 -52.5
      vertex -88.75 -38.5 -52.5
    endloop
  endfacet
  facet normal 0 -1 -0
    outer loop
      vertex 47.25 -38.5 -52.5
      vertex -88.75 -38.5 -88.5
      vertex 47.25 -38.5 -88.5
    endloop
  endfacet
  facet normal 0 1 -0
    outer loop
      vertex 47.25 38.5 -88.5
      vertex -88.75 38.5 -52.5
      vertex 47.25 38.5 -52.5
    endloop
  endfacet
  facet normal 0 1 0
    outer loop
      vertex -88.75 38.5 -52.5
      vertex 47.25 38.5 -88.5
      vertex -88.75 38.5 -88.5
    endloop
  endfacet
  facet normal -0 0 1
    outer loop
      vertex -49.75 8.5 -52.5
      vertex -35.75 -8.5 -52.5
      vertex -35.75 8.5 -52.5
    endloop
  endfacet
  facet normal 0 0 1
    outer loop
      vertex -35.75 -8.5 -52.5
      vertex -49.75 8.5 -52.5
      vertex -49.75 -8.5 -52.5
    endloop
  endfacet
  facet normal 0 0 1
    outer loop
      vertex -35.75 -21.5 -52.5
      vertex -49.75 -21.5 -52.5
      vertex -35.75 -31.5 -52.5
    endloop
  endfacet
  facet normal 0 0 1
    outer loop
      vertex -26.75 -31.5 -52.5
      vertex -35.75 -31.5 -52.5
      vertex -26.75 -36.5 -52.5
    endloop
  endfacet
  facet normal 0 0 1
    outer loop
      vertex 47.25 38.5 -52.5
      vertex 25.25 31.5 -52.5
      vertex 47.25 -38.5 -52.5
    endloop
  endfacet
  facet normal 0 0 1
    outer loop
      vertex 47.25 38.5 -52.5
      vertex 4.25 36.5 -52.5
      vertex 25.25 31.5 -52.5
    endloop
  endfacet
  facet normal 0 0 1
    outer loop
      vertex 47.25 38.5 -52.5
      vertex -26.75 36.5 -52.5
      vertex 4.25 36.5 -52.5
    endloop
  endfacet
  facet normal 0 0 1
    outer loop
      vertex -26.75 36.5 -52.5
      vertex -35.75 31.5 -52.5
      vertex -26.75 31.5 -52.5
    endloop
  endfacet
  facet normal 0 0 1
    outer loop
      vertex -35.75 31.5 -52.5
      vertex -49.75 21.5 -52.5
      vertex -35.75 21.5 -52.5
    endloop
  endfacet
  facet normal 0 0 1
    outer loop
      vertex -54.75 30.5 -52.5
      vertex -49.75 8.5 -52.5
      vertex -49.75 21.5 -52.5
    endloop
  endfacet
  facet normal 0 0 1
    outer loop
      vertex -49.75 8.5 -52.5
      vertex -54.75 30.5 -52.5
      vertex -49.75 -8.5 -52.5
    endloop
  endfacet
  facet normal 0 0 1
    outer loop
      vertex -54.75 -30.5 -52.5
      vertex -49.75 -8.5 -52.5
      vertex -54.75 30.5 -52.5
    endloop
  endfacet
  facet normal 0 0 1
    outer loop
      vertex -35.75 31.5 -52.5
      vertex -54.75 30.5 -52.5
      vertex -49.75 21.5 -52.5
    endloop
  endfacet
  facet normal 0 0 1
    outer loop
      vertex -26.75 36.5 -52.5
      vertex -54.75 30.5 -52.5
      vertex -35.75 31.5 -52.5
    endloop
  endfacet
  facet normal 0 0 1
    outer loop
      vertex -88.75 38.5 -52.5
      vertex -54.75 30.5 -52.5
      vertex -26.75 36.5 -52.5
    endloop
  endfacet
  facet normal 0 0 1
    outer loop
      vertex -81.75 30.5 -52.5
      vertex -88.75 38.5 -52.5
      vertex -81.75 -30.5 -52.5
    endloop
  endfacet
  facet normal 0 0 1
    outer loop
      vertex -54.75 30.5 -52.5
      vertex -88.75 38.5 -52.5
      vertex -81.75 30.5 -52.5
    endloop
  endfacet
  facet normal -0 0 1
    outer loop
      vertex -88.75 38.5 -52.5
      vertex -26.75 36.5 -52.5
      vertex 47.25 38.5 -52.5
    endloop
  endfacet
  facet normal -0 0 1
    outer loop
      vertex 25.25 -31.5 -52.5
      vertex 47.25 -38.5 -52.5
      vertex 25.25 31.5 -52.5
    endloop
  endfacet
  facet normal 0 0 1
    outer loop
      vertex 4.25 -36.5 -52.5
      vertex 25.25 -31.5 -52.5
      vertex 4.25 -31.5 -52.5
    endloop
  endfacet
  facet normal 0 0 1
    outer loop
      vertex 25.25 -31.5 -52.5
      vertex 4.25 -36.5 -52.5
      vertex 47.25 -38.5 -52.5
    endloop
  endfacet
  facet normal -0 0 1
    outer loop
      vertex -26.75 -36.5 -52.5
      vertex 47.25 -38.5 -52.5
      vertex 4.25 -36.5 -52.5
    endloop
  endfacet
  facet normal 0 0 1
    outer loop
      vertex -49.75 -8.5 -52.5
      vertex -54.75 -30.5 -52.5
      vertex -49.75 -21.5 -52.5
    endloop
  endfacet
  facet normal -0 0 1
    outer loop
      vertex -54.75 -30.5 -52.5
      vertex -35.75 -31.5 -52.5
      vertex -49.75 -21.5 -52.5
    endloop
  endfacet
  facet normal 0 0 1
    outer loop
      vertex -54.75 -30.5 -52.5
      vertex -26.75 -36.5 -52.5
      vertex -35.75 -31.5 -52.5
    endloop
  endfacet
  facet normal 0 0 1
    outer loop
      vertex -88.75 -38.5 -52.5
      vertex -54.75 -30.5 -52.5
      vertex -81.75 -30.5 -52.5
    endloop
  endfacet
  facet normal 0 0 1
    outer loop
      vertex -26.75 -36.5 -52.5
      vertex -88.75 -38.5 -52.5
      vertex 47.25 -38.5 -52.5
    endloop
  endfacet
  facet normal 0 0 1
    outer loop
      vertex -54.75 -30.5 -52.5
      vertex -88.75 -38.5 -52.5
      vertex -26.75 -36.5 -52.5
    endloop
  endfacet
  facet normal 0 0 1
    outer loop
      vertex -88.75 -38.5 -52.5
      vertex -81.75 -30.5 -52.5
      vertex -88.75 38.5 -52.5
    endloop
  endfacet
  facet normal 0 0 1
    outer loop
      vertex 25.25 31.5 -52.5
      vertex 4.25 36.5 -52.5
      vertex 4.25 31.5 -52.5
    endloop
  endfacet
  facet normal 1 -0 0
    outer loop
      vertex 25.25 0 -43.5
      vertex 25.25 31.5 -52.5
      vertex 25.25 31.5 -43.5
    endloop
  endfacet
  facet normal 1 0 0
    outer loop
      vertex 25.25 -31.5 -52.5
      vertex 25.25 0 -43.5
      vertex 25.25 -31.5 -43.5
    endloop
  endfacet
  facet normal 1 0 0
    outer loop
      vertex 25.25 0 -43.5
      vertex 25.25 -31.5 -52.5
      vertex 25.25 31.5 -52.5
    endloop
  endfacet
  facet normal -1 0 0
    outer loop
      vertex -35.75 -21.5 -52.5
      vertex -35.75 -31.5 -52.5
      vertex -35.75 -21.5 -48.5
    endloop
  endfacet
  facet normal -1 0 0
    outer loop
      vertex -35.75 8.5 -52.5
      vertex -35.75 -8.5 -52.5
      vertex -35.75 8.5 -48.5
    endloop
  endfacet
  facet normal -1 0 0
    outer loop
      vertex -35.75 21.5 -48.5
      vertex -35.75 31.5 -52.5
      vertex -35.75 21.5 -52.5
    endloop
  endfacet
  facet normal -1 0 0
    outer loop
      vertex -35.75 31.5 -52.5
      vertex -35.75 21.5 -48.5
      vertex -35.75 31.5 -43.5
    endloop
  endfacet
  facet normal -1 0 0
    outer loop
      vertex -35.75 8.5 -48.5
      vertex -35.75 31.5 -43.5
      vertex -35.75 21.5 -48.5
    endloop
  endfacet
  facet normal -1 0 0
    outer loop
      vertex -35.75 -8.5 -48.5
      vertex -35.75 8.5 -48.5
      vertex -35.75 -8.5 -52.5
    endloop
  endfacet
  facet normal -1 0 0
    outer loop
      vertex -35.75 -8.5 -48.5
      vertex -35.75 31.5 -43.5
      vertex -35.75 8.5 -48.5
    endloop
  endfacet
  facet normal -1 0 0
    outer loop
      vertex -35.75 -31.5 -43.5
      vertex -35.75 -8.5 -48.5
      vertex -35.75 -21.5 -48.5
    endloop
  endfacet
  facet normal -1 0 0
    outer loop
      vertex -35.75 -8.5 -48.5
      vertex -35.75 -31.5 -43.5
      vertex -35.75 31.5 -43.5
    endloop
  endfacet
  facet normal -1 0 0
    outer loop
      vertex -35.75 -31.5 -43.5
      vertex -35.75 -21.5 -48.5
      vertex -35.75 -31.5 -52.5
    endloop
  endfacet
  facet normal 0 -1 0
    outer loop
      vertex 4.25 -31.5 -52.5
      vertex 25.25 -31.5 -43.5
      vertex 4.25 -31.5 -43.5
    endloop
  endfacet
  facet normal 0 -1 -0
    outer loop
      vertex 25.25 -31.5 -43.5
      vertex 4.25 -31.5 -52.5
      vertex 25.25 -31.5 -52.5
    endloop
  endfacet
  facet normal 0 -1 0
    outer loop
      vertex -35.75 -31.5 -52.5
      vertex -26.75 -31.5 -43.5
      vertex -35.75 -31.5 -43.5
    endloop
  endfacet
  facet normal 0 -1 -0
    outer loop
      vertex -26.75 -31.5 -43.5
      vertex -35.75 -31.5 -52.5
      vertex -26.75 -31.5 -52.5
    endloop
  endfacet
  facet normal 0 1 -0
    outer loop
      vertex 25.25 31.5 -52.5
      vertex 4.25 31.5 -43.5
      vertex 25.25 31.5 -43.5
    endloop
  endfacet
  facet normal 0 1 0
    outer loop
      vertex 4.25 31.5 -43.5
      vertex 25.25 31.5 -52.5
      vertex 4.25 31.5 -52.5
    endloop
  endfacet
  facet normal 0 1 -0
    outer loop
      vertex -26.75 31.5 -52.5
      vertex -35.75 31.5 -43.5
      vertex -26.75 31.5 -43.5
    endloop
  endfacet
  facet normal 0 1 0
    outer loop
      vertex -35.75 31.5 -43.5
      vertex -26.75 31.5 -52.5
      vertex -35.75 31.5 -52.5
    endloop
  endfacet
  facet normal 0 0 1
    outer loop
      vertex -26.75 31.5 -43.5
      vertex 4.25 31.5 -43.5
      vertex 4.25 36.5 -43.5
    endloop
  endfacet
  facet normal 0 0 1
    outer loop
      vertex -10.25 14.5 -43.5
      vertex -14.75 -0.5 -43.5
      vertex -10.25 -0.5 -43.5
    endloop
  endfacet
  facet normal 0 0 1
    outer loop
      vertex -10.25 14.5 -43.5
      vertex -26.75 31.5 -43.5
      vertex -14.75 -0.5 -43.5
    endloop
  endfacet
  facet normal 0 0 1
    outer loop
      vertex 4.25 31.5 -43.5
      vertex -26.75 31.5 -43.5
      vertex -10.25 14.5 -43.5
    endloop
  endfacet
  facet normal 0 0 1
    outer loop
      vertex -26.75 31.5 -43.5
      vertex 4.25 36.5 -43.5
      vertex -26.75 36.5 -43.5
    endloop
  endfacet
  facet normal 0 0 1
    outer loop
      vertex 25.25 31.5 -43.5
      vertex 24.7945 3.606 -43.5
      vertex 25.25 0 -43.5
    endloop
  endfacet
  facet normal 0 0 1
    outer loop
      vertex 25.25 31.5 -43.5
      vertex 23.4564 6.98543 -43.5
      vertex 24.7945 3.606 -43.5
    endloop
  endfacet
  facet normal 0 0 1
    outer loop
      vertex 25.25 31.5 -43.5
      vertex 21.32 9.92593 -43.5
      vertex 23.4564 6.98543 -43.5
    endloop
  endfacet
  facet normal 0 0 1
    outer loop
      vertex 25.25 31.5 -43.5
      vertex 18.5195 12.2428 -43.5
      vertex 21.32 9.92593 -43.5
    endloop
  endfacet
  facet normal 0 0 1
    outer loop
      vertex 25.25 31.5 -43.5
      vertex 15.2307 13.7903 -43.5
      vertex 18.5195 12.2428 -43.5
    endloop
  endfacet
  facet normal 0 0 1
    outer loop
      vertex 25.25 31.5 -43.5
      vertex 11.6605 14.4714 -43.5
      vertex 15.2307 13.7903 -43.5
    endloop
  endfacet
  facet normal -0 0 1
    outer loop
      vertex 4.25 31.5 -43.5
      vertex 11.6605 14.4714 -43.5
      vertex 25.25 31.5 -43.5
    endloop
  endfacet
  facet normal 0 0 1
    outer loop
      vertex 11.6605 14.4714 -43.5
      vertex 4.25 31.5 -43.5
      vertex 10.25 14.5 -43.5
    endloop
  endfacet
  facet normal 0 0 1
    outer loop
      vertex 10.25 14.5 -43.5
      vertex 4.25 31.5 -43.5
      vertex -10.25 14.5 -43.5
    endloop
  endfacet
  facet normal 0 0 1
    outer loop
      vertex 11.6605 14.4714 -43.5
      vertex 10.25 14.5 -43.5
      vertex 10.25 14.3826 -43.5
    endloop
  endfacet
  facet normal 0 0 1
    outer loop
      vertex -10.25 -5.5 -43.5
      vertex -14.75 -5.5 -43.5
      vertex -10.25 -14.5 -43.5
    endloop
  endfacet
  facet normal -0 0 1
    outer loop
      vertex 24.7945 -3.606 -43.5
      vertex 25.25 -31.5 -43.5
      vertex 25.25 0 -43.5
    endloop
  endfacet
  facet normal -0 0 1
    outer loop
      vertex 23.4564 -6.98543 -43.5
      vertex 25.25 -31.5 -43.5
      vertex 24.7945 -3.606 -43.5
    endloop
  endfacet
  facet normal -0 0 1
    outer loop
      vertex 21.32 -9.92593 -43.5
      vertex 25.25 -31.5 -43.5
      vertex 23.4564 -6.98543 -43.5
    endloop
  endfacet
  facet normal -0 0 1
    outer loop
      vertex 18.5195 -12.2428 -43.5
      vertex 25.25 -31.5 -43.5
      vertex 21.32 -9.92593 -43.5
    endloop
  endfacet
  facet normal -0 0 1
    outer loop
      vertex 15.2307 -13.7903 -43.5
      vertex 25.25 -31.5 -43.5
      vertex 18.5195 -12.2428 -43.5
    endloop
  endfacet
  facet normal -0 0 1
    outer loop
      vertex 11.6605 -14.4714 -43.5
      vertex 25.25 -31.5 -43.5
      vertex 15.2307 -13.7903 -43.5
    endloop
  endfacet
  facet normal 0 0 1
    outer loop
      vertex 10.25 -14.5 -43.5
      vertex 11.6605 -14.4714 -43.5
      vertex 10.25 -14.3826 -43.5
    endloop
  endfacet
  facet normal 0 0 1
    outer loop
      vertex 4.25 -31.5 -43.5
      vertex 11.6605 -14.4714 -43.5
      vertex 10.25 -14.5 -43.5
    endloop
  endfacet
  facet normal 0 0 1
    outer loop
      vertex 11.6605 -14.4714 -43.5
      vertex 4.25 -31.5 -43.5
      vertex 25.25 -31.5 -43.5
    endloop
  endfacet
  facet normal -0 0 1
    outer loop
      vertex -10.25 -14.5 -43.5
      vertex 4.25 -31.5 -43.5
      vertex 10.25 -14.5 -43.5
    endloop
  endfacet
  facet normal 0 0 1
    outer loop
      vertex -26.75 -31.5 -43.5
      vertex 4.25 -31.5 -43.5
      vertex -10.25 -14.5 -43.5
    endloop
  endfacet
  facet normal -0 0 1
    outer loop
      vertex -35.75 31.5 -43.5
      vertex -14.75 -0.5 -43.5
      vertex -26.75 31.5 -43.5
    endloop
  endfacet
  facet normal 0 0 1
    outer loop
      vertex -35.75 -31.5 -43.5
      vertex -14.75 -0.5 -43.5
      vertex -35.75 31.5 -43.5
    endloop
  endfacet
  facet normal 0 0 1
    outer loop
      vertex -26.75 -31.5 -43.5
      vertex -10.25 -14.5 -43.5
      vertex -14.75 -5.5 -43.5
    endloop
  endfacet
  facet normal 0 0 1
    outer loop
      vertex 4.25 -31.5 -43.5
      vertex -26.75 -31.5 -43.5
      vertex 4.25 -36.5 -43.5
    endloop
  endfacet
  facet normal 0 0 1
    outer loop
      vertex 4.25 -36.5 -43.5
      vertex -26.75 -31.5 -43.5
      vertex -26.75 -36.5 -43.5
    endloop
  endfacet
  facet normal 0 0 1
    outer loop
      vertex -14.75 -0.5 -43.5
      vertex -35.75 -31.5 -43.5
      vertex -14.75 -5.5 -43.5
    endloop
  endfacet
  facet normal 0 0 1
    outer loop
      vertex -14.75 -5.5 -43.5
      vertex -35.75 -31.5 -43.5
      vertex -26.75 -31.5 -43.5
    endloop
  endfacet
  facet normal 1 -0 0
    outer loop
      vertex 4.25 -36.5 -43.5
      vertex 4.25 -31.5 -52.5
      vertex 4.25 -31.5 -43.5
    endloop
  endfacet
  facet normal 1 0 0
    outer loop
      vertex 4.25 -31.5 -52.5
      vertex 4.25 -36.5 -43.5
      vertex 4.25 -36.5 -52.5
    endloop
  endfacet
  facet normal 1 -0 0
    outer loop
      vertex 4.25 31.5 -43.5
      vertex 4.25 36.5 -52.5
      vertex 4.25 36.5 -43.5
    endloop
  endfacet
  facet normal 1 0 0
    outer loop
      vertex 4.25 36.5 -52.5
      vertex 4.25 31.5 -43.5
      vertex 4.25 31.5 -52.5
    endloop
  endfacet
  facet normal -1 0 0
    outer loop
      vertex -26.75 -36.5 -52.5
      vertex -26.75 -31.5 -43.5
      vertex -26.75 -31.5 -52.5
    endloop
  endfacet
  facet normal -1 -0 0
    outer loop
      vertex -26.75 -31.5 -43.5
      vertex -26.75 -36.5 -52.5
      vertex -26.75 -36.5 -43.5
    endloop
  endfacet
  facet normal -1 0 0
    outer loop
      vertex -26.75 31.5 -52.5
      vertex -26.75 36.5 -43.5
      vertex -26.75 36.5 -52.5
    endloop
  endfacet
  facet normal -1 -0 0
    outer loop
      vertex -26.75 36.5 -43.5
      vertex -26.75 31.5 -52.5
      vertex -26.75 31.5 -43.5
    endloop
  endfacet
  facet normal 0 -1 0
    outer loop
      vertex -26.75 -36.5 -43.5
      vertex -21.25 -36.5 -49
      vertex 4.25 -36.5 -43.5
    endloop
  endfacet
  facet normal 0 -1 0
    outer loop
      vertex -26.75 -36.5 -52.5
      vertex -21.25 -36.5 -49
      vertex -26.75 -36.5 -43.5
    endloop
  endfacet
  facet normal 0 -1 -0
    outer loop
      vertex -21.25 -36.5 -52
      vertex -26.75 -36.5 -52.5
      vertex -1.25 -36.5 -52
    endloop
  endfacet
  facet normal 0 -1 -0
    outer loop
      vertex -21.25 -36.5 -49
      vertex -26.75 -36.5 -52.5
      vertex -21.25 -36.5 -52
    endloop
  endfacet
  facet normal 0 -1 0
    outer loop
      vertex -1.25 -36.5 -49
      vertex 4.25 -36.5 -43.5
      vertex -21.25 -36.5 -49
    endloop
  endfacet
  facet normal 0 -1 0
    outer loop
      vertex 4.25 -36.5 -52.5
      vertex -1.25 -36.5 -49
      vertex -1.25 -36.5 -52
    endloop
  endfacet
  facet normal 0 -1 0
    outer loop
      vertex -1.25 -36.5 -49
      vertex 4.25 -36.5 -52.5
      vertex 4.25 -36.5 -43.5
    endloop
  endfacet
  facet normal 0 -1 0
    outer loop
      vertex 4.25 -36.5 -52.5
      vertex -1.25 -36.5 -52
      vertex -26.75 -36.5 -52.5
    endloop
  endfacet
  facet normal 0 1 0
    outer loop
      vertex 4.25 36.5 -43.5
      vertex -1.25 36.5 -49
      vertex -26.75 36.5 -43.5
    endloop
  endfacet
  facet normal 0 1 -0
    outer loop
      vertex 4.25 36.5 -52.5
      vertex -1.25 36.5 -49
      vertex 4.25 36.5 -43.5
    endloop
  endfacet
  facet normal 0 1 0
    outer loop
      vertex -1.25 36.5 -52
      vertex 4.25 36.5 -52.5
      vertex -21.25 36.5 -52
    endloop
  endfacet
  facet normal 0 1 0
    outer loop
      vertex -1.25 36.5 -49
      vertex 4.25 36.5 -52.5
      vertex -1.25 36.5 -52
    endloop
  endfacet
  facet normal 0 1 -0
    outer loop
      vertex -21.25 36.5 -49
      vertex -26.75 36.5 -43.5
      vertex -1.25 36.5 -49
    endloop
  endfacet
  facet normal 0 1 0
    outer loop
      vertex -26.75 36.5 -52.5
      vertex -21.25 36.5 -49
      vertex -21.25 36.5 -52
    endloop
  endfacet
  facet normal 0 1 0
    outer loop
      vertex -21.25 36.5 -49
      vertex -26.75 36.5 -52.5
      vertex -26.75 36.5 -43.5
    endloop
  endfacet
  facet normal 0 1 0
    outer loop
      vertex -26.75 36.5 -52.5
      vertex -21.25 36.5 -52
      vertex 4.25 36.5 -52.5
    endloop
  endfacet
  facet normal 1 -0 0
    outer loop
      vertex 10.25 -14.5 0
      vertex 10.25 -14.3826 -43.5
      vertex 10.25 -14.3826 0
    endloop
  endfacet
  facet normal 1 0 0
    outer loop
      vertex 10.25 -14.3826 -43.5
      vertex 10.25 -14.5 0
      vertex 10.25 -14.5 -43.5
    endloop
  endfacet
  facet normal 1 -0 0
    outer loop
      vertex 10.25 14.3826 0
      vertex 10.25 14.5 -43.5
      vertex 10.25 14.5 0
    endloop
  endfacet
  facet normal 1 0 0
    outer loop
      vertex 10.25 14.5 -43.5
      vertex 10.25 14.3826 0
      vertex 10.25 14.3826 -43.5
    endloop
  endfacet
  facet normal -1 0 0
    outer loop
      vertex -10.25 -5.5 -43.5
      vertex -10.25 -14.5 -43.5
      vertex -10.25 -5.5 -34
    endloop
  endfacet
  facet normal -1 0 0
    outer loop
      vertex -10.25 -0.5 -34
      vertex -10.25 14.5 -43.5
      vertex -10.25 -0.5 -43.5
    endloop
  endfacet
  facet normal -1 0 0
    outer loop
      vertex -10.25 14.5 -43.5
      vertex -10.25 -0.5 -34
      vertex -10.25 14.5 0
    endloop
  endfacet
  facet normal -1 0 0
    outer loop
      vertex -10.25 -14.5 0
      vertex -10.25 -0.5 -34
      vertex -10.25 -5.5 -34
    endloop
  endfacet
  facet normal -1 0 0
    outer loop
      vertex -10.25 -14.5 0
      vertex -10.25 -5.5 -34
      vertex -10.25 -14.5 -43.5
    endloop
  endfacet
  facet normal -1 0 0
    outer loop
      vertex -10.25 -0.5 -34
      vertex -10.25 -14.5 0
      vertex -10.25 14.5 0
    endloop
  endfacet
  facet normal 0 -1 0
    outer loop
      vertex -10.25 -14.5 0
      vertex -1.25 -14.5 -17
      vertex -1.25 -14.5 0
    endloop
  endfacet
  facet normal 0 -1 0
    outer loop
      vertex 10.25 -14.5 -43.5
      vertex -1.25 -14.5 -17
      vertex -10.25 -14.5 -43.5
    endloop
  endfacet
  facet normal 0 -1 0
    outer loop
      vertex -10.25 -14.5 -43.5
      vertex -1.25 -14.5 -17
      vertex -10.25 -14.5 0
    endloop
  endfacet
  facet normal 0 -1 0
    outer loop
      vertex 8.75 -14.5 -17
      vertex 10.25 -14.5 0
      vertex 8.75 -14.5 0
    endloop
  endfacet
  facet normal 0 -1 0
    outer loop
      vertex 8.75 -14.5 -17
      vertex 10.25 -14.5 -43.5
      vertex 10.25 -14.5 0
    endloop
  endfacet
  facet normal 0 -1 0
    outer loop
      vertex -1.25 -14.5 -17
      vertex 10.25 -14.5 -43.5
      vertex 8.75 -14.5 -17
    endloop
  endfacet
  facet normal 0 1 0
    outer loop
      vertex 10.25 14.5 0
      vertex 8.75 14.5 -17
      vertex 8.75 14.5 0
    endloop
  endfacet
  facet normal 0 1 0
    outer loop
      vertex 8.75 14.5 -17
      vertex 10.25 14.5 -43.5
      vertex -1.25 14.5 -17
    endloop
  endfacet
  facet normal 0 1 -0
    outer loop
      vertex 10.25 14.5 -43.5
      vertex 8.75 14.5 -17
      vertex 10.25 14.5 0
    endloop
  endfacet
  facet normal 0 1 -0
    outer loop
      vertex -1.25 14.5 -17
      vertex -10.25 14.5 0
      vertex -1.25 14.5 0
    endloop
  endfacet
  facet normal 0 1 0
    outer loop
      vertex -10.25 14.5 -43.5
      vertex -1.25 14.5 -17
      vertex 10.25 14.5 -43.5
    endloop
  endfacet
  facet normal 0 1 0
    outer loop
      vertex -1.25 14.5 -17
      vertex -10.25 14.5 -43.5
      vertex -10.25 14.5 0
    endloop
  endfacet
  facet normal 0 0 1
    outer loop
      vertex -1.25 -14.5 0
      vertex -0.899994 -14.5 0
      vertex -0.91713 -14.3918 0
    endloop
  endfacet
  facet normal -0 0 1
    outer loop
      vertex 8.39999 24.15 0
      vertex 8.75 14.5 0
      vertex 8.75 24.5 0
    endloop
  endfacet
  facet normal 0 -0 1
    outer loop
      vertex 8.41713 14.3918 0
      vertex 8.75 14.5 0
      vertex 8.39999 14.5 0
    endloop
  endfacet
  facet normal 0 0 1
    outer loop
      vertex 8.75 14.5 0
      vertex 8.66296 14.161 0
      vertex 8.75 14.15 0
    endloop
  endfacet
  facet normal 0 0 1
    outer loop
      vertex 8.75 14.5 0
      vertex 8.58139 14.1933 0
      vertex 8.66296 14.161 0
    endloop
  endfacet
  facet normal 0 0 1
    outer loop
      vertex 8.75 14.5 0
      vertex 8.51041 14.2449 0
      vertex 8.58139 14.1933 0
    endloop
  endfacet
  facet normal 0 0 1
    outer loop
      vertex 8.75 14.5 0
      vertex 8.45448 14.3125 0
      vertex 8.51041 14.2449 0
    endloop
  endfacet
  facet normal 0 0 1
    outer loop
      vertex 8.75 14.5 0
      vertex 8.39999 24.15 0
      vertex 8.39999 14.5 0
    endloop
  endfacet
  facet normal 0 0 1
    outer loop
      vertex 8.75 24.5 0
      vertex -0.899994 24.15 0
      vertex 8.39999 24.15 0
    endloop
  endfacet
  facet normal 0 0 1
    outer loop
      vertex -1.25 14.5 0
      vertex -0.899994 14.5 0
      vertex -0.899994 24.15 0
    endloop
  endfacet
  facet normal 0 0 1
    outer loop
      vertex -0.899994 14.5 0
      vertex -1.25 14.5 0
      vertex -0.910995 14.413 0
    endloop
  endfacet
  facet normal 0 0 1
    outer loop
      vertex -0.910995 14.413 0
      vertex -1.25 14.5 0
      vertex -0.943298 14.3314 0
    endloop
  endfacet
  facet normal 0 0 1
    outer loop
      vertex -0.943298 14.3314 0
      vertex -1.25 14.5 0
      vertex -0.994858 14.2604 0
    endloop
  endfacet
  facet normal 0 0 1
    outer loop
      vertex -0.994858 14.2604 0
      vertex -1.25 14.5 0
      vertex -1.06245 14.2045 0
    endloop
  endfacet
  facet normal -0 0 1
    outer loop
      vertex -1.25 24.5 0
      vertex -0.899994 24.15 0
      vertex 8.75 24.5 0
    endloop
  endfacet
  facet normal 0 0 1
    outer loop
      vertex -1.25 14.5 0
      vertex -0.899994 24.15 0
      vertex -1.25 24.5 0
    endloop
  endfacet
  facet normal 0 0 1
    outer loop
      vertex -1.06245 14.2045 0
      vertex -1.25 14.5 0
      vertex -1.14185 14.1671 0
    endloop
  endfacet
  facet normal 0 0 1
    outer loop
      vertex -1.25 14.5 0
      vertex -1.25 14.15 0
      vertex -1.14185 14.1671 0
    endloop
  endfacet
  facet normal 0 0 1
    outer loop
      vertex -1.25 14.5 0
      vertex -9.89999 14.15 0
      vertex -1.25 14.15 0
    endloop
  endfacet
  facet normal 0 0 1
    outer loop
      vertex -9.89999 14.15 0
      vertex -10.25 14.5 0
      vertex -9.89999 -14.15 0
    endloop
  endfacet
  facet normal -0 0 1
    outer loop
      vertex -10.25 14.5 0
      vertex -9.89999 14.15 0
      vertex -1.25 14.5 0
    endloop
  endfacet
  facet normal 0 0 1
    outer loop
      vertex 9.99213 14.15 0
      vertex 10.25 14.3826 0
      vertex 10.25 14.5 0
    endloop
  endfacet
  facet normal 0 0 1
    outer loop
      vertex 10.25 14.3826 0
      vertex 10.101 14.066 0
      vertex 10.1844 14.0388 0
    endloop
  endfacet
  facet normal 0 0 1
    outer loop
      vertex 10.25 14.3826 0
      vertex 10.0269 14.113 0
      vertex 10.101 14.066 0
    endloop
  endfacet
  facet normal 0 0 1
    outer loop
      vertex 10.25 14.3826 0
      vertex 9.99213 14.15 0
      vertex 10.0269 14.113 0
    endloop
  endfacet
  facet normal -0 0 1
    outer loop
      vertex 8.75 14.5 0
      vertex 9.99213 14.15 0
      vertex 10.25 14.5 0
    endloop
  endfacet
  facet normal 0 0 1
    outer loop
      vertex 9.99213 14.15 0
      vertex 8.75 14.5 0
      vertex 8.75 14.15 0
    endloop
  endfacet
  facet normal 0 0 1
    outer loop
      vertex 24.7945 3.606 0
      vertex 24.8972 0 0
      vertex 25.25 0 0
    endloop
  endfacet
  facet normal 0 0 1
    outer loop
      vertex 24.7945 3.606 0
      vertex 24.4527 3.51828 0
      vertex 24.8972 0 0
    endloop
  endfacet
  facet normal 0 0 1
    outer loop
      vertex 23.4564 6.98543 0
      vertex 24.4527 3.51828 0
      vertex 24.7945 3.606 0
    endloop
  endfacet
  facet normal 0 0 1
    outer loop
      vertex 23.4564 6.98543 0
      vertex 23.1473 6.81549 0
      vertex 24.4527 3.51828 0
    endloop
  endfacet
  facet normal 0 0 1
    outer loop
      vertex 21.32 9.92593 0
      vertex 23.1473 6.81549 0
      vertex 23.4564 6.98543 0
    endloop
  endfacet
  facet normal 0 0 1
    outer loop
      vertex 21.32 9.92593 0
      vertex 21.0629 9.6844 0
      vertex 23.1473 6.81549 0
    endloop
  endfacet
  facet normal 0 0 1
    outer loop
      vertex 18.5195 12.2428 0
      vertex 21.0629 9.6844 0
      vertex 21.32 9.92593 0
    endloop
  endfacet
  facet normal 0 0 1
    outer loop
      vertex 18.5195 12.2428 0
      vertex 18.3305 11.9449 0
      vertex 21.0629 9.6844 0
    endloop
  endfacet
  facet normal 0 0 1
    outer loop
      vertex 15.2307 13.7903 0
      vertex 18.3305 11.9449 0
      vertex 18.5195 12.2428 0
    endloop
  endfacet
  facet normal 0 0 1
    outer loop
      vertex 15.2307 13.7903 0
      vertex 15.1217 13.4548 0
      vertex 18.3305 11.9449 0
    endloop
  endfacet
  facet normal 0 0 1
    outer loop
      vertex 11.6605 14.4714 0
      vertex 15.1217 13.4548 0
      vertex 15.2307 13.7903 0
    endloop
  endfacet
  facet normal 0 0 1
    outer loop
      vertex 11.6605 14.4714 0
      vertex 11.6383 14.1193 0
      vertex 15.1217 13.4548 0
    endloop
  endfacet
  facet normal -0 0 1
    outer loop
      vertex 10.25 14.3826 0
      vertex 11.6383 14.1193 0
      vertex 11.6605 14.4714 0
    endloop
  endfacet
  facet normal 0 0 1
    outer loop
      vertex 11.6383 14.1193 0
      vertex 10.25 14.3826 0
      vertex 10.272 14.0333 0
    endloop
  endfacet
  facet normal 0 0 1
    outer loop
      vertex 10.272 14.0333 0
      vertex 10.25 14.3826 0
      vertex 10.1844 14.0388 0
    endloop
  endfacet
  facet normal -0 0 1
    outer loop
      vertex 24.8972 0 0
      vertex 24.7945 -3.606 0
      vertex 25.25 0 0
    endloop
  endfacet
  facet normal -0 0 1
    outer loop
      vertex 24.4527 -3.51828 0
      vertex 24.7945 -3.606 0
      vertex 24.8972 0 0
    endloop
  endfacet
  facet normal 0 0 1
    outer loop
      vertex 24.4527 -3.51828 0
      vertex 23.4564 -6.98543 0
      vertex 24.7945 -3.606 0
    endloop
  endfacet
  facet normal -0 0 1
    outer loop
      vertex 23.1473 -6.81549 0
      vertex 23.4564 -6.98543 0
      vertex 24.4527 -3.51828 0
    endloop
  endfacet
  facet normal 0 0 1
    outer loop
      vertex 23.1473 -6.81549 0
      vertex 21.32 -9.92593 0
      vertex 23.4564 -6.98543 0
    endloop
  endfacet
  facet normal -0 0 1
    outer loop
      vertex 21.0629 -9.6844 0
      vertex 21.32 -9.92593 0
      vertex 23.1473 -6.81549 0
    endloop
  endfacet
  facet normal 0 0 1
    outer loop
      vertex 21.0629 -9.6844 0
      vertex 18.5195 -12.2428 0
      vertex 21.32 -9.92593 0
    endloop
  endfacet
  facet normal -0 0 1
    outer loop
      vertex 18.3305 -11.9449 0
      vertex 18.5195 -12.2428 0
      vertex 21.0629 -9.6844 0
    endloop
  endfacet
  facet normal 0 0 1
    outer loop
      vertex 18.3305 -11.9449 0
      vertex 15.2307 -13.7903 0
      vertex 18.5195 -12.2428 0
    endloop
  endfacet
  facet normal -0 0 1
    outer loop
      vertex 15.1217 -13.4548 0
      vertex 15.2307 -13.7903 0
      vertex 18.3305 -11.9449 0
    endloop
  endfacet
  facet normal 0 0 1
    outer loop
      vertex 15.1217 -13.4548 0
      vertex 11.6605 -14.4714 0
      vertex 15.2307 -13.7903 0
    endloop
  endfacet
  facet normal -0 0 1
    outer loop
      vertex 11.6383 -14.1193 0
      vertex 11.6605 -14.4714 0
      vertex 15.1217 -13.4548 0
    endloop
  endfacet
  facet normal 0 0 1
    outer loop
      vertex 10.25 -14.3826 0
      vertex 11.6383 -14.1193 0
      vertex 10.272 -14.0333 0
    endloop
  endfacet
  facet normal 0 0 1
    outer loop
      vertex 11.6383 -14.1193 0
      vertex 10.25 -14.3826 0
      vertex 11.6605 -14.4714 0
    endloop
  endfacet
  facet normal -0 0 1
    outer loop
      vertex 10.1418 -14.0498 0
      vertex 10.25 -14.3826 0
      vertex 10.272 -14.0333 0
    endloop
  endfacet
  facet normal -0 0 1
    outer loop
      vertex 10.0625 -14.0871 0
      vertex 10.25 -14.3826 0
      vertex 10.1418 -14.0498 0
    endloop
  endfacet
  facet normal -0 0 1
    outer loop
      vertex 9.99486 -14.1431 0
      vertex 10.25 -14.3826 0
      vertex 10.0625 -14.0871 0
    endloop
  endfacet
  facet normal 0 0 1
    outer loop
      vertex 10.25 -14.3826 0
      vertex 9.99486 -14.1431 0
      vertex 9.98982 -14.15 0
    endloop
  endfacet
  facet normal 0 0 1
    outer loop
      vertex 10.25 -14.3826 0
      vertex 9.98982 -14.15 0
      vertex 10.25 -14.5 0
    endloop
  endfacet
  facet normal 0 0 1
    outer loop
      vertex 8.75 -14.5 0
      vertex 9.98982 -14.15 0
      vertex 8.75 -14.15 0
    endloop
  endfacet
  facet normal 0 0 1
    outer loop
      vertex 9.98982 -14.15 0
      vertex 8.75 -14.5 0
      vertex 10.25 -14.5 0
    endloop
  endfacet
  facet normal -0 0 1
    outer loop
      vertex 8.64185 -14.1671 0
      vertex 8.75 -14.5 0
      vertex 8.75 -14.15 0
    endloop
  endfacet
  facet normal -0 0 1
    outer loop
      vertex 8.56245 -14.2045 0
      vertex 8.75 -14.5 0
      vertex 8.64185 -14.1671 0
    endloop
  endfacet
  facet normal -0 0 1
    outer loop
      vertex 8.49486 -14.2604 0
      vertex 8.75 -14.5 0
      vertex 8.56245 -14.2045 0
    endloop
  endfacet
  facet normal -0 0 1
    outer loop
      vertex 8.4433 -14.3314 0
      vertex 8.75 -14.5 0
      vertex 8.49486 -14.2604 0
    endloop
  endfacet
  facet normal -0 0 1
    outer loop
      vertex 8.411 -14.413 0
      vertex 8.75 -14.5 0
      vertex 8.4433 -14.3314 0
    endloop
  endfacet
  facet normal 0 0 1
    outer loop
      vertex 8.75 -14.5 0
      vertex 8.411 -14.413 0
      vertex 8.39999 -14.5 0
    endloop
  endfacet
  facet normal 0 0 1
    outer loop
      vertex 8.39999 -24.15 0
      vertex 8.75 -14.5 0
      vertex 8.39999 -14.5 0
    endloop
  endfacet
  facet normal 0 0 1
    outer loop
      vertex 8.75 -14.5 0
      vertex 8.39999 -24.15 0
      vertex 8.75 -24.5 0
    endloop
  endfacet
  facet normal -0 0 1
    outer loop
      vertex -0.899994 -24.15 0
      vertex 8.75 -24.5 0
      vertex 8.39999 -24.15 0
    endloop
  endfacet
  facet normal 0 0 1
    outer loop
      vertex -1.25 -14.5 0
      vertex -0.91713 -14.3918 0
      vertex -0.954483 -14.3125 0
    endloop
  endfacet
  facet normal 0 0 1
    outer loop
      vertex -1.25 -14.5 0
      vertex -0.954483 -14.3125 0
      vertex -1.01041 -14.2449 0
    endloop
  endfacet
  facet normal 0 0 1
    outer loop
      vertex -1.25 -14.5 0
      vertex -1.01041 -14.2449 0
      vertex -1.08139 -14.1933 0
    endloop
  endfacet
  facet normal 0 0 1
    outer loop
      vertex -1.25 -14.5 0
      vertex -1.08139 -14.1933 0
      vertex -1.16296 -14.161 0
    endloop
  endfacet
  facet normal 0 0 1
    outer loop
      vertex -1.25 -14.5 0
      vertex -1.16296 -14.161 0
      vertex -1.25 -14.15 0
    endloop
  endfacet
  facet normal 0 0 1
    outer loop
      vertex -0.899994 -14.5 0
      vertex -1.25 -14.5 0
      vertex -0.899994 -24.15 0
    endloop
  endfacet
  facet normal 0 0 1
    outer loop
      vertex -0.899994 -24.15 0
      vertex -1.25 -24.5 0
      vertex 8.75 -24.5 0
    endloop
  endfacet
  facet normal 0 0 1
    outer loop
      vertex -1.25 -24.5 0
      vertex -0.899994 -24.15 0
      vertex -1.25 -14.5 0
    endloop
  endfacet
  facet normal 0 0 1
    outer loop
      vertex 8.75 14.5 0
      vertex 8.41713 14.3918 0
      vertex 8.45448 14.3125 0
    endloop
  endfacet
  facet normal -0 0 1
    outer loop
      vertex -9.89999 -14.15 0
      vertex -1.25 -14.5 0
      vertex -1.25 -14.15 0
    endloop
  endfacet
  facet normal 0 0 1
    outer loop
      vertex -9.89999 -14.15 0
      vertex -10.25 -14.5 0
      vertex -1.25 -14.5 0
    endloop
  endfacet
  facet normal 0 0 1
    outer loop
      vertex -10.25 -14.5 0
      vertex -9.89999 -14.15 0
      vertex -10.25 14.5 0
    endloop
  endfacet
  facet normal 0.992116 -0.125321 0
    outer loop
      vertex 24.7945 -3.606 0
      vertex 25.25 0 -43.5
      vertex 25.25 0 0
    endloop
  endfacet
  facet normal 0.992116 -0.125321 0
    outer loop
      vertex 25.25 0 -43.5
      vertex 24.7945 -3.606 0
      vertex 24.7945 -3.606 -43.5
    endloop
  endfacet
  facet normal 0.992116 0.125321 0
    outer loop
      vertex 25.25 0 0
      vertex 24.7945 3.606 -43.5
      vertex 24.7945 3.606 0
    endloop
  endfacet
  facet normal 0.992116 0.125321 0
    outer loop
      vertex 24.7945 3.606 -43.5
      vertex 25.25 0 0
      vertex 25.25 0 -43.5
    endloop
  endfacet
  facet normal 0.637439 -0.7705 0
    outer loop
      vertex 18.5195 -12.2428 -43.5
      vertex 21.32 -9.92593 0
      vertex 18.5195 -12.2428 0
    endloop
  endfacet
  facet normal 0.637439 -0.7705 0
    outer loop
      vertex 21.32 -9.92593 0
      vertex 18.5195 -12.2428 -43.5
      vertex 21.32 -9.92593 -43.5
    endloop
  endfacet
  facet normal 0.425759 -0.904837 0
    outer loop
      vertex 15.2307 -13.7903 -43.5
      vertex 18.5195 -12.2428 0
      vertex 15.2307 -13.7903 0
    endloop
  endfacet
  facet normal 0.425759 -0.904837 0
    outer loop
      vertex 18.5195 -12.2428 0
      vertex 15.2307 -13.7903 -43.5
      vertex 18.5195 -12.2428 -43.5
    endloop
  endfacet
  facet normal 0.929768 0.368146 0
    outer loop
      vertex 24.7945 3.606 0
      vertex 23.4564 6.98543 -43.5
      vertex 23.4564 6.98543 0
    endloop
  endfacet
  facet normal 0.929768 0.368146 0
    outer loop
      vertex 23.4564 6.98543 -43.5
      vertex 24.7945 3.606 0
      vertex 24.7945 3.606 -43.5
    endloop
  endfacet
  facet normal -0.062832 -0.998024 0
    outer loop
      vertex 10.25 -14.3826 -43.5
      vertex 11.6605 -14.4714 0
      vertex 10.25 -14.3826 0
    endloop
  endfacet
  facet normal -0.062832 -0.998024 -0
    outer loop
      vertex 11.6605 -14.4714 0
      vertex 10.25 -14.3826 -43.5
      vertex 11.6605 -14.4714 -43.5
    endloop
  endfacet
  facet normal 0.929768 -0.368146 0
    outer loop
      vertex 23.4564 -6.98543 0
      vertex 24.7945 -3.606 -43.5
      vertex 24.7945 -3.606 0
    endloop
  endfacet
  facet normal 0.929768 -0.368146 0
    outer loop
      vertex 24.7945 -3.606 -43.5
      vertex 23.4564 -6.98543 0
      vertex 23.4564 -6.98543 -43.5
    endloop
  endfacet
  facet normal 0.187394 -0.982285 0
    outer loop
      vertex 11.6605 -14.4714 -43.5
      vertex 15.2307 -13.7903 0
      vertex 11.6605 -14.4714 0
    endloop
  endfacet
  facet normal 0.187394 -0.982285 0
    outer loop
      vertex 15.2307 -13.7903 0
      vertex 11.6605 -14.4714 -43.5
      vertex 15.2307 -13.7903 -43.5
    endloop
  endfacet
  facet normal 0.809017 0.587786 0
    outer loop
      vertex 23.4564 6.98543 0
      vertex 21.32 9.92593 -43.5
      vertex 21.32 9.92593 0
    endloop
  endfacet
  facet normal 0.809017 0.587786 0
    outer loop
      vertex 21.32 9.92593 -43.5
      vertex 23.4564 6.98543 0
      vertex 23.4564 6.98543 -43.5
    endloop
  endfacet
  facet normal 0.809017 -0.587786 0
    outer loop
      vertex 21.32 -9.92593 0
      vertex 23.4564 -6.98543 -43.5
      vertex 23.4564 -6.98543 0
    endloop
  endfacet
  facet normal 0.809017 -0.587786 0
    outer loop
      vertex 23.4564 -6.98543 -43.5
      vertex 21.32 -9.92593 0
      vertex 21.32 -9.92593 -43.5
    endloop
  endfacet
  facet normal 0.425759 0.904837 -0
    outer loop
      vertex 18.5195 12.2428 -43.5
      vertex 15.2307 13.7903 0
      vertex 18.5195 12.2428 0
    endloop
  endfacet
  facet normal 0.425759 0.904837 0
    outer loop
      vertex 15.2307 13.7903 0
      vertex 18.5195 12.2428 -43.5
      vertex 15.2307 13.7903 -43.5
    endloop
  endfacet
  facet normal 0.637439 0.7705 -0
    outer loop
      vertex 21.32 9.92593 -43.5
      vertex 18.5195 12.2428 0
      vertex 21.32 9.92593 0
    endloop
  endfacet
  facet normal 0.637439 0.7705 0
    outer loop
      vertex 18.5195 12.2428 0
      vertex 21.32 9.92593 -43.5
      vertex 18.5195 12.2428 -43.5
    endloop
  endfacet
  facet normal -0.062832 0.998024 0
    outer loop
      vertex 11.6605 14.4714 -43.5
      vertex 10.25 14.3826 0
      vertex 11.6605 14.4714 0
    endloop
  endfacet
  facet normal -0.062832 0.998024 0
    outer loop
      vertex 10.25 14.3826 0
      vertex 11.6605 14.4714 -43.5
      vertex 10.25 14.3826 -43.5
    endloop
  endfacet
  facet normal 0.187394 0.982285 -0
    outer loop
      vertex 15.2307 13.7903 -43.5
      vertex 11.6605 14.4714 0
      vertex 15.2307 13.7903 0
    endloop
  endfacet
  facet normal 0.187394 0.982285 0
    outer loop
      vertex 11.6605 14.4714 0
      vertex 15.2307 13.7903 -43.5
      vertex 11.6605 14.4714 -43.5
    endloop
  endfacet
  facet normal -1 0 0
    outer loop
      vertex -14.75 -5.5 -43.5
      vertex -14.75 -0.5 -34
      vertex -14.75 -0.5 -43.5
    endloop
  endfacet
  facet normal -1 -0 0
    outer loop
      vertex -14.75 -0.5 -34
      vertex -14.75 -5.5 -43.5
      vertex -14.75 -5.5 -34
    endloop
  endfacet
  facet normal 0 -1 0
    outer loop
      vertex -14.75 -5.5 -43.5
      vertex -10.25 -5.5 -34
      vertex -14.75 -5.5 -34
    endloop
  endfacet
  facet normal 0 -1 -0
    outer loop
      vertex -10.25 -5.5 -34
      vertex -14.75 -5.5 -43.5
      vertex -10.25 -5.5 -43.5
    endloop
  endfacet
  facet normal 0 1 -0
    outer loop
      vertex -10.25 -0.5 -43.5
      vertex -14.75 -0.5 -34
      vertex -10.25 -0.5 -34
    endloop
  endfacet
  facet normal 0 1 0
    outer loop
      vertex -14.75 -0.5 -34
      vertex -10.25 -0.5 -43.5
      vertex -14.75 -0.5 -43.5
    endloop
  endfacet
  facet normal -0 0 1
    outer loop
      vertex -14.75 -0.5 -34
      vertex -10.25 -5.5 -34
      vertex -10.25 -0.5 -34
    endloop
  endfacet
  facet normal 0 0 1
    outer loop
      vertex -10.25 -5.5 -34
      vertex -14.75 -0.5 -34
      vertex -14.75 -5.5 -34
    endloop
  endfacet
  facet normal -1 0 0
    outer loop
      vertex -49.75 -21.5 -52.5
      vertex -49.75 -8.5 -48.5
      vertex -49.75 -8.5 -52.5
    endloop
  endfacet
  facet normal -1 -0 0
    outer loop
      vertex -49.75 -8.5 -48.5
      vertex -49.75 -21.5 -52.5
      vertex -49.75 -21.5 -48.5
    endloop
  endfacet
  facet normal 0 -1 0
    outer loop
      vertex -49.75 -21.5 -52.5
      vertex -35.75 -21.5 -48.5
      vertex -49.75 -21.5 -48.5
    endloop
  endfacet
  facet normal 0 -1 -0
    outer loop
      vertex -35.75 -21.5 -48.5
      vertex -49.75 -21.5 -52.5
      vertex -35.75 -21.5 -52.5
    endloop
  endfacet
  facet normal 0 1 -0
    outer loop
      vertex -35.75 -8.5 -52.5
      vertex -49.75 -8.5 -48.5
      vertex -35.75 -8.5 -48.5
    endloop
  endfacet
  facet normal 0 1 0
    outer loop
      vertex -49.75 -8.5 -48.5
      vertex -35.75 -8.5 -52.5
      vertex -49.75 -8.5 -52.5
    endloop
  endfacet
  facet normal -0 0 1
    outer loop
      vertex -49.75 -8.5 -48.5
      vertex -35.75 -21.5 -48.5
      vertex -35.75 -8.5 -48.5
    endloop
  endfacet
  facet normal 0 0 1
    outer loop
      vertex -35.75 -21.5 -48.5
      vertex -49.75 -8.5 -48.5
      vertex -49.75 -21.5 -48.5
    endloop
  endfacet
  facet normal -1 0 0
    outer loop
      vertex -49.75 8.5 -52.5
      vertex -49.75 21.5 -48.5
      vertex -49.75 21.5 -52.5
    endloop
  endfacet
  facet normal -1 -0 0
    outer loop
      vertex -49.75 21.5 -48.5
      vertex -49.75 8.5 -52.5
      vertex -49.75 8.5 -48.5
    endloop
  endfacet
  facet normal 0 -1 0
    outer loop
      vertex -49.75 8.5 -52.5
      vertex -35.75 8.5 -48.5
      vertex -49.75 8.5 -48.5
    endloop
  endfacet
  facet normal 0 -1 -0
    outer loop
      vertex -35.75 8.5 -48.5
      vertex -49.75 8.5 -52.5
      vertex -35.75 8.5 -52.5
    endloop
  endfacet
  facet normal 0 1 -0
    outer loop
      vertex -35.75 21.5 -52.5
      vertex -49.75 21.5 -48.5
      vertex -35.75 21.5 -48.5
    endloop
  endfacet
  facet normal 0 1 0
    outer loop
      vertex -49.75 21.5 -48.5
      vertex -35.75 21.5 -52.5
      vertex -49.75 21.5 -52.5
    endloop
  endfacet
  facet normal -0 0 1
    outer loop
      vertex -49.75 21.5 -48.5
      vertex -35.75 8.5 -48.5
      vertex -35.75 21.5 -48.5
    endloop
  endfacet
  facet normal 0 0 1
    outer loop
      vertex -35.75 8.5 -48.5
      vertex -49.75 21.5 -48.5
      vertex -49.75 8.5 -48.5
    endloop
  endfacet
  facet normal 1 -0 0
    outer loop
      vertex -54.75 -30.5 -48.5
      vertex -54.75 30.5 -52.5
      vertex -54.75 30.5 -48.5
    endloop
  endfacet
  facet normal 1 0 0
    outer loop
      vertex -54.75 30.5 -52.5
      vertex -54.75 -30.5 -48.5
      vertex -54.75 -30.5 -52.5
    endloop
  endfacet
  facet normal -1 0 0
    outer loop
      vertex -81.75 -30.5 -52.5
      vertex -81.75 30.5 -48.5
      vertex -81.75 30.5 -52.5
    endloop
  endfacet
  facet normal -1 -0 0
    outer loop
      vertex -81.75 30.5 -48.5
      vertex -81.75 -30.5 -52.5
      vertex -81.75 -30.5 -48.5
    endloop
  endfacet
  facet normal 0 -1 0
    outer loop
      vertex -81.75 -30.5 -52.5
      vertex -54.75 -30.5 -48.5
      vertex -81.75 -30.5 -48.5
    endloop
  endfacet
  facet normal 0 -1 -0
    outer loop
      vertex -54.75 -30.5 -48.5
      vertex -81.75 -30.5 -52.5
      vertex -54.75 -30.5 -52.5
    endloop
  endfacet
  facet normal 0 1 -0
    outer loop
      vertex -54.75 30.5 -52.5
      vertex -81.75 30.5 -48.5
      vertex -54.75 30.5 -48.5
    endloop
  endfacet
  facet normal 0 1 0
    outer loop
      vertex -81.75 30.5 -48.5
      vertex -54.75 30.5 -52.5
      vertex -81.75 30.5 -52.5
    endloop
  endfacet
  facet normal -0 0 1
    outer loop
      vertex -81.75 30.5 -48.5
      vertex -54.75 -30.5 -48.5
      vertex -54.75 30.5 -48.5
    endloop
  endfacet
  facet normal 0 0 1
    outer loop
      vertex -54.75 -30.5 -48.5
      vertex -81.75 30.5 -48.5
      vertex -81.75 -30.5 -48.5
    endloop
  endfacet
  facet normal 0 0 -1
    outer loop
      vertex -21.25 -39.5 -52
      vertex -1.25 -36.5 -52
      vertex -1.25 -39.5 -52
    endloop
  endfacet
  facet normal -0 0 -1
    outer loop
      vertex -1.25 -36.5 -52
      vertex -21.25 -39.5 -52
      vertex -21.25 -36.5 -52
    endloop
  endfacet
  facet normal 1 -0 0
    outer loop
      vertex -1.25 -39.5 -49
      vertex -1.25 -36.5 -52
      vertex -1.25 -36.5 -49
    endloop
  endfacet
  facet normal 1 0 0
    outer loop
      vertex -1.25 -36.5 -52
      vertex -1.25 -39.5 -49
      vertex -1.25 -39.5 -52
    endloop
  endfacet
  facet normal -1 0 0
    outer loop
      vertex -21.25 -39.5 -52
      vertex -21.25 -36.5 -49
      vertex -21.25 -36.5 -52
    endloop
  endfacet
  facet normal -1 -0 0
    outer loop
      vertex -21.25 -36.5 -49
      vertex -21.25 -39.5 -52
      vertex -21.25 -39.5 -49
    endloop
  endfacet
  facet normal 0 -1 0
    outer loop
      vertex -21.25 -39.5 -52
      vertex -1.25 -39.5 -49
      vertex -21.25 -39.5 -49
    endloop
  endfacet
  facet normal 0 -1 -0
    outer loop
      vertex -1.25 -39.5 -49
      vertex -21.25 -39.5 -52
      vertex -1.25 -39.5 -52
    endloop
  endfacet
  facet normal -0 0 1
    outer loop
      vertex -21.25 -36.5 -49
      vertex -1.25 -39.5 -49
      vertex -1.25 -36.5 -49
    endloop
  endfacet
  facet normal 0 0 1
    outer loop
      vertex -1.25 -39.5 -49
      vertex -21.25 -36.5 -49
      vertex -21.25 -39.5 -49
    endloop
  endfacet
  facet normal 0 0 -1
    outer loop
      vertex -21.25 36.5 -52
      vertex -1.25 39.5 -52
      vertex -1.25 36.5 -52
    endloop
  endfacet
  facet normal -0 0 -1
    outer loop
      vertex -1.25 39.5 -52
      vertex -21.25 36.5 -52
      vertex -21.25 39.5 -52
    endloop
  endfacet
  facet normal 1 -0 0
    outer loop
      vertex -1.25 36.5 -49
      vertex -1.25 39.5 -52
      vertex -1.25 39.5 -49
    endloop
  endfacet
  facet normal 1 0 0
    outer loop
      vertex -1.25 39.5 -52
      vertex -1.25 36.5 -49
      vertex -1.25 36.5 -52
    endloop
  endfacet
  facet normal -1 0 0
    outer loop
      vertex -21.25 36.5 -52
      vertex -21.25 39.5 -49
      vertex -21.25 39.5 -52
    endloop
  endfacet
  facet normal -1 -0 0
    outer loop
      vertex -21.25 39.5 -49
      vertex -21.25 36.5 -52
      vertex -21.25 36.5 -49
    endloop
  endfacet
  facet normal 0 1 -0
    outer loop
      vertex -1.25 39.5 -52
      vertex -21.25 39.5 -49
      vertex -1.25 39.5 -49
    endloop
  endfacet
  facet normal 0 1 0
    outer loop
      vertex -21.25 39.5 -49
      vertex -1.25 39.5 -52
      vertex -21.25 39.5 -52
    endloop
  endfacet
  facet normal -0 0 1
    outer loop
      vertex -21.25 39.5 -49
      vertex -1.25 36.5 -49
      vertex -1.25 39.5 -49
    endloop
  endfacet
  facet normal 0 0 1
    outer loop
      vertex -1.25 36.5 -49
      vertex -21.25 39.5 -49
      vertex -21.25 36.5 -49
    endloop
  endfacet
  facet normal 0 0 -1
    outer loop
      vertex 7.5 -17.375 -17
      vertex 0 -17.375 -17
      vertex 7.5 -16.5 -17
    endloop
  endfacet
  facet normal 0 0 -1
    outer loop
      vertex 7.5 -16.5 -17
      vertex 8.75 -14.5 -17
      vertex 8.75 -16.5 -17
    endloop
  endfacet
  facet normal 0 0 -1
    outer loop
      vertex 0 -16.5 -17
      vertex 7.5 -16.5 -17
      vertex 0 -17.375 -17
    endloop
  endfacet
  facet normal 0 0 -1
    outer loop
      vertex 7.5 -16.5 -17
      vertex 0 -16.5 -17
      vertex 8.75 -14.5 -17
    endloop
  endfacet
  facet normal 0 0 -1
    outer loop
      vertex -1.25 -14.5 -17
      vertex 0 -16.5 -17
      vertex -1.25 -16.5 -17
    endloop
  endfacet
  facet normal 0 0 -1
    outer loop
      vertex 0 -16.5 -17
      vertex -1.25 -14.5 -17
      vertex 8.75 -14.5 -17
    endloop
  endfacet
  facet normal -0 0 1
    outer loop
      vertex -1.25 -18.75 -17
      vertex 0 -19.5 -17
      vertex 0 -18.75 -17
    endloop
  endfacet
  facet normal 0 0 1
    outer loop
      vertex 0 -19.5 -17
      vertex -1.25 -18.75 -17
      vertex -1.25 -19.5 -17
    endloop
  endfacet
  facet normal -0 0 1
    outer loop
      vertex 7.5 -18.75 -17
      vertex 8.75 -19.5 -17
      vertex 8.75 -18.75 -17
    endloop
  endfacet
  facet normal 0 0 1
    outer loop
      vertex 8.75 -19.5 -17
      vertex 7.5 -18.75 -17
      vertex 7.5 -19.5 -17
    endloop
  endfacet
  facet normal 0 0 -1
    outer loop
      vertex 0 -18.75 -17
      vertex 7.5 -18.625 -17
      vertex 7.5 -18.75 -17
    endloop
  endfacet
  facet normal -0 0 -1
    outer loop
      vertex 7.5 -18.625 -17
      vertex 0 -18.75 -17
      vertex 0 -18.625 -17
    endloop
  endfacet
  facet normal 1 0 0
    outer loop
      vertex 8.75 -9.5 8
      vertex 8.75 -14.15 0.4
      vertex 8.75 -9.5 0.4
    endloop
  endfacet
  facet normal 1 -0 0
    outer loop
      vertex 8.75 -24.5 8
      vertex 8.75 -14.15 0.4
      vertex 8.75 -9.5 8
    endloop
  endfacet
  facet normal 1 0 0
    outer loop
      vertex 8.75 -14.15 0.4
      vertex 8.75 -24.5 8
      vertex 8.75 -24.5 0.4
    endloop
  endfacet
  facet normal 1 0 0
    outer loop
      vertex 8.75 -14.5 0
      vertex 8.75 -16.5 -4.5
      vertex 8.75 -14.5 -17
    endloop
  endfacet
  facet normal 1 0 0
    outer loop
      vertex 8.75 -14.5 0
      vertex 8.75 -19.5 -4.5
      vertex 8.75 -16.5 -4.5
    endloop
  endfacet
  facet normal 1 0 0
    outer loop
      vertex 8.75 -24.5 -20
      vertex 8.75 -19.5 -4.5
      vertex 8.75 -24.5 0
    endloop
  endfacet
  facet normal 1 -0 0
    outer loop
      vertex 8.75 -24.5 0
      vertex 8.75 -19.5 -4.5
      vertex 8.75 -14.5 0
    endloop
  endfacet
  facet normal 1 0 0
    outer loop
      vertex 8.75 -14.5 -17
      vertex 8.75 -16.5 -4.5
      vertex 8.75 -16.5 -17
    endloop
  endfacet
  facet normal 1 -0 0
    outer loop
      vertex 8.75 -19.5 -17
      vertex 8.75 -18.75 -20
      vertex 8.75 -18.75 -17
    endloop
  endfacet
  facet normal 1 0 0
    outer loop
      vertex 8.75 -19.5 -4.5
      vertex 8.75 -24.5 -20
      vertex 8.75 -19.5 -17
    endloop
  endfacet
  facet normal 1 0 0
    outer loop
      vertex 8.75 -19.5 -17
      vertex 8.75 -24.5 -20
      vertex 8.75 -18.75 -20
    endloop
  endfacet
  facet normal -1 0 0
    outer loop
      vertex -1.25 -18.75 -20
      vertex -1.25 -19.5 -17
      vertex -1.25 -18.75 -17
    endloop
  endfacet
  facet normal -1 -0 0
    outer loop
      vertex -1.25 -19.5 -17
      vertex -1.25 -24.5 -20
      vertex -1.25 -19.5 -4.5
    endloop
  endfacet
  facet normal -1 0 0
    outer loop
      vertex -1.25 -24.5 -20
      vertex -1.25 -19.5 -17
      vertex -1.25 -18.75 -20
    endloop
  endfacet
  facet normal -1 0 0
    outer loop
      vertex -1.25 -16.5 -4.5
      vertex -1.25 -14.5 -17
      vertex -1.25 -16.5 -17
    endloop
  endfacet
  facet normal -1 0 0
    outer loop
      vertex -1.25 -14.5 -17
      vertex -1.25 -16.5 -4.5
      vertex -1.25 -14.5 0
    endloop
  endfacet
  facet normal -1 0 0
    outer loop
      vertex -1.25 -19.5 -4.5
      vertex -1.25 -14.5 0
      vertex -1.25 -16.5 -4.5
    endloop
  endfacet
  facet normal -1 0 0
    outer loop
      vertex -1.25 -19.5 -4.5
      vertex -1.25 -24.5 0
      vertex -1.25 -14.5 0
    endloop
  endfacet
  facet normal -1 0 0
    outer loop
      vertex -1.25 -24.5 0
      vertex -1.25 -19.5 -4.5
      vertex -1.25 -24.5 -20
    endloop
  endfacet
  facet normal -1 0 0
    outer loop
      vertex -1.25 -14.15 0.4
      vertex -1.25 -9.5 8
      vertex -1.25 -9.5 0.4
    endloop
  endfacet
  facet normal -1 0 0
    outer loop
      vertex -1.25 -24.5 8
      vertex -1.25 -14.15 0.4
      vertex -1.25 -24.5 0.4
    endloop
  endfacet
  facet normal -1 0 0
    outer loop
      vertex -1.25 -14.15 0.4
      vertex -1.25 -24.5 8
      vertex -1.25 -9.5 8
    endloop
  endfacet
  facet normal 0 -1 0
    outer loop
      vertex -1.25 -24.5 -20
      vertex 8.75 -24.5 0
      vertex -1.25 -24.5 0
    endloop
  endfacet
  facet normal 0 -1 -0
    outer loop
      vertex 8.75 -24.5 0
      vertex -1.25 -24.5 -20
      vertex 8.75 -24.5 -20
    endloop
  endfacet
  facet normal 0 -1 0
    outer loop
      vertex -1.25 -24.5 0.4
      vertex 8.75 -24.5 8
      vertex -1.25 -24.5 8
    endloop
  endfacet
  facet normal 0 -1 -0
    outer loop
      vertex 8.75 -24.5 8
      vertex -1.25 -24.5 0.4
      vertex 8.75 -24.5 0.4
    endloop
  endfacet
  facet normal 0 1 -0
    outer loop
      vertex 8.75 -9.5 0.4
      vertex -1.25 -9.5 8
      vertex 8.75 -9.5 8
    endloop
  endfacet
  facet normal 0 1 0
    outer loop
      vertex -1.25 -9.5 8
      vertex 8.75 -9.5 0.4
      vertex -1.25 -9.5 0.4
    endloop
  endfacet
  facet normal -0 0 1
    outer loop
      vertex -1.25 -9.5 8
      vertex 8.75 -24.5 8
      vertex 8.75 -9.5 8
    endloop
  endfacet
  facet normal 0 0 1
    outer loop
      vertex 8.75 -24.5 8
      vertex -1.25 -9.5 8
      vertex -1.25 -24.5 8
    endloop
  endfacet
  facet normal 0 0 -1
    outer loop
      vertex -1.25 -24.5 -20
      vertex 8.75 -18.75 -20
      vertex 8.75 -24.5 -20
    endloop
  endfacet
  facet normal -0 0 -1
    outer loop
      vertex 8.75 -18.75 -20
      vertex -1.25 -24.5 -20
      vertex -1.25 -18.75 -20
    endloop
  endfacet
  facet normal 0 1 -0
    outer loop
      vertex 8.75 -18.75 -20
      vertex 7.5 -18.75 -17
      vertex 8.75 -18.75 -17
    endloop
  endfacet
  facet normal 0 1 0
    outer loop
      vertex 7.5 -18.75 -17
      vertex 8.75 -18.75 -20
      vertex 0 -18.75 -17
    endloop
  endfacet
  facet normal 0 1 0
    outer loop
      vertex -1.25 -18.75 -20
      vertex 0 -18.75 -17
      vertex 8.75 -18.75 -20
    endloop
  endfacet
  facet normal 0 1 0
    outer loop
      vertex 0 -18.75 -17
      vertex -1.25 -18.75 -20
      vertex -1.25 -18.75 -17
    endloop
  endfacet
  facet normal 1 0 0
    outer loop
      vertex 7.5 -18.625 -4.5
      vertex 7.5 -18.75 -17
      vertex 7.5 -18.625 -17
    endloop
  endfacet
  facet normal 1 -0 0
    outer loop
      vertex 7.5 -19.5 -4.5
      vertex 7.5 -18.75 -17
      vertex 7.5 -18.625 -4.5
    endloop
  endfacet
  facet normal 1 0 0
    outer loop
      vertex 7.5 -18.75 -17
      vertex 7.5 -19.5 -4.5
      vertex 7.5 -19.5 -17
    endloop
  endfacet
  facet normal 1 -0 0
    outer loop
      vertex 7.5 -17.375 -4.5
      vertex 7.5 -16.5 -17
      vertex 7.5 -16.5 -4.5
    endloop
  endfacet
  facet normal 1 0 0
    outer loop
      vertex 7.5 -16.5 -17
      vertex 7.5 -17.375 -4.5
      vertex 7.5 -17.375 -17
    endloop
  endfacet
  facet normal -1 0 0
    outer loop
      vertex 0 -18.75 -17
      vertex 0 -18.625 -4.5
      vertex 0 -18.625 -17
    endloop
  endfacet
  facet normal -1 0 0
    outer loop
      vertex 0 -19.5 -17
      vertex 0 -18.625 -4.5
      vertex 0 -18.75 -17
    endloop
  endfacet
  facet normal -1 -0 0
    outer loop
      vertex 0 -18.625 -4.5
      vertex 0 -19.5 -17
      vertex 0 -19.5 -4.5
    endloop
  endfacet
  facet normal -1 0 0
    outer loop
      vertex 0 -17.375 -17
      vertex 0 -16.5 -4.5
      vertex 0 -16.5 -17
    endloop
  endfacet
  facet normal -1 -0 0
    outer loop
      vertex 0 -16.5 -4.5
      vertex 0 -17.375 -17
      vertex 0 -17.375 -4.5
    endloop
  endfacet
  facet normal 0 1 -0
    outer loop
      vertex 7.5 -18.625 -17
      vertex 0 -18.625 -4.5
      vertex 7.5 -18.625 -4.5
    endloop
  endfacet
  facet normal 0 1 0
    outer loop
      vertex 0 -18.625 -4.5
      vertex 7.5 -18.625 -17
      vertex 0 -18.625 -17
    endloop
  endfacet
  facet normal 0 -1 0
    outer loop
      vertex 0 -17.375 -17
      vertex 7.5 -17.375 -4.5
      vertex 0 -17.375 -4.5
    endloop
  endfacet
  facet normal 0 -1 -0
    outer loop
      vertex 7.5 -17.375 -4.5
      vertex 0 -17.375 -17
      vertex 7.5 -17.375 -17
    endloop
  endfacet
  facet normal 0 0 -1
    outer loop
      vertex -1.25 -19.5 -4.5
      vertex 0 -18.625 -4.5
      vertex 0 -19.5 -4.5
    endloop
  endfacet
  facet normal -0 0 -1
    outer loop
      vertex 0 -18.625 -4.5
      vertex -1.25 -19.5 -4.5
      vertex 0 -17.375 -4.5
    endloop
  endfacet
  facet normal 0 0 -1
    outer loop
      vertex -1.25 -16.5 -4.5
      vertex 0 -17.375 -4.5
      vertex -1.25 -19.5 -4.5
    endloop
  endfacet
  facet normal 0 0 -1
    outer loop
      vertex 0 -17.375 -4.5
      vertex -1.25 -16.5 -4.5
      vertex 0 -16.5 -4.5
    endloop
  endfacet
  facet normal 0 0 -1
    outer loop
      vertex 0 -18.625 -4.5
      vertex 7.5 -17.375 -4.5
      vertex 7.5 -18.625 -4.5
    endloop
  endfacet
  facet normal -0 0 -1
    outer loop
      vertex 7.5 -17.375 -4.5
      vertex 0 -18.625 -4.5
      vertex 0 -17.375 -4.5
    endloop
  endfacet
  facet normal 0 0 -1
    outer loop
      vertex 7.5 -18.625 -4.5
      vertex 8.75 -19.5 -4.5
      vertex 7.5 -19.5 -4.5
    endloop
  endfacet
  facet normal 0 0 -1
    outer loop
      vertex 8.75 -19.5 -4.5
      vertex 7.5 -18.625 -4.5
      vertex 8.75 -16.5 -4.5
    endloop
  endfacet
  facet normal 0 0 -1
    outer loop
      vertex 7.5 -17.375 -4.5
      vertex 8.75 -16.5 -4.5
      vertex 7.5 -18.625 -4.5
    endloop
  endfacet
  facet normal -0 0 -1
    outer loop
      vertex 8.75 -16.5 -4.5
      vertex 7.5 -17.375 -4.5
      vertex 7.5 -16.5 -4.5
    endloop
  endfacet
  facet normal 0 1 -0
    outer loop
      vertex 0 -19.5 -17
      vertex -1.25 -19.5 -4.5
      vertex 0 -19.5 -4.5
    endloop
  endfacet
  facet normal 0 1 0
    outer loop
      vertex -1.25 -19.5 -4.5
      vertex 0 -19.5 -17
      vertex -1.25 -19.5 -17
    endloop
  endfacet
  facet normal 0 -1 0
    outer loop
      vertex -1.25 -16.5 -17
      vertex 0 -16.5 -4.5
      vertex -1.25 -16.5 -4.5
    endloop
  endfacet
  facet normal 0 -1 -0
    outer loop
      vertex 0 -16.5 -4.5
      vertex -1.25 -16.5 -17
      vertex 0 -16.5 -17
    endloop
  endfacet
  facet normal 0 1 -0
    outer loop
      vertex 8.75 -19.5 -17
      vertex 7.5 -19.5 -4.5
      vertex 8.75 -19.5 -4.5
    endloop
  endfacet
  facet normal 0 1 0
    outer loop
      vertex 7.5 -19.5 -4.5
      vertex 8.75 -19.5 -17
      vertex 7.5 -19.5 -17
    endloop
  endfacet
  facet normal 0 -1 0
    outer loop
      vertex 7.5 -16.5 -17
      vertex 8.75 -16.5 -4.5
      vertex 7.5 -16.5 -4.5
    endloop
  endfacet
  facet normal 0 -1 -0
    outer loop
      vertex 8.75 -16.5 -4.5
      vertex 7.5 -16.5 -17
      vertex 8.75 -16.5 -17
    endloop
  endfacet
  facet normal 0 0 -1
    outer loop
      vertex 8.75 14.5 -17
      vertex 7.5 16.5 -17
      vertex 8.75 16.5 -17
    endloop
  endfacet
  facet normal 0 0 -1
    outer loop
      vertex 7.5 16.5 -17
      vertex 0 16.5 -17
      vertex 7.5 17.375 -17
    endloop
  endfacet
  facet normal 0 0 -1
    outer loop
      vertex 8.75 14.5 -17
      vertex 0 16.5 -17
      vertex 7.5 16.5 -17
    endloop
  endfacet
  facet normal 0 0 -1
    outer loop
      vertex -1.25 14.5 -17
      vertex 0 16.5 -17
      vertex 8.75 14.5 -17
    endloop
  endfacet
  facet normal -0 0 -1
    outer loop
      vertex 0 16.5 -17
      vertex -1.25 14.5 -17
      vertex -1.25 16.5 -17
    endloop
  endfacet
  facet normal -0 0 -1
    outer loop
      vertex 7.5 17.375 -17
      vertex 0 16.5 -17
      vertex 0 17.375 -17
    endloop
  endfacet
  facet normal -0 0 1
    outer loop
      vertex 7.5 19.5 -17
      vertex 8.75 18.75 -17
      vertex 8.75 19.5 -17
    endloop
  endfacet
  facet normal 0 0 1
    outer loop
      vertex 8.75 18.75 -17
      vertex 7.5 19.5 -17
      vertex 7.5 18.75 -17
    endloop
  endfacet
  facet normal -0 0 1
    outer loop
      vertex -1.25 19.5 -17
      vertex 0 18.75 -17
      vertex 0 19.5 -17
    endloop
  endfacet
  facet normal 0 0 1
    outer loop
      vertex 0 18.75 -17
      vertex -1.25 19.5 -17
      vertex -1.25 18.75 -17
    endloop
  endfacet
  facet normal 0 0 -1
    outer loop
      vertex 0 18.625 -17
      vertex 7.5 18.75 -17
      vertex 7.5 18.625 -17
    endloop
  endfacet
  facet normal -0 0 -1
    outer loop
      vertex 7.5 18.75 -17
      vertex 0 18.625 -17
      vertex 0 18.75 -17
    endloop
  endfacet
  facet normal -1 0 0
    outer loop
      vertex -1.25 14.15 0.4
      vertex -1.25 24.5 8
      vertex -1.25 24.5 0.4
    endloop
  endfacet
  facet normal -1 0 0
    outer loop
      vertex -1.25 9.5 8
      vertex -1.25 14.15 0.4
      vertex -1.25 9.5 0.4
    endloop
  endfacet
  facet normal -1 0 0
    outer loop
      vertex -1.25 14.15 0.4
      vertex -1.25 9.5 8
      vertex -1.25 24.5 8
    endloop
  endfacet
  facet normal -1 0 0
    outer loop
      vertex -1.25 16.5 -17
      vertex -1.25 14.5 -17
      vertex -1.25 16.5 -4.5
    endloop
  endfacet
  facet normal -1 0 0
    outer loop
      vertex -1.25 19.5 -4.5
      vertex -1.25 24.5 -20
      vertex -1.25 19.5 -17
    endloop
  endfacet
  facet normal -1 0 0
    outer loop
      vertex -1.25 18.75 -20
      vertex -1.25 19.5 -17
      vertex -1.25 24.5 -20
    endloop
  endfacet
  facet normal -1 -0 0
    outer loop
      vertex -1.25 19.5 -17
      vertex -1.25 18.75 -20
      vertex -1.25 18.75 -17
    endloop
  endfacet
  facet normal -1 0 0
    outer loop
      vertex -1.25 24.5 -20
      vertex -1.25 19.5 -4.5
      vertex -1.25 24.5 0
    endloop
  endfacet
  facet normal -1 0 0
    outer loop
      vertex -1.25 14.5 0
      vertex -1.25 19.5 -4.5
      vertex -1.25 16.5 -4.5
    endloop
  endfacet
  facet normal -1 0 0
    outer loop
      vertex -1.25 19.5 -4.5
      vertex -1.25 14.5 0
      vertex -1.25 24.5 0
    endloop
  endfacet
  facet normal -1 0 0
    outer loop
      vertex -1.25 14.5 0
      vertex -1.25 16.5 -4.5
      vertex -1.25 14.5 -17
    endloop
  endfacet
  facet normal 1 0 0
    outer loop
      vertex 8.75 24.5 0
      vertex 8.75 19.5 -4.5
      vertex 8.75 24.5 -20
    endloop
  endfacet
  facet normal 1 -0 0
    outer loop
      vertex 8.75 14.5 0
      vertex 8.75 19.5 -4.5
      vertex 8.75 24.5 0
    endloop
  endfacet
  facet normal 1 0 0
    outer loop
      vertex 8.75 19.5 -4.5
      vertex 8.75 14.5 0
      vertex 8.75 16.5 -4.5
    endloop
  endfacet
  facet normal 1 0 0
    outer loop
      vertex 8.75 14.5 -17
      vertex 8.75 16.5 -4.5
      vertex 8.75 14.5 0
    endloop
  endfacet
  facet normal 1 0 0
    outer loop
      vertex 8.75 16.5 -4.5
      vertex 8.75 14.5 -17
      vertex 8.75 16.5 -17
    endloop
  endfacet
  facet normal 1 -0 0
    outer loop
      vertex 8.75 19.5 -17
      vertex 8.75 24.5 -20
      vertex 8.75 19.5 -4.5
    endloop
  endfacet
  facet normal 1 0 0
    outer loop
      vertex 8.75 18.75 -20
      vertex 8.75 19.5 -17
      vertex 8.75 18.75 -17
    endloop
  endfacet
  facet normal 1 0 0
    outer loop
      vertex 8.75 19.5 -17
      vertex 8.75 18.75 -20
      vertex 8.75 24.5 -20
    endloop
  endfacet
  facet normal 1 0 0
    outer loop
      vertex 8.75 24.5 8
      vertex 8.75 14.15 0.4
      vertex 8.75 24.5 0.4
    endloop
  endfacet
  facet normal 1 -0 0
    outer loop
      vertex 8.75 9.5 8
      vertex 8.75 14.15 0.4
      vertex 8.75 24.5 8
    endloop
  endfacet
  facet normal 1 0 0
    outer loop
      vertex 8.75 14.15 0.4
      vertex 8.75 9.5 8
      vertex 8.75 9.5 0.4
    endloop
  endfacet
  facet normal 0 1 -0
    outer loop
      vertex 8.75 24.5 -20
      vertex -1.25 24.5 0
      vertex 8.75 24.5 0
    endloop
  endfacet
  facet normal 0 1 0
    outer loop
      vertex -1.25 24.5 0
      vertex 8.75 24.5 -20
      vertex -1.25 24.5 -20
    endloop
  endfacet
  facet normal 0 1 -0
    outer loop
      vertex 8.75 24.5 0.4
      vertex -1.25 24.5 8
      vertex 8.75 24.5 8
    endloop
  endfacet
  facet normal 0 1 0
    outer loop
      vertex -1.25 24.5 8
      vertex 8.75 24.5 0.4
      vertex -1.25 24.5 0.4
    endloop
  endfacet
  facet normal 0 -1 0
    outer loop
      vertex -1.25 9.5 0.4
      vertex 8.75 9.5 8
      vertex -1.25 9.5 8
    endloop
  endfacet
  facet normal 0 -1 -0
    outer loop
      vertex 8.75 9.5 8
      vertex -1.25 9.5 0.4
      vertex 8.75 9.5 0.4
    endloop
  endfacet
  facet normal -0 0 1
    outer loop
      vertex -1.25 24.5 8
      vertex 8.75 9.5 8
      vertex 8.75 24.5 8
    endloop
  endfacet
  facet normal 0 0 1
    outer loop
      vertex 8.75 9.5 8
      vertex -1.25 24.5 8
      vertex -1.25 9.5 8
    endloop
  endfacet
  facet normal 0 0 -1
    outer loop
      vertex -1.25 18.75 -20
      vertex 8.75 24.5 -20
      vertex 8.75 18.75 -20
    endloop
  endfacet
  facet normal -0 0 -1
    outer loop
      vertex 8.75 24.5 -20
      vertex -1.25 18.75 -20
      vertex -1.25 24.5 -20
    endloop
  endfacet
  facet normal 0 -1 0
    outer loop
      vertex -1.25 18.75 -20
      vertex 0 18.75 -17
      vertex -1.25 18.75 -17
    endloop
  endfacet
  facet normal 0 -1 -0
    outer loop
      vertex 0 18.75 -17
      vertex -1.25 18.75 -20
      vertex 7.5 18.75 -17
    endloop
  endfacet
  facet normal 0 -1 0
    outer loop
      vertex 8.75 18.75 -20
      vertex 7.5 18.75 -17
      vertex -1.25 18.75 -20
    endloop
  endfacet
  facet normal 0 -1 0
    outer loop
      vertex 7.5 18.75 -17
      vertex 8.75 18.75 -20
      vertex 8.75 18.75 -17
    endloop
  endfacet
  facet normal -1 0 0
    outer loop
      vertex 0 18.75 -17
      vertex 0 19.5 -4.5
      vertex 0 19.5 -17
    endloop
  endfacet
  facet normal -1 0 0
    outer loop
      vertex 0 18.625 -4.5
      vertex 0 18.75 -17
      vertex 0 18.625 -17
    endloop
  endfacet
  facet normal -1 0 0
    outer loop
      vertex 0 18.75 -17
      vertex 0 18.625 -4.5
      vertex 0 19.5 -4.5
    endloop
  endfacet
  facet normal -1 0 0
    outer loop
      vertex 0 16.5 -17
      vertex 0 17.375 -4.5
      vertex 0 17.375 -17
    endloop
  endfacet
  facet normal -1 -0 0
    outer loop
      vertex 0 17.375 -4.5
      vertex 0 16.5 -17
      vertex 0 16.5 -4.5
    endloop
  endfacet
  facet normal 1 0 0
    outer loop
      vertex 7.5 19.5 -4.5
      vertex 7.5 18.75 -17
      vertex 7.5 19.5 -17
    endloop
  endfacet
  facet normal 1 -0 0
    outer loop
      vertex 7.5 18.625 -4.5
      vertex 7.5 18.75 -17
      vertex 7.5 19.5 -4.5
    endloop
  endfacet
  facet normal 1 0 0
    outer loop
      vertex 7.5 18.75 -17
      vertex 7.5 18.625 -4.5
      vertex 7.5 18.625 -17
    endloop
  endfacet
  facet normal 1 -0 0
    outer loop
      vertex 7.5 16.5 -4.5
      vertex 7.5 17.375 -17
      vertex 7.5 17.375 -4.5
    endloop
  endfacet
  facet normal 1 0 0
    outer loop
      vertex 7.5 17.375 -17
      vertex 7.5 16.5 -4.5
      vertex 7.5 16.5 -17
    endloop
  endfacet
  facet normal 0 -1 0
    outer loop
      vertex 0 18.625 -17
      vertex 7.5 18.625 -4.5
      vertex 0 18.625 -4.5
    endloop
  endfacet
  facet normal 0 -1 -0
    outer loop
      vertex 7.5 18.625 -4.5
      vertex 0 18.625 -17
      vertex 7.5 18.625 -17
    endloop
  endfacet
  facet normal 0 1 -0
    outer loop
      vertex 7.5 17.375 -17
      vertex 0 17.375 -4.5
      vertex 7.5 17.375 -4.5
    endloop
  endfacet
  facet normal 0 1 0
    outer loop
      vertex 0 17.375 -4.5
      vertex 7.5 17.375 -17
      vertex 0 17.375 -17
    endloop
  endfacet
  facet normal 0 0 -1
    outer loop
      vertex -1.25 16.5 -4.5
      vertex 0 17.375 -4.5
      vertex 0 16.5 -4.5
    endloop
  endfacet
  facet normal -0 0 -1
    outer loop
      vertex 0 17.375 -4.5
      vertex -1.25 16.5 -4.5
      vertex 0 18.625 -4.5
    endloop
  endfacet
  facet normal 0 0 -1
    outer loop
      vertex -1.25 19.5 -4.5
      vertex 0 18.625 -4.5
      vertex -1.25 16.5 -4.5
    endloop
  endfacet
  facet normal 0 0 -1
    outer loop
      vertex 0 18.625 -4.5
      vertex -1.25 19.5 -4.5
      vertex 0 19.5 -4.5
    endloop
  endfacet
  facet normal 0 0 -1
    outer loop
      vertex 0 17.375 -4.5
      vertex 7.5 18.625 -4.5
      vertex 7.5 17.375 -4.5
    endloop
  endfacet
  facet normal -0 0 -1
    outer loop
      vertex 7.5 18.625 -4.5
      vertex 0 17.375 -4.5
      vertex 0 18.625 -4.5
    endloop
  endfacet
  facet normal 0 0 -1
    outer loop
      vertex 7.5 17.375 -4.5
      vertex 8.75 16.5 -4.5
      vertex 7.5 16.5 -4.5
    endloop
  endfacet
  facet normal 0 0 -1
    outer loop
      vertex 8.75 16.5 -4.5
      vertex 7.5 17.375 -4.5
      vertex 8.75 19.5 -4.5
    endloop
  endfacet
  facet normal 0 0 -1
    outer loop
      vertex 7.5 18.625 -4.5
      vertex 8.75 19.5 -4.5
      vertex 7.5 17.375 -4.5
    endloop
  endfacet
  facet normal -0 0 -1
    outer loop
      vertex 8.75 19.5 -4.5
      vertex 7.5 18.625 -4.5
      vertex 7.5 19.5 -4.5
    endloop
  endfacet
  facet normal 0 -1 0
    outer loop
      vertex 7.5 19.5 -17
      vertex 8.75 19.5 -4.5
      vertex 7.5 19.5 -4.5
    endloop
  endfacet
  facet normal 0 -1 -0
    outer loop
      vertex 8.75 19.5 -4.5
      vertex 7.5 19.5 -17
      vertex 8.75 19.5 -17
    endloop
  endfacet
  facet normal 0 1 -0
    outer loop
      vertex 8.75 16.5 -17
      vertex 7.5 16.5 -4.5
      vertex 8.75 16.5 -4.5
    endloop
  endfacet
  facet normal 0 1 0
    outer loop
      vertex 7.5 16.5 -4.5
      vertex 8.75 16.5 -17
      vertex 7.5 16.5 -17
    endloop
  endfacet
  facet normal 0 -1 0
    outer loop
      vertex -1.25 19.5 -17
      vertex 0 19.5 -4.5
      vertex -1.25 19.5 -4.5
    endloop
  endfacet
  facet normal 0 -1 -0
    outer loop
      vertex 0 19.5 -4.5
      vertex -1.25 19.5 -17
      vertex 0 19.5 -17
    endloop
  endfacet
  facet normal 0 1 -0
    outer loop
      vertex 0 16.5 -17
      vertex -1.25 16.5 -4.5
      vertex 0 16.5 -4.5
    endloop
  endfacet
  facet normal 0 1 0
    outer loop
      vertex -1.25 16.5 -4.5
      vertex 0 16.5 -17
      vertex -1.25 16.5 -17
    endloop
  endfacet
  facet normal 0 0 -1
    outer loop
      vertex -1.25 14.15 0.4
      vertex -0.899994 14.5 0.4
      vertex -0.910995 14.413 0.4
    endloop
  endfacet
  facet normal 0 0 -1
    outer loop
      vertex 8.39999 14.5 0.4
      vertex 8.75 14.15 0.4
      vertex 8.66296 14.161 0.4
    endloop
  endfacet
  facet normal 0 0 -1
    outer loop
      vertex 8.39999 14.5 0.4
      vertex 8.66296 14.161 0.4
      vertex 8.58139 14.1933 0.4
    endloop
  endfacet
  facet normal 0 0 -1
    outer loop
      vertex 8.39999 14.5 0.4
      vertex 8.58139 14.1933 0.4
      vertex 8.51041 14.2449 0.4
    endloop
  endfacet
  facet normal 0 0 -1
    outer loop
      vertex 8.39999 14.5 0.4
      vertex 8.51041 14.2449 0.4
      vertex 8.45448 14.3125 0.4
    endloop
  endfacet
  facet normal 0 0 -1
    outer loop
      vertex 8.39999 14.5 0.4
      vertex 8.45448 14.3125 0.4
      vertex 8.41713 14.3918 0.4
    endloop
  endfacet
  facet normal 0 0 -1
    outer loop
      vertex 8.75 14.15 0.4
      vertex 8.39999 14.5 0.4
      vertex 8.75 24.5 0.4
    endloop
  endfacet
  facet normal 0 0 -1
    outer loop
      vertex 8.39999 24.15 0.4
      vertex 8.75 24.5 0.4
      vertex 8.39999 14.5 0.4
    endloop
  endfacet
  facet normal 0 0 -1
    outer loop
      vertex -0.899994 24.15 0.4
      vertex 8.75 24.5 0.4
      vertex 8.39999 24.15 0.4
    endloop
  endfacet
  facet normal 0 0 -1
    outer loop
      vertex -1.25 14.15 0.4
      vertex -0.910995 14.413 0.4
      vertex -0.943298 14.3314 0.4
    endloop
  endfacet
  facet normal 0 0 -1
    outer loop
      vertex -1.25 14.15 0.4
      vertex -0.943298 14.3314 0.4
      vertex -0.994858 14.2604 0.4
    endloop
  endfacet
  facet normal 0 0 -1
    outer loop
      vertex -1.25 14.15 0.4
      vertex -0.994858 14.2604 0.4
      vertex -1.06245 14.2045 0.4
    endloop
  endfacet
  facet normal 0 0 -1
    outer loop
      vertex -1.25 14.15 0.4
      vertex -1.06245 14.2045 0.4
      vertex -1.14185 14.1671 0.4
    endloop
  endfacet
  facet normal -0 0 -1
    outer loop
      vertex -0.899994 14.5 0.4
      vertex -1.25 14.15 0.4
      vertex -0.899994 24.15 0.4
    endloop
  endfacet
  facet normal 0 0 -1
    outer loop
      vertex -0.899994 24.15 0.4
      vertex -1.25 24.5 0.4
      vertex 8.75 24.5 0.4
    endloop
  endfacet
  facet normal 0 0 -1
    outer loop
      vertex -1.25 24.5 0.4
      vertex -0.899994 24.15 0.4
      vertex -1.25 14.15 0.4
    endloop
  endfacet
  facet normal -0 0 1
    outer loop
      vertex -9.89999 14.15 0.4
      vertex -1.25 9.5 0.4
      vertex -1.25 14.15 0.4
    endloop
  endfacet
  facet normal 0 0 1
    outer loop
      vertex -1.25 9.5 0.4
      vertex -9.89999 14.15 0.4
      vertex -1.25 -9.5 0.4
    endloop
  endfacet
  facet normal 0 0 1
    outer loop
      vertex -9.89999 -14.15 0.4
      vertex -1.25 -9.5 0.4
      vertex -9.89999 14.15 0.4
    endloop
  endfacet
  facet normal 0 0 1
    outer loop
      vertex -1.25 -9.5 0.4
      vertex -9.89999 -14.15 0.4
      vertex -1.25 -14.15 0.4
    endloop
  endfacet
  facet normal -0 0 1
    outer loop
      vertex -1.25 9.5 0.4
      vertex 8.75 -9.5 0.4
      vertex 8.75 9.5 0.4
    endloop
  endfacet
  facet normal 0 0 1
    outer loop
      vertex 8.75 -9.5 0.4
      vertex -1.25 9.5 0.4
      vertex -1.25 -9.5 0.4
    endloop
  endfacet
  facet normal 0 0 1
    outer loop
      vertex 8.75 9.5 0.4
      vertex 24.8972 0 0.4
      vertex 24.4527 3.51828 0.4
    endloop
  endfacet
  facet normal 0 0 1
    outer loop
      vertex 8.75 9.5 0.4
      vertex 24.4527 3.51828 0.4
      vertex 23.1473 6.81549 0.4
    endloop
  endfacet
  facet normal 0 0 1
    outer loop
      vertex 8.75 -9.5 0.4
      vertex 24.8972 0 0.4
      vertex 8.75 9.5 0.4
    endloop
  endfacet
  facet normal -0 0 1
    outer loop
      vertex 8.75 9.5 0.4
      vertex 23.1473 6.81549 0.4
      vertex 21.0629 9.6844 0.4
    endloop
  endfacet
  facet normal 0 0 1
    outer loop
      vertex 24.8972 0 0.4
      vertex 8.75 -9.5 0.4
      vertex 24.4527 -3.51828 0.4
    endloop
  endfacet
  facet normal 0 0 1
    outer loop
      vertex 8.75 9.5 0.4
      vertex 21.0629 9.6844 0.4
      vertex 18.3305 11.9449 0.4
    endloop
  endfacet
  facet normal 0 0 1
    outer loop
      vertex 24.4527 -3.51828 0.4
      vertex 8.75 -9.5 0.4
      vertex 23.1473 -6.81549 0.4
    endloop
  endfacet
  facet normal 0 0 1
    outer loop
      vertex 8.75 9.5 0.4
      vertex 18.3305 11.9449 0.4
      vertex 15.1217 13.4548 0.4
    endloop
  endfacet
  facet normal 0 0 1
    outer loop
      vertex 23.1473 -6.81549 0.4
      vertex 8.75 -9.5 0.4
      vertex 21.0629 -9.6844 0.4
    endloop
  endfacet
  facet normal 0 0 1
    outer loop
      vertex 8.75 9.5 0.4
      vertex 15.1217 13.4548 0.4
      vertex 11.6383 14.1193 0.4
    endloop
  endfacet
  facet normal 0 0 1
    outer loop
      vertex 21.0629 -9.6844 0.4
      vertex 8.75 -9.5 0.4
      vertex 18.3305 -11.9449 0.4
    endloop
  endfacet
  facet normal 0 0 1
    outer loop
      vertex 8.75 9.5 0.4
      vertex 11.6383 14.1193 0.4
      vertex 10.272 14.0333 0.4
    endloop
  endfacet
  facet normal 0 0 1
    outer loop
      vertex 18.3305 -11.9449 0.4
      vertex 8.75 -9.5 0.4
      vertex 15.1217 -13.4548 0.4
    endloop
  endfacet
  facet normal 0 0 1
    outer loop
      vertex 8.75 9.5 0.4
      vertex 10.272 14.0333 0.4
      vertex 10.1844 14.0388 0.4
    endloop
  endfacet
  facet normal 0 0 1
    outer loop
      vertex 15.1217 -13.4548 0.4
      vertex 8.75 -9.5 0.4
      vertex 11.6383 -14.1193 0.4
    endloop
  endfacet
  facet normal 0 0 1
    outer loop
      vertex 8.75 9.5 0.4
      vertex 10.1844 14.0388 0.4
      vertex 10.101 14.066 0.4
    endloop
  endfacet
  facet normal 0 0 1
    outer loop
      vertex 11.6383 -14.1193 0.4
      vertex 8.75 -9.5 0.4
      vertex 10.272 -14.0333 0.4
    endloop
  endfacet
  facet normal 0 0 1
    outer loop
      vertex 8.75 14.15 0.4
      vertex 10.101 14.066 0.4
      vertex 10.0269 14.113 0.4
    endloop
  endfacet
  facet normal 0 0 1
    outer loop
      vertex 10.272 -14.0333 0.4
      vertex 8.75 -9.5 0.4
      vertex 10.1418 -14.0498 0.4
    endloop
  endfacet
  facet normal -0 0 1
    outer loop
      vertex 8.75 14.15 0.4
      vertex 10.0269 14.113 0.4
      vertex 9.99213 14.15 0.4
    endloop
  endfacet
  facet normal 0 0 1
    outer loop
      vertex 8.75 -14.15 0.4
      vertex 10.1418 -14.0498 0.4
      vertex 8.75 -9.5 0.4
    endloop
  endfacet
  facet normal 0 0 1
    outer loop
      vertex 10.101 14.066 0.4
      vertex 8.75 14.15 0.4
      vertex 8.75 9.5 0.4
    endloop
  endfacet
  facet normal 0 0 1
    outer loop
      vertex 10.1418 -14.0498 0.4
      vertex 8.75 -14.15 0.4
      vertex 10.0625 -14.0871 0.4
    endloop
  endfacet
  facet normal 0 0 1
    outer loop
      vertex 10.0625 -14.0871 0.4
      vertex 8.75 -14.15 0.4
      vertex 9.99486 -14.1431 0.4
    endloop
  endfacet
  facet normal 0 0 1
    outer loop
      vertex 9.99486 -14.1431 0.4
      vertex 8.75 -14.15 0.4
      vertex 9.98982 -14.15 0.4
    endloop
  endfacet
  facet normal 0 0 -1
    outer loop
      vertex 8.39999 -14.5 0.4
      vertex 8.75 -14.15 0.4
      vertex 8.75 -24.5 0.4
    endloop
  endfacet
  facet normal 0 0 -1
    outer loop
      vertex 8.75 -14.15 0.4
      vertex 8.39999 -14.5 0.4
      vertex 8.64185 -14.1671 0.4
    endloop
  endfacet
  facet normal 0 0 -1
    outer loop
      vertex 8.64185 -14.1671 0.4
      vertex 8.39999 -14.5 0.4
      vertex 8.56245 -14.2045 0.4
    endloop
  endfacet
  facet normal 0 0 -1
    outer loop
      vertex 8.56245 -14.2045 0.4
      vertex 8.39999 -14.5 0.4
      vertex 8.49486 -14.2604 0.4
    endloop
  endfacet
  facet normal 0 0 -1
    outer loop
      vertex 8.49486 -14.2604 0.4
      vertex 8.39999 -14.5 0.4
      vertex 8.4433 -14.3314 0.4
    endloop
  endfacet
  facet normal 0 0 -1
    outer loop
      vertex 8.39999 -14.5 0.4
      vertex 8.75 -24.5 0.4
      vertex 8.39999 -24.15 0.4
    endloop
  endfacet
  facet normal 0 0 -1
    outer loop
      vertex 8.75 -24.5 0.4
      vertex -0.899994 -24.15 0.4
      vertex 8.39999 -24.15 0.4
    endloop
  endfacet
  facet normal 0 0 -1
    outer loop
      vertex -1.25 -14.15 0.4
      vertex -0.899994 -14.5 0.4
      vertex -0.899994 -24.15 0.4
    endloop
  endfacet
  facet normal 0 0 -1
    outer loop
      vertex -0.899994 -14.5 0.4
      vertex -1.25 -14.15 0.4
      vertex -0.91713 -14.3918 0.4
    endloop
  endfacet
  facet normal 0 0 -1
    outer loop
      vertex -0.91713 -14.3918 0.4
      vertex -1.25 -14.15 0.4
      vertex -0.954483 -14.3125 0.4
    endloop
  endfacet
  facet normal 0 0 -1
    outer loop
      vertex -0.954483 -14.3125 0.4
      vertex -1.25 -14.15 0.4
      vertex -1.01041 -14.2449 0.4
    endloop
  endfacet
  facet normal 0 0 -1
    outer loop
      vertex -1.01041 -14.2449 0.4
      vertex -1.25 -14.15 0.4
      vertex -1.08139 -14.1933 0.4
    endloop
  endfacet
  facet normal 0 0 -1
    outer loop
      vertex -1.25 -24.5 0.4
      vertex -0.899994 -24.15 0.4
      vertex 8.75 -24.5 0.4
    endloop
  endfacet
  facet normal 0 0 -1
    outer loop
      vertex -1.25 -14.15 0.4
      vertex -0.899994 -24.15 0.4
      vertex -1.25 -24.5 0.4
    endloop
  endfacet
  facet normal 0 0 -1
    outer loop
      vertex -1.08139 -14.1933 0.4
      vertex -1.25 -14.15 0.4
      vertex -1.16296 -14.161 0.4
    endloop
  endfacet
  facet normal 0 0 -1
    outer loop
      vertex 8.4433 -14.3314 0.4
      vertex 8.39999 -14.5 0.4
      vertex 8.411 -14.413 0.4
    endloop
  endfacet
  facet normal 0.992087 -0.12555 0
    outer loop
      vertex 8.39999 -14.5 0.4
      vertex 8.411 -14.413 0
      vertex 8.411 -14.413 0.4
    endloop
  endfacet
  facet normal 0.992087 -0.12555 0
    outer loop
      vertex 8.411 -14.413 0
      vertex 8.39999 -14.5 0.4
      vertex 8.39999 -14.5 0
    endloop
  endfacet
  facet normal 0.929807 -0.368048 0
    outer loop
      vertex 8.411 -14.413 0.4
      vertex 8.4433 -14.3314 0
      vertex 8.4433 -14.3314 0.4
    endloop
  endfacet
  facet normal 0.929807 -0.368048 0
    outer loop
      vertex 8.4433 -14.3314 0
      vertex 8.411 -14.413 0.4
      vertex 8.411 -14.413 0
    endloop
  endfacet
  facet normal 0.80915 -0.587602 0
    outer loop
      vertex 8.4433 -14.3314 0.4
      vertex 8.49486 -14.2604 0
      vertex 8.49486 -14.2604 0.4
    endloop
  endfacet
  facet normal 0.80915 -0.587602 0
    outer loop
      vertex 8.49486 -14.2604 0
      vertex 8.4433 -14.3314 0.4
      vertex 8.4433 -14.3314 0
    endloop
  endfacet
  facet normal 0.63732 -0.770599 0
    outer loop
      vertex 8.49486 -14.2604 0
      vertex 8.56245 -14.2045 0.4
      vertex 8.49486 -14.2604 0.4
    endloop
  endfacet
  facet normal 0.63732 -0.770599 0
    outer loop
      vertex 8.56245 -14.2045 0.4
      vertex 8.49486 -14.2604 0
      vertex 8.56245 -14.2045 0
    endloop
  endfacet
  facet normal 0.426126 -0.904664 0
    outer loop
      vertex 8.56245 -14.2045 0
      vertex 8.64185 -14.1671 0.4
      vertex 8.56245 -14.2045 0.4
    endloop
  endfacet
  facet normal 0.426126 -0.904664 0
    outer loop
      vertex 8.64185 -14.1671 0.4
      vertex 8.56245 -14.2045 0
      vertex 8.64185 -14.1671 0
    endloop
  endfacet
  facet normal 0.156174 -0.98773 0
    outer loop
      vertex 8.64185 -14.1671 0
      vertex 8.75 -14.15 0.4
      vertex 8.64185 -14.1671 0.4
    endloop
  endfacet
  facet normal 0.156174 -0.98773 0
    outer loop
      vertex 8.75 -14.15 0.4
      vertex 8.64185 -14.1671 0
      vertex 8.75 -14.15 0
    endloop
  endfacet
  facet normal 0 -1 0
    outer loop
      vertex 8.75 -14.15 0
      vertex 9.98982 -14.15 0.4
      vertex 8.75 -14.15 0.4
    endloop
  endfacet
  facet normal 0 -1 -0
    outer loop
      vertex 9.98982 -14.15 0.4
      vertex 8.75 -14.15 0
      vertex 9.98982 -14.15 0
    endloop
  endfacet
  facet normal 0.80752 -0.589841 0
    outer loop
      vertex 9.98982 -14.15 0.4
      vertex 9.99486 -14.1431 0
      vertex 9.99486 -14.1431 0.4
    endloop
  endfacet
  facet normal 0.80752 -0.589841 0
    outer loop
      vertex 9.99486 -14.1431 0
      vertex 9.98982 -14.15 0.4
      vertex 9.98982 -14.15 0
    endloop
  endfacet
  facet normal 0.637717 -0.770271 0
    outer loop
      vertex 9.99486 -14.1431 0
      vertex 10.0625 -14.0871 0.4
      vertex 9.99486 -14.1431 0.4
    endloop
  endfacet
  facet normal 0.637717 -0.770271 0
    outer loop
      vertex 10.0625 -14.0871 0.4
      vertex 9.99486 -14.1431 0
      vertex 10.0625 -14.0871 0
    endloop
  endfacet
  facet normal 0.425632 -0.904896 0
    outer loop
      vertex 10.0625 -14.0871 0
      vertex 10.1418 -14.0498 0.4
      vertex 10.0625 -14.0871 0.4
    endloop
  endfacet
  facet normal 0.425632 -0.904896 0
    outer loop
      vertex 10.1418 -14.0498 0.4
      vertex 10.0625 -14.0871 0
      vertex 10.1418 -14.0498 0
    endloop
  endfacet
  facet normal 0.125723 -0.992065 0
    outer loop
      vertex 10.1418 -14.0498 0
      vertex 10.272 -14.0333 0.4
      vertex 10.1418 -14.0498 0.4
    endloop
  endfacet
  facet normal 0.125723 -0.992065 0
    outer loop
      vertex 10.272 -14.0333 0.4
      vertex 10.1418 -14.0498 0
      vertex 10.272 -14.0333 0
    endloop
  endfacet
  facet normal -0.0628194 -0.998025 0
    outer loop
      vertex 10.272 -14.0333 0
      vertex 11.6383 -14.1193 0.4
      vertex 10.272 -14.0333 0.4
    endloop
  endfacet
  facet normal -0.0628194 -0.998025 -0
    outer loop
      vertex 11.6383 -14.1193 0.4
      vertex 10.272 -14.0333 0
      vertex 11.6383 -14.1193 0
    endloop
  endfacet
  facet normal 0.187383 -0.982287 0
    outer loop
      vertex 11.6383 -14.1193 0
      vertex 15.1217 -13.4548 0.4
      vertex 11.6383 -14.1193 0.4
    endloop
  endfacet
  facet normal 0.187383 -0.982287 0
    outer loop
      vertex 15.1217 -13.4548 0.4
      vertex 11.6383 -14.1193 0
      vertex 15.1217 -13.4548 0
    endloop
  endfacet
  facet normal 0.425769 -0.904832 0
    outer loop
      vertex 15.1217 -13.4548 0
      vertex 18.3305 -11.9449 0.4
      vertex 15.1217 -13.4548 0.4
    endloop
  endfacet
  facet normal 0.425769 -0.904832 0
    outer loop
      vertex 18.3305 -11.9449 0.4
      vertex 15.1217 -13.4548 0
      vertex 18.3305 -11.9449 0
    endloop
  endfacet
  facet normal 0.637434 -0.770505 0
    outer loop
      vertex 18.3305 -11.9449 0
      vertex 21.0629 -9.6844 0.4
      vertex 18.3305 -11.9449 0.4
    endloop
  endfacet
  facet normal 0.637434 -0.770505 0
    outer loop
      vertex 21.0629 -9.6844 0.4
      vertex 18.3305 -11.9449 0
      vertex 21.0629 -9.6844 0
    endloop
  endfacet
  facet normal 0.809015 -0.587788 0
    outer loop
      vertex 21.0629 -9.6844 0.4
      vertex 23.1473 -6.81549 0
      vertex 23.1473 -6.81549 0.4
    endloop
  endfacet
  facet normal 0.809015 -0.587788 0
    outer loop
      vertex 23.1473 -6.81549 0
      vertex 21.0629 -9.6844 0.4
      vertex 21.0629 -9.6844 0
    endloop
  endfacet
  facet normal 0.929782 -0.36811 0
    outer loop
      vertex 23.1473 -6.81549 0.4
      vertex 24.4527 -3.51828 0
      vertex 24.4527 -3.51828 0.4
    endloop
  endfacet
  facet normal 0.929782 -0.36811 0
    outer loop
      vertex 24.4527 -3.51828 0
      vertex 23.1473 -6.81549 0.4
      vertex 23.1473 -6.81549 0
    endloop
  endfacet
  facet normal 0.992113 -0.125344 0
    outer loop
      vertex 24.4527 -3.51828 0.4
      vertex 24.8972 0 0
      vertex 24.8972 0 0.4
    endloop
  endfacet
  facet normal 0.992113 -0.125344 0
    outer loop
      vertex 24.8972 0 0
      vertex 24.4527 -3.51828 0.4
      vertex 24.4527 -3.51828 0
    endloop
  endfacet
  facet normal 0.992113 0.125344 0
    outer loop
      vertex 24.8972 0 0.4
      vertex 24.4527 3.51828 0
      vertex 24.4527 3.51828 0.4
    endloop
  endfacet
  facet normal 0.992113 0.125344 0
    outer loop
      vertex 24.4527 3.51828 0
      vertex 24.8972 0 0.4
      vertex 24.8972 0 0
    endloop
  endfacet
  facet normal 0.929782 0.36811 0
    outer loop
      vertex 24.4527 3.51828 0.4
      vertex 23.1473 6.81549 0
      vertex 23.1473 6.81549 0.4
    endloop
  endfacet
  facet normal 0.929782 0.36811 0
    outer loop
      vertex 23.1473 6.81549 0
      vertex 24.4527 3.51828 0.4
      vertex 24.4527 3.51828 0
    endloop
  endfacet
  facet normal 0.809015 0.587788 0
    outer loop
      vertex 23.1473 6.81549 0.4
      vertex 21.0629 9.6844 0
      vertex 21.0629 9.6844 0.4
    endloop
  endfacet
  facet normal 0.809015 0.587788 0
    outer loop
      vertex 21.0629 9.6844 0
      vertex 23.1473 6.81549 0.4
      vertex 23.1473 6.81549 0
    endloop
  endfacet
  facet normal 0.637434 0.770505 -0
    outer loop
      vertex 21.0629 9.6844 0
      vertex 18.3305 11.9449 0.4
      vertex 21.0629 9.6844 0.4
    endloop
  endfacet
  facet normal 0.637434 0.770505 0
    outer loop
      vertex 18.3305 11.9449 0.4
      vertex 21.0629 9.6844 0
      vertex 18.3305 11.9449 0
    endloop
  endfacet
  facet normal 0.425769 0.904832 -0
    outer loop
      vertex 18.3305 11.9449 0
      vertex 15.1217 13.4548 0.4
      vertex 18.3305 11.9449 0.4
    endloop
  endfacet
  facet normal 0.425769 0.904832 0
    outer loop
      vertex 15.1217 13.4548 0.4
      vertex 18.3305 11.9449 0
      vertex 15.1217 13.4548 0
    endloop
  endfacet
  facet normal 0.187383 0.982287 -0
    outer loop
      vertex 15.1217 13.4548 0
      vertex 11.6383 14.1193 0.4
      vertex 15.1217 13.4548 0.4
    endloop
  endfacet
  facet normal 0.187383 0.982287 0
    outer loop
      vertex 11.6383 14.1193 0.4
      vertex 15.1217 13.4548 0
      vertex 11.6383 14.1193 0
    endloop
  endfacet
  facet normal -0.0628194 0.998025 0
    outer loop
      vertex 11.6383 14.1193 0
      vertex 10.272 14.0333 0.4
      vertex 11.6383 14.1193 0.4
    endloop
  endfacet
  facet normal -0.0628194 0.998025 0
    outer loop
      vertex 10.272 14.0333 0.4
      vertex 11.6383 14.1193 0
      vertex 10.272 14.0333 0
    endloop
  endfacet
  facet normal 0.062662 0.998035 -0
    outer loop
      vertex 10.272 14.0333 0
      vertex 10.1844 14.0388 0.4
      vertex 10.272 14.0333 0.4
    endloop
  endfacet
  facet normal 0.062662 0.998035 0
    outer loop
      vertex 10.1844 14.0388 0.4
      vertex 10.272 14.0333 0
      vertex 10.1844 14.0388 0
    endloop
  endfacet
  facet normal 0.310065 0.950715 -0
    outer loop
      vertex 10.1844 14.0388 0
      vertex 10.101 14.066 0.4
      vertex 10.1844 14.0388 0.4
    endloop
  endfacet
  facet normal 0.310065 0.950715 0
    outer loop
      vertex 10.101 14.066 0.4
      vertex 10.1844 14.0388 0
      vertex 10.101 14.066 0
    endloop
  endfacet
  facet normal 0.535621 0.844458 -0
    outer loop
      vertex 10.101 14.066 0
      vertex 10.0269 14.113 0.4
      vertex 10.101 14.066 0.4
    endloop
  endfacet
  facet normal 0.535621 0.844458 0
    outer loop
      vertex 10.0269 14.113 0.4
      vertex 10.101 14.066 0
      vertex 10.0269 14.113 0
    endloop
  endfacet
  facet normal 0.728726 0.684805 0
    outer loop
      vertex 10.0269 14.113 0.4
      vertex 9.99213 14.15 0
      vertex 9.99213 14.15 0.4
    endloop
  endfacet
  facet normal 0.728726 0.684805 0
    outer loop
      vertex 9.99213 14.15 0
      vertex 10.0269 14.113 0.4
      vertex 10.0269 14.113 0
    endloop
  endfacet
  facet normal 0 1 -0
    outer loop
      vertex 9.99213 14.15 0
      vertex 8.75 14.15 0.4
      vertex 9.99213 14.15 0.4
    endloop
  endfacet
  facet normal 0 1 0
    outer loop
      vertex 8.75 14.15 0.4
      vertex 9.99213 14.15 0
      vertex 8.75 14.15 0
    endloop
  endfacet
  facet normal 0.125381 0.992109 -0
    outer loop
      vertex 8.75 14.15 0
      vertex 8.66296 14.161 0.4
      vertex 8.75 14.15 0.4
    endloop
  endfacet
  facet normal 0.125381 0.992109 0
    outer loop
      vertex 8.66296 14.161 0.4
      vertex 8.75 14.15 0
      vertex 8.66296 14.161 0
    endloop
  endfacet
  facet normal 0.368165 0.92976 -0
    outer loop
      vertex 8.66296 14.161 0
      vertex 8.58139 14.1933 0.4
      vertex 8.66296 14.161 0.4
    endloop
  endfacet
  facet normal 0.368165 0.92976 0
    outer loop
      vertex 8.58139 14.1933 0.4
      vertex 8.66296 14.161 0
      vertex 8.58139 14.1933 0
    endloop
  endfacet
  facet normal 0.588009 0.808854 -0
    outer loop
      vertex 8.58139 14.1933 0
      vertex 8.51041 14.2449 0.4
      vertex 8.58139 14.1933 0.4
    endloop
  endfacet
  facet normal 0.588009 0.808854 0
    outer loop
      vertex 8.51041 14.2449 0.4
      vertex 8.58139 14.1933 0
      vertex 8.51041 14.2449 0
    endloop
  endfacet
  facet normal 0.770477 0.637467 0
    outer loop
      vertex 8.51041 14.2449 0.4
      vertex 8.45448 14.3125 0
      vertex 8.45448 14.3125 0.4
    endloop
  endfacet
  facet normal 0.770477 0.637467 0
    outer loop
      vertex 8.45448 14.3125 0
      vertex 8.51041 14.2449 0.4
      vertex 8.51041 14.2449 0
    endloop
  endfacet
  facet normal 0.904676 0.426099 0
    outer loop
      vertex 8.45448 14.3125 0.4
      vertex 8.41713 14.3918 0
      vertex 8.41713 14.3918 0.4
    endloop
  endfacet
  facet normal 0.904676 0.426099 0
    outer loop
      vertex 8.41713 14.3918 0
      vertex 8.45448 14.3125 0.4
      vertex 8.45448 14.3125 0
    endloop
  endfacet
  facet normal 0.987684 0.156459 0
    outer loop
      vertex 8.41713 14.3918 0.4
      vertex 8.39999 14.5 0
      vertex 8.39999 14.5 0.4
    endloop
  endfacet
  facet normal 0.987684 0.156459 0
    outer loop
      vertex 8.39999 14.5 0
      vertex 8.41713 14.3918 0.4
      vertex 8.41713 14.3918 0
    endloop
  endfacet
  facet normal 1 -0 0
    outer loop
      vertex 8.39999 14.5 0.4
      vertex 8.39999 24.15 0
      vertex 8.39999 24.15 0.4
    endloop
  endfacet
  facet normal 1 0 0
    outer loop
      vertex 8.39999 24.15 0
      vertex 8.39999 14.5 0.4
      vertex 8.39999 14.5 0
    endloop
  endfacet
  facet normal 0 1 -0
    outer loop
      vertex 8.39999 24.15 0
      vertex -0.899994 24.15 0.4
      vertex 8.39999 24.15 0.4
    endloop
  endfacet
  facet normal 0 1 0
    outer loop
      vertex -0.899994 24.15 0.4
      vertex 8.39999 24.15 0
      vertex -0.899994 24.15 0
    endloop
  endfacet
  facet normal -1 0 0
    outer loop
      vertex -0.899994 14.5 0
      vertex -0.899994 24.15 0.4
      vertex -0.899994 24.15 0
    endloop
  endfacet
  facet normal -1 -0 0
    outer loop
      vertex -0.899994 24.15 0.4
      vertex -0.899994 14.5 0
      vertex -0.899994 14.5 0.4
    endloop
  endfacet
  facet normal -0.9921 0.125449 0
    outer loop
      vertex -0.910995 14.413 0
      vertex -0.899994 14.5 0.4
      vertex -0.899994 14.5 0
    endloop
  endfacet
  facet normal -0.9921 0.125449 0
    outer loop
      vertex -0.899994 14.5 0.4
      vertex -0.910995 14.413 0
      vertex -0.910995 14.413 0.4
    endloop
  endfacet
  facet normal -0.929795 0.368078 0
    outer loop
      vertex -0.943298 14.3314 0
      vertex -0.910995 14.413 0.4
      vertex -0.910995 14.413 0
    endloop
  endfacet
  facet normal -0.929795 0.368078 0
    outer loop
      vertex -0.910995 14.413 0.4
      vertex -0.943298 14.3314 0
      vertex -0.943298 14.3314 0.4
    endloop
  endfacet
  facet normal -0.80915 0.587602 0
    outer loop
      vertex -0.994858 14.2604 0
      vertex -0.943298 14.3314 0.4
      vertex -0.943298 14.3314 0
    endloop
  endfacet
  facet normal -0.80915 0.587602 0
    outer loop
      vertex -0.943298 14.3314 0.4
      vertex -0.994858 14.2604 0
      vertex -0.994858 14.2604 0.4
    endloop
  endfacet
  facet normal -0.637309 0.770608 0
    outer loop
      vertex -0.994858 14.2604 0
      vertex -1.06245 14.2045 0.4
      vertex -0.994858 14.2604 0.4
    endloop
  endfacet
  facet normal -0.637309 0.770608 0
    outer loop
      vertex -1.06245 14.2045 0.4
      vertex -0.994858 14.2604 0
      vertex -1.06245 14.2045 0
    endloop
  endfacet
  facet normal -0.426126 0.904664 0
    outer loop
      vertex -1.06245 14.2045 0
      vertex -1.14185 14.1671 0.4
      vertex -1.06245 14.2045 0.4
    endloop
  endfacet
  facet normal -0.426126 0.904664 0
    outer loop
      vertex -1.14185 14.1671 0.4
      vertex -1.06245 14.2045 0
      vertex -1.14185 14.1671 0
    endloop
  endfacet
  facet normal -0.156174 0.98773 0
    outer loop
      vertex -1.14185 14.1671 0
      vertex -1.25 14.15 0.4
      vertex -1.14185 14.1671 0.4
    endloop
  endfacet
  facet normal -0.156174 0.98773 0
    outer loop
      vertex -1.25 14.15 0.4
      vertex -1.14185 14.1671 0
      vertex -1.25 14.15 0
    endloop
  endfacet
  facet normal 0 1 -0
    outer loop
      vertex -1.25 14.15 0
      vertex -9.89999 14.15 0.4
      vertex -1.25 14.15 0.4
    endloop
  endfacet
  facet normal 0 1 0
    outer loop
      vertex -9.89999 14.15 0.4
      vertex -1.25 14.15 0
      vertex -9.89999 14.15 0
    endloop
  endfacet
  facet normal -1 0 0
    outer loop
      vertex -9.89999 -14.15 0
      vertex -9.89999 14.15 0.4
      vertex -9.89999 14.15 0
    endloop
  endfacet
  facet normal -1 -0 0
    outer loop
      vertex -9.89999 14.15 0.4
      vertex -9.89999 -14.15 0
      vertex -9.89999 -14.15 0.4
    endloop
  endfacet
  facet normal 0 -1 0
    outer loop
      vertex -9.89999 -14.15 0
      vertex -1.25 -14.15 0.4
      vertex -9.89999 -14.15 0.4
    endloop
  endfacet
  facet normal 0 -1 -0
    outer loop
      vertex -1.25 -14.15 0.4
      vertex -9.89999 -14.15 0
      vertex -1.25 -14.15 0
    endloop
  endfacet
  facet normal -0.125381 -0.992109 0
    outer loop
      vertex -1.25 -14.15 0
      vertex -1.16296 -14.161 0.4
      vertex -1.25 -14.15 0.4
    endloop
  endfacet
  facet normal -0.125381 -0.992109 -0
    outer loop
      vertex -1.16296 -14.161 0.4
      vertex -1.25 -14.15 0
      vertex -1.16296 -14.161 0
    endloop
  endfacet
  facet normal -0.368165 -0.92976 0
    outer loop
      vertex -1.16296 -14.161 0
      vertex -1.08139 -14.1933 0.4
      vertex -1.16296 -14.161 0.4
    endloop
  endfacet
  facet normal -0.368165 -0.92976 -0
    outer loop
      vertex -1.08139 -14.1933 0.4
      vertex -1.16296 -14.161 0
      vertex -1.08139 -14.1933 0
    endloop
  endfacet
  facet normal -0.588009 -0.808854 0
    outer loop
      vertex -1.08139 -14.1933 0
      vertex -1.01041 -14.2449 0.4
      vertex -1.08139 -14.1933 0.4
    endloop
  endfacet
  facet normal -0.588009 -0.808854 -0
    outer loop
      vertex -1.01041 -14.2449 0.4
      vertex -1.08139 -14.1933 0
      vertex -1.01041 -14.2449 0
    endloop
  endfacet
  facet normal -0.770494 -0.637447 0
    outer loop
      vertex -0.954483 -14.3125 0
      vertex -1.01041 -14.2449 0.4
      vertex -1.01041 -14.2449 0
    endloop
  endfacet
  facet normal -0.770494 -0.637447 0
    outer loop
      vertex -1.01041 -14.2449 0.4
      vertex -0.954483 -14.3125 0
      vertex -0.954483 -14.3125 0.4
    endloop
  endfacet
  facet normal -0.904663 -0.426127 0
    outer loop
      vertex -0.91713 -14.3918 0
      vertex -0.954483 -14.3125 0.4
      vertex -0.954483 -14.3125 0
    endloop
  endfacet
  facet normal -0.904663 -0.426127 0
    outer loop
      vertex -0.954483 -14.3125 0.4
      vertex -0.91713 -14.3918 0
      vertex -0.91713 -14.3918 0.4
    endloop
  endfacet
  facet normal -0.98769 -0.156424 0
    outer loop
      vertex -0.899994 -14.5 0
      vertex -0.91713 -14.3918 0.4
      vertex -0.91713 -14.3918 0
    endloop
  endfacet
  facet normal -0.98769 -0.156424 0
    outer loop
      vertex -0.91713 -14.3918 0.4
      vertex -0.899994 -14.5 0
      vertex -0.899994 -14.5 0.4
    endloop
  endfacet
  facet normal -1 0 0
    outer loop
      vertex -0.899994 -24.15 0
      vertex -0.899994 -14.5 0.4
      vertex -0.899994 -14.5 0
    endloop
  endfacet
  facet normal -1 -0 0
    outer loop
      vertex -0.899994 -14.5 0.4
      vertex -0.899994 -24.15 0
      vertex -0.899994 -24.15 0.4
    endloop
  endfacet
  facet normal 0 -1 0
    outer loop
      vertex -0.899994 -24.15 0
      vertex 8.39999 -24.15 0.4
      vertex -0.899994 -24.15 0.4
    endloop
  endfacet
  facet normal 0 -1 -0
    outer loop
      vertex 8.39999 -24.15 0.4
      vertex -0.899994 -24.15 0
      vertex 8.39999 -24.15 0
    endloop
  endfacet
  facet normal 1 -0 0
    outer loop
      vertex 8.39999 -24.15 0.4
      vertex 8.39999 -14.5 0
      vertex 8.39999 -14.5 0.4
    endloop
  endfacet
  facet normal 1 0 0
    outer loop
      vertex 8.39999 -14.5 0
      vertex 8.39999 -24.15 0.4
      vertex 8.39999 -24.15 0
    endloop
  endfacet
endsolid OpenSCAD_Model
