  0
SECTION
  2
BLOCKS
  0
ENDSEC
  0
SECTION
  2
ENTITIES
  0
LINE
  8
0
 10
-1.25
 20
-38.5
 11
47.25
 21
-38.5
  0
LINE
  8
0
 10
47.25
 20
-38.5
 11
47.25
 21
38.5
  0
LINE
  8
0
 10
47.25
 20
38.5
 11
-1.25
 21
38.5
  0
LINE
  8
0
 10
-1.25
 20
38.5
 11
-1.25
 21
39.5
  0
LINE
  8
0
 10
-1.25
 20
39.5
 11
-21.25
 21
39.5
  0
LINE
  8
0
 10
-21.25
 20
39.5
 11
-21.25
 21
38.5
  0
LINE
  8
0
 10
-21.25
 20
38.5
 11
-88.75
 21
38.5
  0
LINE
  8
0
 10
-88.75
 20
38.5
 11
-88.75
 21
-38.5
  0
LINE
  8
0
 10
-88.75
 20
-38.5
 11
-21.25
 21
-38.5
  0
LINE
  8
0
 10
-21.25
 20
-38.5
 11
-21.25
 21
-39.5
  0
LINE
  8
0
 10
-21.25
 20
-39.5
 11
-1.25
 21
-39.5
  0
LINE
  8
0
 10
-1.25
 20
-39.5
 11
-1.25
 21
-38.5
  0
LINE
  8
0
 10
1752
 20
-39
 11
1813
 21
-39
  0
LINE
  8
0
 10
1813
 20
-39
 11
1814.24
 21
-38.8429
  0
LINE
  8
0
 10
1814.24
 20
-38.8429
 11
1815.41
 21
-38.3815
  0
LINE
  8
0
 10
1815.41
 20
-38.3815
 11
1816.42
 21
-37.6448
  0
LINE
  8
0
 10
1816.42
 20
-37.6448
 11
1817.22
 21
-36.6791
  0
LINE
  8
0
 10
1817.22
 20
-36.6791
 11
1817.76
 21
-35.5451
  0
LINE
  8
0
 10
1817.76
 20
-35.5451
 11
1818
 21
-34
  0
LINE
  8
0
 10
1818
 20
-34
 11
1818
 21
34
  0
LINE
  8
0
 10
1818
 20
34
 11
1817.84
 21
35.2435
  0
LINE
  8
0
 10
1817.84
 20
35.2435
 11
1817.38
 21
36.4088
  0
LINE
  8
0
 10
1817.38
 20
36.4088
 11
1816.64
 21
37.4227
  0
LINE
  8
0
 10
1816.64
 20
37.4227
 11
1815.68
 21
38.2216
  0
LINE
  8
0
 10
1815.68
 20
38.2216
 11
1814.55
 21
38.7553
  0
LINE
  8
0
 10
1814.55
 20
38.7553
 11
1813
 21
39
  0
LINE
  8
0
 10
1813
 20
39
 11
1752
 21
39
  0
LINE
  8
0
 10
1752
 20
39
 11
1752
 21
39.5
  0
LINE
  8
0
 10
1752
 20
39.5
 11
1732
 21
39.5
  0
LINE
  8
0
 10
1732
 20
39.5
 11
1732
 21
39
  0
LINE
  8
0
 10
1732
 20
39
 11
1718
 21
39
  0
LINE
  8
0
 10
1718
 20
39
 11
1716.76
 21
38.8429
  0
LINE
  8
0
 10
1716.76
 20
38.8429
 11
1715.59
 21
38.3815
  0
LINE
  8
0
 10
1715.59
 20
38.3815
 11
1714.58
 21
37.6448
  0
LINE
  8
0
 10
1714.58
 20
37.6448
 11
1713.78
 21
36.6791
  0
LINE
  8
0
 10
1713.78
 20
36.6791
 11
1713.24
 21
35.5451
  0
LINE
  8
0
 10
1713.24
 20
35.5451
 11
1713
 21
34
  0
LINE
  8
0
 10
1713
 20
34
 11
1713
 21
-34
  0
LINE
  8
0
 10
1713
 20
-34
 11
1713.16
 21
-35.2435
  0
LINE
  8
0
 10
1713.16
 20
-35.2435
 11
1713.62
 21
-36.4088
  0
LINE
  8
0
 10
1713.62
 20
-36.4088
 11
1714.36
 21
-37.4227
  0
LINE
  8
0
 10
1714.36
 20
-37.4227
 11
1715.32
 21
-38.2216
  0
LINE
  8
0
 10
1715.32
 20
-38.2216
 11
1716.45
 21
-38.7553
  0
LINE
  8
0
 10
1716.45
 20
-38.7553
 11
1718
 21
-39
  0
LINE
  8
0
 10
1718
 20
-39
 11
1732
 21
-39
  0
LINE
  8
0
 10
1732
 20
-39
 11
1732
 21
-39.5
  0
LINE
  8
0
 10
1732
 20
-39.5
 11
1752
 21
-39.5
  0
LINE
  8
0
 10
1752
 20
-39.5
 11
1752
 21
-39
  0
LINE
  8
0
 10
1809.44
 20
22.0531
 11
1808.72
 21
22.2855
  0
LINE
  8
0
 10
1808.72
 20
22.2855
 11
1808.09
 21
22.6884
  0
LINE
  8
0
 10
1808.09
 20
22.6884
 11
1807.57
 21
23.2366
  0
LINE
  8
0
 10
1807.57
 20
23.2366
 11
1807.21
 21
23.8956
  0
LINE
  8
0
 10
1807.21
 20
23.8956
 11
1807.02
 21
24.624
  0
LINE
  8
0
 10
1807.02
 20
24.624
 11
1807.02
 21
25.376
  0
LINE
  8
0
 10
1807.02
 20
25.376
 11
1807.21
 21
26.1044
  0
LINE
  8
0
 10
1807.21
 20
26.1044
 11
1807.57
 21
26.7634
  0
LINE
  8
0
 10
1807.57
 20
26.7634
 11
1808.09
 21
27.3115
  0
LINE
  8
0
 10
1808.09
 20
27.3115
 11
1808.72
 21
27.7145
  0
LINE
  8
0
 10
1808.72
 20
27.7145
 11
1809.44
 21
27.9469
  0
LINE
  8
0
 10
1809.44
 20
27.9469
 11
1810.19
 21
27.9941
  0
LINE
  8
0
 10
1810.19
 20
27.9941
 11
1810.93
 21
27.8532
  0
LINE
  8
0
 10
1810.93
 20
27.8532
 11
1811.61
 21
27.533
  0
LINE
  8
0
 10
1811.61
 20
27.533
 11
1812.19
 21
27.0536
  0
LINE
  8
0
 10
1812.19
 20
27.0536
 11
1812.63
 21
26.4453
  0
LINE
  8
0
 10
1812.63
 20
26.4453
 11
1812.91
 21
25.7461
  0
LINE
  8
0
 10
1812.91
 20
25.7461
 11
1813
 21
25
  0
LINE
  8
0
 10
1813
 20
25
 11
1812.91
 21
24.2539
  0
LINE
  8
0
 10
1812.91
 20
24.2539
 11
1812.63
 21
23.5547
  0
LINE
  8
0
 10
1812.63
 20
23.5547
 11
1812.19
 21
22.9464
  0
LINE
  8
0
 10
1812.19
 20
22.9464
 11
1811.61
 21
22.467
  0
LINE
  8
0
 10
1811.61
 20
22.467
 11
1810.93
 21
22.1468
  0
LINE
  8
0
 10
1810.93
 20
22.1468
 11
1810.19
 21
22.0059
  0
LINE
  8
0
 10
1810.19
 20
22.0059
 11
1809.44
 21
22.0531
  0
LINE
  8
0
 10
1764.72
 20
16.5266
 11
1764.36
 21
16.6427
  0
LINE
  8
0
 10
1764.36
 20
16.6427
 11
1764.04
 21
16.8442
  0
LINE
  8
0
 10
1764.04
 20
16.8442
 11
1763.79
 21
17.1183
  0
LINE
  8
0
 10
1763.79
 20
17.1183
 11
1763.61
 21
17.4478
  0
LINE
  8
0
 10
1763.61
 20
17.4478
 11
1763.51
 21
17.812
  0
LINE
  8
0
 10
1763.51
 20
17.812
 11
1763.51
 21
18.188
  0
LINE
  8
0
 10
1763.51
 20
18.188
 11
1763.61
 21
18.5522
  0
LINE
  8
0
 10
1763.61
 20
18.5522
 11
1763.79
 21
18.8817
  0
LINE
  8
0
 10
1763.79
 20
18.8817
 11
1764.04
 21
19.1558
  0
LINE
  8
0
 10
1764.04
 20
19.1558
 11
1764.36
 21
19.3572
  0
LINE
  8
0
 10
1764.36
 20
19.3572
 11
1764.72
 21
19.4734
  0
LINE
  8
0
 10
1764.72
 20
19.4734
 11
1765.09
 21
19.497
  0
LINE
  8
0
 10
1765.09
 20
19.497
 11
1765.46
 21
19.4266
  0
LINE
  8
0
 10
1765.46
 20
19.4266
 11
1765.8
 21
19.2665
  0
LINE
  8
0
 10
1765.8
 20
19.2665
 11
1766.09
 21
19.0268
  0
LINE
  8
0
 10
1766.09
 20
19.0268
 11
1766.31
 21
18.7226
  0
LINE
  8
0
 10
1766.31
 20
18.7226
 11
1766.45
 21
18.373
  0
LINE
  8
0
 10
1766.45
 20
18.373
 11
1766.5
 21
18
  0
LINE
  8
0
 10
1766.5
 20
18
 11
1766.45
 21
17.627
  0
LINE
  8
0
 10
1766.45
 20
17.627
 11
1766.31
 21
17.2774
  0
LINE
  8
0
 10
1766.31
 20
17.2774
 11
1766.09
 21
16.9732
  0
LINE
  8
0
 10
1766.09
 20
16.9732
 11
1765.8
 21
16.7335
  0
LINE
  8
0
 10
1765.8
 20
16.7335
 11
1765.46
 21
16.5734
  0
LINE
  8
0
 10
1765.46
 20
16.5734
 11
1765.09
 21
16.503
  0
LINE
  8
0
 10
1765.09
 20
16.503
 11
1764.72
 21
16.5266
  0
LINE
  8
0
 10
1809.44
 20
12.0531
 11
1808.72
 21
12.2855
  0
LINE
  8
0
 10
1808.72
 20
12.2855
 11
1808.09
 21
12.6884
  0
LINE
  8
0
 10
1808.09
 20
12.6884
 11
1807.57
 21
13.2366
  0
LINE
  8
0
 10
1807.57
 20
13.2366
 11
1807.21
 21
13.8956
  0
LINE
  8
0
 10
1807.21
 20
13.8956
 11
1807.02
 21
14.624
  0
LINE
  8
0
 10
1807.02
 20
14.624
 11
1807.02
 21
15.376
  0
LINE
  8
0
 10
1807.02
 20
15.376
 11
1807.21
 21
16.1044
  0
LINE
  8
0
 10
1807.21
 20
16.1044
 11
1807.57
 21
16.7634
  0
LINE
  8
0
 10
1807.57
 20
16.7634
 11
1808.09
 21
17.3115
  0
LINE
  8
0
 10
1808.09
 20
17.3115
 11
1808.72
 21
17.7145
  0
LINE
  8
0
 10
1808.72
 20
17.7145
 11
1809.44
 21
17.9469
  0
LINE
  8
0
 10
1809.44
 20
17.9469
 11
1810.19
 21
17.9941
  0
LINE
  8
0
 10
1810.19
 20
17.9941
 11
1810.93
 21
17.8532
  0
LINE
  8
0
 10
1810.93
 20
17.8532
 11
1811.61
 21
17.533
  0
LINE
  8
0
 10
1811.61
 20
17.533
 11
1812.19
 21
17.0536
  0
LINE
  8
0
 10
1812.19
 20
17.0536
 11
1812.63
 21
16.4453
  0
LINE
  8
0
 10
1812.63
 20
16.4453
 11
1812.91
 21
15.7461
  0
LINE
  8
0
 10
1812.91
 20
15.7461
 11
1813
 21
15
  0
LINE
  8
0
 10
1813
 20
15
 11
1812.91
 21
14.2539
  0
LINE
  8
0
 10
1812.91
 20
14.2539
 11
1812.63
 21
13.5547
  0
LINE
  8
0
 10
1812.63
 20
13.5547
 11
1812.19
 21
12.9464
  0
LINE
  8
0
 10
1812.19
 20
12.9464
 11
1811.61
 21
12.467
  0
LINE
  8
0
 10
1811.61
 20
12.467
 11
1810.93
 21
12.1468
  0
LINE
  8
0
 10
1810.93
 20
12.1468
 11
1810.19
 21
12.0059
  0
LINE
  8
0
 10
1810.19
 20
12.0059
 11
1809.44
 21
12.0531
  0
LINE
  8
0
 10
1743
 20
-14.5
 11
1743
 21
-5.5
  0
LINE
  8
0
 10
1743
 20
-5.5
 11
1738.5
 21
-5.5
  0
LINE
  8
0
 10
1738.5
 20
-5.5
 11
1738.5
 21
-0.5
  0
LINE
  8
0
 10
1738.5
 20
-0.5
 11
1743
 21
-0.5
  0
LINE
  8
0
 10
1743
 20
-0.5
 11
1743
 21
14.5
  0
LINE
  8
0
 10
1743
 20
14.5
 11
1763.5
 21
14.5
  0
LINE
  8
0
 10
1763.5
 20
14.5
 11
1763.5
 21
14.3826
  0
LINE
  8
0
 10
1763.5
 20
14.3826
 11
1764.91
 21
14.4714
  0
LINE
  8
0
 10
1764.91
 20
14.4714
 11
1768.48
 21
13.7903
  0
LINE
  8
0
 10
1768.48
 20
13.7903
 11
1771.77
 21
12.2428
  0
LINE
  8
0
 10
1771.77
 20
12.2428
 11
1774.57
 21
9.92592
  0
LINE
  8
0
 10
1774.57
 20
9.92592
 11
1776.71
 21
6.98543
  0
LINE
  8
0
 10
1776.71
 20
6.98543
 11
1778
 21
3.71828
  0
LINE
  8
0
 10
1778
 20
3.71828
 11
1778
 21
-3.71828
  0
LINE
  8
0
 10
1778
 20
-3.71828
 11
1776.71
 21
-6.98543
  0
LINE
  8
0
 10
1776.71
 20
-6.98543
 11
1774.57
 21
-9.92592
  0
LINE
  8
0
 10
1774.57
 20
-9.92592
 11
1771.77
 21
-12.2428
  0
LINE
  8
0
 10
1771.77
 20
-12.2428
 11
1768.48
 21
-13.7903
  0
LINE
  8
0
 10
1768.48
 20
-13.7903
 11
1764.91
 21
-14.4714
  0
LINE
  8
0
 10
1764.91
 20
-14.4714
 11
1763.5
 21
-14.3826
  0
LINE
  8
0
 10
1763.5
 20
-14.3826
 11
1763.5
 21
-14.5
  0
LINE
  8
0
 10
1763.5
 20
-14.5
 11
1743
 21
-14.5
  0
LINE
  8
0
 10
1809.44
 20
-2.94685
 11
1808.72
 21
-2.71448
  0
LINE
  8
0
 10
1808.72
 20
-2.71448
 11
1808.09
 21
-2.31154
  0
LINE
  8
0
 10
1808.09
 20
-2.31154
 11
1807.57
 21
-1.76335
  0
LINE
  8
0
 10
1807.57
 20
-1.76335
 11
1807.21
 21
-1.10437
  0
LINE
  8
0
 10
1807.21
 20
-1.10437
 11
1807.02
 21
-0.375992
  0
LINE
  8
0
 10
1807.02
 20
-0.375992
 11
1807.02
 21
0.375992
  0
LINE
  8
0
 10
1807.02
 20
0.375992
 11
1807.21
 21
1.10437
  0
LINE
  8
0
 10
1807.21
 20
1.10437
 11
1807.57
 21
1.76335
  0
LINE
  8
0
 10
1807.57
 20
1.76335
 11
1808.09
 21
2.31154
  0
LINE
  8
0
 10
1808.09
 20
2.31154
 11
1808.72
 21
2.71448
  0
LINE
  8
0
 10
1808.72
 20
2.71448
 11
1809.44
 21
2.94685
  0
LINE
  8
0
 10
1809.44
 20
2.94685
 11
1810.19
 21
2.99408
  0
LINE
  8
0
 10
1810.19
 20
2.99408
 11
1810.93
 21
2.85316
  0
LINE
  8
0
 10
1810.93
 20
2.85316
 11
1811.61
 21
2.53297
  0
LINE
  8
0
 10
1811.61
 20
2.53297
 11
1812.19
 21
2.05363
  0
LINE
  8
0
 10
1812.19
 20
2.05363
 11
1812.63
 21
1.44525
  0
LINE
  8
0
 10
1812.63
 20
1.44525
 11
1812.91
 21
0.746063
  0
LINE
  8
0
 10
1812.91
 20
0.746063
 11
1813
 21
0
  0
LINE
  8
0
 10
1813
 20
0
 11
1812.91
 21
-0.746063
  0
LINE
  8
0
 10
1812.91
 20
-0.746063
 11
1812.63
 21
-1.44525
  0
LINE
  8
0
 10
1812.63
 20
-1.44525
 11
1812.19
 21
-2.05363
  0
LINE
  8
0
 10
1812.19
 20
-2.05363
 11
1811.61
 21
-2.53297
  0
LINE
  8
0
 10
1811.61
 20
-2.53297
 11
1810.93
 21
-2.85316
  0
LINE
  8
0
 10
1810.93
 20
-2.85316
 11
1810.19
 21
-2.99408
  0
LINE
  8
0
 10
1810.19
 20
-2.99408
 11
1809.44
 21
-2.94685
  0
LINE
  8
0
 10
1809.44
 20
-17.9469
 11
1808.72
 21
-17.7145
  0
LINE
  8
0
 10
1808.72
 20
-17.7145
 11
1808.09
 21
-17.3115
  0
LINE
  8
0
 10
1808.09
 20
-17.3115
 11
1807.57
 21
-16.7634
  0
LINE
  8
0
 10
1807.57
 20
-16.7634
 11
1807.21
 21
-16.1044
  0
LINE
  8
0
 10
1807.21
 20
-16.1044
 11
1807.02
 21
-15.376
  0
LINE
  8
0
 10
1807.02
 20
-15.376
 11
1807.02
 21
-14.624
  0
LINE
  8
0
 10
1807.02
 20
-14.624
 11
1807.21
 21
-13.8956
  0
LINE
  8
0
 10
1807.21
 20
-13.8956
 11
1807.57
 21
-13.2366
  0
LINE
  8
0
 10
1807.57
 20
-13.2366
 11
1808.09
 21
-12.6884
  0
LINE
  8
0
 10
1808.09
 20
-12.6884
 11
1808.72
 21
-12.2855
  0
LINE
  8
0
 10
1808.72
 20
-12.2855
 11
1809.44
 21
-12.0531
  0
LINE
  8
0
 10
1809.44
 20
-12.0531
 11
1810.19
 21
-12.0059
  0
LINE
  8
0
 10
1810.19
 20
-12.0059
 11
1810.93
 21
-12.1468
  0
LINE
  8
0
 10
1810.93
 20
-12.1468
 11
1811.61
 21
-12.467
  0
LINE
  8
0
 10
1811.61
 20
-12.467
 11
1812.19
 21
-12.9464
  0
LINE
  8
0
 10
1812.19
 20
-12.9464
 11
1812.63
 21
-13.5547
  0
LINE
  8
0
 10
1812.63
 20
-13.5547
 11
1812.91
 21
-14.2539
  0
LINE
  8
0
 10
1812.91
 20
-14.2539
 11
1813
 21
-15
  0
LINE
  8
0
 10
1813
 20
-15
 11
1812.91
 21
-15.7461
  0
LINE
  8
0
 10
1812.91
 20
-15.7461
 11
1812.63
 21
-16.4453
  0
LINE
  8
0
 10
1812.63
 20
-16.4453
 11
1812.19
 21
-17.0536
  0
LINE
  8
0
 10
1812.19
 20
-17.0536
 11
1811.61
 21
-17.533
  0
LINE
  8
0
 10
1811.61
 20
-17.533
 11
1810.93
 21
-17.8532
  0
LINE
  8
0
 10
1810.93
 20
-17.8532
 11
1810.19
 21
-17.9941
  0
LINE
  8
0
 10
1810.19
 20
-17.9941
 11
1809.44
 21
-17.9469
  0
LINE
  8
0
 10
1764.72
 20
-19.4734
 11
1764.36
 21
-19.3572
  0
LINE
  8
0
 10
1764.36
 20
-19.3572
 11
1764.04
 21
-19.1558
  0
LINE
  8
0
 10
1764.04
 20
-19.1558
 11
1763.79
 21
-18.8817
  0
LINE
  8
0
 10
1763.79
 20
-18.8817
 11
1763.61
 21
-18.5522
  0
LINE
  8
0
 10
1763.61
 20
-18.5522
 11
1763.51
 21
-18.188
  0
LINE
  8
0
 10
1763.51
 20
-18.188
 11
1763.51
 21
-17.812
  0
LINE
  8
0
 10
1763.51
 20
-17.812
 11
1763.61
 21
-17.4478
  0
LINE
  8
0
 10
1763.61
 20
-17.4478
 11
1763.79
 21
-17.1183
  0
LINE
  8
0
 10
1763.79
 20
-17.1183
 11
1764.04
 21
-16.8442
  0
LINE
  8
0
 10
1764.04
 20
-16.8442
 11
1764.36
 21
-16.6427
  0
LINE
  8
0
 10
1764.36
 20
-16.6427
 11
1764.72
 21
-16.5266
  0
LINE
  8
0
 10
1764.72
 20
-16.5266
 11
1765.09
 21
-16.503
  0
LINE
  8
0
 10
1765.09
 20
-16.503
 11
1765.46
 21
-16.5734
  0
LINE
  8
0
 10
1765.46
 20
-16.5734
 11
1765.8
 21
-16.7335
  0
LINE
  8
0
 10
1765.8
 20
-16.7335
 11
1766.09
 21
-16.9732
  0
LINE
  8
0
 10
1766.09
 20
-16.9732
 11
1766.31
 21
-17.2774
  0
LINE
  8
0
 10
1766.31
 20
-17.2774
 11
1766.45
 21
-17.627
  0
LINE
  8
0
 10
1766.45
 20
-17.627
 11
1766.5
 21
-18
  0
LINE
  8
0
 10
1766.5
 20
-18
 11
1766.45
 21
-18.373
  0
LINE
  8
0
 10
1766.45
 20
-18.373
 11
1766.31
 21
-18.7226
  0
LINE
  8
0
 10
1766.31
 20
-18.7226
 11
1766.09
 21
-19.0268
  0
LINE
  8
0
 10
1766.09
 20
-19.0268
 11
1765.8
 21
-19.2665
  0
LINE
  8
0
 10
1765.8
 20
-19.2665
 11
1765.46
 21
-19.4266
  0
LINE
  8
0
 10
1765.46
 20
-19.4266
 11
1765.09
 21
-19.497
  0
LINE
  8
0
 10
1765.09
 20
-19.497
 11
1764.72
 21
-19.4734
  0
LINE
  8
0
 10
1809.44
 20
-27.9469
 11
1808.72
 21
-27.7145
  0
LINE
  8
0
 10
1808.72
 20
-27.7145
 11
1808.09
 21
-27.3115
  0
LINE
  8
0
 10
1808.09
 20
-27.3115
 11
1807.57
 21
-26.7634
  0
LINE
  8
0
 10
1807.57
 20
-26.7634
 11
1807.21
 21
-26.1044
  0
LINE
  8
0
 10
1807.21
 20
-26.1044
 11
1807.02
 21
-25.376
  0
LINE
  8
0
 10
1807.02
 20
-25.376
 11
1807.02
 21
-24.624
  0
LINE
  8
0
 10
1807.02
 20
-24.624
 11
1807.21
 21
-23.8956
  0
LINE
  8
0
 10
1807.21
 20
-23.8956
 11
1807.57
 21
-23.2366
  0
LINE
  8
0
 10
1807.57
 20
-23.2366
 11
1808.09
 21
-22.6884
  0
LINE
  8
0
 10
1808.09
 20
-22.6884
 11
1808.72
 21
-22.2855
  0
LINE
  8
0
 10
1808.72
 20
-22.2855
 11
1809.44
 21
-22.0531
  0
LINE
  8
0
 10
1809.44
 20
-22.0531
 11
1810.19
 21
-22.0059
  0
LINE
  8
0
 10
1810.19
 20
-22.0059
 11
1810.93
 21
-22.1468
  0
LINE
  8
0
 10
1810.93
 20
-22.1468
 11
1811.61
 21
-22.467
  0
LINE
  8
0
 10
1811.61
 20
-22.467
 11
1812.19
 21
-22.9464
  0
LINE
  8
0
 10
1812.19
 20
-22.9464
 11
1812.63
 21
-23.5547
  0
LINE
  8
0
 10
1812.63
 20
-23.5547
 11
1812.91
 21
-24.2539
  0
LINE
  8
0
 10
1812.91
 20
-24.2539
 11
1813
 21
-25
  0
LINE
  8
0
 10
1813
 20
-25
 11
1812.91
 21
-25.7461
  0
LINE
  8
0
 10
1812.91
 20
-25.7461
 11
1812.63
 21
-26.4453
  0
LINE
  8
0
 10
1812.63
 20
-26.4453
 11
1812.19
 21
-27.0536
  0
LINE
  8
0
 10
1812.19
 20
-27.0536
 11
1811.61
 21
-27.533
  0
LINE
  8
0
 10
1811.61
 20
-27.533
 11
1810.93
 21
-27.8532
  0
LINE
  8
0
 10
1810.93
 20
-27.8532
 11
1810.19
 21
-27.9941
  0
LINE
  8
0
 10
1810.19
 20
-27.9941
 11
1809.44
 21
-27.9469
  0
LINE
  8
0
 10
334.5
 20
35
 11
338.5
 21
35
  0
LINE
  8
0
 10
338.5
 20
35
 11
338.5
 21
32
  0
LINE
  8
0
 10
338.5
 20
32
 11
345.5
 21
32
  0
LINE
  8
0
 10
345.5
 20
32
 11
345.5
 21
35
  0
LINE
  8
0
 10
345.5
 20
35
 11
349.5
 21
35
  0
LINE
  8
0
 10
349.5
 20
35
 11
349.5
 21
32
  0
LINE
  8
0
 10
349.5
 20
32
 11
352
 21
32
  0
LINE
  8
0
 10
352
 20
32
 11
352
 21
39.5
  0
LINE
  8
0
 10
352
 20
39.5
 11
332
 21
39.5
  0
LINE
  8
0
 10
332
 20
39.5
 11
332
 21
32
  0
LINE
  8
0
 10
332
 20
32
 11
334.5
 21
32
  0
LINE
  8
0
 10
334.5
 20
32
 11
334.5
 21
35
  0
LINE
  8
0
 10
1627.24
 20
-26.3429
 11
1628.41
 21
-25.8815
  0
LINE
  8
0
 10
1628.41
 20
-25.8815
 11
1629.42
 21
-25.1448
  0
LINE
  8
0
 10
1629.42
 20
-25.1448
 11
1630.22
 21
-24.1791
  0
LINE
  8
0
 10
1630.22
 20
-24.1791
 11
1630.76
 21
-23.0451
  0
LINE
  8
0
 10
1630.76
 20
-23.0451
 11
1631
 21
-21.5
  0
LINE
  8
0
 10
1631
 20
-21.5
 11
1631
 21
21.5
  0
LINE
  8
0
 10
1631
 20
21.5
 11
1630.84
 21
22.7435
  0
LINE
  8
0
 10
1630.84
 20
22.7435
 11
1630.38
 21
23.9088
  0
LINE
  8
0
 10
1630.38
 20
23.9088
 11
1629.64
 21
24.9227
  0
LINE
  8
0
 10
1629.64
 20
24.9227
 11
1628.68
 21
25.7216
  0
LINE
  8
0
 10
1628.68
 20
25.7216
 11
1627.55
 21
26.2553
  0
LINE
  8
0
 10
1627.55
 20
26.2553
 11
1626
 21
26.5
  0
LINE
  8
0
 10
1626
 20
26.5
 11
1586
 21
26.5
  0
LINE
  8
0
 10
1586
 20
26.5
 11
1584.76
 21
26.3429
  0
LINE
  8
0
 10
1584.76
 20
26.3429
 11
1583.59
 21
25.8815
  0
LINE
  8
0
 10
1583.59
 20
25.8815
 11
1582.58
 21
25.1448
  0
LINE
  8
0
 10
1582.58
 20
25.1448
 11
1581.78
 21
24.1791
  0
LINE
  8
0
 10
1581.78
 20
24.1791
 11
1581.24
 21
23.0451
  0
LINE
  8
0
 10
1581.24
 20
23.0451
 11
1581
 21
21.5
  0
LINE
  8
0
 10
1581
 20
21.5
 11
1581
 21
-21.5
  0
LINE
  8
0
 10
1581
 20
-21.5
 11
1581.16
 21
-22.7435
  0
LINE
  8
0
 10
1581.16
 20
-22.7435
 11
1581.62
 21
-23.9088
  0
LINE
  8
0
 10
1581.62
 20
-23.9088
 11
1582.36
 21
-24.9227
  0
LINE
  8
0
 10
1582.36
 20
-24.9227
 11
1583.32
 21
-25.7216
  0
LINE
  8
0
 10
1583.32
 20
-25.7216
 11
1584.45
 21
-26.2553
  0
LINE
  8
0
 10
1584.45
 20
-26.2553
 11
1586
 21
-26.5
  0
LINE
  8
0
 10
1586
 20
-26.5
 11
1626
 21
-26.5
  0
LINE
  8
0
 10
1626
 20
-26.5
 11
1627.24
 21
-26.3429
  0
LINE
  8
0
 10
1598.75
 20
-14.5
 11
1598.75
 21
-11.415
  0
LINE
  8
0
 10
1598.75
 20
-11.415
 11
1598.43
 21
-11.3103
  0
LINE
  8
0
 10
1598.43
 20
-11.3103
 11
1595.78
 21
-9.63141
  0
LINE
  8
0
 10
1595.78
 20
-9.63141
 11
1593.64
 21
-7.34731
  0
LINE
  8
0
 10
1593.64
 20
-7.34731
 11
1592.13
 21
-4.60155
  0
LINE
  8
0
 10
1592.13
 20
-4.60155
 11
1591.35
 21
-1.56665
  0
LINE
  8
0
 10
1591.35
 20
-1.56665
 11
1591.35
 21
1.56665
  0
LINE
  8
0
 10
1591.35
 20
1.56665
 11
1592.13
 21
4.60155
  0
LINE
  8
0
 10
1592.13
 20
4.60155
 11
1593.64
 21
7.34731
  0
LINE
  8
0
 10
1593.64
 20
7.34731
 11
1595.78
 21
9.63141
  0
LINE
  8
0
 10
1595.78
 20
9.63141
 11
1598.43
 21
11.3103
  0
LINE
  8
0
 10
1598.43
 20
11.3103
 11
1598.75
 21
11.415
  0
LINE
  8
0
 10
1598.75
 20
11.415
 11
1598.75
 21
14.5
  0
LINE
  8
0
 10
1598.75
 20
14.5
 11
1608.75
 21
14.5
  0
LINE
  8
0
 10
1608.75
 20
14.5
 11
1608.75
 21
11.353
  0
LINE
  8
0
 10
1608.75
 20
11.353
 11
1610.45
 21
10.5541
  0
LINE
  8
0
 10
1610.45
 20
10.5541
 11
1612.86
 21
8.55682
  0
LINE
  8
0
 10
1612.86
 20
8.55682
 11
1614.7
 21
6.02191
  0
LINE
  8
0
 10
1614.7
 20
6.02191
 11
1615.86
 21
3.10861
  0
LINE
  8
0
 10
1615.86
 20
3.10861
 11
1616.25
 21
0
  0
LINE
  8
0
 10
1616.25
 20
0
 11
1615.86
 21
-3.10861
  0
LINE
  8
0
 10
1615.86
 20
-3.10861
 11
1614.7
 21
-6.02191
  0
LINE
  8
0
 10
1614.7
 20
-6.02191
 11
1612.86
 21
-8.55682
  0
LINE
  8
0
 10
1612.86
 20
-8.55682
 11
1610.45
 21
-10.5541
  0
LINE
  8
0
 10
1610.45
 20
-10.5541
 11
1608.75
 21
-11.353
  0
LINE
  8
0
 10
1608.75
 20
-11.353
 11
1608.75
 21
-14.5
  0
LINE
  8
0
 10
1608.75
 20
-14.5
 11
1598.75
 21
-14.5
  0
LINE
  8
0
 10
1617.5
 20
-18.25
 11
1617.5
 21
-15.75
  0
LINE
  8
0
 10
1617.5
 20
-15.75
 11
1622.5
 21
-15.75
  0
LINE
  8
0
 10
1622.5
 20
-15.75
 11
1622.5
 21
-18.25
  0
LINE
  8
0
 10
1622.5
 20
-18.25
 11
1617.5
 21
-18.25
  0
LINE
  8
0
 10
1617.5
 20
-24.25
 11
1617.5
 21
-21.75
  0
LINE
  8
0
 10
1617.5
 20
-21.75
 11
1622.5
 21
-21.75
  0
LINE
  8
0
 10
1622.5
 20
-21.75
 11
1622.5
 21
-24.25
  0
LINE
  8
0
 10
1622.5
 20
-24.25
 11
1617.5
 21
-24.25
  0
LINE
  8
0
 10
352
 20
-32
 11
349.5
 21
-32
  0
LINE
  8
0
 10
349.5
 20
-32
 11
349.5
 21
-35
  0
LINE
  8
0
 10
349.5
 20
-35
 11
345.5
 21
-35
  0
LINE
  8
0
 10
345.5
 20
-35
 11
345.5
 21
-32
  0
LINE
  8
0
 10
345.5
 20
-32
 11
338.5
 21
-32
  0
LINE
  8
0
 10
338.5
 20
-32
 11
338.5
 21
-35
  0
LINE
  8
0
 10
338.5
 20
-35
 11
334.5
 21
-35
  0
LINE
  8
0
 10
334.5
 20
-35
 11
334.5
 21
-32
  0
LINE
  8
0
 10
334.5
 20
-32
 11
332
 21
-32
  0
LINE
  8
0
 10
332
 20
-32
 11
332
 21
-39.5
  0
LINE
  8
0
 10
332
 20
-39.5
 11
352
 21
-39.5
  0
LINE
  8
0
 10
352
 20
-39.5
 11
352
 21
-32
  0
ENDSEC
  0
SECTION
  2
OBJECTS
  0
DICTIONARY
  0
ENDSEC
  0
EOF
