<?xml version="1.0" standalone="no"?>
<!DOCTYPE svg PUBLIC "-//W3C//DTD SVG 1.1//EN" "http://www.w3.org/Graphics/SVG/1.1/DTD/svg11.dtd">
<svg width="90mm" height="78mm" viewBox="-107 -39 90 78" xmlns="http://www.w3.org/2000/svg" version="1.1">
<title>OpenSCAD Model</title>
<path d="
M -20.7565,38.8429 L -19.5912,38.3815 L -18.5773,37.6448 L -17.7784,36.6791 L -17.2447,35.5451 L -17,34
 L -17,-34 L -17.1571,-35.2435 L -17.6185,-36.4088 L -18.3552,-37.4227 L -19.3209,-38.2216 L -20.4549,-38.7553
 L -22,-39 L -102,-39 L -103.243,-38.8429 L -104.409,-38.3815 L -105.423,-37.6448 L -106.222,-36.6791
 L -106.755,-35.5451 L -107,-34 L -107,34 L -106.843,35.2435 L -106.382,36.4088 L -105.645,37.4227
 L -104.679,38.2216 L -103.545,38.7553 L -102,39 L -22,39 z
M -35.2811,-16.5266 L -35.6387,-16.6427 L -35.9561,-16.8442 L -36.2135,-17.1183 L -36.3947,-17.4478 L -36.4882,-17.812
 L -36.4882,-18.188 L -36.3947,-18.5522 L -36.2135,-18.8817 L -35.9561,-19.1558 L -35.6387,-19.3572 L -35.2811,-19.4734
 L -34.9058,-19.497 L -34.5365,-19.4266 L -34.1963,-19.2665 L -33.9065,-19.0268 L -33.6855,-18.7226 L -33.5471,-18.373
 L -33.5,-18 L -33.5471,-17.627 L -33.6855,-17.2774 L -33.9065,-16.9732 L -34.1963,-16.7335 L -34.5365,-16.5734
 L -34.9058,-16.503 z
M -55.5,14 L -55.5,5 L -59.5,5 L -59.5,1 L -55.5,1 L -55.5,-14
 L -36,-14 L -36,-13.9171 L -35.1209,-13.9724 L -31.6738,-13.3148 L -28.4984,-11.8206 L -25.7944,-9.58365
 L -23.7317,-6.74454 L -22.4398,-3.48164 L -22,-0 L -22.4398,3.48164 L -23.7317,6.74454 L -25.7944,9.58365
 L -28.4984,11.8206 L -31.6738,13.3148 L -35.1209,13.9724 L -36,13.9171 L -36,14 z
M -34.9058,19.497 L -35.2811,19.4734 L -35.6387,19.3572 L -35.9561,19.1558 L -36.2135,18.8817 L -36.3947,18.5522
 L -36.4882,18.188 L -36.4882,17.812 L -36.3947,17.4478 L -36.2135,17.1183 L -35.9561,16.8442 L -35.6387,16.6427
 L -35.2811,16.5266 L -34.9058,16.503 L -34.5365,16.5734 L -34.1963,16.7335 L -33.9065,16.9732 L -33.6855,17.2774
 L -33.5471,17.627 L -33.5,18 L -33.5471,18.373 L -33.6855,18.7226 L -33.9065,19.0268 L -34.1963,19.2665
 L -34.5365,19.4266 z
" stroke="black" fill="lightgray" stroke-width="0.5"/>
</svg>
