  0
SECTION
  2
BLOCKS
  0
ENDSEC
  0
SECTION
  2
ENTITIES
  0
LINE
  8
0
 10
1779.24
 20
-38.8429
 11
1780.41
 21
-38.3815
  0
LINE
  8
0
 10
1780.41
 20
-38.3815
 11
1781.42
 21
-37.6448
  0
LINE
  8
0
 10
1781.42
 20
-37.6448
 11
1782.22
 21
-36.6791
  0
LINE
  8
0
 10
1782.22
 20
-36.6791
 11
1782.76
 21
-35.5451
  0
LINE
  8
0
 10
1782.76
 20
-35.5451
 11
1783
 21
-34
  0
LINE
  8
0
 10
1783
 20
-34
 11
1783
 21
34
  0
LINE
  8
0
 10
1783
 20
34
 11
1782.84
 21
35.2435
  0
LINE
  8
0
 10
1782.84
 20
35.2435
 11
1782.38
 21
36.4088
  0
LINE
  8
0
 10
1782.38
 20
36.4088
 11
1781.64
 21
37.4227
  0
LINE
  8
0
 10
1781.64
 20
37.4227
 11
1780.68
 21
38.2216
  0
LINE
  8
0
 10
1780.68
 20
38.2216
 11
1779.55
 21
38.7553
  0
LINE
  8
0
 10
1779.55
 20
38.7553
 11
1778
 21
39
  0
LINE
  8
0
 10
1778
 20
39
 11
1698
 21
39
  0
LINE
  8
0
 10
1698
 20
39
 11
1696.76
 21
38.8429
  0
LINE
  8
0
 10
1696.76
 20
38.8429
 11
1695.59
 21
38.3815
  0
LINE
  8
0
 10
1695.59
 20
38.3815
 11
1694.58
 21
37.6448
  0
LINE
  8
0
 10
1694.58
 20
37.6448
 11
1693.78
 21
36.6791
  0
LINE
  8
0
 10
1693.78
 20
36.6791
 11
1693.24
 21
35.5451
  0
LINE
  8
0
 10
1693.24
 20
35.5451
 11
1693
 21
34
  0
LINE
  8
0
 10
1693
 20
34
 11
1693
 21
-34
  0
LINE
  8
0
 10
1693
 20
-34
 11
1693.16
 21
-35.2435
  0
LINE
  8
0
 10
1693.16
 20
-35.2435
 11
1693.62
 21
-36.4088
  0
LINE
  8
0
 10
1693.62
 20
-36.4088
 11
1694.36
 21
-37.4227
  0
LINE
  8
0
 10
1694.36
 20
-37.4227
 11
1695.32
 21
-38.2216
  0
LINE
  8
0
 10
1695.32
 20
-38.2216
 11
1696.45
 21
-38.7553
  0
LINE
  8
0
 10
1696.45
 20
-38.7553
 11
1698
 21
-39
  0
LINE
  8
0
 10
1698
 20
-39
 11
1778
 21
-39
  0
LINE
  8
0
 10
1778
 20
-39
 11
1779.24
 21
-38.8429
  0
LINE
  8
0
 10
1764.72
 20
16.5266
 11
1764.36
 21
16.6427
  0
LINE
  8
0
 10
1764.36
 20
16.6427
 11
1764.04
 21
16.8442
  0
LINE
  8
0
 10
1764.04
 20
16.8442
 11
1763.79
 21
17.1183
  0
LINE
  8
0
 10
1763.79
 20
17.1183
 11
1763.61
 21
17.4478
  0
LINE
  8
0
 10
1763.61
 20
17.4478
 11
1763.51
 21
17.812
  0
LINE
  8
0
 10
1763.51
 20
17.812
 11
1763.51
 21
18.188
  0
LINE
  8
0
 10
1763.51
 20
18.188
 11
1763.61
 21
18.5522
  0
LINE
  8
0
 10
1763.61
 20
18.5522
 11
1763.79
 21
18.8817
  0
LINE
  8
0
 10
1763.79
 20
18.8817
 11
1764.04
 21
19.1558
  0
LINE
  8
0
 10
1764.04
 20
19.1558
 11
1764.36
 21
19.3572
  0
LINE
  8
0
 10
1764.36
 20
19.3572
 11
1764.72
 21
19.4734
  0
LINE
  8
0
 10
1764.72
 20
19.4734
 11
1765.09
 21
19.497
  0
LINE
  8
0
 10
1765.09
 20
19.497
 11
1765.46
 21
19.4266
  0
LINE
  8
0
 10
1765.46
 20
19.4266
 11
1765.8
 21
19.2665
  0
LINE
  8
0
 10
1765.8
 20
19.2665
 11
1766.09
 21
19.0268
  0
LINE
  8
0
 10
1766.09
 20
19.0268
 11
1766.31
 21
18.7226
  0
LINE
  8
0
 10
1766.31
 20
18.7226
 11
1766.45
 21
18.373
  0
LINE
  8
0
 10
1766.45
 20
18.373
 11
1766.5
 21
18
  0
LINE
  8
0
 10
1766.5
 20
18
 11
1766.45
 21
17.627
  0
LINE
  8
0
 10
1766.45
 20
17.627
 11
1766.31
 21
17.2774
  0
LINE
  8
0
 10
1766.31
 20
17.2774
 11
1766.09
 21
16.9732
  0
LINE
  8
0
 10
1766.09
 20
16.9732
 11
1765.8
 21
16.7335
  0
LINE
  8
0
 10
1765.8
 20
16.7335
 11
1765.46
 21
16.5734
  0
LINE
  8
0
 10
1765.46
 20
16.5734
 11
1765.09
 21
16.503
  0
LINE
  8
0
 10
1765.09
 20
16.503
 11
1764.72
 21
16.5266
  0
LINE
  8
0
 10
1744.5
 20
-14
 11
1744.5
 21
-5
  0
LINE
  8
0
 10
1744.5
 20
-5
 11
1740.5
 21
-5
  0
LINE
  8
0
 10
1740.5
 20
-5
 11
1740.5
 21
-1
  0
LINE
  8
0
 10
1740.5
 20
-1
 11
1744.5
 21
-1
  0
LINE
  8
0
 10
1744.5
 20
-1
 11
1744.5
 21
14
  0
LINE
  8
0
 10
1744.5
 20
14
 11
1764
 21
14
  0
LINE
  8
0
 10
1764
 20
14
 11
1764
 21
13.9171
  0
LINE
  8
0
 10
1764
 20
13.9171
 11
1764.88
 21
13.9724
  0
LINE
  8
0
 10
1764.88
 20
13.9724
 11
1768.33
 21
13.3148
  0
LINE
  8
0
 10
1768.33
 20
13.3148
 11
1771.5
 21
11.8206
  0
LINE
  8
0
 10
1771.5
 20
11.8206
 11
1774.21
 21
9.58365
  0
LINE
  8
0
 10
1774.21
 20
9.58365
 11
1776.27
 21
6.74454
  0
LINE
  8
0
 10
1776.27
 20
6.74454
 11
1777.56
 21
3.48164
  0
LINE
  8
0
 10
1777.56
 20
3.48164
 11
1778
 21
0
  0
LINE
  8
0
 10
1778
 20
0
 11
1777.56
 21
-3.48164
  0
LINE
  8
0
 10
1777.56
 20
-3.48164
 11
1776.27
 21
-6.74454
  0
LINE
  8
0
 10
1776.27
 20
-6.74454
 11
1774.21
 21
-9.58365
  0
LINE
  8
0
 10
1774.21
 20
-9.58365
 11
1771.5
 21
-11.8206
  0
LINE
  8
0
 10
1771.5
 20
-11.8206
 11
1768.33
 21
-13.3148
  0
LINE
  8
0
 10
1768.33
 20
-13.3148
 11
1764.88
 21
-13.9724
  0
LINE
  8
0
 10
1764.88
 20
-13.9724
 11
1764
 21
-13.9171
  0
LINE
  8
0
 10
1764
 20
-13.9171
 11
1764
 21
-14
  0
LINE
  8
0
 10
1764
 20
-14
 11
1744.5
 21
-14
  0
LINE
  8
0
 10
1764.72
 20
-19.4734
 11
1764.36
 21
-19.3572
  0
LINE
  8
0
 10
1764.36
 20
-19.3572
 11
1764.04
 21
-19.1558
  0
LINE
  8
0
 10
1764.04
 20
-19.1558
 11
1763.79
 21
-18.8817
  0
LINE
  8
0
 10
1763.79
 20
-18.8817
 11
1763.61
 21
-18.5522
  0
LINE
  8
0
 10
1763.61
 20
-18.5522
 11
1763.51
 21
-18.188
  0
LINE
  8
0
 10
1763.51
 20
-18.188
 11
1763.51
 21
-17.812
  0
LINE
  8
0
 10
1763.51
 20
-17.812
 11
1763.61
 21
-17.4478
  0
LINE
  8
0
 10
1763.61
 20
-17.4478
 11
1763.79
 21
-17.1183
  0
LINE
  8
0
 10
1763.79
 20
-17.1183
 11
1764.04
 21
-16.8442
  0
LINE
  8
0
 10
1764.04
 20
-16.8442
 11
1764.36
 21
-16.6427
  0
LINE
  8
0
 10
1764.36
 20
-16.6427
 11
1764.72
 21
-16.5266
  0
LINE
  8
0
 10
1764.72
 20
-16.5266
 11
1765.09
 21
-16.503
  0
LINE
  8
0
 10
1765.09
 20
-16.503
 11
1765.46
 21
-16.5734
  0
LINE
  8
0
 10
1765.46
 20
-16.5734
 11
1765.8
 21
-16.7335
  0
LINE
  8
0
 10
1765.8
 20
-16.7335
 11
1766.09
 21
-16.9732
  0
LINE
  8
0
 10
1766.09
 20
-16.9732
 11
1766.31
 21
-17.2774
  0
LINE
  8
0
 10
1766.31
 20
-17.2774
 11
1766.45
 21
-17.627
  0
LINE
  8
0
 10
1766.45
 20
-17.627
 11
1766.5
 21
-18
  0
LINE
  8
0
 10
1766.5
 20
-18
 11
1766.45
 21
-18.373
  0
LINE
  8
0
 10
1766.45
 20
-18.373
 11
1766.31
 21
-18.7226
  0
LINE
  8
0
 10
1766.31
 20
-18.7226
 11
1766.09
 21
-19.0268
  0
LINE
  8
0
 10
1766.09
 20
-19.0268
 11
1765.8
 21
-19.2665
  0
LINE
  8
0
 10
1765.8
 20
-19.2665
 11
1765.46
 21
-19.4266
  0
LINE
  8
0
 10
1765.46
 20
-19.4266
 11
1765.09
 21
-19.497
  0
LINE
  8
0
 10
1765.09
 20
-19.497
 11
1764.72
 21
-19.4734
  0
LINE
  8
0
 10
0
 20
38
 11
-135
 21
38
  0
LINE
  8
0
 10
-135
 20
38
 11
-135
 21
-38
  0
LINE
  8
0
 10
-135
 20
-38
 11
0
 21
-38
  0
LINE
  8
0
 10
0
 20
-38
 11
0
 21
38
  0
LINE
  8
0
 10
1579.24
 20
-24.8429
 11
1580.41
 21
-24.3815
  0
LINE
  8
0
 10
1580.41
 20
-24.3815
 11
1581.42
 21
-23.6448
  0
LINE
  8
0
 10
1581.42
 20
-23.6448
 11
1582.22
 21
-22.6791
  0
LINE
  8
0
 10
1582.22
 20
-22.6791
 11
1582.76
 21
-21.5451
  0
LINE
  8
0
 10
1582.76
 20
-21.5451
 11
1583
 21
-20
  0
LINE
  8
0
 10
1583
 20
-20
 11
1583
 21
20
  0
LINE
  8
0
 10
1583
 20
20
 11
1582.84
 21
21.2435
  0
LINE
  8
0
 10
1582.84
 20
21.2435
 11
1582.38
 21
22.4088
  0
LINE
  8
0
 10
1582.38
 20
22.4088
 11
1581.64
 21
23.4227
  0
LINE
  8
0
 10
1581.64
 20
23.4227
 11
1580.68
 21
24.2216
  0
LINE
  8
0
 10
1580.68
 20
24.2216
 11
1579.55
 21
24.7553
  0
LINE
  8
0
 10
1579.55
 20
24.7553
 11
1578
 21
25
  0
LINE
  8
0
 10
1578
 20
25
 11
1538
 21
25
  0
LINE
  8
0
 10
1538
 20
25
 11
1536.76
 21
24.8429
  0
LINE
  8
0
 10
1536.76
 20
24.8429
 11
1535.59
 21
24.3815
  0
LINE
  8
0
 10
1535.59
 20
24.3815
 11
1534.58
 21
23.6448
  0
LINE
  8
0
 10
1534.58
 20
23.6448
 11
1533.78
 21
22.6791
  0
LINE
  8
0
 10
1533.78
 20
22.6791
 11
1533.24
 21
21.5451
  0
LINE
  8
0
 10
1533.24
 20
21.5451
 11
1533
 21
20
  0
LINE
  8
0
 10
1533
 20
20
 11
1533
 21
-20
  0
LINE
  8
0
 10
1533
 20
-20
 11
1533.16
 21
-21.2435
  0
LINE
  8
0
 10
1533.16
 20
-21.2435
 11
1533.62
 21
-22.4088
  0
LINE
  8
0
 10
1533.62
 20
-22.4088
 11
1534.36
 21
-23.4227
  0
LINE
  8
0
 10
1534.36
 20
-23.4227
 11
1535.32
 21
-24.2216
  0
LINE
  8
0
 10
1535.32
 20
-24.2216
 11
1536.45
 21
-24.7553
  0
LINE
  8
0
 10
1536.45
 20
-24.7553
 11
1538
 21
-25
  0
LINE
  8
0
 10
1538
 20
-25
 11
1578
 21
-25
  0
LINE
  8
0
 10
1578
 20
-25
 11
1579.24
 21
-24.8429
  0
LINE
  8
0
 10
1564.72
 20
16.5266
 11
1564.36
 21
16.6427
  0
LINE
  8
0
 10
1564.36
 20
16.6427
 11
1564.04
 21
16.8442
  0
LINE
  8
0
 10
1564.04
 20
16.8442
 11
1563.79
 21
17.1183
  0
LINE
  8
0
 10
1563.79
 20
17.1183
 11
1563.61
 21
17.4478
  0
LINE
  8
0
 10
1563.61
 20
17.4478
 11
1563.51
 21
17.812
  0
LINE
  8
0
 10
1563.51
 20
17.812
 11
1563.51
 21
18.188
  0
LINE
  8
0
 10
1563.51
 20
18.188
 11
1563.61
 21
18.5522
  0
LINE
  8
0
 10
1563.61
 20
18.5522
 11
1563.79
 21
18.8817
  0
LINE
  8
0
 10
1563.79
 20
18.8817
 11
1564.04
 21
19.1558
  0
LINE
  8
0
 10
1564.04
 20
19.1558
 11
1564.36
 21
19.3572
  0
LINE
  8
0
 10
1564.36
 20
19.3572
 11
1564.72
 21
19.4734
  0
LINE
  8
0
 10
1564.72
 20
19.4734
 11
1565.09
 21
19.497
  0
LINE
  8
0
 10
1565.09
 20
19.497
 11
1565.46
 21
19.4266
  0
LINE
  8
0
 10
1565.46
 20
19.4266
 11
1565.8
 21
19.2665
  0
LINE
  8
0
 10
1565.8
 20
19.2665
 11
1566.09
 21
19.0268
  0
LINE
  8
0
 10
1566.09
 20
19.0268
 11
1566.31
 21
18.7226
  0
LINE
  8
0
 10
1566.31
 20
18.7226
 11
1566.45
 21
18.373
  0
LINE
  8
0
 10
1566.45
 20
18.373
 11
1566.5
 21
18
  0
LINE
  8
0
 10
1566.5
 20
18
 11
1566.45
 21
17.627
  0
LINE
  8
0
 10
1566.45
 20
17.627
 11
1566.31
 21
17.2774
  0
LINE
  8
0
 10
1566.31
 20
17.2774
 11
1566.09
 21
16.9732
  0
LINE
  8
0
 10
1566.09
 20
16.9732
 11
1565.8
 21
16.7335
  0
LINE
  8
0
 10
1565.8
 20
16.7335
 11
1565.46
 21
16.5734
  0
LINE
  8
0
 10
1565.46
 20
16.5734
 11
1565.09
 21
16.503
  0
LINE
  8
0
 10
1565.09
 20
16.503
 11
1564.72
 21
16.5266
  0
LINE
  8
0
 10
1562.66
 20
-12.2786
 11
1559.68
 21
-11.3103
  0
LINE
  8
0
 10
1559.68
 20
-11.3103
 11
1557.03
 21
-9.63141
  0
LINE
  8
0
 10
1557.03
 20
-9.63141
 11
1554.89
 21
-7.34731
  0
LINE
  8
0
 10
1554.89
 20
-7.34731
 11
1553.38
 21
-4.60155
  0
LINE
  8
0
 10
1553.38
 20
-4.60155
 11
1552.6
 21
-1.56665
  0
LINE
  8
0
 10
1552.6
 20
-1.56665
 11
1552.6
 21
1.56665
  0
LINE
  8
0
 10
1552.6
 20
1.56665
 11
1553.38
 21
4.60155
  0
LINE
  8
0
 10
1553.38
 20
4.60155
 11
1554.89
 21
7.34731
  0
LINE
  8
0
 10
1554.89
 20
7.34731
 11
1557.03
 21
9.63141
  0
LINE
  8
0
 10
1557.03
 20
9.63141
 11
1559.68
 21
11.3103
  0
LINE
  8
0
 10
1559.68
 20
11.3103
 11
1562.66
 21
12.2786
  0
LINE
  8
0
 10
1562.66
 20
12.2786
 11
1565.78
 21
12.4753
  0
LINE
  8
0
 10
1565.78
 20
12.4753
 11
1568.86
 21
11.8882
  0
LINE
  8
0
 10
1568.86
 20
11.8882
 11
1571.7
 21
10.5541
  0
LINE
  8
0
 10
1571.7
 20
10.5541
 11
1574.11
 21
8.55682
  0
LINE
  8
0
 10
1574.11
 20
8.55682
 11
1575.95
 21
6.02191
  0
LINE
  8
0
 10
1575.95
 20
6.02191
 11
1577.11
 21
3.10861
  0
LINE
  8
0
 10
1577.11
 20
3.10861
 11
1577.5
 21
0
  0
LINE
  8
0
 10
1577.5
 20
0
 11
1577.11
 21
-3.10861
  0
LINE
  8
0
 10
1577.11
 20
-3.10861
 11
1575.95
 21
-6.02191
  0
LINE
  8
0
 10
1575.95
 20
-6.02191
 11
1574.11
 21
-8.55682
  0
LINE
  8
0
 10
1574.11
 20
-8.55682
 11
1571.7
 21
-10.5541
  0
LINE
  8
0
 10
1571.7
 20
-10.5541
 11
1568.86
 21
-11.8882
  0
LINE
  8
0
 10
1568.86
 20
-11.8882
 11
1565.78
 21
-12.4753
  0
LINE
  8
0
 10
1565.78
 20
-12.4753
 11
1562.66
 21
-12.2786
  0
LINE
  8
0
 10
1564.72
 20
-19.4734
 11
1564.36
 21
-19.3572
  0
LINE
  8
0
 10
1564.36
 20
-19.3572
 11
1564.04
 21
-19.1558
  0
LINE
  8
0
 10
1564.04
 20
-19.1558
 11
1563.79
 21
-18.8817
  0
LINE
  8
0
 10
1563.79
 20
-18.8817
 11
1563.61
 21
-18.5522
  0
LINE
  8
0
 10
1563.61
 20
-18.5522
 11
1563.51
 21
-18.188
  0
LINE
  8
0
 10
1563.51
 20
-18.188
 11
1563.51
 21
-17.812
  0
LINE
  8
0
 10
1563.51
 20
-17.812
 11
1563.61
 21
-17.4478
  0
LINE
  8
0
 10
1563.61
 20
-17.4478
 11
1563.79
 21
-17.1183
  0
LINE
  8
0
 10
1563.79
 20
-17.1183
 11
1564.04
 21
-16.8442
  0
LINE
  8
0
 10
1564.04
 20
-16.8442
 11
1564.36
 21
-16.6427
  0
LINE
  8
0
 10
1564.36
 20
-16.6427
 11
1564.72
 21
-16.5266
  0
LINE
  8
0
 10
1564.72
 20
-16.5266
 11
1565.09
 21
-16.503
  0
LINE
  8
0
 10
1565.09
 20
-16.503
 11
1565.46
 21
-16.5734
  0
LINE
  8
0
 10
1565.46
 20
-16.5734
 11
1565.8
 21
-16.7335
  0
LINE
  8
0
 10
1565.8
 20
-16.7335
 11
1566.09
 21
-16.9732
  0
LINE
  8
0
 10
1566.09
 20
-16.9732
 11
1566.31
 21
-17.2774
  0
LINE
  8
0
 10
1566.31
 20
-17.2774
 11
1566.45
 21
-17.627
  0
LINE
  8
0
 10
1566.45
 20
-17.627
 11
1566.5
 21
-18
  0
LINE
  8
0
 10
1566.5
 20
-18
 11
1566.45
 21
-18.373
  0
LINE
  8
0
 10
1566.45
 20
-18.373
 11
1566.31
 21
-18.7226
  0
LINE
  8
0
 10
1566.31
 20
-18.7226
 11
1566.09
 21
-19.0268
  0
LINE
  8
0
 10
1566.09
 20
-19.0268
 11
1565.8
 21
-19.2665
  0
LINE
  8
0
 10
1565.8
 20
-19.2665
 11
1565.46
 21
-19.4266
  0
LINE
  8
0
 10
1565.46
 20
-19.4266
 11
1565.09
 21
-19.497
  0
LINE
  8
0
 10
1565.09
 20
-19.497
 11
1564.72
 21
-19.4734
  0
ENDSEC
  0
SECTION
  2
OBJECTS
  0
DICTIONARY
  0
ENDSEC
  0
EOF
