  0
SECTION
  2
BLOCKS
  0
ENDSEC
  0
SECTION
  2
ENTITIES
  0
LINE
  8
0
 10
27.2435
 20
-26.3429
 11
28.4088
 21
-25.8815
  0
LINE
  8
0
 10
28.4088
 20
-25.8815
 11
29.4227
 21
-25.1448
  0
LINE
  8
0
 10
29.4227
 20
-25.1448
 11
30.2216
 21
-24.1791
  0
LINE
  8
0
 10
30.2216
 20
-24.1791
 11
30.7553
 21
-23.0451
  0
LINE
  8
0
 10
30.7553
 20
-23.0451
 11
31
 21
-21.5
  0
LINE
  8
0
 10
31
 20
-21.5
 11
31
 21
21.5
  0
LINE
  8
0
 10
31
 20
21.5
 11
30.8429
 21
22.7435
  0
LINE
  8
0
 10
30.8429
 20
22.7435
 11
30.3815
 21
23.9088
  0
LINE
  8
0
 10
30.3815
 20
23.9088
 11
29.6448
 21
24.9227
  0
LINE
  8
0
 10
29.6448
 20
24.9227
 11
28.6791
 21
25.7216
  0
LINE
  8
0
 10
28.6791
 20
25.7216
 11
27.5451
 21
26.2553
  0
LINE
  8
0
 10
27.5451
 20
26.2553
 11
26
 21
26.5
  0
LINE
  8
0
 10
26
 20
26.5
 11
-14
 21
26.5
  0
LINE
  8
0
 10
-14
 20
26.5
 11
-15.2435
 21
26.3429
  0
LINE
  8
0
 10
-15.2435
 20
26.3429
 11
-16.4088
 21
25.8815
  0
LINE
  8
0
 10
-16.4088
 20
25.8815
 11
-17.4227
 21
25.1448
  0
LINE
  8
0
 10
-17.4227
 20
25.1448
 11
-18.2216
 21
24.1791
  0
LINE
  8
0
 10
-18.2216
 20
24.1791
 11
-18.7553
 21
23.0451
  0
LINE
  8
0
 10
-18.7553
 20
23.0451
 11
-19
 21
21.5
  0
LINE
  8
0
 10
-19
 20
21.5
 11
-19
 21
-21.5
  0
LINE
  8
0
 10
-19
 20
-21.5
 11
-18.8429
 21
-22.7435
  0
LINE
  8
0
 10
-18.8429
 20
-22.7435
 11
-18.3815
 21
-23.9088
  0
LINE
  8
0
 10
-18.3815
 20
-23.9088
 11
-17.6448
 21
-24.9227
  0
LINE
  8
0
 10
-17.6448
 20
-24.9227
 11
-16.6791
 21
-25.7216
  0
LINE
  8
0
 10
-16.6791
 20
-25.7216
 11
-15.5451
 21
-26.2553
  0
LINE
  8
0
 10
-15.5451
 20
-26.2553
 11
-14
 21
-26.5
  0
LINE
  8
0
 10
-14
 20
-26.5
 11
26
 21
-26.5
  0
LINE
  8
0
 10
26
 20
-26.5
 11
27.2435
 21
-26.3429
  0
LINE
  8
0
 10
-1.25
 20
-14.5
 11
-1.25
 21
-11.415
  0
LINE
  8
0
 10
-1.25
 20
-11.415
 11
-1.57224
 21
-11.3103
  0
LINE
  8
0
 10
-1.57224
 20
-11.3103
 11
-4.21779
 21
-9.63141
  0
LINE
  8
0
 10
-4.21779
 20
-9.63141
 11
-6.3627
 21
-7.34731
  0
LINE
  8
0
 10
-6.3627
 20
-7.34731
 11
-7.87219
 21
-4.60155
  0
LINE
  8
0
 10
-7.87219
 20
-4.60155
 11
-8.65143
 21
-1.56665
  0
LINE
  8
0
 10
-8.65143
 20
-1.56665
 11
-8.65143
 21
1.56665
  0
LINE
  8
0
 10
-8.65143
 20
1.56665
 11
-7.87219
 21
4.60155
  0
LINE
  8
0
 10
-7.87219
 20
4.60155
 11
-6.3627
 21
7.34731
  0
LINE
  8
0
 10
-6.3627
 20
7.34731
 11
-4.21779
 21
9.63141
  0
LINE
  8
0
 10
-4.21779
 20
9.63141
 11
-1.57224
 21
11.3103
  0
LINE
  8
0
 10
-1.57224
 20
11.3103
 11
-1.25
 21
11.415
  0
LINE
  8
0
 10
-1.25
 20
11.415
 11
-1.25
 21
14.5
  0
LINE
  8
0
 10
-1.25
 20
14.5
 11
8.75
 21
14.5
  0
LINE
  8
0
 10
8.75
 20
14.5
 11
8.75
 21
11.353
  0
LINE
  8
0
 10
8.75
 20
11.353
 11
10.4478
 21
10.5541
  0
LINE
  8
0
 10
10.4478
 20
10.5541
 11
12.8621
 21
8.55682
  0
LINE
  8
0
 10
12.8621
 20
8.55682
 11
14.7038
 21
6.02191
  0
LINE
  8
0
 10
14.7038
 20
6.02191
 11
15.8573
 21
3.10861
  0
LINE
  8
0
 10
15.8573
 20
3.10861
 11
16.25
 21
0
  0
LINE
  8
0
 10
16.25
 20
0
 11
15.8573
 21
-3.10861
  0
LINE
  8
0
 10
15.8573
 20
-3.10861
 11
14.7038
 21
-6.02191
  0
LINE
  8
0
 10
14.7038
 20
-6.02191
 11
12.8621
 21
-8.55682
  0
LINE
  8
0
 10
12.8621
 20
-8.55682
 11
10.4478
 21
-10.5541
  0
LINE
  8
0
 10
10.4478
 20
-10.5541
 11
8.75
 21
-11.353
  0
LINE
  8
0
 10
8.75
 20
-11.353
 11
8.75
 21
-14.5
  0
LINE
  8
0
 10
8.75
 20
-14.5
 11
-1.25
 21
-14.5
  0
LINE
  8
0
 10
17.5
 20
-18.25
 11
17.5
 21
-15.75
  0
LINE
  8
0
 10
17.5
 20
-15.75
 11
22.5
 21
-15.75
  0
LINE
  8
0
 10
22.5
 20
-15.75
 11
22.5
 21
-18.25
  0
LINE
  8
0
 10
22.5
 20
-18.25
 11
17.5
 21
-18.25
  0
LINE
  8
0
 10
17.5
 20
-24.25
 11
17.5
 21
-21.75
  0
LINE
  8
0
 10
17.5
 20
-21.75
 11
22.5
 21
-21.75
  0
LINE
  8
0
 10
22.5
 20
-21.75
 11
22.5
 21
-24.25
  0
LINE
  8
0
 10
22.5
 20
-24.25
 11
17.5
 21
-24.25
  0
ENDSEC
  0
SECTION
  2
OBJECTS
  0
DICTIONARY
  0
ENDSEC
  0
EOF
