  0
SECTION
  2
BLOCKS
  0
ENDSEC
  0
SECTION
  2
ENTITIES
  0
LINE
  8
0
 10
-20.7565
 20
-24.8429
 11
-19.5912
 21
-24.3815
  0
LINE
  8
0
 10
-19.5912
 20
-24.3815
 11
-18.5773
 21
-23.6448
  0
LINE
  8
0
 10
-18.5773
 20
-23.6448
 11
-17.7784
 21
-22.6791
  0
LINE
  8
0
 10
-17.7784
 20
-22.6791
 11
-17.2447
 21
-21.5451
  0
LINE
  8
0
 10
-17.2447
 20
-21.5451
 11
-17
 21
-20
  0
LINE
  8
0
 10
-17
 20
-20
 11
-17
 21
20
  0
LINE
  8
0
 10
-17
 20
20
 11
-17.1571
 21
21.2435
  0
LINE
  8
0
 10
-17.1571
 20
21.2435
 11
-17.6185
 21
22.4088
  0
LINE
  8
0
 10
-17.6185
 20
22.4088
 11
-18.3552
 21
23.4227
  0
LINE
  8
0
 10
-18.3552
 20
23.4227
 11
-19.3209
 21
24.2216
  0
LINE
  8
0
 10
-19.3209
 20
24.2216
 11
-20.4549
 21
24.7553
  0
LINE
  8
0
 10
-20.4549
 20
24.7553
 11
-22
 21
25
  0
LINE
  8
0
 10
-22
 20
25
 11
-62
 21
25
  0
LINE
  8
0
 10
-62
 20
25
 11
-63.2435
 21
24.8429
  0
LINE
  8
0
 10
-63.2435
 20
24.8429
 11
-64.4088
 21
24.3815
  0
LINE
  8
0
 10
-64.4088
 20
24.3815
 11
-65.4227
 21
23.6448
  0
LINE
  8
0
 10
-65.4227
 20
23.6448
 11
-66.2216
 21
22.6791
  0
LINE
  8
0
 10
-66.2216
 20
22.6791
 11
-66.7553
 21
21.5451
  0
LINE
  8
0
 10
-66.7553
 20
21.5451
 11
-67
 21
20
  0
LINE
  8
0
 10
-67
 20
20
 11
-67
 21
-20
  0
LINE
  8
0
 10
-67
 20
-20
 11
-66.8429
 21
-21.2435
  0
LINE
  8
0
 10
-66.8429
 20
-21.2435
 11
-66.3815
 21
-22.4088
  0
LINE
  8
0
 10
-66.3815
 20
-22.4088
 11
-65.6448
 21
-23.4227
  0
LINE
  8
0
 10
-65.6448
 20
-23.4227
 11
-64.6791
 21
-24.2216
  0
LINE
  8
0
 10
-64.6791
 20
-24.2216
 11
-63.5451
 21
-24.7553
  0
LINE
  8
0
 10
-63.5451
 20
-24.7553
 11
-62
 21
-25
  0
LINE
  8
0
 10
-62
 20
-25
 11
-22
 21
-25
  0
LINE
  8
0
 10
-22
 20
-25
 11
-20.7565
 21
-24.8429
  0
LINE
  8
0
 10
-30.2811
 20
16.5266
 11
-30.6387
 21
16.6427
  0
LINE
  8
0
 10
-30.6387
 20
16.6427
 11
-30.9561
 21
16.8442
  0
LINE
  8
0
 10
-30.9561
 20
16.8442
 11
-31.2135
 21
17.1183
  0
LINE
  8
0
 10
-31.2135
 20
17.1183
 11
-31.3947
 21
17.4478
  0
LINE
  8
0
 10
-31.3947
 20
17.4478
 11
-31.4882
 21
17.812
  0
LINE
  8
0
 10
-31.4882
 20
17.812
 11
-31.4882
 21
18.188
  0
LINE
  8
0
 10
-31.4882
 20
18.188
 11
-31.3947
 21
18.5522
  0
LINE
  8
0
 10
-31.3947
 20
18.5522
 11
-31.2135
 21
18.8817
  0
LINE
  8
0
 10
-31.2135
 20
18.8817
 11
-30.9561
 21
19.1558
  0
LINE
  8
0
 10
-30.9561
 20
19.1558
 11
-30.6387
 21
19.3572
  0
LINE
  8
0
 10
-30.6387
 20
19.3572
 11
-30.2811
 21
19.4734
  0
LINE
  8
0
 10
-30.2811
 20
19.4734
 11
-29.9058
 21
19.497
  0
LINE
  8
0
 10
-29.9058
 20
19.497
 11
-29.5365
 21
19.4266
  0
LINE
  8
0
 10
-29.5365
 20
19.4266
 11
-29.1963
 21
19.2665
  0
LINE
  8
0
 10
-29.1963
 20
19.2665
 11
-28.9065
 21
19.0268
  0
LINE
  8
0
 10
-28.9065
 20
19.0268
 11
-28.6855
 21
18.7226
  0
LINE
  8
0
 10
-28.6855
 20
18.7226
 11
-28.5471
 21
18.373
  0
LINE
  8
0
 10
-28.5471
 20
18.373
 11
-28.5
 21
18
  0
LINE
  8
0
 10
-28.5
 20
18
 11
-28.5471
 21
17.627
  0
LINE
  8
0
 10
-28.5471
 20
17.627
 11
-28.6855
 21
17.2774
  0
LINE
  8
0
 10
-28.6855
 20
17.2774
 11
-28.9065
 21
16.9732
  0
LINE
  8
0
 10
-28.9065
 20
16.9732
 11
-29.1963
 21
16.7335
  0
LINE
  8
0
 10
-29.1963
 20
16.7335
 11
-29.5365
 21
16.5734
  0
LINE
  8
0
 10
-29.5365
 20
16.5734
 11
-29.9058
 21
16.503
  0
LINE
  8
0
 10
-29.9058
 20
16.503
 11
-30.2811
 21
16.5266
  0
LINE
  8
0
 10
-50.5
 20
-15
 11
-50.5
 21
-7.5
  0
LINE
  8
0
 10
-50.5
 20
-7.5
 11
-47.9693
 21
-7.5
  0
LINE
  8
0
 10
-47.9693
 20
-7.5
 11
-48.1127
 21
-7.34731
  0
LINE
  8
0
 10
-48.1127
 20
-7.34731
 11
-49.6222
 21
-4.60155
  0
LINE
  8
0
 10
-49.6222
 20
-4.60155
 11
-50.4014
 21
-1.56665
  0
LINE
  8
0
 10
-50.4014
 20
-1.56665
 11
-50.4014
 21
1.56665
  0
LINE
  8
0
 10
-50.4014
 20
1.56665
 11
-49.6222
 21
4.60155
  0
LINE
  8
0
 10
-49.6222
 20
4.60155
 11
-48.1127
 21
7.34731
  0
LINE
  8
0
 10
-48.1127
 20
7.34731
 11
-47.9693
 21
7.5
  0
LINE
  8
0
 10
-47.9693
 20
7.5
 11
-50.5
 21
7.5
  0
LINE
  8
0
 10
-50.5
 20
7.5
 11
-50.5
 21
15
  0
LINE
  8
0
 10
-50.5
 20
15
 11
-40.5
 21
15
  0
LINE
  8
0
 10
-40.5
 20
15
 11
-40.5
 21
12.2273
  0
LINE
  8
0
 10
-40.5
 20
12.2273
 11
-40.3423
 21
12.2786
  0
LINE
  8
0
 10
-40.3423
 20
12.2786
 11
-37.2151
 21
12.4753
  0
LINE
  8
0
 10
-37.2151
 20
12.4753
 11
-34.1373
 21
11.8882
  0
LINE
  8
0
 10
-34.1373
 20
11.8882
 11
-31.3022
 21
10.5541
  0
LINE
  8
0
 10
-31.3022
 20
10.5541
 11
-28.8879
 21
8.55682
  0
LINE
  8
0
 10
-28.8879
 20
8.55682
 11
-27.0462
 21
6.02191
  0
LINE
  8
0
 10
-27.0462
 20
6.02191
 11
-25.8927
 21
3.10861
  0
LINE
  8
0
 10
-25.8927
 20
3.10861
 11
-25.5
 21
0
  0
LINE
  8
0
 10
-25.5
 20
0
 11
-25.8927
 21
-3.10861
  0
LINE
  8
0
 10
-25.8927
 20
-3.10861
 11
-27.0462
 21
-6.02191
  0
LINE
  8
0
 10
-27.0462
 20
-6.02191
 11
-28.8879
 21
-8.55682
  0
LINE
  8
0
 10
-28.8879
 20
-8.55682
 11
-31.3022
 21
-10.5541
  0
LINE
  8
0
 10
-31.3022
 20
-10.5541
 11
-34.1373
 21
-11.8882
  0
LINE
  8
0
 10
-34.1373
 20
-11.8882
 11
-37.2151
 21
-12.4753
  0
LINE
  8
0
 10
-37.2151
 20
-12.4753
 11
-40.3423
 21
-12.2786
  0
LINE
  8
0
 10
-40.3423
 20
-12.2786
 11
-40.5
 21
-12.2273
  0
LINE
  8
0
 10
-40.5
 20
-12.2273
 11
-40.5
 21
-15
  0
LINE
  8
0
 10
-40.5
 20
-15
 11
-50.5
 21
-15
  0
LINE
  8
0
 10
-30.2811
 20
-19.4734
 11
-30.6387
 21
-19.3572
  0
LINE
  8
0
 10
-30.6387
 20
-19.3572
 11
-30.9561
 21
-19.1558
  0
LINE
  8
0
 10
-30.9561
 20
-19.1558
 11
-31.2135
 21
-18.8817
  0
LINE
  8
0
 10
-31.2135
 20
-18.8817
 11
-31.3947
 21
-18.5522
  0
LINE
  8
0
 10
-31.3947
 20
-18.5522
 11
-31.4882
 21
-18.188
  0
LINE
  8
0
 10
-31.4882
 20
-18.188
 11
-31.4882
 21
-17.812
  0
LINE
  8
0
 10
-31.4882
 20
-17.812
 11
-31.3947
 21
-17.4478
  0
LINE
  8
0
 10
-31.3947
 20
-17.4478
 11
-31.2135
 21
-17.1183
  0
LINE
  8
0
 10
-31.2135
 20
-17.1183
 11
-30.9561
 21
-16.8442
  0
LINE
  8
0
 10
-30.9561
 20
-16.8442
 11
-30.6387
 21
-16.6427
  0
LINE
  8
0
 10
-30.6387
 20
-16.6427
 11
-30.2811
 21
-16.5266
  0
LINE
  8
0
 10
-30.2811
 20
-16.5266
 11
-29.9058
 21
-16.503
  0
LINE
  8
0
 10
-29.9058
 20
-16.503
 11
-29.5365
 21
-16.5734
  0
LINE
  8
0
 10
-29.5365
 20
-16.5734
 11
-29.1963
 21
-16.7335
  0
LINE
  8
0
 10
-29.1963
 20
-16.7335
 11
-28.9065
 21
-16.9732
  0
LINE
  8
0
 10
-28.9065
 20
-16.9732
 11
-28.6855
 21
-17.2774
  0
LINE
  8
0
 10
-28.6855
 20
-17.2774
 11
-28.5471
 21
-17.627
  0
LINE
  8
0
 10
-28.5471
 20
-17.627
 11
-28.5
 21
-18
  0
LINE
  8
0
 10
-28.5
 20
-18
 11
-28.5471
 21
-18.373
  0
LINE
  8
0
 10
-28.5471
 20
-18.373
 11
-28.6855
 21
-18.7226
  0
LINE
  8
0
 10
-28.6855
 20
-18.7226
 11
-28.9065
 21
-19.0268
  0
LINE
  8
0
 10
-28.9065
 20
-19.0268
 11
-29.1963
 21
-19.2665
  0
LINE
  8
0
 10
-29.1963
 20
-19.2665
 11
-29.5365
 21
-19.4266
  0
LINE
  8
0
 10
-29.5365
 20
-19.4266
 11
-29.9058
 21
-19.497
  0
LINE
  8
0
 10
-29.9058
 20
-19.497
 11
-30.2811
 21
-19.4734
  0
ENDSEC
  0
SECTION
  2
OBJECTS
  0
DICTIONARY
  0
ENDSEC
  0
EOF
