<?xml version="1.0" standalone="no"?>
<!DOCTYPE svg PUBLIC "-//W3C//DTD SVG 1.1//EN" "http://www.w3.org/Graphics/SVG/1.1/DTD/svg11.dtd">
<svg width="105mm" height="80mm" viewBox="-87 -40 105 80" xmlns="http://www.w3.org/2000/svg" version="1.1">
<title>OpenSCAD Model</title>
<path d="
M -48,39 L 13,39 L 14.2435,38.8429 L 15.4088,38.3815 L 16.4227,37.6448 L 17.2216,36.6791
 L 17.7553,35.5451 L 18,34 L 18,-34 L 17.8429,-35.2435 L 17.3815,-36.4088 L 16.6448,-37.4227
 L 15.6791,-38.2216 L 14.5451,-38.7553 L 13,-39 L -48,-39 L -48,-39.5 L -68,-39.5
 L -68,-39 L -82,-39 L -83.2435,-38.8429 L -84.4088,-38.3815 L -85.4227,-37.6448 L -86.2216,-36.6791
 L -86.7553,-35.5451 L -87,-34 L -87,34 L -86.8429,35.2435 L -86.3815,36.4088 L -85.6448,37.4227
 L -84.6791,38.2216 L -83.5451,38.7553 L -82,39 L -68,39 L -68,39.5 L -48,39.5
 z
M 9.43785,-22.0531 L 8.72266,-22.2855 L 8.08772,-22.6884 L 7.57294,-23.2366 L 7.21066,-23.8956 L 7.02365,-24.624
 L 7.02365,-25.376 L 7.21066,-26.1044 L 7.57294,-26.7634 L 8.08772,-27.3115 L 8.72266,-27.7145 L 9.43785,-27.9469
 L 10.1884,-27.9941 L 10.927,-27.8532 L 11.6075,-27.533 L 12.1869,-27.0536 L 12.6289,-26.4453 L 12.9057,-25.7461
 L 13,-25 L 12.9057,-24.2539 L 12.6289,-23.5547 L 12.1869,-22.9464 L 11.6075,-22.467 L 10.927,-22.1468
 L 10.1884,-22.0059 z
M -35.2811,-16.5266 L -35.6387,-16.6427 L -35.9561,-16.8442 L -36.2135,-17.1183 L -36.3947,-17.4478 L -36.4882,-17.812
 L -36.4882,-18.188 L -36.3947,-18.5522 L -36.2135,-18.8817 L -35.9561,-19.1558 L -35.6387,-19.3572 L -35.2811,-19.4734
 L -34.9058,-19.497 L -34.5365,-19.4266 L -34.1963,-19.2665 L -33.9065,-19.0268 L -33.6855,-18.7226 L -33.5471,-18.373
 L -33.5,-18 L -33.5471,-17.627 L -33.6855,-17.2774 L -33.9065,-16.9732 L -34.1963,-16.7335 L -34.5365,-16.5734
 L -34.9058,-16.503 z
M 9.43785,-12.0531 L 8.72266,-12.2855 L 8.08772,-12.6884 L 7.57294,-13.2366 L 7.21066,-13.8956 L 7.02365,-14.624
 L 7.02365,-15.376 L 7.21066,-16.1044 L 7.57294,-16.7634 L 8.08772,-17.3115 L 8.72266,-17.7145 L 9.43785,-17.9469
 L 10.1884,-17.9941 L 10.927,-17.8532 L 11.6075,-17.533 L 12.1869,-17.0536 L 12.6289,-16.4453 L 12.9057,-15.7461
 L 13,-15 L 12.9057,-14.2539 L 12.6289,-13.5547 L 12.1869,-12.9464 L 11.6075,-12.467 L 10.927,-12.1468
 L 10.1884,-12.0059 z
M -57,14.5 L -57,5.5 L -61.5,5.5 L -61.5,0.5 L -57,0.5 L -57,-14.5
 L -36.5,-14.5 L -36.5,-14.3826 L -35.0895,-14.4714 L -31.5192,-13.7903 L -28.2305,-12.2428 L -25.4299,-9.92592
 L -23.2935,-6.98543 L -22,-3.71828 L -22,3.71828 L -23.2935,6.98543 L -25.4299,9.92592 L -28.2305,12.2428
 L -31.5192,13.7903 L -35.0895,14.4714 L -36.5,14.3826 L -36.5,14.5 z
M 9.43785,2.94685 L 8.72266,2.71448 L 8.08772,2.31154 L 7.57294,1.76335 L 7.21066,1.10437 L 7.02365,0.375992
 L 7.02365,-0.375992 L 7.21066,-1.10437 L 7.57294,-1.76335 L 8.08772,-2.31154 L 8.72266,-2.71448 L 9.43785,-2.94685
 L 10.1884,-2.99408 L 10.927,-2.85316 L 11.6075,-2.53297 L 12.1869,-2.05363 L 12.6289,-1.44525 L 12.9057,-0.746063
 L 13,-0 L 12.9057,0.746063 L 12.6289,1.44525 L 12.1869,2.05363 L 11.6075,2.53297 L 10.927,2.85316
 L 10.1884,2.99408 z
M 9.43785,17.9469 L 8.72266,17.7145 L 8.08772,17.3115 L 7.57294,16.7634 L 7.21066,16.1044 L 7.02365,15.376
 L 7.02365,14.624 L 7.21066,13.8956 L 7.57294,13.2366 L 8.08772,12.6884 L 8.72266,12.2855 L 9.43785,12.0531
 L 10.1884,12.0059 L 10.927,12.1468 L 11.6075,12.467 L 12.1869,12.9464 L 12.6289,13.5547 L 12.9057,14.2539
 L 13,15 L 12.9057,15.7461 L 12.6289,16.4453 L 12.1869,17.0536 L 11.6075,17.533 L 10.927,17.8532
 L 10.1884,17.9941 z
M -35.2811,19.4734 L -35.6387,19.3572 L -35.9561,19.1558 L -36.2135,18.8817 L -36.3947,18.5522 L -36.4882,18.188
 L -36.4882,17.812 L -36.3947,17.4478 L -36.2135,17.1183 L -35.9561,16.8442 L -35.6387,16.6427 L -35.2811,16.5266
 L -34.9058,16.503 L -34.5365,16.5734 L -34.1963,16.7335 L -33.9065,16.9732 L -33.6855,17.2774 L -33.5471,17.627
 L -33.5,18 L -33.5471,18.373 L -33.6855,18.7226 L -33.9065,19.0268 L -34.1963,19.2665 L -34.5365,19.4266
 L -34.9058,19.497 z
M 9.43785,27.9469 L 8.72266,27.7145 L 8.08772,27.3115 L 7.57294,26.7634 L 7.21066,26.1044 L 7.02365,25.376
 L 7.02365,24.624 L 7.21066,23.8956 L 7.57294,23.2366 L 8.08772,22.6884 L 8.72266,22.2855 L 9.43785,22.0531
 L 10.1884,22.0059 L 10.927,22.1468 L 11.6075,22.467 L 12.1869,22.9464 L 12.6289,23.5547 L 12.9057,24.2539
 L 13,25 L 12.9057,25.7461 L 12.6289,26.4453 L 12.1869,27.0536 L 11.6075,27.533 L 10.927,27.8532
 L 10.1884,27.9941 z
" stroke="black" fill="lightgray" stroke-width="0.5"/>
</svg>
