solid OpenSCAD_Model
  facet normal 0 -0 1
    outer loop
      vertex 7.25 -14.5 19
      vertex 7.25 -14.4824 19
      vertex 7.15778 -14.5 19
    endloop
  endfacet
  facet normal -0 0 1
    outer loop
      vertex 4.69186 -14.9704 19
      vertex 6 -15.375 19
      vertex 6 -14.7209 19
    endloop
  endfacet
  facet normal 0 0 1
    outer loop
      vertex 2.75 -15 19
      vertex 4.69186 -14.9704 19
      vertex 2.75 -14.8482 19
    endloop
  endfacet
  facet normal 0 0 1
    outer loop
      vertex 4.69186 -14.9704 19
      vertex 2.75 -15 19
      vertex 6 -15.375 19
    endloop
  endfacet
  facet normal 0 0 1
    outer loop
      vertex -1.5 -15.375 19
      vertex 2.75 -15 19
      vertex -1.5 -15 19
    endloop
  endfacet
  facet normal 0 0 1
    outer loop
      vertex 2.75 -15 19
      vertex -1.5 -15.375 19
      vertex 6 -15.375 19
    endloop
  endfacet
  facet normal 0 0 -1
    outer loop
      vertex -2.75 -17.5 19
      vertex -1.5 -16.75 19
      vertex -1.5 -17.5 19
    endloop
  endfacet
  facet normal -0 0 -1
    outer loop
      vertex -1.5 -16.75 19
      vertex -2.75 -17.5 19
      vertex -2.75 -16.75 19
    endloop
  endfacet
  facet normal 0 0 -1
    outer loop
      vertex 6 -17.5 19
      vertex 7.25 -16.75 19
      vertex 7.25 -17.5 19
    endloop
  endfacet
  facet normal -0 0 -1
    outer loop
      vertex 7.25 -16.75 19
      vertex 6 -17.5 19
      vertex 6 -16.75 19
    endloop
  endfacet
  facet normal -0 0 1
    outer loop
      vertex -1.5 -16.625 19
      vertex 6 -16.75 19
      vertex 6 -16.625 19
    endloop
  endfacet
  facet normal 0 0 1
    outer loop
      vertex 6 -16.75 19
      vertex -1.5 -16.625 19
      vertex -1.5 -16.75 19
    endloop
  endfacet
  facet normal -1 0 0
    outer loop
      vertex 7.25 -16.75 14
      vertex 7.25 -17.5 19
      vertex 7.25 -16.75 19
    endloop
  endfacet
  facet normal -1 -0 0
    outer loop
      vertex 7.25 -17.5 19
      vertex 7.25 -22.5 14
      vertex 7.25 -17.5 27.5
    endloop
  endfacet
  facet normal -1 0 0
    outer loop
      vertex 7.25 -22.5 14
      vertex 7.25 -17.5 19
      vertex 7.25 -16.75 14
    endloop
  endfacet
  facet normal -1 0 0
    outer loop
      vertex 7.25 -14.5 27.5
      vertex 7.25 -14.4824 19
      vertex 7.25 -14.5 19
    endloop
  endfacet
  facet normal -1 0 0
    outer loop
      vertex 7.25 -14.4824 30
      vertex 7.25 -10.0973 37
      vertex 7.25 -10.0973 30
    endloop
  endfacet
  facet normal -1 0 0
    outer loop
      vertex 7.25 -14.4824 19
      vertex 7.25 -14.5 27.5
      vertex 7.25 -14.4824 30
    endloop
  endfacet
  facet normal -1 0 0
    outer loop
      vertex 7.25 -17.5 27.5
      vertex 7.25 -14.4824 30
      vertex 7.25 -14.5 27.5
    endloop
  endfacet
  facet normal -1 0 0
    outer loop
      vertex 7.25 -22.5 37
      vertex 7.25 -14.4824 30
      vertex 7.25 -17.5 27.5
    endloop
  endfacet
  facet normal -1 0 0
    outer loop
      vertex 7.25 -14.4824 30
      vertex 7.25 -22.5 37
      vertex 7.25 -10.0973 37
    endloop
  endfacet
  facet normal -1 0 0
    outer loop
      vertex 7.25 -22.5 37
      vertex 7.25 -17.5 27.5
      vertex 7.25 -22.5 14
    endloop
  endfacet
  facet normal 1 0 0
    outer loop
      vertex -2.75 -12.1461 37
      vertex -2.75 -15 30
      vertex -2.75 -12.1461 30
    endloop
  endfacet
  facet normal 1 0 0
    outer loop
      vertex -2.75 -15 30
      vertex -2.75 -17.5 27.5
      vertex -2.75 -15 27.5
    endloop
  endfacet
  facet normal 1 -0 0
    outer loop
      vertex -2.75 -22.5 37
      vertex -2.75 -15 30
      vertex -2.75 -12.1461 37
    endloop
  endfacet
  facet normal 1 0 0
    outer loop
      vertex -2.75 -22.5 14
      vertex -2.75 -17.5 27.5
      vertex -2.75 -22.5 37
    endloop
  endfacet
  facet normal 1 0 0
    outer loop
      vertex -2.75 -15 30
      vertex -2.75 -22.5 37
      vertex -2.75 -17.5 27.5
    endloop
  endfacet
  facet normal 1 -0 0
    outer loop
      vertex -2.75 -17.5 19
      vertex -2.75 -16.75 14
      vertex -2.75 -16.75 19
    endloop
  endfacet
  facet normal 1 0 0
    outer loop
      vertex -2.75 -17.5 27.5
      vertex -2.75 -22.5 14
      vertex -2.75 -17.5 19
    endloop
  endfacet
  facet normal 1 0 0
    outer loop
      vertex -2.75 -17.5 19
      vertex -2.75 -22.5 14
      vertex -2.75 -16.75 14
    endloop
  endfacet
  facet normal 0 1 -0
    outer loop
      vertex 3.5 -22.5 32.5
      vertex 1 -22.5 35.5
      vertex 3.5 -22.5 35.5
    endloop
  endfacet
  facet normal 0 1 0
    outer loop
      vertex 1 -22.5 35.5
      vertex 3.5 -22.5 32.5
      vertex 1 -22.5 32.5
    endloop
  endfacet
  facet normal 0 1 0
    outer loop
      vertex 3.5 -22.5 35.5
      vertex 7.25 -22.5 37
      vertex 5 -22.5 35.5
    endloop
  endfacet
  facet normal 0 1 0
    outer loop
      vertex 7.25 -22.5 37
      vertex 5 -22.5 32.5
      vertex 5 -22.5 35.5
    endloop
  endfacet
  facet normal 0 1 0
    outer loop
      vertex 7.25 -22.5 14
      vertex 3.5 -22.5 32.5
      vertex 5 -22.5 32.5
    endloop
  endfacet
  facet normal 0 1 0
    outer loop
      vertex 3.5 -22.5 32.5
      vertex 7.25 -22.5 14
      vertex 1 -22.5 32.5
    endloop
  endfacet
  facet normal 0 1 0
    outer loop
      vertex -2.75 -22.5 14
      vertex 1 -22.5 32.5
      vertex 7.25 -22.5 14
    endloop
  endfacet
  facet normal 0 1 -0
    outer loop
      vertex 7.25 -22.5 14
      vertex 5 -22.5 32.5
      vertex 7.25 -22.5 37
    endloop
  endfacet
  facet normal 0 1 0
    outer loop
      vertex 7.25 -22.5 37
      vertex 3.5 -22.5 35.5
      vertex -2.75 -22.5 37
    endloop
  endfacet
  facet normal 0 1 -0
    outer loop
      vertex 1 -22.5 35.5
      vertex -2.75 -22.5 37
      vertex 3.5 -22.5 35.5
    endloop
  endfacet
  facet normal 0 1 -0
    outer loop
      vertex -0.5 -22.5 35.5
      vertex -2.75 -22.5 37
      vertex 1 -22.5 35.5
    endloop
  endfacet
  facet normal 0 1 -0
    outer loop
      vertex -0.5 -22.5 32.5
      vertex -2.75 -22.5 37
      vertex -0.5 -22.5 35.5
    endloop
  endfacet
  facet normal 0 1 0
    outer loop
      vertex 1 -22.5 32.5
      vertex -2.75 -22.5 14
      vertex -0.5 -22.5 32.5
    endloop
  endfacet
  facet normal 0 1 0
    outer loop
      vertex -0.5 -22.5 32.5
      vertex -2.75 -22.5 14
      vertex -2.75 -22.5 37
    endloop
  endfacet
  facet normal -0 0 1
    outer loop
      vertex -2.75 -16.75 14
      vertex 7.25 -22.5 14
      vertex 7.25 -16.75 14
    endloop
  endfacet
  facet normal 0 0 1
    outer loop
      vertex 7.25 -22.5 14
      vertex -2.75 -16.75 14
      vertex -2.75 -22.5 14
    endloop
  endfacet
  facet normal 0 -1 0
    outer loop
      vertex -2.75 -16.75 14
      vertex -1.5 -16.75 19
      vertex -2.75 -16.75 19
    endloop
  endfacet
  facet normal 0 -1 -0
    outer loop
      vertex -1.5 -16.75 19
      vertex -2.75 -16.75 14
      vertex 6 -16.75 19
    endloop
  endfacet
  facet normal 0 -1 0
    outer loop
      vertex 7.25 -16.75 14
      vertex 6 -16.75 19
      vertex -2.75 -16.75 14
    endloop
  endfacet
  facet normal 0 -1 0
    outer loop
      vertex 6 -16.75 19
      vertex 7.25 -16.75 14
      vertex 7.25 -16.75 19
    endloop
  endfacet
  facet normal -1 0 0
    outer loop
      vertex 6 -16.75 19
      vertex 6 -16.625 27.5
      vertex 6 -16.625 19
    endloop
  endfacet
  facet normal -1 0 0
    outer loop
      vertex 6 -17.5 27.5
      vertex 6 -16.75 19
      vertex 6 -17.5 19
    endloop
  endfacet
  facet normal -1 0 0
    outer loop
      vertex 6 -16.75 19
      vertex 6 -17.5 27.5
      vertex 6 -16.625 27.5
    endloop
  endfacet
  facet normal -1 0 0
    outer loop
      vertex 6 -15.375 19
      vertex 6 -14.7209 27.5
      vertex 6 -14.7209 19
    endloop
  endfacet
  facet normal -1 -0 0
    outer loop
      vertex 6 -14.7209 27.5
      vertex 6 -15.375 19
      vertex 6 -15.375 27.5
    endloop
  endfacet
  facet normal 1 0 0
    outer loop
      vertex -1.5 -16.625 27.5
      vertex -1.5 -16.75 19
      vertex -1.5 -16.625 19
    endloop
  endfacet
  facet normal 1 -0 0
    outer loop
      vertex -1.5 -17.5 27.5
      vertex -1.5 -16.75 19
      vertex -1.5 -16.625 27.5
    endloop
  endfacet
  facet normal 1 0 0
    outer loop
      vertex -1.5 -16.75 19
      vertex -1.5 -17.5 27.5
      vertex -1.5 -17.5 19
    endloop
  endfacet
  facet normal 1 -0 0
    outer loop
      vertex -1.5 -15.375 27.5
      vertex -1.5 -15 19
      vertex -1.5 -15 27.5
    endloop
  endfacet
  facet normal 1 0 0
    outer loop
      vertex -1.5 -15 19
      vertex -1.5 -15.375 27.5
      vertex -1.5 -15.375 19
    endloop
  endfacet
  facet normal 0 -1 0
    outer loop
      vertex -1.5 -16.625 19
      vertex 6 -16.625 27.5
      vertex -1.5 -16.625 27.5
    endloop
  endfacet
  facet normal 0 -1 -0
    outer loop
      vertex 6 -16.625 27.5
      vertex -1.5 -16.625 19
      vertex 6 -16.625 19
    endloop
  endfacet
  facet normal 0 1 -0
    outer loop
      vertex 6 -15.375 19
      vertex -1.5 -15.375 27.5
      vertex 6 -15.375 27.5
    endloop
  endfacet
  facet normal 0 1 0
    outer loop
      vertex -1.5 -15.375 27.5
      vertex 6 -15.375 19
      vertex -1.5 -15.375 19
    endloop
  endfacet
  facet normal -0 0 1
    outer loop
      vertex -2.75 -15 27.5
      vertex -1.5 -15.375 27.5
      vertex -1.5 -15 27.5
    endloop
  endfacet
  facet normal 0 0 1
    outer loop
      vertex -1.5 -15.375 27.5
      vertex -2.75 -15 27.5
      vertex -1.5 -16.625 27.5
    endloop
  endfacet
  facet normal 0 0 1
    outer loop
      vertex -2.75 -17.5 27.5
      vertex -1.5 -16.625 27.5
      vertex -2.75 -15 27.5
    endloop
  endfacet
  facet normal 0 0 1
    outer loop
      vertex -1.5 -16.625 27.5
      vertex -2.75 -17.5 27.5
      vertex -1.5 -17.5 27.5
    endloop
  endfacet
  facet normal -0 0 1
    outer loop
      vertex -1.5 -15.375 27.5
      vertex 6 -16.625 27.5
      vertex 6 -15.375 27.5
    endloop
  endfacet
  facet normal 0 0 1
    outer loop
      vertex 6 -16.625 27.5
      vertex -1.5 -15.375 27.5
      vertex -1.5 -16.625 27.5
    endloop
  endfacet
  facet normal 0 0 1
    outer loop
      vertex 6 -15.375 27.5
      vertex 7.25 -14.5 27.5
      vertex 7.15778 -14.5 27.5
    endloop
  endfacet
  facet normal 0 0 1
    outer loop
      vertex 6 -15.375 27.5
      vertex 7.15778 -14.5 27.5
      vertex 6 -14.7209 27.5
    endloop
  endfacet
  facet normal 0 0 1
    outer loop
      vertex 7.25 -14.5 27.5
      vertex 6 -15.375 27.5
      vertex 7.25 -17.5 27.5
    endloop
  endfacet
  facet normal -0 0 1
    outer loop
      vertex 6 -16.625 27.5
      vertex 7.25 -17.5 27.5
      vertex 6 -15.375 27.5
    endloop
  endfacet
  facet normal 0 0 1
    outer loop
      vertex 7.25 -17.5 27.5
      vertex 6 -16.625 27.5
      vertex 6 -17.5 27.5
    endloop
  endfacet
  facet normal 0 -1 0
    outer loop
      vertex -2.75 -17.5 19
      vertex -1.5 -17.5 27.5
      vertex -2.75 -17.5 27.5
    endloop
  endfacet
  facet normal 0 -1 -0
    outer loop
      vertex -1.5 -17.5 27.5
      vertex -2.75 -17.5 19
      vertex -1.5 -17.5 19
    endloop
  endfacet
  facet normal 0 -1 0
    outer loop
      vertex 6 -17.5 19
      vertex 7.25 -17.5 27.5
      vertex 6 -17.5 27.5
    endloop
  endfacet
  facet normal 0 -1 -0
    outer loop
      vertex 7.25 -17.5 27.5
      vertex 6 -17.5 19
      vertex 7.25 -17.5 19
    endloop
  endfacet
  facet normal 0 1 -0
    outer loop
      vertex 7.25 -14.5 19
      vertex 7.15778 -14.5 27.5
      vertex 7.25 -14.5 27.5
    endloop
  endfacet
  facet normal 0 1 0
    outer loop
      vertex 7.15778 -14.5 27.5
      vertex 7.25 -14.5 19
      vertex 7.15778 -14.5 19
    endloop
  endfacet
  facet normal 0 -0 1
    outer loop
      vertex 7.25 14.4824 19
      vertex 7.25 14.5 19
      vertex 7.15778 14.5 19
    endloop
  endfacet
  facet normal 0 0 1
    outer loop
      vertex 6 15.375 19
      vertex 4.69186 14.9704 19
      vertex 6 14.7209 19
    endloop
  endfacet
  facet normal 0 0 1
    outer loop
      vertex 6 15.375 19
      vertex 2.75 15 19
      vertex 4.69186 14.9704 19
    endloop
  endfacet
  facet normal -0 0 1
    outer loop
      vertex -1.5 15.375 19
      vertex 2.75 15 19
      vertex 6 15.375 19
    endloop
  endfacet
  facet normal 0 0 1
    outer loop
      vertex 2.75 15 19
      vertex -1.5 15.375 19
      vertex -1.5 15 19
    endloop
  endfacet
  facet normal 0 0 1
    outer loop
      vertex 4.69186 14.9704 19
      vertex 2.75 15 19
      vertex 2.75 14.8482 19
    endloop
  endfacet
  facet normal 0 0 -1
    outer loop
      vertex 6 16.75 19
      vertex 7.25 17.5 19
      vertex 7.25 16.75 19
    endloop
  endfacet
  facet normal -0 0 -1
    outer loop
      vertex 7.25 17.5 19
      vertex 6 16.75 19
      vertex 6 17.5 19
    endloop
  endfacet
  facet normal 0 0 -1
    outer loop
      vertex -2.75 16.75 19
      vertex -1.5 17.5 19
      vertex -1.5 16.75 19
    endloop
  endfacet
  facet normal -0 0 -1
    outer loop
      vertex -1.5 17.5 19
      vertex -2.75 16.75 19
      vertex -2.75 17.5 19
    endloop
  endfacet
  facet normal -0 0 1
    outer loop
      vertex -1.5 16.75 19
      vertex 6 16.625 19
      vertex 6 16.75 19
    endloop
  endfacet
  facet normal 0 0 1
    outer loop
      vertex 6 16.625 19
      vertex -1.5 16.75 19
      vertex -1.5 16.625 19
    endloop
  endfacet
  facet normal 1 0 0
    outer loop
      vertex -2.75 22.5 37
      vertex -2.75 17.5 27.5
      vertex -2.75 22.5 14
    endloop
  endfacet
  facet normal 1 0 0
    outer loop
      vertex -2.75 22.5 37
      vertex -2.75 15 30
      vertex -2.75 17.5 27.5
    endloop
  endfacet
  facet normal 1 -0 0
    outer loop
      vertex -2.75 12.1461 37
      vertex -2.75 15 30
      vertex -2.75 22.5 37
    endloop
  endfacet
  facet normal 1 0 0
    outer loop
      vertex -2.75 15 30
      vertex -2.75 12.1461 37
      vertex -2.75 12.1461 30
    endloop
  endfacet
  facet normal 1 -0 0
    outer loop
      vertex -2.75 17.5 19
      vertex -2.75 22.5 14
      vertex -2.75 17.5 27.5
    endloop
  endfacet
  facet normal 1 0 0
    outer loop
      vertex -2.75 16.75 14
      vertex -2.75 17.5 19
      vertex -2.75 16.75 19
    endloop
  endfacet
  facet normal 1 0 0
    outer loop
      vertex -2.75 17.5 19
      vertex -2.75 16.75 14
      vertex -2.75 22.5 14
    endloop
  endfacet
  facet normal 1 0 0
    outer loop
      vertex -2.75 17.5 27.5
      vertex -2.75 15 30
      vertex -2.75 15 27.5
    endloop
  endfacet
  facet normal -1 0 0
    outer loop
      vertex 7.25 14.5 19
      vertex 7.25 14.4824 19
      vertex 7.25 14.5 27.5
    endloop
  endfacet
  facet normal -1 0 0
    outer loop
      vertex 7.25 17.5 27.5
      vertex 7.25 22.5 14
      vertex 7.25 17.5 19
    endloop
  endfacet
  facet normal -1 0 0
    outer loop
      vertex 7.25 16.75 14
      vertex 7.25 17.5 19
      vertex 7.25 22.5 14
    endloop
  endfacet
  facet normal -1 -0 0
    outer loop
      vertex 7.25 17.5 19
      vertex 7.25 16.75 14
      vertex 7.25 16.75 19
    endloop
  endfacet
  facet normal -1 0 0
    outer loop
      vertex 7.25 22.5 14
      vertex 7.25 17.5 27.5
      vertex 7.25 22.5 37
    endloop
  endfacet
  facet normal -1 0 0
    outer loop
      vertex 7.25 14.4824 30
      vertex 7.25 17.5 27.5
      vertex 7.25 14.5 27.5
    endloop
  endfacet
  facet normal -1 0 0
    outer loop
      vertex 7.25 14.4824 30
      vertex 7.25 14.5 27.5
      vertex 7.25 14.4824 19
    endloop
  endfacet
  facet normal -1 0 0
    outer loop
      vertex 7.25 17.5 27.5
      vertex 7.25 14.4824 30
      vertex 7.25 22.5 37
    endloop
  endfacet
  facet normal -1 0 0
    outer loop
      vertex 7.25 10.0973 37
      vertex 7.25 14.4824 30
      vertex 7.25 10.0973 30
    endloop
  endfacet
  facet normal -1 0 0
    outer loop
      vertex 7.25 14.4824 30
      vertex 7.25 10.0973 37
      vertex 7.25 22.5 37
    endloop
  endfacet
  facet normal 0 -1 0
    outer loop
      vertex 1 22.5 32.5
      vertex 3.5 22.5 35.5
      vertex 1 22.5 35.5
    endloop
  endfacet
  facet normal 0 -1 -0
    outer loop
      vertex 3.5 22.5 35.5
      vertex 1 22.5 32.5
      vertex 3.5 22.5 32.5
    endloop
  endfacet
  facet normal 0 -1 0
    outer loop
      vertex 1 22.5 35.5
      vertex -2.75 22.5 37
      vertex -0.5 22.5 35.5
    endloop
  endfacet
  facet normal 0 -1 0
    outer loop
      vertex -2.75 22.5 37
      vertex -0.5 22.5 32.5
      vertex -0.5 22.5 35.5
    endloop
  endfacet
  facet normal 0 -1 0
    outer loop
      vertex -2.75 22.5 14
      vertex 1 22.5 32.5
      vertex -0.5 22.5 32.5
    endloop
  endfacet
  facet normal 0 -1 -0
    outer loop
      vertex 1 22.5 32.5
      vertex -2.75 22.5 14
      vertex 3.5 22.5 32.5
    endloop
  endfacet
  facet normal 0 -1 0
    outer loop
      vertex 7.25 22.5 14
      vertex 3.5 22.5 32.5
      vertex -2.75 22.5 14
    endloop
  endfacet
  facet normal 0 -1 0
    outer loop
      vertex -2.75 22.5 14
      vertex -0.5 22.5 32.5
      vertex -2.75 22.5 37
    endloop
  endfacet
  facet normal 0 -1 0
    outer loop
      vertex -2.75 22.5 37
      vertex 1 22.5 35.5
      vertex 7.25 22.5 37
    endloop
  endfacet
  facet normal 0 -1 0
    outer loop
      vertex 3.5 22.5 35.5
      vertex 7.25 22.5 37
      vertex 1 22.5 35.5
    endloop
  endfacet
  facet normal 0 -1 0
    outer loop
      vertex 5 22.5 35.5
      vertex 7.25 22.5 37
      vertex 3.5 22.5 35.5
    endloop
  endfacet
  facet normal 0 -1 0
    outer loop
      vertex 5 22.5 32.5
      vertex 7.25 22.5 37
      vertex 5 22.5 35.5
    endloop
  endfacet
  facet normal 0 -1 0
    outer loop
      vertex 3.5 22.5 32.5
      vertex 7.25 22.5 14
      vertex 5 22.5 32.5
    endloop
  endfacet
  facet normal 0 -1 0
    outer loop
      vertex 5 22.5 32.5
      vertex 7.25 22.5 14
      vertex 7.25 22.5 37
    endloop
  endfacet
  facet normal -0 0 1
    outer loop
      vertex -2.75 22.5 14
      vertex 7.25 16.75 14
      vertex 7.25 22.5 14
    endloop
  endfacet
  facet normal 0 0 1
    outer loop
      vertex 7.25 16.75 14
      vertex -2.75 22.5 14
      vertex -2.75 16.75 14
    endloop
  endfacet
  facet normal 0 1 -0
    outer loop
      vertex 7.25 16.75 14
      vertex 6 16.75 19
      vertex 7.25 16.75 19
    endloop
  endfacet
  facet normal 0 1 0
    outer loop
      vertex 6 16.75 19
      vertex 7.25 16.75 14
      vertex -1.5 16.75 19
    endloop
  endfacet
  facet normal 0 1 0
    outer loop
      vertex -2.75 16.75 14
      vertex -1.5 16.75 19
      vertex 7.25 16.75 14
    endloop
  endfacet
  facet normal 0 1 0
    outer loop
      vertex -1.5 16.75 19
      vertex -2.75 16.75 14
      vertex -2.75 16.75 19
    endloop
  endfacet
  facet normal 1 0 0
    outer loop
      vertex -1.5 17.5 27.5
      vertex -1.5 16.75 19
      vertex -1.5 17.5 19
    endloop
  endfacet
  facet normal 1 -0 0
    outer loop
      vertex -1.5 16.625 27.5
      vertex -1.5 16.75 19
      vertex -1.5 17.5 27.5
    endloop
  endfacet
  facet normal 1 0 0
    outer loop
      vertex -1.5 16.75 19
      vertex -1.5 16.625 27.5
      vertex -1.5 16.625 19
    endloop
  endfacet
  facet normal 1 -0 0
    outer loop
      vertex -1.5 15 27.5
      vertex -1.5 15.375 19
      vertex -1.5 15.375 27.5
    endloop
  endfacet
  facet normal 1 0 0
    outer loop
      vertex -1.5 15.375 19
      vertex -1.5 15 27.5
      vertex -1.5 15 19
    endloop
  endfacet
  facet normal -1 0 0
    outer loop
      vertex 6 16.75 19
      vertex 6 17.5 27.5
      vertex 6 17.5 19
    endloop
  endfacet
  facet normal -1 0 0
    outer loop
      vertex 6 16.625 27.5
      vertex 6 16.75 19
      vertex 6 16.625 19
    endloop
  endfacet
  facet normal -1 0 0
    outer loop
      vertex 6 16.75 19
      vertex 6 16.625 27.5
      vertex 6 17.5 27.5
    endloop
  endfacet
  facet normal -1 0 0
    outer loop
      vertex 6 14.7209 19
      vertex 6 15.375 27.5
      vertex 6 15.375 19
    endloop
  endfacet
  facet normal -1 -0 0
    outer loop
      vertex 6 15.375 27.5
      vertex 6 14.7209 19
      vertex 6 14.7209 27.5
    endloop
  endfacet
  facet normal 0 1 -0
    outer loop
      vertex 6 16.625 19
      vertex -1.5 16.625 27.5
      vertex 6 16.625 27.5
    endloop
  endfacet
  facet normal 0 1 0
    outer loop
      vertex -1.5 16.625 27.5
      vertex 6 16.625 19
      vertex -1.5 16.625 19
    endloop
  endfacet
  facet normal 0 -1 0
    outer loop
      vertex -1.5 15.375 19
      vertex 6 15.375 27.5
      vertex -1.5 15.375 27.5
    endloop
  endfacet
  facet normal 0 -1 -0
    outer loop
      vertex 6 15.375 27.5
      vertex -1.5 15.375 19
      vertex 6 15.375 19
    endloop
  endfacet
  facet normal -0 0 1
    outer loop
      vertex -2.75 17.5 27.5
      vertex -1.5 16.625 27.5
      vertex -1.5 17.5 27.5
    endloop
  endfacet
  facet normal 0 0 1
    outer loop
      vertex -2.75 15 27.5
      vertex -1.5 16.625 27.5
      vertex -2.75 17.5 27.5
    endloop
  endfacet
  facet normal 0 0 1
    outer loop
      vertex -1.5 16.625 27.5
      vertex -2.75 15 27.5
      vertex -1.5 15.375 27.5
    endloop
  endfacet
  facet normal 0 0 1
    outer loop
      vertex -1.5 15.375 27.5
      vertex -2.75 15 27.5
      vertex -1.5 15 27.5
    endloop
  endfacet
  facet normal -0 0 1
    outer loop
      vertex -1.5 16.625 27.5
      vertex 6 15.375 27.5
      vertex 6 16.625 27.5
    endloop
  endfacet
  facet normal 0 0 1
    outer loop
      vertex 6 15.375 27.5
      vertex -1.5 16.625 27.5
      vertex -1.5 15.375 27.5
    endloop
  endfacet
  facet normal -0 0 1
    outer loop
      vertex 6 16.625 27.5
      vertex 7.25 14.5 27.5
      vertex 7.25 17.5 27.5
    endloop
  endfacet
  facet normal 0 0 1
    outer loop
      vertex 6 16.625 27.5
      vertex 7.25 17.5 27.5
      vertex 6 17.5 27.5
    endloop
  endfacet
  facet normal -0 0 1
    outer loop
      vertex 6 15.375 27.5
      vertex 7.25 14.5 27.5
      vertex 6 16.625 27.5
    endloop
  endfacet
  facet normal 0 0 1
    outer loop
      vertex 7.25 14.5 27.5
      vertex 6 15.375 27.5
      vertex 7.15778 14.5 27.5
    endloop
  endfacet
  facet normal 0 0 1
    outer loop
      vertex 7.15778 14.5 27.5
      vertex 6 15.375 27.5
      vertex 6 14.7209 27.5
    endloop
  endfacet
  facet normal 0 1 -0
    outer loop
      vertex 7.25 17.5 19
      vertex 6 17.5 27.5
      vertex 7.25 17.5 27.5
    endloop
  endfacet
  facet normal 0 1 0
    outer loop
      vertex 6 17.5 27.5
      vertex 7.25 17.5 19
      vertex 6 17.5 19
    endloop
  endfacet
  facet normal 0 -1 0
    outer loop
      vertex 7.15778 14.5 19
      vertex 7.25 14.5 27.5
      vertex 7.15778 14.5 27.5
    endloop
  endfacet
  facet normal 0 -1 -0
    outer loop
      vertex 7.25 14.5 27.5
      vertex 7.15778 14.5 19
      vertex 7.25 14.5 19
    endloop
  endfacet
  facet normal 0 1 -0
    outer loop
      vertex -1.5 17.5 19
      vertex -2.75 17.5 27.5
      vertex -1.5 17.5 27.5
    endloop
  endfacet
  facet normal 0 1 0
    outer loop
      vertex -2.75 17.5 27.5
      vertex -1.5 17.5 19
      vertex -2.75 17.5 19
    endloop
  endfacet
  facet normal -1 0 0
    outer loop
      vertex 2.75 -15 12
      vertex 2.75 -14.8482 19
      vertex 2.75 -14.8482 12
    endloop
  endfacet
  facet normal -1 -0 0
    outer loop
      vertex 2.75 -14.8482 19
      vertex 2.75 -15 12
      vertex 2.75 -15 19
    endloop
  endfacet
  facet normal -1 0 0
    outer loop
      vertex 2.75 14.8482 12
      vertex 2.75 15 19
      vertex 2.75 15 12
    endloop
  endfacet
  facet normal -1 -0 0
    outer loop
      vertex 2.75 15 19
      vertex 2.75 14.8482 12
      vertex 2.75 14.8482 19
    endloop
  endfacet
  facet normal 1 -0 0
    outer loop
      vertex -18.75 -15 30
      vertex -18.75 15 12
      vertex -18.75 15 30
    endloop
  endfacet
  facet normal 1 0 0
    outer loop
      vertex -18.75 15 12
      vertex -18.75 -15 30
      vertex -18.75 -15 12
    endloop
  endfacet
  facet normal 0 1 0
    outer loop
      vertex 2.75 -15 19
      vertex 2.75 -15 12
      vertex -1.5 -15 19
    endloop
  endfacet
  facet normal 0 1 0
    outer loop
      vertex -1.5 -15 27.5
      vertex -1.5 -15 19
      vertex -2.75 -15 27.5
    endloop
  endfacet
  facet normal 0 1 -0
    outer loop
      vertex -2.75 -15 27.5
      vertex -18.75 -15 30
      vertex -2.75 -15 30
    endloop
  endfacet
  facet normal 0 1 0
    outer loop
      vertex -1.5 -15 19
      vertex -18.75 -15 30
      vertex -2.75 -15 27.5
    endloop
  endfacet
  facet normal 0 1 0
    outer loop
      vertex -18.75 -15 12
      vertex -1.5 -15 19
      vertex 2.75 -15 12
    endloop
  endfacet
  facet normal 0 1 0
    outer loop
      vertex -1.5 -15 19
      vertex -18.75 -15 12
      vertex -18.75 -15 30
    endloop
  endfacet
  facet normal 0 -1 0
    outer loop
      vertex -18.75 15 30
      vertex -2.75 15 27.5
      vertex -2.75 15 30
    endloop
  endfacet
  facet normal 0 -1 0
    outer loop
      vertex -2.75 15 27.5
      vertex -1.5 15 19
      vertex -1.5 15 27.5
    endloop
  endfacet
  facet normal 0 -1 0
    outer loop
      vertex -18.75 15 30
      vertex -1.5 15 19
      vertex -2.75 15 27.5
    endloop
  endfacet
  facet normal 0 -1 0
    outer loop
      vertex -18.75 15 12
      vertex -1.5 15 19
      vertex -18.75 15 30
    endloop
  endfacet
  facet normal 0 -1 0
    outer loop
      vertex 2.75 15 12
      vertex -1.5 15 19
      vertex -18.75 15 12
    endloop
  endfacet
  facet normal 0 -1 0
    outer loop
      vertex -1.5 15 19
      vertex 2.75 15 12
      vertex 2.75 15 19
    endloop
  endfacet
  facet normal 0 0 -1
    outer loop
      vertex 12.5 0 30
      vertex 18.75 0 30
      vertex 18.2787 -3.73035 30
    endloop
  endfacet
  facet normal 0 0 -1
    outer loop
      vertex 12.1073 -3.10862 30
      vertex 18.2787 -3.73035 30
      vertex 16.8946 -7.22631 30
    endloop
  endfacet
  facet normal 0 0 -1
    outer loop
      vertex 18.75 0 30
      vertex 12.5 0 30
      vertex 18.2787 3.73035 30
    endloop
  endfacet
  facet normal 0 0 -1
    outer loop
      vertex 10.9538 -6.02192 30
      vertex 16.8946 -7.22631 30
      vertex 14.6845 -10.2682 30
    endloop
  endfacet
  facet normal 0 0 -1
    outer loop
      vertex 12.1073 3.10862 30
      vertex 18.2787 3.73035 30
      vertex 12.5 0 30
    endloop
  endfacet
  facet normal -0 0 -1
    outer loop
      vertex 18.2787 3.73035 30
      vertex 12.1073 3.10862 30
      vertex 16.8946 7.22631 30
    endloop
  endfacet
  facet normal 0 0 -1
    outer loop
      vertex 18.2787 -3.73035 30
      vertex 12.1073 -3.10862 30
      vertex 12.5 0 30
    endloop
  endfacet
  facet normal 0 0 -1
    outer loop
      vertex 9.11211 -8.55684 30
      vertex 14.6845 -10.2682 30
      vertex 11.7874 -12.6649 30
    endloop
  endfacet
  facet normal 0 0 -1
    outer loop
      vertex 16.8946 -7.22631 30
      vertex 10.9538 -6.02192 30
      vertex 12.1073 -3.10862 30
    endloop
  endfacet
  facet normal 0 0 -1
    outer loop
      vertex 14.6845 -10.2682 30
      vertex 9.11211 -8.55684 30
      vertex 10.9538 -6.02192 30
    endloop
  endfacet
  facet normal 0 0 -1
    outer loop
      vertex 7.25 -10.0973 30
      vertex 11.7874 -12.6649 30
      vertex 8.38526 -14.2658 30
    endloop
  endfacet
  facet normal 0 0 -1
    outer loop
      vertex 7.25 -10.0973 30
      vertex 8.38526 -14.2658 30
      vertex 7.25 -14.4824 30
    endloop
  endfacet
  facet normal 0 0 -1
    outer loop
      vertex 11.7874 -12.6649 30
      vertex 7.25 -10.0973 30
      vertex 9.11211 -8.55684 30
    endloop
  endfacet
  facet normal 0 0 -1
    outer loop
      vertex 10.9538 6.02192 30
      vertex 16.8946 7.22631 30
      vertex 12.1073 3.10862 30
    endloop
  endfacet
  facet normal -0 0 -1
    outer loop
      vertex 16.8946 7.22631 30
      vertex 10.9538 6.02192 30
      vertex 14.6845 10.2682 30
    endloop
  endfacet
  facet normal 0 0 -1
    outer loop
      vertex 9.11211 8.55684 30
      vertex 14.6845 10.2682 30
      vertex 10.9538 6.02192 30
    endloop
  endfacet
  facet normal -0 0 -1
    outer loop
      vertex 14.6845 10.2682 30
      vertex 9.11211 8.55684 30
      vertex 11.7874 12.6649 30
    endloop
  endfacet
  facet normal 0 0 -1
    outer loop
      vertex 7.25 10.0973 30
      vertex 11.7874 12.6649 30
      vertex 9.11211 8.55684 30
    endloop
  endfacet
  facet normal -0 0 -1
    outer loop
      vertex 11.7874 12.6649 30
      vertex 7.25 10.0973 30
      vertex 8.38526 14.2658 30
    endloop
  endfacet
  facet normal -0 0 -1
    outer loop
      vertex 8.38526 14.2658 30
      vertex 7.25 10.0973 30
      vertex 7.25 14.4824 30
    endloop
  endfacet
  facet normal 0 0 -1
    outer loop
      vertex -2.75 -15 30
      vertex -5.32224 -11.3103 30
      vertex -2.75 -12.1461 30
    endloop
  endfacet
  facet normal 0 0 -1
    outer loop
      vertex -18.75 -15 30
      vertex -5.32224 -11.3103 30
      vertex -2.75 -15 30
    endloop
  endfacet
  facet normal -0 0 -1
    outer loop
      vertex -12.4014 -1.56666 30
      vertex -18.75 -15 30
      vertex -12.4014 1.56666 30
    endloop
  endfacet
  facet normal -0 0 -1
    outer loop
      vertex -11.6222 -4.60156 30
      vertex -18.75 -15 30
      vertex -12.4014 -1.56666 30
    endloop
  endfacet
  facet normal -0 0 -1
    outer loop
      vertex -10.1127 -7.34731 30
      vertex -18.75 -15 30
      vertex -11.6222 -4.60156 30
    endloop
  endfacet
  facet normal -0 0 -1
    outer loop
      vertex -7.9678 -9.63142 30
      vertex -18.75 -15 30
      vertex -10.1127 -7.34731 30
    endloop
  endfacet
  facet normal -0 0 -1
    outer loop
      vertex -5.32224 -11.3103 30
      vertex -18.75 -15 30
      vertex -7.9678 -9.63142 30
    endloop
  endfacet
  facet normal 0 0 -1
    outer loop
      vertex -5.32224 11.3103 30
      vertex -2.75 15 30
      vertex -2.75 12.1461 30
    endloop
  endfacet
  facet normal 0 0 -1
    outer loop
      vertex -18.75 15 30
      vertex -5.32224 11.3103 30
      vertex -7.9678 9.63142 30
    endloop
  endfacet
  facet normal 0 0 -1
    outer loop
      vertex -18.75 15 30
      vertex -12.4014 1.56666 30
      vertex -18.75 -15 30
    endloop
  endfacet
  facet normal 0 0 -1
    outer loop
      vertex -5.32224 11.3103 30
      vertex -18.75 15 30
      vertex -2.75 15 30
    endloop
  endfacet
  facet normal 0 0 -1
    outer loop
      vertex -10.1127 7.34731 30
      vertex -18.75 15 30
      vertex -7.9678 9.63142 30
    endloop
  endfacet
  facet normal 0 0 -1
    outer loop
      vertex -11.6222 4.60156 30
      vertex -18.75 15 30
      vertex -10.1127 7.34731 30
    endloop
  endfacet
  facet normal 0 0 -1
    outer loop
      vertex -12.4014 1.56666 30
      vertex -18.75 15 30
      vertex -11.6222 4.60156 30
    endloop
  endfacet
  facet normal -0.929781 0.368113 0
    outer loop
      vertex 16.8946 -7.22631 12
      vertex 18.2787 -3.73035 30
      vertex 18.2787 -3.73035 12
    endloop
  endfacet
  facet normal -0.929781 0.368113 0
    outer loop
      vertex 18.2787 -3.73035 30
      vertex 16.8946 -7.22631 12
      vertex 16.8946 -7.22631 30
    endloop
  endfacet
  facet normal -0.992113 0.125346 0
    outer loop
      vertex 18.2787 -3.73035 12
      vertex 18.75 0 30
      vertex 18.75 0 12
    endloop
  endfacet
  facet normal -0.992113 0.125346 0
    outer loop
      vertex 18.75 0 30
      vertex 18.2787 -3.73035 12
      vertex 18.2787 -3.73035 30
    endloop
  endfacet
  facet normal -0.992113 -0.125346 0
    outer loop
      vertex 18.75 0 12
      vertex 18.2787 3.73035 30
      vertex 18.2787 3.73035 12
    endloop
  endfacet
  facet normal -0.992113 -0.125346 0
    outer loop
      vertex 18.2787 3.73035 30
      vertex 18.75 0 12
      vertex 18.75 0 30
    endloop
  endfacet
  facet normal 0.0628051 0.998026 -0
    outer loop
      vertex 4.69186 -14.9704 12
      vertex 2.75 -14.8482 19
      vertex 4.69186 -14.9704 19
    endloop
  endfacet
  facet normal 0.0628051 0.998026 0
    outer loop
      vertex 2.75 -14.8482 19
      vertex 4.69186 -14.9704 12
      vertex 2.75 -14.8482 12
    endloop
  endfacet
  facet normal -0.187352 -0.982293 0
    outer loop
      vertex 4.69186 14.9704 12
      vertex 6 14.7209 19
      vertex 4.69186 14.9704 19
    endloop
  endfacet
  facet normal -0.187393 -0.982285 8.06016e-06
    outer loop
      vertex 8.38526 14.2658 12
      vertex 6 14.7209 19
      vertex 4.69186 14.9704 12
    endloop
  endfacet
  facet normal -0.187415 -0.982281 2.11377e-07
    outer loop
      vertex 6 14.7209 19
      vertex 8.38526 14.2658 12
      vertex 7.15778 14.5 19
    endloop
  endfacet
  facet normal -0.187415 -0.982281 0
    outer loop
      vertex 6 14.7209 19
      vertex 7.15778 14.5 27.5
      vertex 6 14.7209 27.5
    endloop
  endfacet
  facet normal -0.187415 -0.982281 -0
    outer loop
      vertex 7.15778 14.5 27.5
      vertex 6 14.7209 19
      vertex 7.15778 14.5 19
    endloop
  endfacet
  facet normal -0.187413 -0.982281 0
    outer loop
      vertex 7.25 14.4824 19
      vertex 8.38526 14.2658 30
      vertex 7.25 14.4824 30
    endloop
  endfacet
  facet normal -0.187413 -0.982281 0
    outer loop
      vertex 7.25 14.4824 19
      vertex 8.38526 14.2658 12
      vertex 8.38526 14.2658 30
    endloop
  endfacet
  facet normal -0.187465 -0.982271 -8.7098e-06
    outer loop
      vertex 7.15778 14.5 19
      vertex 8.38526 14.2658 12
      vertex 7.25 14.4824 19
    endloop
  endfacet
  facet normal -0.187413 0.982281 0
    outer loop
      vertex 8.38526 -14.2658 30
      vertex 7.25 -14.4824 19
      vertex 7.25 -14.4824 30
    endloop
  endfacet
  facet normal -0.187465 0.982271 -8.7098e-06
    outer loop
      vertex 8.38526 -14.2658 12
      vertex 7.15778 -14.5 19
      vertex 7.25 -14.4824 19
    endloop
  endfacet
  facet normal -0.187415 0.982281 2.11377e-07
    outer loop
      vertex 7.15778 -14.5 19
      vertex 8.38526 -14.2658 12
      vertex 6 -14.7209 19
    endloop
  endfacet
  facet normal -0.187413 0.982281 0
    outer loop
      vertex 8.38526 -14.2658 12
      vertex 7.25 -14.4824 19
      vertex 8.38526 -14.2658 30
    endloop
  endfacet
  facet normal -0.187393 0.982285 8.06016e-06
    outer loop
      vertex 6 -14.7209 19
      vertex 8.38526 -14.2658 12
      vertex 4.69186 -14.9704 12
    endloop
  endfacet
  facet normal -0.187352 0.982293 0
    outer loop
      vertex 6 -14.7209 19
      vertex 4.69186 -14.9704 12
      vertex 4.69186 -14.9704 19
    endloop
  endfacet
  facet normal -0.187415 0.982281 0
    outer loop
      vertex 7.15778 -14.5 19
      vertex 6 -14.7209 27.5
      vertex 7.15778 -14.5 27.5
    endloop
  endfacet
  facet normal -0.187415 0.982281 0
    outer loop
      vertex 6 -14.7209 27.5
      vertex 7.15778 -14.5 19
      vertex 6 -14.7209 19
    endloop
  endfacet
  facet normal -0.637426 0.770512 0
    outer loop
      vertex 14.6845 -10.2682 12
      vertex 11.7874 -12.6649 30
      vertex 14.6845 -10.2682 30
    endloop
  endfacet
  facet normal -0.637426 0.770512 0
    outer loop
      vertex 11.7874 -12.6649 30
      vertex 14.6845 -10.2682 12
      vertex 11.7874 -12.6649 12
    endloop
  endfacet
  facet normal 0.0628051 -0.998026 0
    outer loop
      vertex 2.75 14.8482 12
      vertex 4.69186 14.9704 19
      vertex 2.75 14.8482 19
    endloop
  endfacet
  facet normal 0.0628051 -0.998026 0
    outer loop
      vertex 4.69186 14.9704 19
      vertex 2.75 14.8482 12
      vertex 4.69186 14.9704 12
    endloop
  endfacet
  facet normal -0.809012 -0.587792 0
    outer loop
      vertex 16.8946 7.22631 12
      vertex 14.6845 10.2682 30
      vertex 14.6845 10.2682 12
    endloop
  endfacet
  facet normal -0.809012 -0.587792 0
    outer loop
      vertex 14.6845 10.2682 30
      vertex 16.8946 7.22631 12
      vertex 16.8946 7.22631 30
    endloop
  endfacet
  facet normal -0.929781 -0.368113 0
    outer loop
      vertex 18.2787 3.73035 12
      vertex 16.8946 7.22631 30
      vertex 16.8946 7.22631 12
    endloop
  endfacet
  facet normal -0.929781 -0.368113 0
    outer loop
      vertex 16.8946 7.22631 30
      vertex 18.2787 3.73035 12
      vertex 18.2787 3.73035 30
    endloop
  endfacet
  facet normal -0.425774 0.90483 0
    outer loop
      vertex 11.7874 -12.6649 12
      vertex 8.38526 -14.2658 30
      vertex 11.7874 -12.6649 30
    endloop
  endfacet
  facet normal -0.425774 0.90483 0
    outer loop
      vertex 8.38526 -14.2658 30
      vertex 11.7874 -12.6649 12
      vertex 8.38526 -14.2658 12
    endloop
  endfacet
  facet normal -0.809012 0.587792 0
    outer loop
      vertex 14.6845 -10.2682 12
      vertex 16.8946 -7.22631 30
      vertex 16.8946 -7.22631 12
    endloop
  endfacet
  facet normal -0.809012 0.587792 0
    outer loop
      vertex 16.8946 -7.22631 30
      vertex 14.6845 -10.2682 12
      vertex 14.6845 -10.2682 30
    endloop
  endfacet
  facet normal -0.425774 -0.90483 0
    outer loop
      vertex 8.38526 14.2658 12
      vertex 11.7874 12.6649 30
      vertex 8.38526 14.2658 30
    endloop
  endfacet
  facet normal -0.425774 -0.90483 -0
    outer loop
      vertex 11.7874 12.6649 30
      vertex 8.38526 14.2658 12
      vertex 11.7874 12.6649 12
    endloop
  endfacet
  facet normal -0.637426 -0.770512 0
    outer loop
      vertex 11.7874 12.6649 12
      vertex 14.6845 10.2682 30
      vertex 11.7874 12.6649 30
    endloop
  endfacet
  facet normal -0.637426 -0.770512 -0
    outer loop
      vertex 14.6845 10.2682 30
      vertex 11.7874 12.6649 12
      vertex 14.6845 10.2682 12
    endloop
  endfacet
  facet normal -1 0 0
    outer loop
      vertex 5 -25 32.5
      vertex 5 -22.5 35.5
      vertex 5 -22.5 32.5
    endloop
  endfacet
  facet normal -1 -0 0
    outer loop
      vertex 5 -22.5 35.5
      vertex 5 -25 32.5
      vertex 5 -25 35.5
    endloop
  endfacet
  facet normal 1 -0 0
    outer loop
      vertex 3.5 -25 35.5
      vertex 3.5 -22.5 32.5
      vertex 3.5 -22.5 35.5
    endloop
  endfacet
  facet normal 1 0 0
    outer loop
      vertex 3.5 -22.5 32.5
      vertex 3.5 -25 35.5
      vertex 3.5 -25 32.5
    endloop
  endfacet
  facet normal 0 0 -1
    outer loop
      vertex 3.5 -25 35.5
      vertex 5 -22.5 35.5
      vertex 5 -25 35.5
    endloop
  endfacet
  facet normal -0 0 -1
    outer loop
      vertex 5 -22.5 35.5
      vertex 3.5 -25 35.5
      vertex 3.5 -22.5 35.5
    endloop
  endfacet
  facet normal -0 0 1
    outer loop
      vertex 3.5 -22.5 32.5
      vertex 5 -25 32.5
      vertex 5 -22.5 32.5
    endloop
  endfacet
  facet normal 0 0 1
    outer loop
      vertex 5 -25 32.5
      vertex 3.5 -22.5 32.5
      vertex 3.5 -25 32.5
    endloop
  endfacet
  facet normal -1 0 0
    outer loop
      vertex 1 -25 32.5
      vertex 1 -22.5 35.5
      vertex 1 -22.5 32.5
    endloop
  endfacet
  facet normal -1 -0 0
    outer loop
      vertex 1 -22.5 35.5
      vertex 1 -25 32.5
      vertex 1 -25 35.5
    endloop
  endfacet
  facet normal 1 -0 0
    outer loop
      vertex -0.5 -25 35.5
      vertex -0.5 -22.5 32.5
      vertex -0.5 -22.5 35.5
    endloop
  endfacet
  facet normal 1 0 0
    outer loop
      vertex -0.5 -22.5 32.5
      vertex -0.5 -25 35.5
      vertex -0.5 -25 32.5
    endloop
  endfacet
  facet normal 0 0 -1
    outer loop
      vertex -0.5 -25 35.5
      vertex 1 -22.5 35.5
      vertex 1 -25 35.5
    endloop
  endfacet
  facet normal -0 0 -1
    outer loop
      vertex 1 -22.5 35.5
      vertex -0.5 -25 35.5
      vertex -0.5 -22.5 35.5
    endloop
  endfacet
  facet normal -0 0 1
    outer loop
      vertex -0.5 -22.5 32.5
      vertex 1 -25 32.5
      vertex 1 -22.5 32.5
    endloop
  endfacet
  facet normal 0 0 1
    outer loop
      vertex 1 -25 32.5
      vertex -0.5 -22.5 32.5
      vertex -0.5 -25 32.5
    endloop
  endfacet
  facet normal -1 0 0
    outer loop
      vertex 5 22.5 32.5
      vertex 5 25 35.5
      vertex 5 25 32.5
    endloop
  endfacet
  facet normal -1 -0 0
    outer loop
      vertex 5 25 35.5
      vertex 5 22.5 32.5
      vertex 5 22.5 35.5
    endloop
  endfacet
  facet normal 1 -0 0
    outer loop
      vertex 3.5 22.5 35.5
      vertex 3.5 25 32.5
      vertex 3.5 25 35.5
    endloop
  endfacet
  facet normal 1 0 0
    outer loop
      vertex 3.5 25 32.5
      vertex 3.5 22.5 35.5
      vertex 3.5 22.5 32.5
    endloop
  endfacet
  facet normal -0 0 1
    outer loop
      vertex 3.5 25 32.5
      vertex 5 22.5 32.5
      vertex 5 25 32.5
    endloop
  endfacet
  facet normal 0 0 1
    outer loop
      vertex 5 22.5 32.5
      vertex 3.5 25 32.5
      vertex 3.5 22.5 32.5
    endloop
  endfacet
  facet normal 0 0 -1
    outer loop
      vertex 3.5 22.5 35.5
      vertex 5 25 35.5
      vertex 5 22.5 35.5
    endloop
  endfacet
  facet normal -0 0 -1
    outer loop
      vertex 5 25 35.5
      vertex 3.5 22.5 35.5
      vertex 3.5 25 35.5
    endloop
  endfacet
  facet normal -1 0 0
    outer loop
      vertex 1 22.5 32.5
      vertex 1 25 35.5
      vertex 1 25 32.5
    endloop
  endfacet
  facet normal -1 -0 0
    outer loop
      vertex 1 25 35.5
      vertex 1 22.5 32.5
      vertex 1 22.5 35.5
    endloop
  endfacet
  facet normal 1 -0 0
    outer loop
      vertex -0.5 22.5 35.5
      vertex -0.5 25 32.5
      vertex -0.5 25 35.5
    endloop
  endfacet
  facet normal 1 0 0
    outer loop
      vertex -0.5 25 32.5
      vertex -0.5 22.5 35.5
      vertex -0.5 22.5 32.5
    endloop
  endfacet
  facet normal -0 0 1
    outer loop
      vertex -0.5 25 32.5
      vertex 1 22.5 32.5
      vertex 1 25 32.5
    endloop
  endfacet
  facet normal 0 0 1
    outer loop
      vertex 1 22.5 32.5
      vertex -0.5 25 32.5
      vertex -0.5 22.5 32.5
    endloop
  endfacet
  facet normal 0 0 -1
    outer loop
      vertex -0.5 22.5 35.5
      vertex 1 25 35.5
      vertex 1 22.5 35.5
    endloop
  endfacet
  facet normal -0 0 -1
    outer loop
      vertex 1 25 35.5
      vertex -0.5 22.5 35.5
      vertex -0.5 25 35.5
    endloop
  endfacet
  facet normal 0 -1 0
    outer loop
      vertex 18.5 -17.25 12
      vertex 21.5 -17.25 37
      vertex 18.5 -17.25 37
    endloop
  endfacet
  facet normal 0 -1 -0
    outer loop
      vertex 21.5 -17.25 37
      vertex 18.5 -17.25 12
      vertex 21.5 -17.25 12
    endloop
  endfacet
  facet normal 0 1 -0
    outer loop
      vertex 21.5 -18.75 12
      vertex 18.5 -18.75 37
      vertex 21.5 -18.75 37
    endloop
  endfacet
  facet normal 0 1 0
    outer loop
      vertex 18.5 -18.75 37
      vertex 21.5 -18.75 12
      vertex 18.5 -18.75 12
    endloop
  endfacet
  facet normal -1 0 0
    outer loop
      vertex 21.5 -18.75 12
      vertex 21.5 -17.25 37
      vertex 21.5 -17.25 12
    endloop
  endfacet
  facet normal -1 -0 0
    outer loop
      vertex 21.5 -17.25 37
      vertex 21.5 -18.75 12
      vertex 21.5 -18.75 37
    endloop
  endfacet
  facet normal 1 -0 0
    outer loop
      vertex 18.5 -18.75 37
      vertex 18.5 -17.25 12
      vertex 18.5 -17.25 37
    endloop
  endfacet
  facet normal 1 0 0
    outer loop
      vertex 18.5 -17.25 12
      vertex 18.5 -18.75 37
      vertex 18.5 -18.75 12
    endloop
  endfacet
  facet normal 0 -1 0
    outer loop
      vertex 18.5 -21.25 12
      vertex 21.5 -21.25 37
      vertex 18.5 -21.25 37
    endloop
  endfacet
  facet normal 0 -1 -0
    outer loop
      vertex 21.5 -21.25 37
      vertex 18.5 -21.25 12
      vertex 21.5 -21.25 12
    endloop
  endfacet
  facet normal 0 1 -0
    outer loop
      vertex 21.5 -22.75 12
      vertex 18.5 -22.75 37
      vertex 21.5 -22.75 37
    endloop
  endfacet
  facet normal 0 1 0
    outer loop
      vertex 18.5 -22.75 37
      vertex 21.5 -22.75 12
      vertex 18.5 -22.75 12
    endloop
  endfacet
  facet normal -1 0 0
    outer loop
      vertex 21.5 -22.75 12
      vertex 21.5 -21.25 37
      vertex 21.5 -21.25 12
    endloop
  endfacet
  facet normal -1 -0 0
    outer loop
      vertex 21.5 -21.25 37
      vertex 21.5 -22.75 12
      vertex 21.5 -22.75 37
    endloop
  endfacet
  facet normal 1 -0 0
    outer loop
      vertex 18.5 -22.75 37
      vertex 18.5 -21.25 12
      vertex 18.5 -21.25 37
    endloop
  endfacet
  facet normal 1 0 0
    outer loop
      vertex 18.5 -21.25 12
      vertex 18.5 -22.75 37
      vertex 18.5 -22.75 12
    endloop
  endfacet
  facet normal -0.992115 0.12533 0
    outer loop
      vertex 12.1073 -3.10862 30
      vertex 12.5 0 37
      vertex 12.5 0 30
    endloop
  endfacet
  facet normal -0.992115 0.12533 0
    outer loop
      vertex 12.5 0 37
      vertex 12.1073 -3.10862 30
      vertex 12.1073 -3.10862 37
    endloop
  endfacet
  facet normal -0.992115 -0.12533 0
    outer loop
      vertex 12.5 0 30
      vertex 12.1073 3.10862 37
      vertex 12.1073 3.10862 30
    endloop
  endfacet
  facet normal -0.992115 -0.12533 0
    outer loop
      vertex 12.1073 3.10862 37
      vertex 12.5 0 30
      vertex 12.5 0 37
    endloop
  endfacet
  facet normal 0.876305 0.481756 0
    outer loop
      vertex -10.1127 -7.34731 37
      vertex -11.6222 -4.60156 30
      vertex -11.6222 -4.60156 37
    endloop
  endfacet
  facet normal 0.876305 0.481756 0
    outer loop
      vertex -11.6222 -4.60156 30
      vertex -10.1127 -7.34731 37
      vertex -10.1127 -7.34731 30
    endloop
  endfacet
  facet normal -0.637421 0.770516 0
    outer loop
      vertex 9.11211 -8.55684 30
      vertex 7.25 -10.0973 37
      vertex 9.11211 -8.55684 37
    endloop
  endfacet
  facet normal -0.637421 0.770516 0
    outer loop
      vertex 7.25 -10.0973 37
      vertex 9.11211 -8.55684 30
      vertex 7.25 -10.0973 30
    endloop
  endfacet
  facet normal -0.929772 0.368136 0
    outer loop
      vertex 10.9538 -6.02192 30
      vertex 12.1073 -3.10862 37
      vertex 12.1073 -3.10862 30
    endloop
  endfacet
  facet normal -0.929772 0.368136 0
    outer loop
      vertex 12.1073 -3.10862 37
      vertex 10.9538 -6.02192 30
      vertex 10.9538 -6.02192 37
    endloop
  endfacet
  facet normal 0.309027 -0.951053 0
    outer loop
      vertex -5.32224 11.3103 30
      vertex -2.75 12.1461 37
      vertex -5.32224 11.3103 37
    endloop
  endfacet
  facet normal 0.309027 -0.951053 0
    outer loop
      vertex -2.75 12.1461 37
      vertex -5.32224 11.3103 30
      vertex -2.75 12.1461 30
    endloop
  endfacet
  facet normal 0.968585 0.248681 0
    outer loop
      vertex -11.6222 -4.60156 37
      vertex -12.4014 -1.56666 30
      vertex -12.4014 -1.56666 37
    endloop
  endfacet
  facet normal 0.968585 0.248681 0
    outer loop
      vertex -12.4014 -1.56666 30
      vertex -11.6222 -4.60156 37
      vertex -11.6222 -4.60156 30
    endloop
  endfacet
  facet normal 0.728972 0.684543 0
    outer loop
      vertex -7.9678 -9.63142 37
      vertex -10.1127 -7.34731 30
      vertex -10.1127 -7.34731 37
    endloop
  endfacet
  facet normal 0.728972 0.684543 0
    outer loop
      vertex -10.1127 -7.34731 30
      vertex -7.9678 -9.63142 37
      vertex -7.9678 -9.63142 30
    endloop
  endfacet
  facet normal 0.309027 0.951053 -0
    outer loop
      vertex -2.75 -12.1461 30
      vertex -5.32224 -11.3103 37
      vertex -2.75 -12.1461 37
    endloop
  endfacet
  facet normal 0.309027 0.951053 0
    outer loop
      vertex -5.32224 -11.3103 37
      vertex -2.75 -12.1461 30
      vertex -5.32224 -11.3103 30
    endloop
  endfacet
  facet normal 0.535817 0.844334 -0
    outer loop
      vertex -5.32224 -11.3103 30
      vertex -7.9678 -9.63142 37
      vertex -5.32224 -11.3103 37
    endloop
  endfacet
  facet normal 0.535817 0.844334 0
    outer loop
      vertex -7.9678 -9.63142 37
      vertex -5.32224 -11.3103 30
      vertex -7.9678 -9.63142 30
    endloop
  endfacet
  facet normal 1 -0 0
    outer loop
      vertex -12.4014 -1.56666 37
      vertex -12.4014 1.56666 30
      vertex -12.4014 1.56666 37
    endloop
  endfacet
  facet normal 1 0 0
    outer loop
      vertex -12.4014 1.56666 30
      vertex -12.4014 -1.56666 37
      vertex -12.4014 -1.56666 30
    endloop
  endfacet
  facet normal 0.968585 -0.248681 0
    outer loop
      vertex -12.4014 1.56666 37
      vertex -11.6222 4.60156 30
      vertex -11.6222 4.60156 37
    endloop
  endfacet
  facet normal 0.968585 -0.248681 0
    outer loop
      vertex -11.6222 4.60156 30
      vertex -12.4014 1.56666 37
      vertex -12.4014 1.56666 30
    endloop
  endfacet
  facet normal 0.876305 -0.481756 0
    outer loop
      vertex -11.6222 4.60156 37
      vertex -10.1127 7.34731 30
      vertex -10.1127 7.34731 37
    endloop
  endfacet
  facet normal 0.876305 -0.481756 0
    outer loop
      vertex -10.1127 7.34731 30
      vertex -11.6222 4.60156 37
      vertex -11.6222 4.60156 30
    endloop
  endfacet
  facet normal -0.637421 -0.770516 0
    outer loop
      vertex 7.25 10.0973 30
      vertex 9.11211 8.55684 37
      vertex 7.25 10.0973 37
    endloop
  endfacet
  facet normal -0.637421 -0.770516 -0
    outer loop
      vertex 9.11211 8.55684 37
      vertex 7.25 10.0973 30
      vertex 9.11211 8.55684 30
    endloop
  endfacet
  facet normal -0.809023 0.587777 0
    outer loop
      vertex 9.11211 -8.55684 30
      vertex 10.9538 -6.02192 37
      vertex 10.9538 -6.02192 30
    endloop
  endfacet
  facet normal -0.809023 0.587777 0
    outer loop
      vertex 10.9538 -6.02192 37
      vertex 9.11211 -8.55684 30
      vertex 9.11211 -8.55684 37
    endloop
  endfacet
  facet normal 0.728972 -0.684543 0
    outer loop
      vertex -10.1127 7.34731 37
      vertex -7.9678 9.63142 30
      vertex -7.9678 9.63142 37
    endloop
  endfacet
  facet normal 0.728972 -0.684543 0
    outer loop
      vertex -7.9678 9.63142 30
      vertex -10.1127 7.34731 37
      vertex -10.1127 7.34731 30
    endloop
  endfacet
  facet normal 0.535817 -0.844334 0
    outer loop
      vertex -7.9678 9.63142 30
      vertex -5.32224 11.3103 37
      vertex -7.9678 9.63142 37
    endloop
  endfacet
  facet normal 0.535817 -0.844334 0
    outer loop
      vertex -5.32224 11.3103 37
      vertex -7.9678 9.63142 30
      vertex -5.32224 11.3103 30
    endloop
  endfacet
  facet normal -0.929772 -0.368136 0
    outer loop
      vertex 12.1073 3.10862 30
      vertex 10.9538 6.02192 37
      vertex 10.9538 6.02192 30
    endloop
  endfacet
  facet normal -0.929772 -0.368136 0
    outer loop
      vertex 10.9538 6.02192 37
      vertex 12.1073 3.10862 30
      vertex 12.1073 3.10862 37
    endloop
  endfacet
  facet normal -0.809023 -0.587777 0
    outer loop
      vertex 10.9538 6.02192 30
      vertex 9.11211 8.55684 37
      vertex 9.11211 8.55684 30
    endloop
  endfacet
  facet normal -0.809023 -0.587777 0
    outer loop
      vertex 9.11211 8.55684 37
      vertex 10.9538 6.02192 30
      vertex 10.9538 6.02192 37
    endloop
  endfacet
  facet normal 0.587816 -0.808995 0
    outer loop
      vertex 22.4088 -24.3815 12
      vertex 23.4227 -23.6448 37
      vertex 22.4088 -24.3815 37
    endloop
  endfacet
  facet normal 0.587816 -0.808995 0
    outer loop
      vertex 23.4227 -23.6448 37
      vertex 22.4088 -24.3815 12
      vertex 23.4227 -23.6448 12
    endloop
  endfacet
  facet normal -0.368142 0.92977 0
    outer loop
      vertex -21.2435 24.8429 12
      vertex -22.4088 24.3815 37
      vertex -21.2435 24.8429 37
    endloop
  endfacet
  facet normal -0.368142 0.92977 0
    outer loop
      vertex -22.4088 24.3815 37
      vertex -21.2435 24.8429 12
      vertex -22.4088 24.3815 12
    endloop
  endfacet
  facet normal 0.368142 -0.92977 0
    outer loop
      vertex 21.2435 -24.8429 12
      vertex 22.4088 -24.3815 37
      vertex 21.2435 -24.8429 37
    endloop
  endfacet
  facet normal 0.368142 -0.92977 0
    outer loop
      vertex 22.4088 -24.3815 37
      vertex 21.2435 -24.8429 12
      vertex 22.4088 -24.3815 12
    endloop
  endfacet
  facet normal 0.808995 0.587816 0
    outer loop
      vertex 24.3815 22.4088 37
      vertex 23.6448 23.4227 12
      vertex 23.6448 23.4227 37
    endloop
  endfacet
  facet normal 0.808995 0.587816 0
    outer loop
      vertex 23.6448 23.4227 12
      vertex 24.3815 22.4088 37
      vertex 24.3815 22.4088 12
    endloop
  endfacet
  facet normal -0.98769 0.156422 0
    outer loop
      vertex -25 20 12
      vertex -24.7553 21.5451 37
      vertex -24.7553 21.5451 12
    endloop
  endfacet
  facet normal -0.98769 0.156422 0
    outer loop
      vertex -24.7553 21.5451 37
      vertex -25 20 12
      vertex -25 20 37
    endloop
  endfacet
  facet normal 0 0 1
    outer loop
      vertex -2.75 -12.1461 37
      vertex -5.32224 -11.3103 37
      vertex -2.75 -22.5 37
    endloop
  endfacet
  facet normal -0 0 1
    outer loop
      vertex 18.5 -18.75 37
      vertex 21.5 -21.25 37
      vertex 21.5 -18.75 37
    endloop
  endfacet
  facet normal 0 0 1
    outer loop
      vertex 21.5 -21.25 37
      vertex 18.5 -18.75 37
      vertex 18.5 -21.25 37
    endloop
  endfacet
  facet normal 0 0 1
    outer loop
      vertex 9.11211 8.55684 37
      vertex 25 20 37
      vertex 20 25 37
    endloop
  endfacet
  facet normal 0 0 1
    outer loop
      vertex 25 20 37
      vertex 12.5 0 37
      vertex 21.5 -17.25 37
    endloop
  endfacet
  facet normal 0 0 1
    outer loop
      vertex 7.25 -22.5 37
      vertex 18.5 -18.75 37
      vertex 18.5 -17.25 37
    endloop
  endfacet
  facet normal 0 0 1
    outer loop
      vertex 18.5 -18.75 37
      vertex 7.25 -22.5 37
      vertex 18.5 -21.25 37
    endloop
  endfacet
  facet normal -0 0 1
    outer loop
      vertex 10.9538 -6.02192 37
      vertex 21.5 -17.25 37
      vertex 12.1073 -3.10862 37
    endloop
  endfacet
  facet normal -0 0 1
    outer loop
      vertex 12.1073 -3.10862 37
      vertex 21.5 -17.25 37
      vertex 12.5 0 37
    endloop
  endfacet
  facet normal 0 0 1
    outer loop
      vertex 25 20 37
      vertex 12.1073 3.10862 37
      vertex 12.5 0 37
    endloop
  endfacet
  facet normal 0 0 1
    outer loop
      vertex 25 20 37
      vertex 10.9538 6.02192 37
      vertex 12.1073 3.10862 37
    endloop
  endfacet
  facet normal 0 0 1
    outer loop
      vertex 25 20 37
      vertex 9.11211 8.55684 37
      vertex 10.9538 6.02192 37
    endloop
  endfacet
  facet normal 0 0 1
    outer loop
      vertex 20 25 37
      vertex 7.25 22.5 37
      vertex 9.11211 8.55684 37
    endloop
  endfacet
  facet normal 0 0 1
    outer loop
      vertex 20 25 37
      vertex -2.75 22.5 37
      vertex 7.25 22.5 37
    endloop
  endfacet
  facet normal 0 0 1
    outer loop
      vertex -2.75 22.5 37
      vertex -5.32224 11.3103 37
      vertex -2.75 12.1461 37
    endloop
  endfacet
  facet normal 0 0 1
    outer loop
      vertex -2.75 22.5 37
      vertex -7.9678 9.63142 37
      vertex -5.32224 11.3103 37
    endloop
  endfacet
  facet normal 0 0 1
    outer loop
      vertex -20 25 37
      vertex -7.9678 9.63142 37
      vertex -2.75 22.5 37
    endloop
  endfacet
  facet normal -0 0 1
    outer loop
      vertex -25 20 37
      vertex -7.9678 9.63142 37
      vertex -20 25 37
    endloop
  endfacet
  facet normal 0 0 1
    outer loop
      vertex -11.6222 4.60156 37
      vertex -25 20 37
      vertex -12.4014 1.56666 37
    endloop
  endfacet
  facet normal 0 0 1
    outer loop
      vertex -10.1127 7.34731 37
      vertex -25 20 37
      vertex -11.6222 4.60156 37
    endloop
  endfacet
  facet normal 0 0 1
    outer loop
      vertex -7.9678 9.63142 37
      vertex -25 20 37
      vertex -10.1127 7.34731 37
    endloop
  endfacet
  facet normal -0 0 1
    outer loop
      vertex -20 25 37
      vertex -2.75 22.5 37
      vertex 20 25 37
    endloop
  endfacet
  facet normal 0 0 1
    outer loop
      vertex 21.5451 24.7553 37
      vertex 25 20 37
      vertex 24.8429 21.2435 37
    endloop
  endfacet
  facet normal 0 0 1
    outer loop
      vertex 25 20 37
      vertex 21.5 -17.25 37
      vertex 25 -20 37
    endloop
  endfacet
  facet normal 0 0 1
    outer loop
      vertex 21.5451 24.7553 37
      vertex 24.8429 21.2435 37
      vertex 24.3815 22.4088 37
    endloop
  endfacet
  facet normal -0 0 1
    outer loop
      vertex 21.5 -18.75 37
      vertex 25 -20 37
      vertex 21.5 -17.25 37
    endloop
  endfacet
  facet normal 0 0 1
    outer loop
      vertex 21.5451 24.7553 37
      vertex 24.3815 22.4088 37
      vertex 23.6448 23.4227 37
    endloop
  endfacet
  facet normal 0 0 1
    outer loop
      vertex 21.5 -21.25 37
      vertex 25 -20 37
      vertex 21.5 -18.75 37
    endloop
  endfacet
  facet normal 0 0 1
    outer loop
      vertex 21.5451 24.7553 37
      vertex 23.6448 23.4227 37
      vertex 22.6791 24.2216 37
    endloop
  endfacet
  facet normal 0 0 1
    outer loop
      vertex 25 -20 37
      vertex 21.5 -21.25 37
      vertex 24.7553 -21.5451 37
    endloop
  endfacet
  facet normal 0 0 1
    outer loop
      vertex 20 25 37
      vertex 25 20 37
      vertex 21.5451 24.7553 37
    endloop
  endfacet
  facet normal 0 0 1
    outer loop
      vertex 24.7553 -21.5451 37
      vertex 21.5 -21.25 37
      vertex 24.2216 -22.6791 37
    endloop
  endfacet
  facet normal 0 0 1
    outer loop
      vertex 21.5 -22.75 37
      vertex 24.2216 -22.6791 37
      vertex 21.5 -21.25 37
    endloop
  endfacet
  facet normal 0 0 1
    outer loop
      vertex 24.2216 -22.6791 37
      vertex 21.5 -22.75 37
      vertex 23.4227 -23.6448 37
    endloop
  endfacet
  facet normal 0 0 1
    outer loop
      vertex 23.4227 -23.6448 37
      vertex 21.5 -22.75 37
      vertex 22.4088 -24.3815 37
    endloop
  endfacet
  facet normal 0 0 1
    outer loop
      vertex 21.5 -22.75 37
      vertex 21.2435 -24.8429 37
      vertex 22.4088 -24.3815 37
    endloop
  endfacet
  facet normal 0 0 1
    outer loop
      vertex 21.5 -22.75 37
      vertex 20 -25 37
      vertex 21.2435 -24.8429 37
    endloop
  endfacet
  facet normal -0 0 1
    outer loop
      vertex 18.5 -22.75 37
      vertex 20 -25 37
      vertex 21.5 -22.75 37
    endloop
  endfacet
  facet normal 0 0 1
    outer loop
      vertex 21.5 -17.25 37
      vertex 10.9538 -6.02192 37
      vertex 18.5 -17.25 37
    endloop
  endfacet
  facet normal -0 0 1
    outer loop
      vertex 9.11211 -8.55684 37
      vertex 18.5 -17.25 37
      vertex 10.9538 -6.02192 37
    endloop
  endfacet
  facet normal -0 0 1
    outer loop
      vertex 7.25 -10.0973 37
      vertex 18.5 -17.25 37
      vertex 9.11211 -8.55684 37
    endloop
  endfacet
  facet normal 0 0 1
    outer loop
      vertex 7.25 -22.5 37
      vertex 18.5 -17.25 37
      vertex 7.25 -10.0973 37
    endloop
  endfacet
  facet normal 0 0 1
    outer loop
      vertex 18.5 -21.25 37
      vertex 7.25 -22.5 37
      vertex 18.5 -22.75 37
    endloop
  endfacet
  facet normal 0 0 1
    outer loop
      vertex 18.5 -22.75 37
      vertex 7.25 -22.5 37
      vertex 20 -25 37
    endloop
  endfacet
  facet normal -0 0 1
    outer loop
      vertex -2.75 -22.5 37
      vertex 20 -25 37
      vertex 7.25 -22.5 37
    endloop
  endfacet
  facet normal 0 0 1
    outer loop
      vertex -7.9678 -9.63142 37
      vertex -2.75 -22.5 37
      vertex -5.32224 -11.3103 37
    endloop
  endfacet
  facet normal 0 0 1
    outer loop
      vertex -25 -20 37
      vertex -7.9678 -9.63142 37
      vertex -10.1127 -7.34731 37
    endloop
  endfacet
  facet normal 0 0 1
    outer loop
      vertex -25 -20 37
      vertex -10.1127 -7.34731 37
      vertex -11.6222 -4.60156 37
    endloop
  endfacet
  facet normal 0 0 1
    outer loop
      vertex -12.4014 1.56666 37
      vertex -25 20 37
      vertex -12.4014 -1.56666 37
    endloop
  endfacet
  facet normal 0 0 1
    outer loop
      vertex -2.75 -22.5 37
      vertex -20 -25 37
      vertex 20 -25 37
    endloop
  endfacet
  facet normal 0 0 1
    outer loop
      vertex -7.9678 -9.63142 37
      vertex -20 -25 37
      vertex -2.75 -22.5 37
    endloop
  endfacet
  facet normal 0 0 1
    outer loop
      vertex -25 -20 37
      vertex -12.4014 -1.56666 37
      vertex -25 20 37
    endloop
  endfacet
  facet normal 0 0 1
    outer loop
      vertex -25 20 37
      vertex -20 25 37
      vertex -21.2435 24.8429 37
    endloop
  endfacet
  facet normal 0 0 1
    outer loop
      vertex -12.4014 -1.56666 37
      vertex -25 -20 37
      vertex -11.6222 -4.60156 37
    endloop
  endfacet
  facet normal 0 0 1
    outer loop
      vertex -25 20 37
      vertex -21.2435 24.8429 37
      vertex -22.4088 24.3815 37
    endloop
  endfacet
  facet normal 0 0 1
    outer loop
      vertex -7.9678 -9.63142 37
      vertex -25 -20 37
      vertex -20 -25 37
    endloop
  endfacet
  facet normal 0 0 1
    outer loop
      vertex -25 20 37
      vertex -22.4088 24.3815 37
      vertex -23.4227 23.6448 37
    endloop
  endfacet
  facet normal 0 0 1
    outer loop
      vertex -20 -25 37
      vertex -25 -20 37
      vertex -21.5451 -24.7553 37
    endloop
  endfacet
  facet normal 0 0 1
    outer loop
      vertex -25 20 37
      vertex -23.4227 23.6448 37
      vertex -24.2216 22.6791 37
    endloop
  endfacet
  facet normal 0 0 1
    outer loop
      vertex -21.5451 -24.7553 37
      vertex -25 -20 37
      vertex -22.6791 -24.2216 37
    endloop
  endfacet
  facet normal 0 0 1
    outer loop
      vertex -25 20 37
      vertex -24.2216 22.6791 37
      vertex -24.7553 21.5451 37
    endloop
  endfacet
  facet normal 0 0 1
    outer loop
      vertex -22.6791 -24.2216 37
      vertex -25 -20 37
      vertex -23.6448 -23.4227 37
    endloop
  endfacet
  facet normal 0 0 1
    outer loop
      vertex -23.6448 -23.4227 37
      vertex -25 -20 37
      vertex -24.3815 -22.4088 37
    endloop
  endfacet
  facet normal 0 0 1
    outer loop
      vertex -24.3815 -22.4088 37
      vertex -25 -20 37
      vertex -24.8429 -21.2435 37
    endloop
  endfacet
  facet normal 0 0 1
    outer loop
      vertex 9.11211 8.55684 37
      vertex 7.25 22.5 37
      vertex 7.25 10.0973 37
    endloop
  endfacet
  facet normal -1 0 0
    outer loop
      vertex -25 -20 12
      vertex -25 20 37
      vertex -25 20 12
    endloop
  endfacet
  facet normal -1 -0 0
    outer loop
      vertex -25 20 37
      vertex -25 -20 12
      vertex -25 -20 37
    endloop
  endfacet
  facet normal 0 -1 0
    outer loop
      vertex 1 -25 32.5
      vertex 3.5 -25 35.5
      vertex 1 -25 35.5
    endloop
  endfacet
  facet normal 0 -1 -0
    outer loop
      vertex 3.5 -25 35.5
      vertex 1 -25 32.5
      vertex 3.5 -25 32.5
    endloop
  endfacet
  facet normal 0 -1 0
    outer loop
      vertex -20 -25 37
      vertex -0.5 -25 35.5
      vertex 20 -25 37
    endloop
  endfacet
  facet normal 0 -1 0
    outer loop
      vertex -20 -25 37
      vertex -0.5 -25 32.5
      vertex -0.5 -25 35.5
    endloop
  endfacet
  facet normal 0 -1 0
    outer loop
      vertex 20 -25 12
      vertex 1 -25 32.5
      vertex -0.5 -25 32.5
    endloop
  endfacet
  facet normal 0 -1 0
    outer loop
      vertex 1 -25 32.5
      vertex 20 -25 12
      vertex 3.5 -25 32.5
    endloop
  endfacet
  facet normal 0 -1 0
    outer loop
      vertex 20 -25 12
      vertex -0.5 -25 32.5
      vertex -20 -25 12
    endloop
  endfacet
  facet normal 0 -1 0
    outer loop
      vertex -20 -25 12
      vertex -0.5 -25 32.5
      vertex -20 -25 37
    endloop
  endfacet
  facet normal 0 -1 0
    outer loop
      vertex 1 -25 35.5
      vertex 20 -25 37
      vertex -0.5 -25 35.5
    endloop
  endfacet
  facet normal 0 -1 0
    outer loop
      vertex 3.5 -25 35.5
      vertex 20 -25 37
      vertex 1 -25 35.5
    endloop
  endfacet
  facet normal 0 -1 0
    outer loop
      vertex 5 -25 35.5
      vertex 20 -25 37
      vertex 3.5 -25 35.5
    endloop
  endfacet
  facet normal 0 -1 0
    outer loop
      vertex 5 -25 32.5
      vertex 20 -25 37
      vertex 5 -25 35.5
    endloop
  endfacet
  facet normal 0 -1 0
    outer loop
      vertex 3.5 -25 32.5
      vertex 20 -25 12
      vertex 5 -25 32.5
    endloop
  endfacet
  facet normal 0 -1 0
    outer loop
      vertex 5 -25 32.5
      vertex 20 -25 12
      vertex 20 -25 37
    endloop
  endfacet
  facet normal 0.156422 0.98769 -0
    outer loop
      vertex 21.5451 24.7553 12
      vertex 20 25 37
      vertex 21.5451 24.7553 37
    endloop
  endfacet
  facet normal 0.156422 0.98769 0
    outer loop
      vertex 20 25 37
      vertex 21.5451 24.7553 12
      vertex 20 25 12
    endloop
  endfacet
  facet normal 0 1 -0
    outer loop
      vertex 3.5 25 32.5
      vertex 1 25 35.5
      vertex 3.5 25 35.5
    endloop
  endfacet
  facet normal 0 1 0
    outer loop
      vertex 1 25 35.5
      vertex 3.5 25 32.5
      vertex 1 25 32.5
    endloop
  endfacet
  facet normal 0 1 0
    outer loop
      vertex 3.5 25 35.5
      vertex 20 25 37
      vertex 5 25 35.5
    endloop
  endfacet
  facet normal 0 1 0
    outer loop
      vertex 20 25 37
      vertex 5 25 32.5
      vertex 5 25 35.5
    endloop
  endfacet
  facet normal 0 1 0
    outer loop
      vertex 20 25 12
      vertex 3.5 25 32.5
      vertex 5 25 32.5
    endloop
  endfacet
  facet normal 0 1 0
    outer loop
      vertex 3.5 25 32.5
      vertex 20 25 12
      vertex 1 25 32.5
    endloop
  endfacet
  facet normal 0 1 0
    outer loop
      vertex 1 25 32.5
      vertex 20 25 12
      vertex -0.5 25 32.5
    endloop
  endfacet
  facet normal 0 1 -0
    outer loop
      vertex 20 25 12
      vertex 5 25 32.5
      vertex 20 25 37
    endloop
  endfacet
  facet normal 0 1 0
    outer loop
      vertex 1 25 35.5
      vertex 20 25 37
      vertex 3.5 25 35.5
    endloop
  endfacet
  facet normal 0 1 0
    outer loop
      vertex 20 25 37
      vertex 1 25 35.5
      vertex -20 25 37
    endloop
  endfacet
  facet normal 0 1 -0
    outer loop
      vertex -0.5 25 35.5
      vertex -20 25 37
      vertex 1 25 35.5
    endloop
  endfacet
  facet normal 0 1 -0
    outer loop
      vertex -0.5 25 32.5
      vertex -20 25 37
      vertex -0.5 25 35.5
    endloop
  endfacet
  facet normal 0 1 0
    outer loop
      vertex -20 25 12
      vertex -0.5 25 32.5
      vertex 20 25 12
    endloop
  endfacet
  facet normal 0 1 0
    outer loop
      vertex -0.5 25 32.5
      vertex -20 25 12
      vertex -20 25 37
    endloop
  endfacet
  facet normal 1 -0 0
    outer loop
      vertex 25 -20 37
      vertex 25 20 12
      vertex 25 20 37
    endloop
  endfacet
  facet normal 1 0 0
    outer loop
      vertex 25 20 12
      vertex 25 -20 37
      vertex 25 -20 12
    endloop
  endfacet
  facet normal -0.770512 0.637426 0
    outer loop
      vertex -24.2216 22.6791 12
      vertex -23.4227 23.6448 37
      vertex -23.4227 23.6448 12
    endloop
  endfacet
  facet normal -0.770512 0.637426 0
    outer loop
      vertex -23.4227 23.6448 37
      vertex -24.2216 22.6791 12
      vertex -24.2216 22.6791 37
    endloop
  endfacet
  facet normal -0.587816 0.808995 0
    outer loop
      vertex -22.4088 24.3815 12
      vertex -23.4227 23.6448 37
      vertex -22.4088 24.3815 37
    endloop
  endfacet
  facet normal -0.587816 0.808995 0
    outer loop
      vertex -23.4227 23.6448 37
      vertex -22.4088 24.3815 12
      vertex -23.4227 23.6448 12
    endloop
  endfacet
  facet normal -0.904802 0.425832 0
    outer loop
      vertex -24.7553 21.5451 12
      vertex -24.2216 22.6791 37
      vertex -24.2216 22.6791 12
    endloop
  endfacet
  facet normal -0.904802 0.425832 0
    outer loop
      vertex -24.2216 22.6791 37
      vertex -24.7553 21.5451 12
      vertex -24.7553 21.5451 37
    endloop
  endfacet
  facet normal 0 0 -1
    outer loop
      vertex 18.5 -21.25 12
      vertex 21.5 -18.75 12
      vertex 21.5 -21.25 12
    endloop
  endfacet
  facet normal -0 0 -1
    outer loop
      vertex 21.5 -18.75 12
      vertex 18.5 -21.25 12
      vertex 18.5 -18.75 12
    endloop
  endfacet
  facet normal 0 0 -1
    outer loop
      vertex 18.75 0 12
      vertex 25 20 12
      vertex 25 -20 12
    endloop
  endfacet
  facet normal 0 0 -1
    outer loop
      vertex 21.5 -21.25 12
      vertex 25 -20 12
      vertex 24.7553 -21.5451 12
    endloop
  endfacet
  facet normal 0 0 -1
    outer loop
      vertex 18.2787 3.73035 12
      vertex 25 20 12
      vertex 18.75 0 12
    endloop
  endfacet
  facet normal 0 0 -1
    outer loop
      vertex 21.5 -21.25 12
      vertex 24.7553 -21.5451 12
      vertex 24.2216 -22.6791 12
    endloop
  endfacet
  facet normal 0 0 -1
    outer loop
      vertex 16.8946 7.22631 12
      vertex 25 20 12
      vertex 18.2787 3.73035 12
    endloop
  endfacet
  facet normal 0 0 -1
    outer loop
      vertex 21.5 -22.75 12
      vertex 24.2216 -22.6791 12
      vertex 23.4227 -23.6448 12
    endloop
  endfacet
  facet normal 0 0 -1
    outer loop
      vertex 25 -20 12
      vertex 21.5 -17.25 12
      vertex 18.2787 -3.73035 12
    endloop
  endfacet
  facet normal 0 0 -1
    outer loop
      vertex 21.5 -22.75 12
      vertex 23.4227 -23.6448 12
      vertex 22.4088 -24.3815 12
    endloop
  endfacet
  facet normal 0 0 -1
    outer loop
      vertex 14.6845 10.2682 12
      vertex 25 20 12
      vertex 16.8946 7.22631 12
    endloop
  endfacet
  facet normal -0 0 -1
    outer loop
      vertex 24.2216 -22.6791 12
      vertex 21.5 -22.75 12
      vertex 21.5 -21.25 12
    endloop
  endfacet
  facet normal 0 0 -1
    outer loop
      vertex 21.2435 -24.8429 12
      vertex 21.5 -22.75 12
      vertex 22.4088 -24.3815 12
    endloop
  endfacet
  facet normal 0 0 -1
    outer loop
      vertex 20 -25 12
      vertex 21.5 -22.75 12
      vertex 21.2435 -24.8429 12
    endloop
  endfacet
  facet normal 0 0 -1
    outer loop
      vertex 20 -25 12
      vertex 18.5 -22.75 12
      vertex 21.5 -22.75 12
    endloop
  endfacet
  facet normal 0 0 -1
    outer loop
      vertex 8.38526 -14.2658 12
      vertex 18.5 -21.25 12
      vertex 18.5 -22.75 12
    endloop
  endfacet
  facet normal 0 0 -1
    outer loop
      vertex 18.5 -21.25 12
      vertex 8.38526 -14.2658 12
      vertex 18.5 -18.75 12
    endloop
  endfacet
  facet normal 0 -0 -1
    outer loop
      vertex 11.7874 -12.6649 12
      vertex 18.5 -18.75 12
      vertex 8.38526 -14.2658 12
    endloop
  endfacet
  facet normal 0 0 -1
    outer loop
      vertex 18.5 -17.25 12
      vertex 16.8946 -7.22631 12
      vertex 18.2787 -3.73035 12
    endloop
  endfacet
  facet normal 0 0 -1
    outer loop
      vertex 18.5 -17.25 12
      vertex 14.6845 -10.2682 12
      vertex 16.8946 -7.22631 12
    endloop
  endfacet
  facet normal 0 0 -1
    outer loop
      vertex 18.5 -17.25 12
      vertex 11.7874 -12.6649 12
      vertex 14.6845 -10.2682 12
    endloop
  endfacet
  facet normal 0 0 -1
    outer loop
      vertex 18.5 -18.75 12
      vertex 11.7874 -12.6649 12
      vertex 18.5 -17.25 12
    endloop
  endfacet
  facet normal 0 0 -1
    outer loop
      vertex 2.75 -15 12
      vertex 18.5 -22.75 12
      vertex 20 -25 12
    endloop
  endfacet
  facet normal 0 0 -1
    outer loop
      vertex 18.5 -22.75 12
      vertex 4.69186 -14.9704 12
      vertex 8.38526 -14.2658 12
    endloop
  endfacet
  facet normal 0 0 -1
    outer loop
      vertex 18.5 -22.75 12
      vertex 2.75 -15 12
      vertex 4.69186 -14.9704 12
    endloop
  endfacet
  facet normal 0 0 -1
    outer loop
      vertex -20 -25 12
      vertex 2.75 -15 12
      vertex 20 -25 12
    endloop
  endfacet
  facet normal 0 0 -1
    outer loop
      vertex -25 -20 12
      vertex -18.75 -15 12
      vertex -20 -25 12
    endloop
  endfacet
  facet normal -0 0 -1
    outer loop
      vertex 2.75 -15 12
      vertex -20 -25 12
      vertex -18.75 -15 12
    endloop
  endfacet
  facet normal -0 0 -1
    outer loop
      vertex 25 -20 12
      vertex 21.5 -21.25 12
      vertex 21.5 -18.75 12
    endloop
  endfacet
  facet normal 0 0 -1
    outer loop
      vertex 25 -20 12
      vertex 21.5 -18.75 12
      vertex 21.5 -17.25 12
    endloop
  endfacet
  facet normal 0 0 -1
    outer loop
      vertex 11.7874 12.6649 12
      vertex 25 20 12
      vertex 14.6845 10.2682 12
    endloop
  endfacet
  facet normal 0 -0 -1
    outer loop
      vertex 20 25 12
      vertex 25 20 12
      vertex 11.7874 12.6649 12
    endloop
  endfacet
  facet normal 0 0 -1
    outer loop
      vertex 24.8429 21.2435 12
      vertex 20 25 12
      vertex 24.3815 22.4088 12
    endloop
  endfacet
  facet normal 0 0 -1
    outer loop
      vertex 18.2787 -3.73035 12
      vertex 21.5 -17.25 12
      vertex 18.5 -17.25 12
    endloop
  endfacet
  facet normal 0 0 -1
    outer loop
      vertex 25 -20 12
      vertex 18.2787 -3.73035 12
      vertex 18.75 0 12
    endloop
  endfacet
  facet normal 0 0 -1
    outer loop
      vertex 24.3815 22.4088 12
      vertex 20 25 12
      vertex 23.6448 23.4227 12
    endloop
  endfacet
  facet normal 0 0 -1
    outer loop
      vertex 23.6448 23.4227 12
      vertex 20 25 12
      vertex 22.6791 24.2216 12
    endloop
  endfacet
  facet normal 0 0 -1
    outer loop
      vertex 22.6791 24.2216 12
      vertex 20 25 12
      vertex 21.5451 24.7553 12
    endloop
  endfacet
  facet normal 0 0 -1
    outer loop
      vertex 25 20 12
      vertex 20 25 12
      vertex 24.8429 21.2435 12
    endloop
  endfacet
  facet normal 0 0 -1
    outer loop
      vertex 8.38526 14.2658 12
      vertex 20 25 12
      vertex 11.7874 12.6649 12
    endloop
  endfacet
  facet normal 0 0 -1
    outer loop
      vertex 4.69186 14.9704 12
      vertex 20 25 12
      vertex 8.38526 14.2658 12
    endloop
  endfacet
  facet normal 0 0 -1
    outer loop
      vertex 2.75 15 12
      vertex 4.69186 14.9704 12
      vertex 2.75 14.8482 12
    endloop
  endfacet
  facet normal 0 0 -1
    outer loop
      vertex 4.69186 14.9704 12
      vertex 2.75 15 12
      vertex 20 25 12
    endloop
  endfacet
  facet normal 0 0 -1
    outer loop
      vertex -20 25 12
      vertex 2.75 15 12
      vertex -18.75 15 12
    endloop
  endfacet
  facet normal 0 0 -1
    outer loop
      vertex 2.75 15 12
      vertex -20 25 12
      vertex 20 25 12
    endloop
  endfacet
  facet normal -0 0 -1
    outer loop
      vertex -18.75 -15 12
      vertex -25 -20 12
      vertex -18.75 15 12
    endloop
  endfacet
  facet normal 0 0 -1
    outer loop
      vertex -18.75 15 12
      vertex -25 20 12
      vertex -20 25 12
    endloop
  endfacet
  facet normal 0 0 -1
    outer loop
      vertex -25 -20 12
      vertex -20 -25 12
      vertex -21.5451 -24.7553 12
    endloop
  endfacet
  facet normal -0 0 -1
    outer loop
      vertex -18.75 15 12
      vertex -25 -20 12
      vertex -25 20 12
    endloop
  endfacet
  facet normal 0 0 -1
    outer loop
      vertex -25 -20 12
      vertex -21.5451 -24.7553 12
      vertex -22.6791 -24.2216 12
    endloop
  endfacet
  facet normal 0 0 -1
    outer loop
      vertex -20 25 12
      vertex -25 20 12
      vertex -21.2435 24.8429 12
    endloop
  endfacet
  facet normal 0 0 -1
    outer loop
      vertex -25 -20 12
      vertex -22.6791 -24.2216 12
      vertex -23.6448 -23.4227 12
    endloop
  endfacet
  facet normal 0 0 -1
    outer loop
      vertex -21.2435 24.8429 12
      vertex -25 20 12
      vertex -22.4088 24.3815 12
    endloop
  endfacet
  facet normal 0 0 -1
    outer loop
      vertex -25 -20 12
      vertex -23.6448 -23.4227 12
      vertex -24.3815 -22.4088 12
    endloop
  endfacet
  facet normal 0 0 -1
    outer loop
      vertex -22.4088 24.3815 12
      vertex -25 20 12
      vertex -23.4227 23.6448 12
    endloop
  endfacet
  facet normal 0 0 -1
    outer loop
      vertex -25 -20 12
      vertex -24.3815 -22.4088 12
      vertex -24.8429 -21.2435 12
    endloop
  endfacet
  facet normal 0 0 -1
    outer loop
      vertex -23.4227 23.6448 12
      vertex -25 20 12
      vertex -24.2216 22.6791 12
    endloop
  endfacet
  facet normal 0 0 -1
    outer loop
      vertex -24.2216 22.6791 12
      vertex -25 20 12
      vertex -24.7553 21.5451 12
    endloop
  endfacet
  facet normal -0 0 -1
    outer loop
      vertex 4.69186 -14.9704 12
      vertex 2.75 -15 12
      vertex 2.75 -14.8482 12
    endloop
  endfacet
  facet normal -0.637426 -0.770512 0
    outer loop
      vertex -23.6448 -23.4227 12
      vertex -22.6791 -24.2216 37
      vertex -23.6448 -23.4227 37
    endloop
  endfacet
  facet normal -0.637426 -0.770512 -0
    outer loop
      vertex -22.6791 -24.2216 37
      vertex -23.6448 -23.4227 12
      vertex -22.6791 -24.2216 12
    endloop
  endfacet
  facet normal -0.156422 -0.98769 0
    outer loop
      vertex -21.5451 -24.7553 12
      vertex -20 -25 37
      vertex -21.5451 -24.7553 37
    endloop
  endfacet
  facet normal -0.156422 -0.98769 -0
    outer loop
      vertex -20 -25 37
      vertex -21.5451 -24.7553 12
      vertex -20 -25 12
    endloop
  endfacet
  facet normal 0.125341 -0.992114 0
    outer loop
      vertex 20 -25 12
      vertex 21.2435 -24.8429 37
      vertex 20 -25 37
    endloop
  endfacet
  facet normal 0.125341 -0.992114 0
    outer loop
      vertex 21.2435 -24.8429 37
      vertex 20 -25 12
      vertex 21.2435 -24.8429 12
    endloop
  endfacet
  facet normal 0.425832 0.904802 -0
    outer loop
      vertex 22.6791 24.2216 12
      vertex 21.5451 24.7553 37
      vertex 22.6791 24.2216 37
    endloop
  endfacet
  facet normal 0.425832 0.904802 0
    outer loop
      vertex 21.5451 24.7553 37
      vertex 22.6791 24.2216 12
      vertex 21.5451 24.7553 12
    endloop
  endfacet
  facet normal 0.637426 0.770512 -0
    outer loop
      vertex 23.6448 23.4227 12
      vertex 22.6791 24.2216 37
      vertex 23.6448 23.4227 37
    endloop
  endfacet
  facet normal 0.637426 0.770512 0
    outer loop
      vertex 22.6791 24.2216 37
      vertex 23.6448 23.4227 12
      vertex 22.6791 24.2216 12
    endloop
  endfacet
  facet normal -0.125341 0.992114 0
    outer loop
      vertex -20 25 12
      vertex -21.2435 24.8429 37
      vertex -20 25 37
    endloop
  endfacet
  facet normal -0.125341 0.992114 0
    outer loop
      vertex -21.2435 24.8429 37
      vertex -20 25 12
      vertex -21.2435 24.8429 12
    endloop
  endfacet
  facet normal 0.92977 0.368142 0
    outer loop
      vertex 24.8429 21.2435 37
      vertex 24.3815 22.4088 12
      vertex 24.3815 22.4088 37
    endloop
  endfacet
  facet normal 0.92977 0.368142 0
    outer loop
      vertex 24.3815 22.4088 12
      vertex 24.8429 21.2435 37
      vertex 24.8429 21.2435 12
    endloop
  endfacet
  facet normal 0.98769 -0.156422 0
    outer loop
      vertex 24.7553 -21.5451 37
      vertex 25 -20 12
      vertex 25 -20 37
    endloop
  endfacet
  facet normal 0.98769 -0.156422 0
    outer loop
      vertex 25 -20 12
      vertex 24.7553 -21.5451 37
      vertex 24.7553 -21.5451 12
    endloop
  endfacet
  facet normal 0.770512 -0.637426 0
    outer loop
      vertex 23.4227 -23.6448 37
      vertex 24.2216 -22.6791 12
      vertex 24.2216 -22.6791 37
    endloop
  endfacet
  facet normal 0.770512 -0.637426 0
    outer loop
      vertex 24.2216 -22.6791 12
      vertex 23.4227 -23.6448 37
      vertex 23.4227 -23.6448 12
    endloop
  endfacet
  facet normal -0.808995 -0.587816 0
    outer loop
      vertex -23.6448 -23.4227 12
      vertex -24.3815 -22.4088 37
      vertex -24.3815 -22.4088 12
    endloop
  endfacet
  facet normal -0.808995 -0.587816 0
    outer loop
      vertex -24.3815 -22.4088 37
      vertex -23.6448 -23.4227 12
      vertex -23.6448 -23.4227 37
    endloop
  endfacet
  facet normal -0.992114 -0.125341 0
    outer loop
      vertex -24.8429 -21.2435 12
      vertex -25 -20 37
      vertex -25 -20 12
    endloop
  endfacet
  facet normal -0.992114 -0.125341 0
    outer loop
      vertex -25 -20 37
      vertex -24.8429 -21.2435 12
      vertex -24.8429 -21.2435 37
    endloop
  endfacet
  facet normal -0.92977 -0.368142 0
    outer loop
      vertex -24.3815 -22.4088 12
      vertex -24.8429 -21.2435 37
      vertex -24.8429 -21.2435 12
    endloop
  endfacet
  facet normal -0.92977 -0.368142 0
    outer loop
      vertex -24.8429 -21.2435 37
      vertex -24.3815 -22.4088 12
      vertex -24.3815 -22.4088 37
    endloop
  endfacet
  facet normal -0.425832 -0.904802 0
    outer loop
      vertex -22.6791 -24.2216 12
      vertex -21.5451 -24.7553 37
      vertex -22.6791 -24.2216 37
    endloop
  endfacet
  facet normal -0.425832 -0.904802 -0
    outer loop
      vertex -21.5451 -24.7553 37
      vertex -22.6791 -24.2216 12
      vertex -21.5451 -24.7553 12
    endloop
  endfacet
  facet normal 0.992114 0.125341 0
    outer loop
      vertex 25 20 37
      vertex 24.8429 21.2435 12
      vertex 24.8429 21.2435 37
    endloop
  endfacet
  facet normal 0.992114 0.125341 0
    outer loop
      vertex 24.8429 21.2435 12
      vertex 25 20 37
      vertex 25 20 12
    endloop
  endfacet
  facet normal 0.904802 -0.425832 0
    outer loop
      vertex 24.2216 -22.6791 37
      vertex 24.7553 -21.5451 12
      vertex 24.7553 -21.5451 37
    endloop
  endfacet
  facet normal 0.904802 -0.425832 0
    outer loop
      vertex 24.7553 -21.5451 12
      vertex 24.2216 -22.6791 37
      vertex 24.2216 -22.6791 12
    endloop
  endfacet
endsolid OpenSCAD_Model
